%
M48
M72
T01C0.0197
T02C0.0236
T03C0.0315
T04C0.0400
T05C0.1260
%
T01
X8838Y8877
T02
X7893Y9350
X7185Y8996
X6515Y9232
X7185Y7736
X8838Y7657
X8799Y6673
X8799Y5610
X8563Y4704
X10885Y6358
X11318Y7657
X10531Y8956
X10925Y9507
X11751Y9626
X10334Y11437
X10492Y12106
X11122Y13799
X11161Y14507
X11397Y15177
X12657Y17027
X13248Y17027
X13523Y15767
X14271Y14940
X13366Y13996
X13523Y13405
X15925Y13326
X17027Y12381
X18444Y13877
X18484Y14547
X18405Y15255
X19783Y13523
X20649Y12972
X21515Y11988
X20807Y10374
X21751Y9586
X20177Y8011
X20334Y5295
X19586Y5334
X19114Y4311
X19114Y3681
X19311Y2933
X17185Y1830
X15964Y2500
X15807Y3444
X15728Y4704
X14547Y4940
X13484Y4744
X13129Y6082
X14468Y9114
X9074Y14547
X9626Y14901
X10728Y17972
X11594Y17893
X12696Y19350
X13523Y19429
X14665Y20255
X15334Y19822
X15019Y19153
X15059Y18326
X14232Y18090
X15098Y16555
X15925Y15649
X17460Y18169
X17696Y18917
X19035Y18208
X19035Y17657
X20492Y16161
X21003Y16161
X21358Y17263
X21791Y15137
X21240Y14547
X23759Y13090
X23759Y11555
X14547Y1594
X12342Y1122
X11279Y2736
X4035Y8326
X7027Y11515
X5925Y14980
X6003Y18996
X8877Y19114
X9980Y19192
X10531Y21043
X14114Y23011
X14980Y22500
X14626Y21830
T03
X16791Y21169
X16791Y20381
X16791Y19594
X16791Y18807
X16791Y18019
X16791Y17232
X16791Y16444
X16791Y15657
X16791Y14870
X16791Y14082
X8129Y14082
X8129Y14870
X8129Y15657
X8129Y16444
X8129Y17232
X8129Y18019
X8129Y18807
X8129Y19594
X8129Y20381
X8129Y21169
T04
X3220Y12996
X3220Y11996
X3220Y10996
X2220Y10996
X2220Y11996
X2220Y12996
X14547Y7330
X14547Y6330
X15547Y6330
X15547Y7330
X16547Y7330
X16547Y6330
X17547Y6330
X18547Y6330
X18547Y7330
X17547Y7330
T05
X4862Y6830
X4862Y17657
X20216Y17657
X20216Y6830
M30
