G75*
G70*
%OFA0B0*%
%FSLAX24Y24*%
%IPPOS*%
%LPD*%
%AMOC8*
5,1,8,0,0,1.08239X$1,22.5*
%
%ADD10C,0.0100*%
%ADD11C,0.0000*%
%ADD12C,0.0039*%
%ADD13C,0.0060*%
%ADD14R,0.0256X0.0197*%
%ADD15C,0.0040*%
%ADD16R,0.0571X0.0295*%
%ADD17R,0.0295X0.0571*%
%ADD18R,0.0551X0.0256*%
%ADD19C,0.0080*%
%ADD20R,0.0193X0.0500*%
%ADD21R,0.0374X0.0197*%
%ADD22C,0.0050*%
%ADD23C,0.0223*%
%ADD24R,0.0453X0.0157*%
%ADD25R,0.0453X0.0157*%
%ADD26R,0.0453X0.0158*%
%ADD27R,0.0157X0.0453*%
%ADD28R,0.0157X0.0453*%
%ADD29R,0.0158X0.0453*%
%ADD30R,0.0098X0.0531*%
%ADD31R,0.0118X0.0827*%
D10*
X003484Y005610D02*
X021397Y005610D01*
X021397Y008011D01*
X019035Y008011D01*
X018996Y016476D01*
X021397Y016476D01*
X021397Y018838D01*
X003484Y018799D01*
X003484Y016476D01*
X005846Y016476D01*
X005846Y007972D01*
X003484Y007972D01*
X003484Y005610D01*
X010960Y004063D02*
X010960Y003295D01*
X012771Y003295D01*
X012771Y004063D01*
X010960Y004063D01*
X011551Y003689D02*
X011964Y003964D01*
X011964Y003393D01*
X011551Y003689D01*
D11*
X004232Y006830D02*
X004234Y006880D01*
X004240Y006930D01*
X004250Y006979D01*
X004264Y007027D01*
X004281Y007074D01*
X004302Y007119D01*
X004327Y007163D01*
X004355Y007204D01*
X004387Y007243D01*
X004421Y007280D01*
X004458Y007314D01*
X004498Y007344D01*
X004540Y007371D01*
X004584Y007395D01*
X004630Y007416D01*
X004677Y007432D01*
X004725Y007445D01*
X004775Y007454D01*
X004824Y007459D01*
X004875Y007460D01*
X004925Y007457D01*
X004974Y007450D01*
X005023Y007439D01*
X005071Y007424D01*
X005117Y007406D01*
X005162Y007384D01*
X005205Y007358D01*
X005246Y007329D01*
X005285Y007297D01*
X005321Y007262D01*
X005353Y007224D01*
X005383Y007184D01*
X005410Y007141D01*
X005433Y007097D01*
X005452Y007051D01*
X005468Y007003D01*
X005480Y006954D01*
X005488Y006905D01*
X005492Y006855D01*
X005492Y006805D01*
X005488Y006755D01*
X005480Y006706D01*
X005468Y006657D01*
X005452Y006609D01*
X005433Y006563D01*
X005410Y006519D01*
X005383Y006476D01*
X005353Y006436D01*
X005321Y006398D01*
X005285Y006363D01*
X005246Y006331D01*
X005205Y006302D01*
X005162Y006276D01*
X005117Y006254D01*
X005071Y006236D01*
X005023Y006221D01*
X004974Y006210D01*
X004925Y006203D01*
X004875Y006200D01*
X004824Y006201D01*
X004775Y006206D01*
X004725Y006215D01*
X004677Y006228D01*
X004630Y006244D01*
X004584Y006265D01*
X004540Y006289D01*
X004498Y006316D01*
X004458Y006346D01*
X004421Y006380D01*
X004387Y006417D01*
X004355Y006456D01*
X004327Y006497D01*
X004302Y006541D01*
X004281Y006586D01*
X004264Y006633D01*
X004250Y006681D01*
X004240Y006730D01*
X004234Y006780D01*
X004232Y006830D01*
X004232Y017657D02*
X004234Y017707D01*
X004240Y017757D01*
X004250Y017806D01*
X004264Y017854D01*
X004281Y017901D01*
X004302Y017946D01*
X004327Y017990D01*
X004355Y018031D01*
X004387Y018070D01*
X004421Y018107D01*
X004458Y018141D01*
X004498Y018171D01*
X004540Y018198D01*
X004584Y018222D01*
X004630Y018243D01*
X004677Y018259D01*
X004725Y018272D01*
X004775Y018281D01*
X004824Y018286D01*
X004875Y018287D01*
X004925Y018284D01*
X004974Y018277D01*
X005023Y018266D01*
X005071Y018251D01*
X005117Y018233D01*
X005162Y018211D01*
X005205Y018185D01*
X005246Y018156D01*
X005285Y018124D01*
X005321Y018089D01*
X005353Y018051D01*
X005383Y018011D01*
X005410Y017968D01*
X005433Y017924D01*
X005452Y017878D01*
X005468Y017830D01*
X005480Y017781D01*
X005488Y017732D01*
X005492Y017682D01*
X005492Y017632D01*
X005488Y017582D01*
X005480Y017533D01*
X005468Y017484D01*
X005452Y017436D01*
X005433Y017390D01*
X005410Y017346D01*
X005383Y017303D01*
X005353Y017263D01*
X005321Y017225D01*
X005285Y017190D01*
X005246Y017158D01*
X005205Y017129D01*
X005162Y017103D01*
X005117Y017081D01*
X005071Y017063D01*
X005023Y017048D01*
X004974Y017037D01*
X004925Y017030D01*
X004875Y017027D01*
X004824Y017028D01*
X004775Y017033D01*
X004725Y017042D01*
X004677Y017055D01*
X004630Y017071D01*
X004584Y017092D01*
X004540Y017116D01*
X004498Y017143D01*
X004458Y017173D01*
X004421Y017207D01*
X004387Y017244D01*
X004355Y017283D01*
X004327Y017324D01*
X004302Y017368D01*
X004281Y017413D01*
X004264Y017460D01*
X004250Y017508D01*
X004240Y017557D01*
X004234Y017607D01*
X004232Y017657D01*
X019586Y017657D02*
X019588Y017707D01*
X019594Y017757D01*
X019604Y017806D01*
X019618Y017854D01*
X019635Y017901D01*
X019656Y017946D01*
X019681Y017990D01*
X019709Y018031D01*
X019741Y018070D01*
X019775Y018107D01*
X019812Y018141D01*
X019852Y018171D01*
X019894Y018198D01*
X019938Y018222D01*
X019984Y018243D01*
X020031Y018259D01*
X020079Y018272D01*
X020129Y018281D01*
X020178Y018286D01*
X020229Y018287D01*
X020279Y018284D01*
X020328Y018277D01*
X020377Y018266D01*
X020425Y018251D01*
X020471Y018233D01*
X020516Y018211D01*
X020559Y018185D01*
X020600Y018156D01*
X020639Y018124D01*
X020675Y018089D01*
X020707Y018051D01*
X020737Y018011D01*
X020764Y017968D01*
X020787Y017924D01*
X020806Y017878D01*
X020822Y017830D01*
X020834Y017781D01*
X020842Y017732D01*
X020846Y017682D01*
X020846Y017632D01*
X020842Y017582D01*
X020834Y017533D01*
X020822Y017484D01*
X020806Y017436D01*
X020787Y017390D01*
X020764Y017346D01*
X020737Y017303D01*
X020707Y017263D01*
X020675Y017225D01*
X020639Y017190D01*
X020600Y017158D01*
X020559Y017129D01*
X020516Y017103D01*
X020471Y017081D01*
X020425Y017063D01*
X020377Y017048D01*
X020328Y017037D01*
X020279Y017030D01*
X020229Y017027D01*
X020178Y017028D01*
X020129Y017033D01*
X020079Y017042D01*
X020031Y017055D01*
X019984Y017071D01*
X019938Y017092D01*
X019894Y017116D01*
X019852Y017143D01*
X019812Y017173D01*
X019775Y017207D01*
X019741Y017244D01*
X019709Y017283D01*
X019681Y017324D01*
X019656Y017368D01*
X019635Y017413D01*
X019618Y017460D01*
X019604Y017508D01*
X019594Y017557D01*
X019588Y017607D01*
X019586Y017657D01*
X019586Y006830D02*
X019588Y006880D01*
X019594Y006930D01*
X019604Y006979D01*
X019618Y007027D01*
X019635Y007074D01*
X019656Y007119D01*
X019681Y007163D01*
X019709Y007204D01*
X019741Y007243D01*
X019775Y007280D01*
X019812Y007314D01*
X019852Y007344D01*
X019894Y007371D01*
X019938Y007395D01*
X019984Y007416D01*
X020031Y007432D01*
X020079Y007445D01*
X020129Y007454D01*
X020178Y007459D01*
X020229Y007460D01*
X020279Y007457D01*
X020328Y007450D01*
X020377Y007439D01*
X020425Y007424D01*
X020471Y007406D01*
X020516Y007384D01*
X020559Y007358D01*
X020600Y007329D01*
X020639Y007297D01*
X020675Y007262D01*
X020707Y007224D01*
X020737Y007184D01*
X020764Y007141D01*
X020787Y007097D01*
X020806Y007051D01*
X020822Y007003D01*
X020834Y006954D01*
X020842Y006905D01*
X020846Y006855D01*
X020846Y006805D01*
X020842Y006755D01*
X020834Y006706D01*
X020822Y006657D01*
X020806Y006609D01*
X020787Y006563D01*
X020764Y006519D01*
X020737Y006476D01*
X020707Y006436D01*
X020675Y006398D01*
X020639Y006363D01*
X020600Y006331D01*
X020559Y006302D01*
X020516Y006276D01*
X020471Y006254D01*
X020425Y006236D01*
X020377Y006221D01*
X020328Y006210D01*
X020279Y006203D01*
X020229Y006200D01*
X020178Y006201D01*
X020129Y006206D01*
X020079Y006215D01*
X020031Y006228D01*
X019984Y006244D01*
X019938Y006265D01*
X019894Y006289D01*
X019852Y006316D01*
X019812Y006346D01*
X019775Y006380D01*
X019741Y006417D01*
X019709Y006456D01*
X019681Y006497D01*
X019656Y006541D01*
X019635Y006586D01*
X019618Y006633D01*
X019604Y006681D01*
X019594Y006730D01*
X019588Y006780D01*
X019586Y006830D01*
D12*
X000123Y012342D02*
X000138Y012942D01*
X000182Y013540D01*
X000255Y014135D01*
X000358Y014726D01*
X000489Y015311D01*
X000649Y015889D01*
X000837Y016458D01*
X001053Y017018D01*
X001296Y017566D01*
X001566Y018102D01*
X001861Y018624D01*
X002182Y019131D01*
X002528Y019621D01*
X002897Y020094D01*
X003288Y020548D01*
X003702Y020982D01*
X004136Y021396D01*
X004590Y021787D01*
X005063Y022156D01*
X005553Y022502D01*
X006060Y022823D01*
X006582Y023118D01*
X007118Y023388D01*
X007666Y023631D01*
X008226Y023847D01*
X008795Y024035D01*
X009373Y024195D01*
X009958Y024326D01*
X010549Y024429D01*
X011144Y024502D01*
X011742Y024546D01*
X012342Y024561D01*
X012942Y024546D01*
X013540Y024502D01*
X014135Y024429D01*
X014726Y024326D01*
X015311Y024195D01*
X015889Y024035D01*
X016458Y023847D01*
X017018Y023631D01*
X017566Y023388D01*
X018102Y023118D01*
X018624Y022823D01*
X019131Y022502D01*
X019621Y022156D01*
X020094Y021787D01*
X020548Y021396D01*
X020982Y020982D01*
X021396Y020548D01*
X021787Y020094D01*
X022156Y019621D01*
X022502Y019131D01*
X022823Y018624D01*
X023118Y018102D01*
X023388Y017566D01*
X023631Y017018D01*
X023847Y016458D01*
X024035Y015889D01*
X024195Y015311D01*
X024326Y014726D01*
X024429Y014135D01*
X024502Y013540D01*
X024546Y012942D01*
X024561Y012342D01*
X024546Y011742D01*
X024502Y011144D01*
X024429Y010549D01*
X024326Y009958D01*
X024195Y009373D01*
X024035Y008795D01*
X023847Y008226D01*
X023631Y007666D01*
X023388Y007118D01*
X023118Y006582D01*
X022823Y006060D01*
X022502Y005553D01*
X022156Y005063D01*
X021787Y004590D01*
X021396Y004136D01*
X020982Y003702D01*
X020548Y003288D01*
X020094Y002897D01*
X019621Y002528D01*
X019131Y002182D01*
X018624Y001861D01*
X018102Y001566D01*
X017566Y001296D01*
X017018Y001053D01*
X016458Y000837D01*
X015889Y000649D01*
X015311Y000489D01*
X014726Y000358D01*
X014135Y000255D01*
X013540Y000182D01*
X012942Y000138D01*
X012342Y000123D01*
X011742Y000138D01*
X011144Y000182D01*
X010549Y000255D01*
X009958Y000358D01*
X009373Y000489D01*
X008795Y000649D01*
X008226Y000837D01*
X007666Y001053D01*
X007118Y001296D01*
X006582Y001566D01*
X006060Y001861D01*
X005553Y002182D01*
X005063Y002528D01*
X004590Y002897D01*
X004136Y003288D01*
X003702Y003702D01*
X003288Y004136D01*
X002897Y004590D01*
X002528Y005063D01*
X002182Y005553D01*
X001861Y006060D01*
X001566Y006582D01*
X001296Y007118D01*
X001053Y007666D01*
X000837Y008226D01*
X000649Y008795D01*
X000489Y009373D01*
X000358Y009958D01*
X000255Y010549D01*
X000182Y011144D01*
X000138Y011742D01*
X000123Y012342D01*
D13*
X014216Y004630D02*
X014216Y003511D01*
X014216Y003548D01*
X014216Y003511D02*
X014854Y003511D01*
X014854Y003548D01*
X014854Y003511D02*
X014854Y004630D01*
X014854Y004593D01*
X014854Y004630D02*
X014216Y004630D01*
X014216Y004593D01*
X014216Y004276D02*
X014216Y003865D01*
X014854Y003865D02*
X014854Y003902D01*
X014854Y004239D02*
X014854Y004276D01*
X018112Y004051D02*
X018112Y003728D01*
X018612Y003728D02*
X018612Y004051D01*
D14*
X014998Y004070D03*
X014998Y003696D03*
X014072Y003696D03*
X014072Y004444D03*
X014998Y004444D03*
D15*
X014999Y004699D02*
X014999Y005159D01*
X014923Y005159D02*
X015076Y005159D01*
X015076Y004699D02*
X014923Y004699D01*
X014769Y004775D02*
X014769Y005082D01*
X014692Y005159D01*
X014539Y005159D01*
X014462Y005082D01*
X014309Y005006D02*
X014155Y005159D01*
X014155Y004699D01*
X014002Y004699D02*
X014309Y004699D01*
X014462Y004775D02*
X014539Y004699D01*
X014692Y004699D01*
X014769Y004775D01*
X016094Y005102D02*
X016401Y005102D01*
X016248Y005102D02*
X016248Y005563D01*
X016401Y005409D01*
X016555Y005486D02*
X016631Y005563D01*
X016785Y005563D01*
X016861Y005486D01*
X016861Y005179D01*
X016785Y005102D01*
X016631Y005102D01*
X016555Y005179D01*
X016732Y004364D02*
X016732Y004074D01*
X016212Y004074D02*
X016212Y004374D01*
X017382Y003929D02*
X017382Y003776D01*
X017458Y003699D01*
X017382Y003545D02*
X017382Y003239D01*
X017382Y003392D02*
X017842Y003392D01*
X017689Y003239D01*
X017765Y003085D02*
X017612Y003085D01*
X017535Y003008D01*
X017535Y002778D01*
X017382Y002778D02*
X017842Y002778D01*
X017842Y003008D01*
X017765Y003085D01*
X017535Y002932D02*
X017382Y003085D01*
X017765Y003699D02*
X017842Y003776D01*
X017842Y003929D01*
X017765Y004006D01*
X017689Y004006D01*
X017612Y003929D01*
X017535Y004006D01*
X017458Y004006D01*
X017382Y003929D01*
X017612Y003929D02*
X017612Y003852D01*
X015077Y002419D02*
X015077Y002112D01*
X015001Y002035D01*
X014847Y002035D01*
X014771Y002112D01*
X014617Y002035D02*
X014310Y002342D01*
X014310Y002419D01*
X014387Y002496D01*
X014540Y002496D01*
X014617Y002419D01*
X014771Y002419D02*
X014847Y002496D01*
X015001Y002496D01*
X015077Y002419D01*
X014617Y002035D02*
X014310Y002035D01*
X014315Y002716D02*
X014015Y002716D01*
X014025Y003236D02*
X014315Y003236D01*
X010230Y007421D02*
X009940Y007421D01*
X009940Y007940D02*
X010240Y007940D01*
X010228Y008161D02*
X009921Y008161D01*
X009767Y008238D02*
X009767Y008315D01*
X009691Y008391D01*
X009537Y008391D01*
X009461Y008315D01*
X009461Y008238D01*
X009537Y008161D01*
X009691Y008161D01*
X009767Y008238D01*
X009691Y008391D02*
X009767Y008468D01*
X009767Y008545D01*
X009691Y008622D01*
X009537Y008622D01*
X009461Y008545D01*
X009461Y008468D01*
X009537Y008391D01*
X009921Y008468D02*
X009921Y008545D01*
X009998Y008622D01*
X010151Y008622D01*
X010228Y008545D01*
X010381Y008545D02*
X010458Y008622D01*
X010611Y008622D01*
X010688Y008545D01*
X010688Y008238D01*
X010611Y008161D01*
X010458Y008161D01*
X010381Y008238D01*
X010228Y008161D02*
X009921Y008468D01*
X008939Y009528D02*
X008862Y009451D01*
X008555Y009451D01*
X008478Y009528D01*
X008478Y009682D01*
X008555Y009758D01*
X008478Y009912D02*
X008785Y010219D01*
X008862Y010219D01*
X008939Y010142D01*
X008939Y009988D01*
X008862Y009912D01*
X008862Y009758D02*
X008939Y009682D01*
X008939Y009528D01*
X008478Y009912D02*
X008478Y010219D01*
X008555Y010372D02*
X008478Y010449D01*
X008478Y010602D01*
X008555Y010679D01*
X008708Y010679D01*
X008785Y010602D01*
X008785Y010526D01*
X008708Y010372D01*
X008939Y010372D01*
X008939Y010679D01*
X008074Y010348D02*
X008074Y010068D01*
X007739Y010068D02*
X007739Y010348D01*
X006664Y010344D02*
X006664Y010064D01*
X006329Y010064D02*
X006329Y010344D01*
X005954Y010484D02*
X005954Y010638D01*
X005878Y010714D01*
X005801Y010714D01*
X005724Y010638D01*
X005647Y010714D01*
X005571Y010714D01*
X005494Y010638D01*
X005494Y010484D01*
X005571Y010408D01*
X005494Y010254D02*
X005494Y009947D01*
X005801Y010254D01*
X005878Y010254D01*
X005954Y010177D01*
X005954Y010024D01*
X005878Y009947D01*
X005878Y009794D02*
X005954Y009717D01*
X005954Y009564D01*
X005878Y009487D01*
X005571Y009487D01*
X005494Y009564D01*
X005494Y009717D01*
X005571Y009794D01*
X005878Y010408D02*
X005954Y010484D01*
X005724Y010561D02*
X005724Y010638D01*
X005257Y008891D02*
X005104Y008891D01*
X005027Y008814D01*
X004873Y008814D02*
X004797Y008891D01*
X004643Y008891D01*
X004566Y008814D01*
X004566Y008737D01*
X004643Y008661D01*
X004797Y008661D01*
X004873Y008737D01*
X004873Y008814D01*
X004797Y008661D02*
X004873Y008584D01*
X004873Y008507D01*
X004797Y008431D01*
X004643Y008431D01*
X004566Y008507D01*
X004566Y008584D01*
X004643Y008661D01*
X005027Y008507D02*
X005104Y008431D01*
X005257Y008431D01*
X005334Y008507D01*
X005334Y008814D01*
X005257Y008891D01*
X005012Y008192D02*
X004722Y008192D01*
X004712Y007673D02*
X005012Y007673D01*
X008816Y005633D02*
X009106Y005633D01*
X009106Y005114D02*
X008806Y005114D01*
X008661Y004875D02*
X008661Y004798D01*
X008968Y004491D01*
X008968Y004415D01*
X009121Y004491D02*
X009198Y004415D01*
X009352Y004415D01*
X009428Y004491D01*
X009428Y004798D01*
X009352Y004875D01*
X009198Y004875D01*
X009121Y004798D01*
X008968Y004875D02*
X008661Y004875D01*
X015905Y008785D02*
X015981Y008709D01*
X016135Y008709D01*
X016212Y008785D01*
X015905Y009092D01*
X015905Y008785D01*
X016212Y008785D02*
X016212Y009092D01*
X016135Y009169D01*
X015981Y009169D01*
X015905Y009092D01*
X016365Y009092D02*
X016442Y009169D01*
X016595Y009169D01*
X016672Y009092D01*
X016825Y009092D02*
X016902Y009169D01*
X017056Y009169D01*
X017132Y009092D01*
X017132Y008785D01*
X017056Y008709D01*
X016902Y008709D01*
X016825Y008785D01*
X016672Y008709D02*
X016365Y009015D01*
X016365Y009092D01*
X016365Y008709D02*
X016672Y008709D01*
X016579Y008492D02*
X016289Y008492D01*
X016279Y007972D02*
X016579Y007972D01*
X015084Y019831D02*
X014701Y019831D01*
X014624Y019907D01*
X014624Y020061D01*
X014701Y020137D01*
X015084Y020137D01*
X015007Y020291D02*
X015084Y020368D01*
X015084Y020521D01*
X015007Y020598D01*
X015007Y020751D02*
X014931Y020751D01*
X014854Y020828D01*
X014854Y021058D01*
X015007Y021058D02*
X015084Y020981D01*
X015084Y020828D01*
X015007Y020751D01*
X014777Y020598D02*
X014854Y020521D01*
X014854Y020368D01*
X014931Y020291D01*
X015007Y020291D01*
X015161Y020444D02*
X014547Y020444D01*
X014624Y020368D02*
X014624Y020521D01*
X014701Y020598D01*
X014777Y020598D01*
X014701Y020751D02*
X014624Y020828D01*
X014624Y020981D01*
X014701Y021058D01*
X015007Y021058D01*
X014624Y020368D02*
X014701Y020291D01*
X009448Y020649D02*
X009448Y020939D01*
X008929Y020949D02*
X008929Y020649D01*
X009073Y021552D02*
X008996Y021628D01*
X008996Y021782D01*
X009073Y021859D01*
X008996Y022012D02*
X008996Y022319D01*
X008996Y022166D02*
X009456Y022166D01*
X009303Y022012D01*
X009380Y021859D02*
X009456Y021782D01*
X009456Y021628D01*
X009380Y021552D01*
X009073Y021552D01*
X008996Y022472D02*
X009303Y022779D01*
X009380Y022779D01*
X009456Y022703D01*
X009456Y022549D01*
X009380Y022472D01*
X008996Y022472D02*
X008996Y022779D01*
D16*
X009188Y021081D03*
X009188Y020511D03*
X016471Y004506D03*
X016472Y003936D03*
D17*
X014453Y002975D03*
X013883Y002975D03*
X009244Y005373D03*
X008674Y005373D03*
X009802Y007681D03*
X010372Y007681D03*
X005149Y007932D03*
X004579Y007932D03*
X016146Y008231D03*
X016716Y008231D03*
D18*
X018361Y004181D03*
X018361Y003601D03*
D19*
X014448Y012232D02*
X010984Y012232D01*
X010826Y012389D01*
X010826Y015854D01*
X010984Y016011D01*
X014448Y016011D01*
X014606Y015854D01*
X014606Y012389D01*
X014448Y012232D01*
X014279Y020563D02*
X010429Y020563D01*
X010429Y022059D01*
X014279Y022059D01*
X014279Y020563D01*
X014259Y020809D02*
X010448Y020809D01*
D20*
X010604Y020332D03*
X011104Y020332D03*
X011604Y020332D03*
X012104Y020332D03*
X012604Y020332D03*
X013104Y020332D03*
X013604Y020332D03*
X014104Y020332D03*
X014104Y022289D03*
X013604Y022289D03*
X013104Y022289D03*
X012604Y022289D03*
X012104Y022289D03*
X011604Y022289D03*
X011104Y022289D03*
X010604Y022289D03*
D21*
X007907Y010440D03*
X007907Y009980D03*
X006498Y009976D03*
X006497Y010436D03*
D22*
X011076Y011055D02*
X011134Y010997D01*
X011251Y010997D01*
X011309Y011055D01*
X011309Y011172D02*
X011193Y011230D01*
X011134Y011230D01*
X011076Y011172D01*
X011076Y011055D01*
X011309Y011172D02*
X011309Y011347D01*
X011076Y011347D01*
X011444Y011288D02*
X011503Y011347D01*
X011619Y011347D01*
X011678Y011288D01*
X011678Y011230D01*
X011619Y011172D01*
X011503Y011172D01*
X011444Y011113D01*
X011444Y011055D01*
X011503Y010997D01*
X011619Y010997D01*
X011678Y011055D01*
X011812Y011055D02*
X011812Y011347D01*
X012046Y011347D02*
X012046Y011055D01*
X011988Y010997D01*
X011871Y010997D01*
X011812Y011055D01*
X011561Y010938D02*
X011561Y011405D01*
X011666Y004654D02*
X011892Y004428D01*
X011591Y004428D01*
X011666Y004203D02*
X011666Y004654D01*
X012052Y004579D02*
X012052Y004278D01*
X012127Y004203D01*
X012352Y004203D01*
X012352Y004654D01*
X012127Y004654D01*
X012052Y004579D01*
D23*
X011141Y012547D03*
D24*
X010541Y012547D03*
X010541Y014122D03*
X010541Y015696D03*
X014891Y015696D03*
X014891Y014122D03*
X014891Y012547D03*
D25*
X014891Y012862D03*
X014891Y013177D03*
X014891Y015066D03*
X014891Y015381D03*
X010541Y015381D03*
X010541Y015066D03*
X010541Y013177D03*
X010541Y012862D03*
D26*
X010541Y013492D03*
X010541Y013807D03*
X010541Y014436D03*
X010541Y014751D03*
X014891Y014751D03*
X014891Y014436D03*
X014891Y013807D03*
X014891Y013492D03*
D27*
X014291Y011946D03*
X012716Y011946D03*
X011141Y011946D03*
X011141Y016297D03*
X012716Y016297D03*
X014291Y016297D03*
D28*
X013976Y016297D03*
X013661Y016297D03*
X011771Y016297D03*
X011456Y016297D03*
X011456Y011946D03*
X011771Y011946D03*
X013661Y011946D03*
X013976Y011946D03*
D29*
X013346Y011946D03*
X013031Y011946D03*
X012401Y011946D03*
X012086Y011946D03*
X012086Y016297D03*
X012401Y016297D03*
X013031Y016297D03*
X013346Y016297D03*
D30*
X012860Y003698D03*
X010872Y003698D03*
D31*
X011531Y003689D03*
M02*
