G75*
G70*
%OFA0B0*%
%FSLAX24Y24*%
%IPPOS*%
%LPD*%
%AMOC8*
5,1,8,0,0,1.08239X$1,22.5*
%
%ADD10C,0.0000*%
%ADD11C,0.0039*%
%ADD12R,0.0472X0.0217*%
%ADD13R,0.0640X0.0640*%
%ADD14OC8,0.0640*%
%ADD15R,0.0591X0.0512*%
%ADD16R,0.0512X0.0591*%
%ADD17C,0.0555*%
%ADD18R,0.0236X0.0551*%
%ADD19R,0.0394X0.0433*%
%ADD20R,0.0591X0.0197*%
%ADD21R,0.0197X0.0591*%
%ADD22R,0.0709X0.0669*%
%ADD23C,0.0160*%
%ADD24R,0.0436X0.0436*%
%ADD25C,0.0400*%
%ADD26C,0.0320*%
%ADD27C,0.0500*%
%ADD28C,0.0120*%
%ADD29C,0.0240*%
%ADD30C,0.0100*%
%ADD31C,0.0436*%
%ADD32OC8,0.0436*%
%ADD33C,0.0560*%
D10*
X004232Y006830D02*
X004234Y006880D01*
X004240Y006930D01*
X004250Y006979D01*
X004264Y007027D01*
X004281Y007074D01*
X004302Y007119D01*
X004327Y007163D01*
X004355Y007204D01*
X004387Y007243D01*
X004421Y007280D01*
X004458Y007314D01*
X004498Y007344D01*
X004540Y007371D01*
X004584Y007395D01*
X004630Y007416D01*
X004677Y007432D01*
X004725Y007445D01*
X004775Y007454D01*
X004824Y007459D01*
X004875Y007460D01*
X004925Y007457D01*
X004974Y007450D01*
X005023Y007439D01*
X005071Y007424D01*
X005117Y007406D01*
X005162Y007384D01*
X005205Y007358D01*
X005246Y007329D01*
X005285Y007297D01*
X005321Y007262D01*
X005353Y007224D01*
X005383Y007184D01*
X005410Y007141D01*
X005433Y007097D01*
X005452Y007051D01*
X005468Y007003D01*
X005480Y006954D01*
X005488Y006905D01*
X005492Y006855D01*
X005492Y006805D01*
X005488Y006755D01*
X005480Y006706D01*
X005468Y006657D01*
X005452Y006609D01*
X005433Y006563D01*
X005410Y006519D01*
X005383Y006476D01*
X005353Y006436D01*
X005321Y006398D01*
X005285Y006363D01*
X005246Y006331D01*
X005205Y006302D01*
X005162Y006276D01*
X005117Y006254D01*
X005071Y006236D01*
X005023Y006221D01*
X004974Y006210D01*
X004925Y006203D01*
X004875Y006200D01*
X004824Y006201D01*
X004775Y006206D01*
X004725Y006215D01*
X004677Y006228D01*
X004630Y006244D01*
X004584Y006265D01*
X004540Y006289D01*
X004498Y006316D01*
X004458Y006346D01*
X004421Y006380D01*
X004387Y006417D01*
X004355Y006456D01*
X004327Y006497D01*
X004302Y006541D01*
X004281Y006586D01*
X004264Y006633D01*
X004250Y006681D01*
X004240Y006730D01*
X004234Y006780D01*
X004232Y006830D01*
X004232Y017657D02*
X004234Y017707D01*
X004240Y017757D01*
X004250Y017806D01*
X004264Y017854D01*
X004281Y017901D01*
X004302Y017946D01*
X004327Y017990D01*
X004355Y018031D01*
X004387Y018070D01*
X004421Y018107D01*
X004458Y018141D01*
X004498Y018171D01*
X004540Y018198D01*
X004584Y018222D01*
X004630Y018243D01*
X004677Y018259D01*
X004725Y018272D01*
X004775Y018281D01*
X004824Y018286D01*
X004875Y018287D01*
X004925Y018284D01*
X004974Y018277D01*
X005023Y018266D01*
X005071Y018251D01*
X005117Y018233D01*
X005162Y018211D01*
X005205Y018185D01*
X005246Y018156D01*
X005285Y018124D01*
X005321Y018089D01*
X005353Y018051D01*
X005383Y018011D01*
X005410Y017968D01*
X005433Y017924D01*
X005452Y017878D01*
X005468Y017830D01*
X005480Y017781D01*
X005488Y017732D01*
X005492Y017682D01*
X005492Y017632D01*
X005488Y017582D01*
X005480Y017533D01*
X005468Y017484D01*
X005452Y017436D01*
X005433Y017390D01*
X005410Y017346D01*
X005383Y017303D01*
X005353Y017263D01*
X005321Y017225D01*
X005285Y017190D01*
X005246Y017158D01*
X005205Y017129D01*
X005162Y017103D01*
X005117Y017081D01*
X005071Y017063D01*
X005023Y017048D01*
X004974Y017037D01*
X004925Y017030D01*
X004875Y017027D01*
X004824Y017028D01*
X004775Y017033D01*
X004725Y017042D01*
X004677Y017055D01*
X004630Y017071D01*
X004584Y017092D01*
X004540Y017116D01*
X004498Y017143D01*
X004458Y017173D01*
X004421Y017207D01*
X004387Y017244D01*
X004355Y017283D01*
X004327Y017324D01*
X004302Y017368D01*
X004281Y017413D01*
X004264Y017460D01*
X004250Y017508D01*
X004240Y017557D01*
X004234Y017607D01*
X004232Y017657D01*
X019586Y017657D02*
X019588Y017707D01*
X019594Y017757D01*
X019604Y017806D01*
X019618Y017854D01*
X019635Y017901D01*
X019656Y017946D01*
X019681Y017990D01*
X019709Y018031D01*
X019741Y018070D01*
X019775Y018107D01*
X019812Y018141D01*
X019852Y018171D01*
X019894Y018198D01*
X019938Y018222D01*
X019984Y018243D01*
X020031Y018259D01*
X020079Y018272D01*
X020129Y018281D01*
X020178Y018286D01*
X020229Y018287D01*
X020279Y018284D01*
X020328Y018277D01*
X020377Y018266D01*
X020425Y018251D01*
X020471Y018233D01*
X020516Y018211D01*
X020559Y018185D01*
X020600Y018156D01*
X020639Y018124D01*
X020675Y018089D01*
X020707Y018051D01*
X020737Y018011D01*
X020764Y017968D01*
X020787Y017924D01*
X020806Y017878D01*
X020822Y017830D01*
X020834Y017781D01*
X020842Y017732D01*
X020846Y017682D01*
X020846Y017632D01*
X020842Y017582D01*
X020834Y017533D01*
X020822Y017484D01*
X020806Y017436D01*
X020787Y017390D01*
X020764Y017346D01*
X020737Y017303D01*
X020707Y017263D01*
X020675Y017225D01*
X020639Y017190D01*
X020600Y017158D01*
X020559Y017129D01*
X020516Y017103D01*
X020471Y017081D01*
X020425Y017063D01*
X020377Y017048D01*
X020328Y017037D01*
X020279Y017030D01*
X020229Y017027D01*
X020178Y017028D01*
X020129Y017033D01*
X020079Y017042D01*
X020031Y017055D01*
X019984Y017071D01*
X019938Y017092D01*
X019894Y017116D01*
X019852Y017143D01*
X019812Y017173D01*
X019775Y017207D01*
X019741Y017244D01*
X019709Y017283D01*
X019681Y017324D01*
X019656Y017368D01*
X019635Y017413D01*
X019618Y017460D01*
X019604Y017508D01*
X019594Y017557D01*
X019588Y017607D01*
X019586Y017657D01*
X019586Y006830D02*
X019588Y006880D01*
X019594Y006930D01*
X019604Y006979D01*
X019618Y007027D01*
X019635Y007074D01*
X019656Y007119D01*
X019681Y007163D01*
X019709Y007204D01*
X019741Y007243D01*
X019775Y007280D01*
X019812Y007314D01*
X019852Y007344D01*
X019894Y007371D01*
X019938Y007395D01*
X019984Y007416D01*
X020031Y007432D01*
X020079Y007445D01*
X020129Y007454D01*
X020178Y007459D01*
X020229Y007460D01*
X020279Y007457D01*
X020328Y007450D01*
X020377Y007439D01*
X020425Y007424D01*
X020471Y007406D01*
X020516Y007384D01*
X020559Y007358D01*
X020600Y007329D01*
X020639Y007297D01*
X020675Y007262D01*
X020707Y007224D01*
X020737Y007184D01*
X020764Y007141D01*
X020787Y007097D01*
X020806Y007051D01*
X020822Y007003D01*
X020834Y006954D01*
X020842Y006905D01*
X020846Y006855D01*
X020846Y006805D01*
X020842Y006755D01*
X020834Y006706D01*
X020822Y006657D01*
X020806Y006609D01*
X020787Y006563D01*
X020764Y006519D01*
X020737Y006476D01*
X020707Y006436D01*
X020675Y006398D01*
X020639Y006363D01*
X020600Y006331D01*
X020559Y006302D01*
X020516Y006276D01*
X020471Y006254D01*
X020425Y006236D01*
X020377Y006221D01*
X020328Y006210D01*
X020279Y006203D01*
X020229Y006200D01*
X020178Y006201D01*
X020129Y006206D01*
X020079Y006215D01*
X020031Y006228D01*
X019984Y006244D01*
X019938Y006265D01*
X019894Y006289D01*
X019852Y006316D01*
X019812Y006346D01*
X019775Y006380D01*
X019741Y006417D01*
X019709Y006456D01*
X019681Y006497D01*
X019656Y006541D01*
X019635Y006586D01*
X019618Y006633D01*
X019604Y006681D01*
X019594Y006730D01*
X019588Y006780D01*
X019586Y006830D01*
D11*
X000123Y012342D02*
X000138Y012942D01*
X000182Y013540D01*
X000255Y014135D01*
X000358Y014726D01*
X000489Y015311D01*
X000649Y015889D01*
X000837Y016458D01*
X001053Y017018D01*
X001296Y017566D01*
X001566Y018102D01*
X001861Y018624D01*
X002182Y019131D01*
X002528Y019621D01*
X002897Y020094D01*
X003288Y020548D01*
X003702Y020982D01*
X004136Y021396D01*
X004590Y021787D01*
X005063Y022156D01*
X005553Y022502D01*
X006060Y022823D01*
X006582Y023118D01*
X007118Y023388D01*
X007666Y023631D01*
X008226Y023847D01*
X008795Y024035D01*
X009373Y024195D01*
X009958Y024326D01*
X010549Y024429D01*
X011144Y024502D01*
X011742Y024546D01*
X012342Y024561D01*
X012942Y024546D01*
X013540Y024502D01*
X014135Y024429D01*
X014726Y024326D01*
X015311Y024195D01*
X015889Y024035D01*
X016458Y023847D01*
X017018Y023631D01*
X017566Y023388D01*
X018102Y023118D01*
X018624Y022823D01*
X019131Y022502D01*
X019621Y022156D01*
X020094Y021787D01*
X020548Y021396D01*
X020982Y020982D01*
X021396Y020548D01*
X021787Y020094D01*
X022156Y019621D01*
X022502Y019131D01*
X022823Y018624D01*
X023118Y018102D01*
X023388Y017566D01*
X023631Y017018D01*
X023847Y016458D01*
X024035Y015889D01*
X024195Y015311D01*
X024326Y014726D01*
X024429Y014135D01*
X024502Y013540D01*
X024546Y012942D01*
X024561Y012342D01*
X024546Y011742D01*
X024502Y011144D01*
X024429Y010549D01*
X024326Y009958D01*
X024195Y009373D01*
X024035Y008795D01*
X023847Y008226D01*
X023631Y007666D01*
X023388Y007118D01*
X023118Y006582D01*
X022823Y006060D01*
X022502Y005553D01*
X022156Y005063D01*
X021787Y004590D01*
X021396Y004136D01*
X020982Y003702D01*
X020548Y003288D01*
X020094Y002897D01*
X019621Y002528D01*
X019131Y002182D01*
X018624Y001861D01*
X018102Y001566D01*
X017566Y001296D01*
X017018Y001053D01*
X016458Y000837D01*
X015889Y000649D01*
X015311Y000489D01*
X014726Y000358D01*
X014135Y000255D01*
X013540Y000182D01*
X012942Y000138D01*
X012342Y000123D01*
X011742Y000138D01*
X011144Y000182D01*
X010549Y000255D01*
X009958Y000358D01*
X009373Y000489D01*
X008795Y000649D01*
X008226Y000837D01*
X007666Y001053D01*
X007118Y001296D01*
X006582Y001566D01*
X006060Y001861D01*
X005553Y002182D01*
X005063Y002528D01*
X004590Y002897D01*
X004136Y003288D01*
X003702Y003702D01*
X003288Y004136D01*
X002897Y004590D01*
X002528Y005063D01*
X002182Y005553D01*
X001861Y006060D01*
X001566Y006582D01*
X001296Y007118D01*
X001053Y007666D01*
X000837Y008226D01*
X000649Y008795D01*
X000489Y009373D01*
X000358Y009958D01*
X000255Y010549D01*
X000182Y011144D01*
X000138Y011742D01*
X000123Y012342D01*
D12*
X014023Y004444D03*
X014023Y003696D03*
X015047Y003696D03*
X015047Y004070D03*
X015047Y004444D03*
D13*
X003220Y010996D03*
D14*
X003220Y011996D03*
X003220Y012996D03*
X002220Y012996D03*
X002220Y011996D03*
X002220Y010996D03*
X014547Y007330D03*
X014547Y006330D03*
X015547Y006330D03*
X015547Y007330D03*
X016547Y007330D03*
X016547Y006330D03*
X017547Y006330D03*
X018547Y006330D03*
X018547Y007330D03*
X017547Y007330D03*
D15*
X016472Y004598D03*
X016472Y003850D03*
X018362Y003515D03*
X018362Y004263D03*
X009189Y020425D03*
X009189Y021173D03*
D16*
X016055Y008232D03*
X016803Y008232D03*
X014539Y002976D03*
X013791Y002976D03*
X009291Y005374D03*
X008622Y005374D03*
X009716Y007681D03*
X010464Y007681D03*
X005196Y007933D03*
X004527Y007933D03*
D17*
X008129Y014082D03*
X008129Y014870D03*
X008129Y015657D03*
X008129Y016444D03*
X008129Y017232D03*
X008129Y018019D03*
X008129Y018807D03*
X008129Y019594D03*
X008129Y020381D03*
X008129Y021169D03*
X016791Y021169D03*
X016791Y020381D03*
X016791Y019594D03*
X016791Y018807D03*
X016791Y018019D03*
X016791Y017232D03*
X016791Y016444D03*
X016791Y015657D03*
X016791Y014870D03*
X016791Y014082D03*
D18*
X014104Y020242D03*
X013604Y020242D03*
X013104Y020242D03*
X012604Y020242D03*
X012104Y020242D03*
X011604Y020242D03*
X011104Y020242D03*
X010604Y020242D03*
X010604Y022379D03*
X011104Y022379D03*
X011604Y022379D03*
X012104Y022379D03*
X012604Y022379D03*
X013104Y022379D03*
X013604Y022379D03*
X014104Y022379D03*
D19*
X007909Y010543D03*
X007909Y009874D03*
X006500Y009870D03*
X006500Y010539D03*
D20*
X010433Y012547D03*
X010433Y012862D03*
X010433Y013177D03*
X010433Y013492D03*
X010433Y013807D03*
X010433Y014122D03*
X010433Y014437D03*
X010433Y014751D03*
X010433Y015066D03*
X010433Y015381D03*
X010433Y015696D03*
X015000Y015696D03*
X015000Y015381D03*
X015000Y015066D03*
X015000Y014751D03*
X015000Y014437D03*
X015000Y014122D03*
X015000Y013807D03*
X015000Y013492D03*
X015000Y013177D03*
X015000Y012862D03*
X015000Y012547D03*
D21*
X014291Y011838D03*
X013976Y011838D03*
X013661Y011838D03*
X013346Y011838D03*
X013031Y011838D03*
X012716Y011838D03*
X012401Y011838D03*
X012086Y011838D03*
X011771Y011838D03*
X011456Y011838D03*
X011141Y011838D03*
X011141Y016405D03*
X011456Y016405D03*
X011771Y016405D03*
X012086Y016405D03*
X012401Y016405D03*
X012716Y016405D03*
X013031Y016405D03*
X013346Y016405D03*
X013661Y016405D03*
X013976Y016405D03*
X014291Y016405D03*
D22*
X012673Y003689D03*
X011059Y003689D03*
D23*
X013287Y004704D02*
X013484Y004744D01*
X013523Y004783D01*
X013523Y004744D01*
X013484Y004744D01*
X014035Y005413D02*
X013799Y005649D01*
X013799Y006200D01*
X013405Y006633D01*
X012342Y006633D01*
X011318Y007657D01*
X010531Y008956D02*
X010295Y008917D01*
X008838Y008838D01*
X007909Y009366D02*
X007893Y009350D01*
X007909Y009366D02*
X007909Y009874D01*
X006500Y009870D02*
X006500Y009248D01*
X006515Y009232D01*
X006500Y010539D02*
X006476Y010563D01*
X006476Y011870D01*
X006712Y012106D01*
X010492Y012106D01*
X010689Y012106D01*
X011043Y012460D01*
X012657Y012460D01*
X012696Y012421D01*
X012696Y010531D01*
X013996Y009114D01*
X014468Y009114D01*
X013956Y008720D02*
X020255Y008720D01*
X020964Y009665D01*
X021909Y010610D01*
X021909Y012933D01*
X020925Y013917D01*
X018484Y013917D01*
X018444Y013877D01*
X018484Y014547D02*
X021240Y014547D01*
X020649Y012972D02*
X020649Y011712D01*
X019940Y011003D01*
X013799Y011003D01*
X013661Y011141D01*
X013661Y011838D01*
X013976Y011838D02*
X013976Y011338D01*
X013996Y011318D01*
X019311Y011318D01*
X019901Y011909D01*
X019901Y013405D01*
X019783Y013523D01*
X018405Y015255D02*
X017814Y014901D01*
X017814Y012224D01*
X017421Y011830D01*
X015885Y011830D01*
X015444Y012547D01*
X015000Y012547D01*
X014291Y012283D02*
X014291Y011838D01*
X014291Y012283D02*
X014192Y012381D01*
X013169Y012381D01*
X012657Y012893D01*
X011909Y012893D01*
X011673Y013129D01*
X011673Y013996D01*
X011161Y014507D01*
X010807Y015059D02*
X010440Y015059D01*
X010433Y015066D01*
X010433Y015381D02*
X009814Y015381D01*
X009547Y015649D01*
X009547Y019389D01*
X009358Y019586D01*
X008129Y019594D01*
X008681Y019940D02*
X008161Y020381D01*
X008129Y020381D01*
X008681Y019940D02*
X010059Y019940D01*
X010452Y019547D01*
X010452Y018956D01*
X010295Y018641D01*
X010295Y016397D01*
X010964Y015846D01*
X010964Y015216D01*
X010807Y015059D01*
X010433Y014751D02*
X009736Y014751D01*
X009626Y014901D01*
X009074Y014547D02*
X009145Y014437D01*
X010433Y014437D01*
X010433Y014122D02*
X008129Y014122D01*
X008129Y014082D01*
X008129Y014870D02*
X008877Y015618D01*
X008877Y019114D01*
X009980Y019192D02*
X009980Y015846D01*
X010129Y015696D01*
X010433Y015696D01*
X011141Y016405D02*
X011141Y020204D01*
X011104Y020242D01*
X010604Y020242D02*
X010570Y020208D01*
X010570Y020059D01*
X010807Y019822D01*
X010807Y018366D01*
X010728Y018248D01*
X010728Y017972D01*
X011594Y017893D02*
X011604Y018139D01*
X011604Y020242D01*
X012104Y020242D02*
X012104Y020844D01*
X012460Y021200D01*
X014744Y021200D01*
X015964Y022303D01*
X017460Y022303D01*
X018169Y021594D01*
X018169Y020177D01*
X018956Y019389D01*
X021318Y018720D01*
X022185Y017814D01*
X022185Y017185D01*
X023051Y016122D01*
X023090Y008877D01*
X022578Y007263D01*
X022381Y006751D01*
X021515Y005767D01*
X021200Y004940D01*
X020885Y004429D01*
X019783Y004429D01*
X018444Y005767D01*
X016870Y005767D01*
X016547Y006090D01*
X016547Y006330D01*
X015925Y005452D02*
X015547Y005830D01*
X015547Y006330D01*
X015925Y005452D02*
X018208Y005452D01*
X018838Y004744D01*
X019114Y004311D01*
X018362Y004263D02*
X017822Y004263D01*
X016948Y005137D01*
X015216Y005137D01*
X014940Y005413D01*
X014035Y005413D01*
X014547Y004940D02*
X014547Y004232D01*
X014704Y004074D01*
X014547Y003917D01*
X014547Y002984D01*
X014539Y002976D01*
X015047Y003696D02*
X015555Y003696D01*
X015807Y003444D01*
X016110Y003850D02*
X016472Y003850D01*
X016110Y003850D02*
X015885Y004074D01*
X015051Y004074D01*
X015047Y004070D01*
X015043Y004074D01*
X014704Y004074D01*
X015047Y004444D02*
X015070Y004468D01*
X015807Y004468D01*
X015937Y004598D01*
X016472Y004598D01*
X014547Y001594D02*
X014074Y001122D01*
X012342Y001122D01*
X019586Y005334D02*
X019980Y004783D01*
X020689Y004783D01*
X020925Y005255D01*
X021200Y005964D01*
X021988Y006830D01*
X022696Y008838D01*
X022657Y015964D01*
X021830Y016791D01*
X021830Y017539D01*
X021003Y018366D01*
X018799Y018956D01*
X017736Y020019D01*
X017736Y021476D01*
X017263Y021948D01*
X016082Y021948D01*
X014980Y020846D01*
X013759Y020846D01*
X013604Y020690D01*
X013604Y020242D01*
X014104Y020242D02*
X014114Y020232D01*
X014114Y019074D01*
X013956Y018838D01*
X013090Y018838D01*
X011456Y017047D01*
X011456Y016405D01*
X011771Y016405D02*
X011771Y016850D01*
X013326Y018484D01*
X014232Y018484D01*
X014547Y018838D01*
X014547Y020177D01*
X014665Y020255D01*
X015019Y019153D02*
X015531Y019153D01*
X016003Y018641D01*
X016003Y016515D01*
X015145Y015696D01*
X015000Y015696D01*
X015000Y015381D02*
X015657Y015381D01*
X015925Y015649D01*
X016200Y015066D02*
X016791Y015657D01*
X016200Y015066D02*
X015000Y015066D01*
X015000Y014751D02*
X014500Y014751D01*
X014271Y014940D01*
X014114Y015570D02*
X013405Y014901D01*
X014192Y014114D01*
X014874Y014114D01*
X015000Y014122D01*
X015000Y014437D02*
X015720Y014437D01*
X016555Y013602D01*
X017145Y013602D01*
X017460Y013917D01*
X017460Y018169D01*
X015098Y016555D02*
X015098Y016515D01*
X014468Y015846D01*
X014114Y015570D01*
X013759Y015767D02*
X013956Y016003D01*
X013956Y016385D01*
X013976Y016405D01*
X013681Y016425D02*
X013661Y016405D01*
X013681Y016425D02*
X013681Y016791D01*
X013996Y017106D01*
X014232Y018090D01*
X013346Y017007D02*
X013248Y017027D01*
X013346Y017007D02*
X013346Y016405D01*
X013031Y016405D02*
X013031Y015275D01*
X013405Y014901D01*
X012736Y015098D02*
X012736Y015216D01*
X012716Y015236D01*
X012716Y016377D01*
X012716Y016405D01*
X012716Y016377D02*
X012696Y017027D01*
X013523Y015767D02*
X013759Y015767D01*
X012736Y015216D02*
X012696Y015177D01*
X011122Y013799D02*
X011114Y013807D01*
X010433Y013807D01*
X010598Y013799D02*
X011122Y013799D01*
X010433Y013492D02*
X003716Y013492D01*
X003220Y012996D01*
X003563Y012342D02*
X003566Y012342D01*
X003220Y011996D01*
X003563Y012342D02*
X004397Y013177D01*
X010433Y013177D01*
X010433Y012862D02*
X005460Y012862D01*
X003641Y011043D01*
X003267Y011043D01*
X003220Y010996D01*
X003838Y010019D02*
X001830Y010019D01*
X001279Y010570D01*
X001279Y011515D01*
X001712Y011948D01*
X002173Y011948D01*
X002220Y011996D01*
X003838Y010019D02*
X006366Y012547D01*
X010433Y012547D01*
X011771Y011838D02*
X011771Y009645D01*
X011751Y009626D01*
X012086Y010039D02*
X012342Y009783D01*
X012342Y009389D01*
X012106Y009153D01*
X011279Y009153D01*
X010925Y009507D01*
X012086Y010039D02*
X012086Y011838D01*
X012401Y011838D02*
X012401Y010354D01*
X013956Y008720D01*
X013326Y010374D02*
X020885Y010374D01*
X020255Y010689D02*
X021515Y011988D01*
X020255Y010689D02*
X013523Y010689D01*
X013346Y010866D01*
X013346Y011838D01*
X013031Y011838D02*
X013031Y010669D01*
X013326Y010374D01*
X012716Y011838D02*
X012696Y011858D01*
X012696Y012421D01*
X015000Y013807D02*
X015444Y013807D01*
X015925Y013326D01*
X016161Y013326D01*
X017027Y012381D01*
X013523Y019429D02*
X013563Y019507D01*
X013484Y019429D01*
X013104Y019809D01*
X013104Y020242D01*
X012604Y020242D02*
X012578Y020216D01*
X012578Y019468D01*
X012696Y019350D01*
X010604Y020242D02*
X010604Y020576D01*
X010413Y020767D01*
X010098Y020767D01*
X009783Y020452D01*
X009216Y020452D01*
X009189Y020425D01*
X009185Y021169D02*
X008129Y021169D01*
X013602Y022027D02*
X013602Y022377D01*
X013604Y022379D01*
X013602Y022027D02*
X013956Y021830D01*
X014626Y021830D01*
D24*
X014626Y021830D03*
X014980Y022500D03*
X014114Y023011D03*
X014665Y020255D03*
X015334Y019822D03*
X015019Y019153D03*
X015059Y018326D03*
X014232Y018090D03*
X013248Y017027D03*
X012696Y017027D03*
X011594Y017893D03*
X010728Y017972D03*
X009980Y019192D03*
X008877Y019114D03*
X010531Y021043D03*
X012696Y019350D03*
X013523Y019429D03*
X015098Y016555D03*
X015925Y015649D03*
X014271Y014940D03*
X013523Y015767D03*
X013366Y013996D03*
X013523Y013405D03*
X011397Y015177D03*
X011161Y014507D03*
X011122Y013799D03*
X010492Y012106D03*
X010334Y011437D03*
X010925Y009507D03*
X010531Y008956D03*
X011751Y009626D03*
X011318Y007657D03*
X013129Y006082D03*
X013484Y004744D03*
X014547Y004940D03*
X015728Y004704D03*
X015807Y003444D03*
X015964Y002500D03*
X017185Y001830D03*
X019114Y003681D03*
X019311Y002933D03*
X020334Y005295D03*
X020177Y008011D03*
X020984Y008818D03*
X021751Y009586D03*
X020885Y010374D03*
X019507Y009940D03*
X021515Y011988D03*
X020649Y012972D03*
X019783Y013523D03*
X018444Y013877D03*
X018484Y014547D03*
X018405Y015255D03*
X020492Y016161D03*
X021003Y016161D03*
X021358Y017263D03*
X021791Y015137D03*
X021240Y014547D03*
X023759Y013090D03*
X023759Y011555D03*
X019035Y017657D03*
X019035Y018208D03*
X017696Y018917D03*
X017460Y018169D03*
X015925Y013326D03*
X017027Y012381D03*
X015334Y009114D03*
X015255Y008169D03*
X014468Y009114D03*
X011358Y005255D03*
X010216Y004626D03*
X009271Y006200D03*
X008090Y005295D03*
X007814Y005767D03*
X007854Y004507D03*
X008366Y004507D03*
X007972Y007027D03*
X008838Y007657D03*
X007893Y009350D03*
X006515Y009232D03*
X007027Y011515D03*
X009074Y014547D03*
X009626Y014901D03*
X005925Y014980D03*
X006003Y018996D03*
X001476Y009350D03*
X001476Y008799D03*
X001988Y008799D03*
X002696Y006279D03*
X003405Y006279D03*
X003405Y005767D03*
X005767Y004429D03*
X014547Y001594D03*
D25*
X014547Y004940D02*
X014547Y004980D01*
X014547Y006330D02*
X014456Y006330D01*
X013799Y006988D01*
X013838Y008102D01*
X011885Y008232D02*
X011791Y008326D01*
X006200Y008326D01*
X005846Y008681D01*
X004153Y008681D01*
X003074Y007601D01*
X003405Y006279D02*
X003405Y005767D01*
X003838Y005767D01*
X003996Y005610D01*
X007814Y005610D01*
X008129Y005295D01*
X008051Y005295D01*
X007972Y005295D01*
X008051Y005295D02*
X008090Y005295D01*
X008169Y005374D01*
X008622Y005374D01*
X003956Y005374D01*
X003799Y005374D01*
X003405Y005767D01*
X008838Y007657D02*
X008838Y007696D01*
X011885Y008232D02*
X016055Y008232D01*
X017539Y007381D02*
X017539Y006240D01*
X020177Y008011D02*
X020984Y008818D01*
X021751Y009586D01*
X021791Y015137D02*
X021712Y015216D01*
X019980Y015216D01*
X018287Y016909D01*
X018287Y018602D01*
X017972Y018917D01*
X017696Y018917D01*
X014980Y022500D02*
X014980Y023681D01*
X014901Y023759D01*
X010374Y023759D01*
X009626Y023011D01*
X009626Y022224D01*
X009507Y022224D01*
X009980Y021751D01*
X010295Y020964D01*
X009507Y022224D02*
X006791Y022224D01*
X003602Y019035D01*
X003602Y018917D01*
X003681Y018996D01*
X006003Y018996D01*
X003602Y018917D02*
X003602Y014200D01*
X003720Y014082D01*
D26*
X005807Y014082D02*
X005925Y014200D01*
X005925Y014980D01*
X007027Y011515D02*
X007066Y011515D01*
X006791Y010610D02*
X006515Y010610D01*
X006791Y010610D02*
X007224Y010177D01*
X007224Y009035D01*
X007421Y008838D01*
X008838Y008838D01*
X010413Y008838D01*
X010531Y008956D01*
X010019Y008956D01*
X008444Y010531D01*
X007921Y010531D01*
X007909Y010543D01*
X008862Y007681D02*
X008838Y007657D01*
X009271Y006200D02*
X009271Y005393D01*
X009291Y005374D01*
X009291Y004881D01*
X008917Y004547D01*
X008405Y004547D01*
X008366Y004507D01*
X010464Y007681D02*
X011295Y007681D01*
X011318Y007657D01*
X013838Y008102D02*
X014929Y008102D01*
X015255Y008169D01*
X015334Y009114D02*
X019626Y009114D01*
X020885Y010374D01*
X021751Y009586D02*
X020984Y008818D01*
X019547Y009862D02*
X019507Y009940D01*
X019547Y009862D02*
X015059Y009862D01*
X014468Y009271D01*
X014468Y009114D01*
X016803Y008232D02*
X017511Y007641D01*
X017547Y007330D01*
X014023Y004444D02*
X013783Y004444D01*
X013484Y004744D01*
X013484Y003208D01*
X013677Y002976D01*
X013791Y002976D01*
X014539Y002976D02*
X015488Y002976D01*
X015964Y002500D01*
X015098Y016555D02*
X015059Y016594D01*
X015059Y018326D01*
X010531Y021043D02*
X010413Y021043D01*
X010295Y020964D01*
D27*
X008129Y014082D02*
X005807Y014082D01*
X003720Y014082D01*
X002586Y014082D01*
X002224Y013720D01*
X002224Y013000D01*
X002220Y012996D01*
X007066Y011515D02*
X007972Y011515D01*
X010255Y011515D01*
X010334Y011437D01*
X008917Y007027D02*
X007972Y007027D01*
X008917Y007027D02*
X009074Y006870D01*
X011043Y006870D01*
X011909Y006003D01*
X013051Y006003D01*
X013129Y006082D01*
X013287Y005925D01*
X013287Y004940D01*
X013484Y004744D01*
X017547Y007330D02*
X017507Y007507D01*
X018169Y008011D01*
X020177Y008011D01*
D28*
X015000Y014122D02*
X014200Y014122D01*
X013523Y013405D01*
X010334Y011437D02*
X010255Y011437D01*
X010177Y011515D01*
X009795Y020425D02*
X009189Y020425D01*
X009795Y020425D02*
X010295Y020964D01*
D29*
X014104Y022379D02*
X014114Y023011D01*
X019035Y018208D02*
X019035Y017657D01*
X020492Y016161D02*
X021003Y016161D01*
X021358Y016673D02*
X022263Y015531D01*
X022263Y009074D01*
X021515Y006909D01*
X020295Y005610D01*
X020295Y005216D01*
X020334Y005295D01*
X019114Y003681D02*
X018527Y003681D01*
X018362Y003515D01*
X017976Y003523D01*
X017775Y003523D01*
X016362Y001952D01*
X015807Y001791D01*
X015374Y001791D01*
X014980Y002145D01*
X013405Y002145D01*
X012665Y002728D01*
X012673Y003689D01*
X011059Y003689D02*
X011059Y004956D01*
X011358Y005255D01*
X010216Y004626D02*
X009626Y004626D01*
X009271Y004980D01*
X008799Y007618D02*
X008838Y007657D01*
X008862Y007681D02*
X009716Y007681D01*
X008799Y007618D02*
X005964Y007618D01*
X005649Y007933D01*
X005196Y007933D01*
X004527Y007933D02*
X003819Y007933D01*
X003420Y007534D01*
X002696Y006279D02*
X002696Y005570D01*
X003720Y004547D01*
X005649Y004547D01*
X005767Y004429D01*
X006476Y010563D02*
X006476Y010570D01*
X006515Y010610D01*
X007027Y011476D02*
X007972Y011515D01*
X011397Y015177D02*
X012539Y015177D01*
X012696Y015019D01*
X012696Y014783D01*
X013366Y014114D01*
X013366Y013996D01*
X012696Y015177D02*
X012539Y015177D01*
X020177Y008011D02*
X020984Y008818D01*
X021751Y009586D01*
X023759Y011555D02*
X023759Y013090D01*
X021358Y016673D02*
X021358Y017263D01*
X016366Y004704D02*
X015728Y004704D01*
X016366Y004704D02*
X016472Y004598D01*
X017381Y001751D02*
X018877Y002578D01*
X019311Y002933D01*
X017381Y001751D02*
X017185Y001830D01*
D30*
X010554Y004020D02*
X003949Y004020D01*
X004050Y003922D02*
X010554Y003922D01*
X010554Y003823D02*
X004152Y003823D01*
X004253Y003724D02*
X010554Y003724D01*
X010554Y003626D02*
X004354Y003626D01*
X004456Y003527D02*
X010554Y003527D01*
X010554Y003429D02*
X004557Y003429D01*
X004659Y003330D02*
X010554Y003330D01*
X010554Y003292D02*
X010642Y003204D01*
X011475Y003204D01*
X011563Y003292D01*
X011563Y004085D01*
X011475Y004173D01*
X011329Y004173D01*
X011329Y004844D01*
X011371Y004887D01*
X011638Y004887D01*
X011726Y004975D01*
X011726Y005536D01*
X011638Y005624D01*
X011078Y005624D01*
X010990Y005536D01*
X010990Y005269D01*
X010830Y005109D01*
X010789Y005010D01*
X010789Y004902D01*
X010789Y004173D01*
X010642Y004173D01*
X010554Y004085D01*
X010554Y003292D01*
X010614Y003232D02*
X004765Y003232D01*
X004744Y003248D02*
X003326Y004626D01*
X002185Y006200D01*
X000962Y008386D01*
X000834Y008830D01*
X000570Y010413D01*
X000452Y012539D01*
X000767Y014783D01*
X001122Y016358D01*
X002066Y018287D01*
X003051Y019744D01*
X004350Y021122D01*
X005925Y022342D01*
X007893Y023366D01*
X009586Y023956D01*
X011240Y024192D01*
X012696Y024232D01*
X014783Y024074D01*
X016791Y023444D01*
X018917Y022185D01*
X020177Y021240D01*
X021318Y020098D01*
X022500Y018366D01*
X023287Y016948D01*
X023799Y015334D01*
X024114Y013641D01*
X024192Y012303D01*
X024153Y010846D01*
X023838Y009311D01*
X023326Y007736D01*
X022618Y006437D01*
X022066Y005531D01*
X021279Y004507D01*
X021115Y004337D01*
X021115Y004364D01*
X021359Y004760D01*
X021381Y004770D01*
X021407Y004838D01*
X021446Y004901D01*
X021440Y004925D01*
X021715Y005646D01*
X022521Y006562D01*
X022562Y006580D01*
X022581Y006631D01*
X022617Y006671D01*
X022614Y006716D01*
X022762Y007099D01*
X022769Y007103D01*
X022795Y007188D01*
X022827Y007270D01*
X022824Y007277D01*
X023293Y008755D01*
X023321Y008783D01*
X023320Y008842D01*
X023338Y008899D01*
X023320Y008934D01*
X023281Y016111D01*
X023289Y016193D01*
X023280Y016204D01*
X023280Y016218D01*
X023221Y016276D01*
X022415Y017266D01*
X022415Y017812D01*
X022417Y017905D01*
X022415Y017907D01*
X022415Y017910D01*
X022349Y017975D01*
X021505Y018858D01*
X021473Y018915D01*
X021441Y018924D01*
X021419Y018948D01*
X021353Y018949D01*
X019076Y019594D01*
X018399Y020272D01*
X018399Y021499D01*
X018399Y021689D01*
X017690Y022398D01*
X017555Y022533D01*
X015970Y022533D01*
X015881Y022537D01*
X015876Y022533D01*
X015869Y022533D01*
X015806Y022469D01*
X014994Y021736D01*
X014994Y022110D01*
X014906Y022198D01*
X014372Y022198D01*
X014372Y022319D01*
X014373Y022321D01*
X014378Y022643D01*
X014394Y022643D01*
X014482Y022731D01*
X014482Y023292D01*
X014394Y023379D01*
X013833Y023379D01*
X013746Y023292D01*
X013746Y022805D01*
X013424Y022805D01*
X013354Y022735D01*
X013284Y022805D01*
X012924Y022805D01*
X012854Y022735D01*
X012784Y022805D01*
X012424Y022805D01*
X012354Y022735D01*
X012284Y022805D01*
X011924Y022805D01*
X011854Y022735D01*
X011784Y022805D01*
X011424Y022805D01*
X011354Y022735D01*
X011284Y022805D01*
X010924Y022805D01*
X010854Y022735D01*
X010784Y022805D01*
X010424Y022805D01*
X010336Y022717D01*
X010336Y022042D01*
X010424Y021954D01*
X010784Y021954D01*
X010854Y022024D01*
X010924Y021954D01*
X011284Y021954D01*
X011354Y022024D01*
X011424Y021954D01*
X011784Y021954D01*
X011854Y022024D01*
X011924Y021954D01*
X012284Y021954D01*
X012354Y022024D01*
X012424Y021954D01*
X012784Y021954D01*
X012854Y022024D01*
X012924Y021954D01*
X013284Y021954D01*
X013354Y022024D01*
X013368Y022010D01*
X013372Y021995D01*
X013372Y021932D01*
X013397Y021907D01*
X013407Y021872D01*
X013462Y021842D01*
X013507Y021797D01*
X013542Y021797D01*
X013816Y021645D01*
X013861Y021600D01*
X013897Y021600D01*
X013928Y021583D01*
X013988Y021600D01*
X014257Y021600D01*
X014257Y021550D01*
X014345Y021462D01*
X014690Y021462D01*
X014655Y021430D01*
X012365Y021430D01*
X012230Y021296D01*
X011874Y020939D01*
X011874Y020749D01*
X011874Y020617D01*
X011854Y020597D01*
X011784Y020667D01*
X011424Y020667D01*
X011354Y020597D01*
X011284Y020667D01*
X010924Y020667D01*
X010836Y020579D01*
X010836Y019904D01*
X010911Y019828D01*
X010911Y016781D01*
X010893Y016762D01*
X010893Y016203D01*
X010525Y016506D01*
X010525Y018587D01*
X010641Y018820D01*
X010682Y018861D01*
X010682Y018902D01*
X010701Y018939D01*
X010682Y018994D01*
X010682Y019642D01*
X010548Y019777D01*
X010547Y019777D01*
X010154Y020170D01*
X009963Y020170D01*
X008765Y020170D01*
X008557Y020347D01*
X008557Y020466D01*
X008492Y020624D01*
X008372Y020744D01*
X008296Y020775D01*
X008372Y020806D01*
X008492Y020927D01*
X008497Y020939D01*
X008743Y020939D01*
X008743Y020855D01*
X008831Y020767D01*
X009546Y020767D01*
X009634Y020855D01*
X009634Y021491D01*
X009546Y021579D01*
X008831Y021579D01*
X008743Y021491D01*
X008743Y021399D01*
X008497Y021399D01*
X008492Y021411D01*
X008372Y021531D01*
X008214Y021596D01*
X008044Y021596D01*
X007887Y021531D01*
X007767Y021411D01*
X007702Y021254D01*
X007702Y021084D01*
X007767Y020927D01*
X007887Y020806D01*
X007963Y020775D01*
X007887Y020744D01*
X007767Y020624D01*
X007702Y020466D01*
X007702Y020296D01*
X007767Y020139D01*
X007887Y020019D01*
X007963Y019988D01*
X007887Y019956D01*
X007767Y019836D01*
X007702Y019679D01*
X007702Y019509D01*
X007767Y019352D01*
X007887Y019232D01*
X007963Y019200D01*
X007887Y019169D01*
X007767Y019049D01*
X007702Y018892D01*
X007702Y018722D01*
X007767Y018564D01*
X007887Y018444D01*
X007963Y018413D01*
X007887Y018382D01*
X007767Y018261D01*
X007702Y018104D01*
X007702Y017934D01*
X007767Y017777D01*
X007887Y017657D01*
X007963Y017625D01*
X007887Y017594D01*
X007767Y017474D01*
X007702Y017317D01*
X007702Y017147D01*
X007767Y016990D01*
X007887Y016869D01*
X007963Y016838D01*
X007887Y016807D01*
X007767Y016687D01*
X007702Y016529D01*
X007702Y016359D01*
X007767Y016202D01*
X007887Y016082D01*
X007963Y016051D01*
X007887Y016019D01*
X007767Y015899D01*
X007702Y015742D01*
X007702Y015572D01*
X007767Y015415D01*
X007887Y015295D01*
X007963Y015263D01*
X007887Y015232D01*
X007767Y015112D01*
X007702Y014955D01*
X007702Y014785D01*
X007767Y014627D01*
X007887Y014507D01*
X008044Y014442D01*
X008214Y014442D01*
X008372Y014507D01*
X008492Y014627D01*
X008557Y014785D01*
X008557Y014955D01*
X008552Y014967D01*
X009107Y015522D01*
X009107Y015713D01*
X009107Y018746D01*
X009158Y018746D01*
X009246Y018833D01*
X009246Y019357D01*
X009259Y019357D01*
X009317Y019297D01*
X009317Y015554D01*
X009451Y015419D01*
X009601Y015269D01*
X009345Y015269D01*
X009257Y015181D01*
X009257Y014915D01*
X008794Y014915D01*
X008706Y014827D01*
X008706Y014266D01*
X008794Y014179D01*
X009355Y014179D01*
X009382Y014207D01*
X010057Y014207D01*
X010075Y014188D01*
X010790Y014188D01*
X010811Y014209D01*
X010853Y014167D01*
X010841Y014167D01*
X010753Y014079D01*
X010753Y014055D01*
X010075Y014055D01*
X009987Y013967D01*
X009987Y013722D01*
X003811Y013722D01*
X003621Y013722D01*
X003365Y013466D01*
X003025Y013466D01*
X002750Y013190D01*
X002750Y012801D01*
X003025Y012526D01*
X003415Y012526D01*
X003690Y012801D01*
X003690Y013140D01*
X003811Y013262D01*
X004157Y013262D01*
X003467Y012572D01*
X003361Y012466D01*
X003025Y012466D01*
X002750Y012190D01*
X002750Y011801D01*
X003025Y011526D01*
X003415Y011526D01*
X003690Y011801D01*
X003690Y012140D01*
X003796Y012247D01*
X003796Y012251D01*
X004492Y012947D01*
X005220Y012947D01*
X003670Y011397D01*
X003602Y011466D01*
X002838Y011466D01*
X002750Y011378D01*
X002750Y010613D01*
X002838Y010526D01*
X003602Y010526D01*
X003690Y010613D01*
X003690Y010813D01*
X003736Y010813D01*
X003871Y010948D01*
X005555Y012632D01*
X006125Y012632D01*
X003743Y010249D01*
X001925Y010249D01*
X001509Y010666D01*
X001509Y011420D01*
X001807Y011718D01*
X001833Y011718D01*
X002025Y011526D01*
X002415Y011526D01*
X002690Y011801D01*
X002690Y012190D01*
X002415Y012466D01*
X002025Y012466D01*
X001750Y012190D01*
X001750Y012178D01*
X001617Y012178D01*
X001482Y012044D01*
X001049Y011611D01*
X001049Y011420D01*
X001049Y010475D01*
X001184Y010340D01*
X001587Y009937D01*
X001494Y009937D01*
X001467Y009945D01*
X001409Y009937D01*
X001351Y009937D01*
X001325Y009927D01*
X001297Y009923D01*
X001247Y009894D01*
X001193Y009872D01*
X001173Y009852D01*
X001149Y009838D01*
X001113Y009792D01*
X001072Y009751D01*
X001061Y009725D01*
X001044Y009703D01*
X001029Y009647D01*
X001007Y009593D01*
X001007Y009565D01*
X000999Y009538D01*
X001007Y009480D01*
X001007Y009422D01*
X001007Y008766D01*
X001007Y008760D01*
X001004Y008753D01*
X001007Y008675D01*
X001007Y008595D01*
X001009Y008589D01*
X001009Y008582D01*
X001042Y008510D01*
X001072Y008437D01*
X001077Y008432D01*
X001079Y008426D01*
X001137Y008372D01*
X001348Y008161D01*
X001469Y008041D01*
X001504Y008026D01*
X002515Y007073D01*
X002571Y007017D01*
X002577Y007014D01*
X002582Y007010D01*
X002656Y006982D01*
X002729Y006951D01*
X002736Y006951D01*
X002742Y006949D01*
X002820Y006951D01*
X002896Y006951D01*
X002896Y005721D01*
X002962Y005563D01*
X003037Y005488D01*
X003037Y005487D01*
X003125Y005399D01*
X003126Y005399D01*
X003476Y005048D01*
X003544Y005021D01*
X003555Y005009D01*
X003713Y004944D01*
X007768Y004944D01*
X007793Y004944D01*
X007810Y004927D01*
X008370Y004927D01*
X008372Y004928D01*
X008940Y004928D01*
X009027Y005016D01*
X009027Y005731D01*
X008940Y005819D01*
X008304Y005819D01*
X008216Y005731D01*
X008216Y005724D01*
X008196Y005724D01*
X008183Y005737D01*
X008183Y006047D01*
X008095Y006135D01*
X007534Y006135D01*
X007446Y006047D01*
X007446Y005960D01*
X004141Y005960D01*
X004036Y006064D01*
X003908Y006117D01*
X003880Y006117D01*
X003913Y007439D01*
X003919Y007514D01*
X003915Y007524D01*
X003916Y007535D01*
X003889Y007605D01*
X003885Y007617D01*
X003930Y007663D01*
X004121Y007663D01*
X004121Y007575D01*
X004209Y007487D01*
X004416Y007487D01*
X004201Y007272D01*
X003909Y007272D01*
X003907Y007174D02*
X004160Y007174D01*
X004201Y007272D02*
X004082Y006985D01*
X004082Y006675D01*
X004201Y006388D01*
X004420Y006169D01*
X004707Y006050D01*
X005017Y006050D01*
X005304Y006169D01*
X005523Y006388D01*
X005642Y006675D01*
X005642Y006985D01*
X005523Y007272D01*
X005304Y007491D01*
X005017Y007610D01*
X004933Y007610D01*
X004933Y008290D01*
X004892Y008331D01*
X005701Y008331D01*
X006002Y008030D01*
X006131Y007976D01*
X006270Y007976D01*
X010058Y007976D01*
X010058Y007323D01*
X010112Y007270D01*
X009240Y007270D01*
X009143Y007366D01*
X008996Y007427D01*
X008837Y007427D01*
X007892Y007427D01*
X007815Y007395D01*
X007692Y007395D01*
X007604Y007307D01*
X007604Y007184D01*
X007572Y007107D01*
X007572Y006947D01*
X007604Y006871D01*
X007604Y006747D01*
X007692Y006659D01*
X007815Y006659D01*
X007892Y006627D01*
X008751Y006627D01*
X008848Y006531D01*
X008995Y006470D01*
X010877Y006470D01*
X011570Y005777D01*
X011682Y005664D01*
X011829Y005603D01*
X012887Y005603D01*
X012887Y005020D01*
X012887Y004861D01*
X012948Y004714D01*
X013076Y004586D01*
X013080Y004566D01*
X013116Y004542D01*
X013116Y004463D01*
X013174Y004405D01*
X013174Y004089D01*
X013089Y004173D01*
X012256Y004173D01*
X012168Y004085D01*
X012168Y003292D01*
X012256Y003204D01*
X012399Y003204D01*
X012395Y002766D01*
X012390Y002749D01*
X012395Y002713D01*
X012394Y002676D01*
X012401Y002660D01*
X012403Y002643D01*
X012421Y002611D01*
X012435Y002577D01*
X012447Y002564D01*
X012456Y002549D01*
X012484Y002526D01*
X012510Y002500D01*
X012526Y002493D01*
X013225Y001943D01*
X013252Y001916D01*
X013267Y001910D01*
X013280Y001900D01*
X013316Y001890D01*
X013351Y001875D01*
X013368Y001875D01*
X013384Y001871D01*
X013421Y001875D01*
X014876Y001875D01*
X015188Y001595D01*
X015221Y001562D01*
X015227Y001559D01*
X015233Y001554D01*
X015277Y001539D01*
X015320Y001521D01*
X015327Y001521D01*
X015334Y001518D01*
X015381Y001521D01*
X015792Y001521D01*
X015830Y001517D01*
X015845Y001521D01*
X015860Y001521D01*
X015896Y001536D01*
X016407Y001684D01*
X016430Y001685D01*
X016458Y001699D01*
X016489Y001708D01*
X016506Y001722D01*
X016526Y001732D01*
X016548Y001755D01*
X016572Y001775D01*
X016583Y001795D01*
X016816Y002054D01*
X016816Y001550D01*
X016904Y001462D01*
X017195Y001462D01*
X016161Y001043D01*
X014744Y000610D01*
X013444Y000452D01*
X012224Y000413D01*
X011594Y000413D01*
X009381Y000675D01*
X009142Y000744D01*
X007539Y001437D01*
X006279Y002106D01*
X004744Y003248D01*
X004897Y003133D02*
X012398Y003133D01*
X012397Y003035D02*
X005030Y003035D01*
X005162Y002936D02*
X012397Y002936D01*
X012396Y002838D02*
X005295Y002838D01*
X005427Y002739D02*
X012392Y002739D01*
X012404Y002641D02*
X005560Y002641D01*
X005693Y002542D02*
X012465Y002542D01*
X012590Y002443D02*
X005825Y002443D01*
X005958Y002345D02*
X012715Y002345D01*
X012840Y002246D02*
X006090Y002246D01*
X006223Y002148D02*
X012965Y002148D01*
X013090Y002049D02*
X006386Y002049D01*
X006571Y001951D02*
X013216Y001951D01*
X013499Y002415D02*
X012936Y002858D01*
X012939Y003204D01*
X013089Y003204D01*
X013174Y003288D01*
X013174Y003223D01*
X013169Y003175D01*
X013174Y003161D01*
X013174Y003146D01*
X013192Y003103D01*
X013206Y003058D01*
X013215Y003046D01*
X013221Y003033D01*
X013255Y002999D01*
X013385Y002842D01*
X013385Y002618D01*
X013473Y002531D01*
X014109Y002531D01*
X014197Y002618D01*
X014197Y003333D01*
X014109Y003421D01*
X013794Y003421D01*
X013794Y003438D01*
X014321Y003438D01*
X014409Y003526D01*
X014409Y003867D01*
X014321Y003955D01*
X013794Y003955D01*
X013794Y004134D01*
X013845Y004134D01*
X014085Y004134D01*
X014199Y004182D01*
X014203Y004186D01*
X014321Y004186D01*
X014409Y004274D01*
X014409Y004615D01*
X014321Y004703D01*
X014203Y004703D01*
X014199Y004707D01*
X014085Y004754D01*
X013911Y004754D01*
X013884Y004782D01*
X013884Y004823D01*
X013852Y004900D01*
X013852Y005024D01*
X013764Y005112D01*
X013687Y005112D01*
X013687Y005436D01*
X013703Y005419D01*
X013940Y005183D01*
X014130Y005183D01*
X014845Y005183D01*
X014986Y005042D01*
X015121Y004907D01*
X015360Y004907D01*
X013852Y004907D01*
X013852Y005006D02*
X015023Y005006D01*
X014986Y005042D02*
X014986Y005042D01*
X014924Y005104D02*
X013772Y005104D01*
X013687Y005203D02*
X013920Y005203D01*
X013821Y005301D02*
X013687Y005301D01*
X013687Y005400D02*
X013723Y005400D01*
X014029Y005744D02*
X014029Y006195D01*
X014032Y006260D01*
X014077Y006215D01*
X014077Y006136D01*
X014352Y005860D01*
X014741Y005860D01*
X015017Y006136D01*
X015017Y006525D01*
X014741Y006800D01*
X014481Y006800D01*
X014421Y006860D01*
X014741Y006860D01*
X015017Y007136D01*
X015017Y007525D01*
X014750Y007792D01*
X014899Y007792D01*
X014930Y007786D01*
X014960Y007792D01*
X014990Y007792D01*
X015012Y007801D01*
X015536Y007801D01*
X015617Y007882D01*
X015649Y007882D01*
X015649Y007874D01*
X015723Y007800D01*
X015352Y007800D01*
X015077Y007525D01*
X015077Y007136D01*
X015352Y006860D01*
X015741Y006860D01*
X016017Y007136D01*
X016017Y007525D01*
X015755Y007787D01*
X016338Y007787D01*
X016077Y007525D01*
X016077Y007136D01*
X016352Y006860D01*
X016741Y006860D01*
X017017Y007136D01*
X017017Y007525D01*
X016741Y007800D01*
X016386Y007800D01*
X016461Y007874D01*
X016461Y008490D01*
X020179Y008490D01*
X020194Y008479D01*
X020272Y008490D01*
X020351Y008490D01*
X020364Y008503D01*
X020382Y008506D01*
X020430Y008569D01*
X020485Y008625D01*
X020485Y008643D01*
X021138Y009514D01*
X021993Y010369D01*
X021993Y009120D01*
X021279Y007052D01*
X020996Y006750D01*
X020996Y006985D01*
X020877Y007272D01*
X021355Y007272D01*
X021321Y007174D02*
X020918Y007174D01*
X020877Y007272D02*
X020658Y007491D01*
X020371Y007610D01*
X020061Y007610D01*
X019774Y007491D01*
X019555Y007272D01*
X019017Y007272D01*
X019017Y007174D02*
X019514Y007174D01*
X019555Y007272D02*
X019436Y006985D01*
X019436Y006675D01*
X019555Y006388D01*
X019774Y006169D01*
X020061Y006050D01*
X020338Y006050D01*
X020100Y005797D01*
X020066Y005763D01*
X020064Y005759D01*
X020061Y005755D01*
X020044Y005709D01*
X020025Y005663D01*
X020025Y005659D01*
X020023Y005655D01*
X020024Y005633D01*
X019966Y005575D01*
X019966Y005198D01*
X019942Y005232D01*
X019954Y005261D01*
X019954Y005407D01*
X019898Y005543D01*
X019795Y005646D01*
X019659Y005702D01*
X019513Y005702D01*
X019378Y005646D01*
X019274Y005543D01*
X019218Y005407D01*
X019218Y005319D01*
X018677Y005860D01*
X018741Y005860D01*
X019017Y006136D01*
X019017Y006525D01*
X018741Y006800D01*
X018352Y006800D01*
X018077Y006525D01*
X018077Y006136D01*
X018215Y005997D01*
X016965Y005997D01*
X016922Y006040D01*
X017017Y006136D01*
X017017Y006525D01*
X016741Y006800D01*
X016352Y006800D01*
X016077Y006525D01*
X016077Y006136D01*
X016352Y005860D01*
X016451Y005860D01*
X016451Y005860D01*
X016629Y005682D01*
X016020Y005682D01*
X015792Y005911D01*
X016017Y006136D01*
X016017Y006525D01*
X015741Y006800D01*
X015352Y006800D01*
X015077Y006525D01*
X015077Y006136D01*
X015317Y005896D01*
X015317Y005735D01*
X015451Y005600D01*
X015452Y005600D01*
X015684Y005367D01*
X015311Y005367D01*
X015170Y005508D01*
X015036Y005643D01*
X014130Y005643D01*
X014029Y005744D01*
X014029Y005794D02*
X015317Y005794D01*
X015317Y005892D02*
X014774Y005892D01*
X014872Y005991D02*
X015221Y005991D01*
X015123Y006090D02*
X014971Y006090D01*
X015017Y006188D02*
X015077Y006188D01*
X015077Y006287D02*
X015017Y006287D01*
X015017Y006385D02*
X015077Y006385D01*
X015077Y006484D02*
X015017Y006484D01*
X014959Y006582D02*
X015134Y006582D01*
X015233Y006681D02*
X014861Y006681D01*
X014762Y006779D02*
X015331Y006779D01*
X015334Y006878D02*
X014759Y006878D01*
X014858Y006976D02*
X015236Y006976D01*
X015137Y007075D02*
X014956Y007075D01*
X015017Y007174D02*
X015077Y007174D01*
X015077Y007272D02*
X015017Y007272D01*
X015017Y007371D02*
X015077Y007371D01*
X015077Y007469D02*
X015017Y007469D01*
X014974Y007568D02*
X015120Y007568D01*
X015218Y007666D02*
X014875Y007666D01*
X014777Y007765D02*
X015317Y007765D01*
X015598Y007863D02*
X015660Y007863D01*
X015777Y007765D02*
X016317Y007765D01*
X016218Y007666D02*
X015875Y007666D01*
X015974Y007568D02*
X016120Y007568D01*
X016077Y007469D02*
X016017Y007469D01*
X016017Y007371D02*
X016077Y007371D01*
X016077Y007272D02*
X016017Y007272D01*
X016017Y007174D02*
X016077Y007174D01*
X016137Y007075D02*
X015956Y007075D01*
X015858Y006976D02*
X016236Y006976D01*
X016334Y006878D02*
X015759Y006878D01*
X015762Y006779D02*
X016331Y006779D01*
X016233Y006681D02*
X015861Y006681D01*
X015959Y006582D02*
X016134Y006582D01*
X016077Y006484D02*
X016017Y006484D01*
X016017Y006385D02*
X016077Y006385D01*
X016077Y006287D02*
X016017Y006287D01*
X016017Y006188D02*
X016077Y006188D01*
X016123Y006090D02*
X015971Y006090D01*
X015872Y005991D02*
X016221Y005991D01*
X016320Y005892D02*
X015810Y005892D01*
X015908Y005794D02*
X016518Y005794D01*
X016616Y005695D02*
X016007Y005695D01*
X015554Y005498D02*
X015180Y005498D01*
X015170Y005508D02*
X015170Y005508D01*
X015082Y005597D02*
X015455Y005597D01*
X015356Y005695D02*
X014078Y005695D01*
X014029Y005892D02*
X014320Y005892D01*
X014221Y005991D02*
X014029Y005991D01*
X014029Y006090D02*
X014123Y006090D01*
X014077Y006188D02*
X014029Y006188D01*
X013471Y006863D02*
X013410Y006863D01*
X013321Y006868D01*
X013316Y006863D01*
X012437Y006863D01*
X011686Y007614D01*
X011686Y007936D01*
X011687Y007935D01*
X011816Y007882D01*
X011955Y007882D01*
X013480Y007882D01*
X013451Y007063D01*
X013449Y007057D01*
X013449Y006994D01*
X013446Y006930D01*
X013449Y006924D01*
X013449Y006918D01*
X013471Y006863D01*
X013465Y006878D02*
X012423Y006878D01*
X012324Y006976D02*
X013448Y006976D01*
X013452Y007075D02*
X012226Y007075D01*
X012127Y007174D02*
X013455Y007174D01*
X013459Y007272D02*
X012029Y007272D01*
X011930Y007371D02*
X013462Y007371D01*
X013466Y007469D02*
X011831Y007469D01*
X011733Y007568D02*
X013469Y007568D01*
X013473Y007666D02*
X011686Y007666D01*
X011686Y007765D02*
X013476Y007765D01*
X013479Y007863D02*
X011686Y007863D01*
X012030Y008582D02*
X011989Y008623D01*
X011860Y008676D01*
X006345Y008676D01*
X006143Y008879D01*
X006044Y008977D01*
X005916Y009031D01*
X004222Y009031D01*
X004083Y009031D01*
X003954Y008977D01*
X003304Y008327D01*
X002168Y009644D01*
X002168Y009646D01*
X002152Y009673D01*
X002144Y009703D01*
X002127Y009725D01*
X002116Y009751D01*
X002097Y009770D01*
X002086Y009789D01*
X003933Y009789D01*
X004068Y009924D01*
X006461Y012317D01*
X010057Y012317D01*
X010075Y012298D01*
X010790Y012298D01*
X010878Y012386D01*
X010878Y012701D01*
X010878Y013016D01*
X010878Y013331D01*
X010878Y013431D01*
X011402Y013431D01*
X011443Y013472D01*
X011443Y013034D01*
X011577Y012899D01*
X011814Y012663D01*
X012004Y012663D01*
X012562Y012663D01*
X012942Y012283D01*
X012870Y012283D01*
X012783Y012196D01*
X012783Y011481D01*
X012801Y011462D01*
X012801Y010574D01*
X012936Y010439D01*
X013096Y010278D01*
X013231Y010144D01*
X020217Y010144D01*
X019497Y009424D01*
X015673Y009424D01*
X015614Y009482D01*
X015054Y009482D01*
X014966Y009394D01*
X014966Y008950D01*
X014055Y008950D01*
X012631Y010446D01*
X012631Y011462D01*
X012649Y011481D01*
X012649Y012196D01*
X012562Y012283D01*
X012247Y012283D01*
X011932Y012283D01*
X011617Y012283D01*
X011302Y012283D01*
X010981Y012283D01*
X010893Y012196D01*
X010893Y011481D01*
X010981Y011393D01*
X011302Y011393D01*
X011541Y011393D01*
X011541Y009994D01*
X011471Y009994D01*
X011383Y009906D01*
X011383Y009383D01*
X011374Y009383D01*
X011293Y009464D01*
X011293Y009788D01*
X011205Y009875D01*
X010644Y009875D01*
X010557Y009788D01*
X010557Y009227D01*
X010644Y009139D01*
X010968Y009139D01*
X011049Y009058D01*
X011049Y009058D01*
X011184Y008923D01*
X012201Y008923D01*
X012336Y009058D01*
X012572Y009294D01*
X012572Y009485D01*
X012572Y009841D01*
X013726Y008628D01*
X013726Y008625D01*
X013769Y008582D01*
X012030Y008582D01*
X011920Y008652D02*
X013704Y008652D01*
X013610Y008750D02*
X006271Y008750D01*
X006235Y008864D02*
X006796Y008864D01*
X006883Y008952D01*
X006883Y009512D01*
X006825Y009570D01*
X006846Y009591D01*
X006846Y010148D01*
X006759Y010236D01*
X006241Y010236D01*
X006153Y010148D01*
X006153Y009591D01*
X006189Y009554D01*
X006147Y009512D01*
X006147Y008952D01*
X006235Y008864D01*
X006173Y008849D02*
X013516Y008849D01*
X013422Y008947D02*
X012225Y008947D01*
X012324Y009046D02*
X013329Y009046D01*
X013235Y009144D02*
X012422Y009144D01*
X012521Y009243D02*
X013141Y009243D01*
X013047Y009341D02*
X012572Y009341D01*
X012572Y009440D02*
X012953Y009440D01*
X012860Y009539D02*
X012572Y009539D01*
X012572Y009637D02*
X012766Y009637D01*
X012672Y009736D02*
X012572Y009736D01*
X012572Y009834D02*
X012578Y009834D01*
X012932Y010130D02*
X020203Y010130D01*
X020105Y010031D02*
X013026Y010031D01*
X013119Y009933D02*
X020006Y009933D01*
X019908Y009834D02*
X013213Y009834D01*
X013307Y009736D02*
X019809Y009736D01*
X019711Y009637D02*
X013401Y009637D01*
X013495Y009539D02*
X019612Y009539D01*
X019513Y009440D02*
X015656Y009440D01*
X015012Y009440D02*
X013588Y009440D01*
X013682Y009341D02*
X014966Y009341D01*
X014966Y009243D02*
X013776Y009243D01*
X013870Y009144D02*
X014966Y009144D01*
X014966Y009046D02*
X013964Y009046D01*
X013146Y010228D02*
X012838Y010228D01*
X012744Y010327D02*
X013048Y010327D01*
X012949Y010425D02*
X012650Y010425D01*
X012631Y010524D02*
X012851Y010524D01*
X012801Y010623D02*
X012631Y010623D01*
X012631Y010721D02*
X012801Y010721D01*
X012801Y010820D02*
X012631Y010820D01*
X012631Y010918D02*
X012801Y010918D01*
X012801Y011017D02*
X012631Y011017D01*
X012631Y011115D02*
X012801Y011115D01*
X012801Y011214D02*
X012631Y011214D01*
X012631Y011312D02*
X012801Y011312D01*
X012801Y011411D02*
X012631Y011411D01*
X012649Y011509D02*
X012783Y011509D01*
X012783Y011608D02*
X012649Y011608D01*
X012649Y011706D02*
X012783Y011706D01*
X012783Y011805D02*
X012649Y011805D01*
X012649Y011904D02*
X012783Y011904D01*
X012783Y012002D02*
X012649Y012002D01*
X012649Y012101D02*
X012783Y012101D01*
X012786Y012199D02*
X012646Y012199D01*
X012829Y012396D02*
X010878Y012396D01*
X010878Y012495D02*
X012730Y012495D01*
X012632Y012593D02*
X010878Y012593D01*
X010878Y012692D02*
X011785Y012692D01*
X011686Y012790D02*
X010878Y012790D01*
X010878Y012889D02*
X011588Y012889D01*
X011489Y012988D02*
X010878Y012988D01*
X010878Y013086D02*
X011443Y013086D01*
X011443Y013185D02*
X010878Y013185D01*
X010878Y013283D02*
X011443Y013283D01*
X011443Y013382D02*
X010878Y013382D01*
X010753Y014072D02*
X000667Y014072D01*
X000681Y014170D02*
X010850Y014170D01*
X011529Y014465D02*
X011529Y014788D01*
X011508Y014809D01*
X011677Y014809D01*
X011765Y014896D01*
X011765Y014907D01*
X012426Y014907D01*
X012426Y014837D01*
X012426Y014729D01*
X012467Y014630D01*
X012998Y014100D01*
X012998Y013715D01*
X013085Y013627D01*
X013646Y013627D01*
X013734Y013715D01*
X013734Y014276D01*
X013646Y014364D01*
X013497Y014364D01*
X012966Y014895D01*
X012966Y014965D01*
X012966Y015073D01*
X012966Y015074D01*
X012966Y015121D01*
X012966Y015121D01*
X012966Y015123D01*
X012966Y015230D01*
X012966Y015232D01*
X012966Y015311D01*
X012946Y015331D01*
X012946Y016029D01*
X012964Y016048D01*
X012964Y016659D01*
X012967Y016659D01*
X013098Y016659D01*
X013098Y016048D01*
X013155Y015990D01*
X013155Y015487D01*
X013243Y015399D01*
X013803Y015399D01*
X013891Y015487D01*
X013891Y015566D01*
X013929Y015612D01*
X013989Y015672D01*
X013989Y015684D01*
X014126Y015848D01*
X014186Y015908D01*
X014186Y015920D01*
X014194Y015929D01*
X014191Y015960D01*
X014451Y015960D01*
X014539Y016048D01*
X014539Y016762D01*
X014451Y016850D01*
X014130Y016850D01*
X014065Y016850D01*
X014139Y016924D01*
X014197Y016959D01*
X014204Y016989D01*
X014226Y017011D01*
X014226Y017079D01*
X014380Y017722D01*
X014512Y017722D01*
X014600Y017810D01*
X014600Y018370D01*
X014514Y018456D01*
X014714Y018680D01*
X014777Y018743D01*
X014777Y018751D01*
X014782Y018756D01*
X014780Y018785D01*
X015299Y018785D01*
X015387Y018873D01*
X015387Y018923D01*
X015430Y018923D01*
X015773Y018551D01*
X015773Y016614D01*
X015072Y015945D01*
X014642Y015945D01*
X014554Y015857D01*
X014554Y015542D01*
X014554Y015306D01*
X014551Y015309D01*
X013991Y015309D01*
X013903Y015221D01*
X013903Y014660D01*
X013991Y014572D01*
X014353Y014572D01*
X014404Y014521D01*
X014417Y014521D01*
X014426Y014514D01*
X014510Y014521D01*
X014554Y014521D01*
X014554Y014276D01*
X014642Y014188D01*
X015357Y014188D01*
X015375Y014207D01*
X015625Y014207D01*
X016137Y013694D01*
X015882Y013694D01*
X015540Y014037D01*
X015375Y014037D01*
X015357Y014055D01*
X014642Y014055D01*
X014554Y013967D01*
X014554Y013652D01*
X014554Y013337D01*
X014554Y013022D01*
X014554Y012707D01*
X014554Y012386D01*
X014642Y012298D01*
X015327Y012298D01*
X015655Y011765D01*
X015655Y011735D01*
X015704Y011687D01*
X015739Y011629D01*
X015769Y011622D01*
X015790Y011600D01*
X015858Y011600D01*
X015925Y011584D01*
X015950Y011600D01*
X017326Y011600D01*
X017516Y011600D01*
X017910Y011994D01*
X018044Y012129D01*
X018044Y014771D01*
X018116Y014814D01*
X018116Y014266D01*
X018150Y014232D01*
X018076Y014158D01*
X018076Y013597D01*
X018164Y013509D01*
X018725Y013509D01*
X018812Y013597D01*
X018812Y013687D01*
X019415Y013687D01*
X019415Y013243D01*
X019503Y013155D01*
X019671Y013155D01*
X019671Y012004D01*
X019215Y011548D01*
X014539Y011548D01*
X014539Y012196D01*
X014521Y012214D01*
X014521Y012378D01*
X014422Y012477D01*
X014288Y012611D01*
X013264Y012611D01*
X012887Y012988D01*
X012752Y013123D01*
X012004Y013123D01*
X011903Y013225D01*
X011903Y013900D01*
X011903Y014091D01*
X011529Y014465D01*
X011529Y014466D02*
X012632Y014466D01*
X012533Y014564D02*
X011529Y014564D01*
X011529Y014663D02*
X012454Y014663D01*
X012426Y014761D02*
X011529Y014761D01*
X011729Y014860D02*
X012426Y014860D01*
X012966Y014958D02*
X013903Y014958D01*
X013903Y014860D02*
X013001Y014860D01*
X013100Y014761D02*
X013903Y014761D01*
X013903Y014663D02*
X013198Y014663D01*
X013297Y014564D02*
X014361Y014564D01*
X014554Y014466D02*
X013395Y014466D01*
X013494Y014367D02*
X014554Y014367D01*
X014562Y014269D02*
X013734Y014269D01*
X013734Y014170D02*
X015661Y014170D01*
X015760Y014072D02*
X013734Y014072D01*
X013734Y013973D02*
X014560Y013973D01*
X014554Y013874D02*
X013734Y013874D01*
X013734Y013776D02*
X014554Y013776D01*
X014554Y013677D02*
X013696Y013677D01*
X013036Y013677D02*
X011903Y013677D01*
X011903Y013579D02*
X014554Y013579D01*
X014554Y013480D02*
X011903Y013480D01*
X011903Y013382D02*
X014554Y013382D01*
X014554Y013283D02*
X011903Y013283D01*
X011943Y013185D02*
X014554Y013185D01*
X014554Y013086D02*
X012789Y013086D01*
X012888Y012988D02*
X014554Y012988D01*
X014554Y012889D02*
X012986Y012889D01*
X013085Y012790D02*
X014554Y012790D01*
X014554Y012692D02*
X013184Y012692D01*
X012927Y012298D02*
X006442Y012298D01*
X006343Y012199D02*
X010897Y012199D01*
X010893Y012101D02*
X006245Y012101D01*
X006146Y012002D02*
X010893Y012002D01*
X010893Y011904D02*
X010363Y011904D01*
X010335Y011915D02*
X010176Y011915D01*
X008052Y011915D01*
X006987Y011915D01*
X006910Y011883D01*
X006747Y011883D01*
X006659Y011796D01*
X006659Y011235D01*
X006747Y011147D01*
X006910Y011147D01*
X006987Y011115D01*
X008052Y011115D01*
X010007Y011115D01*
X005259Y011115D01*
X005161Y011017D02*
X011541Y011017D01*
X011541Y011115D02*
X010661Y011115D01*
X010702Y011156D02*
X010702Y011280D01*
X010734Y011357D01*
X010734Y011516D01*
X010702Y011593D01*
X010702Y011717D01*
X010614Y011805D01*
X010532Y011805D01*
X010482Y011854D01*
X010335Y011915D01*
X010531Y011805D02*
X010893Y011805D01*
X010893Y011706D02*
X010702Y011706D01*
X010702Y011608D02*
X010893Y011608D01*
X010893Y011509D02*
X010734Y011509D01*
X010734Y011411D02*
X010963Y011411D01*
X010716Y011312D02*
X011541Y011312D01*
X011541Y011214D02*
X010702Y011214D01*
X010702Y011156D02*
X010614Y011068D01*
X010491Y011068D01*
X010414Y011037D01*
X010255Y011037D01*
X010178Y011068D01*
X010054Y011068D01*
X010007Y011115D01*
X010603Y009834D02*
X008256Y009834D01*
X008256Y009736D02*
X010557Y009736D01*
X010557Y009637D02*
X008256Y009637D01*
X008256Y009636D02*
X008256Y010152D01*
X008168Y010240D01*
X007650Y010240D01*
X007562Y010152D01*
X007562Y009667D01*
X007525Y009630D01*
X007525Y009070D01*
X007613Y008982D01*
X008173Y008982D01*
X008261Y009070D01*
X008261Y009630D01*
X008256Y009636D01*
X008261Y009539D02*
X010557Y009539D01*
X010557Y009440D02*
X008261Y009440D01*
X008261Y009341D02*
X010557Y009341D01*
X010557Y009243D02*
X008261Y009243D01*
X008261Y009144D02*
X010639Y009144D01*
X011061Y009046D02*
X008237Y009046D01*
X007549Y009046D02*
X006883Y009046D01*
X006883Y009144D02*
X007525Y009144D01*
X007525Y009243D02*
X006883Y009243D01*
X006883Y009341D02*
X007525Y009341D01*
X007525Y009440D02*
X006883Y009440D01*
X006857Y009539D02*
X007525Y009539D01*
X007532Y009637D02*
X006846Y009637D01*
X006846Y009736D02*
X007562Y009736D01*
X007562Y009834D02*
X006846Y009834D01*
X006846Y009933D02*
X007562Y009933D01*
X007562Y010031D02*
X006846Y010031D01*
X006846Y010130D02*
X007562Y010130D01*
X007638Y010228D02*
X006766Y010228D01*
X006233Y010228D02*
X004372Y010228D01*
X004274Y010130D02*
X006153Y010130D01*
X006153Y010031D02*
X004175Y010031D01*
X004077Y009933D02*
X006153Y009933D01*
X006153Y009834D02*
X003978Y009834D01*
X003821Y010327D02*
X001848Y010327D01*
X001749Y010425D02*
X003919Y010425D01*
X004018Y010524D02*
X001651Y010524D01*
X001552Y010623D02*
X001928Y010623D01*
X002025Y010526D02*
X001750Y010801D01*
X001750Y011190D01*
X002025Y011466D01*
X002415Y011466D01*
X002690Y011190D01*
X002690Y010801D01*
X002415Y010526D01*
X002025Y010526D01*
X001830Y010721D02*
X001509Y010721D01*
X001509Y010820D02*
X001750Y010820D01*
X001750Y010918D02*
X001509Y010918D01*
X001509Y011017D02*
X001750Y011017D01*
X001750Y011115D02*
X001509Y011115D01*
X001509Y011214D02*
X001774Y011214D01*
X001872Y011312D02*
X001509Y011312D01*
X001509Y011411D02*
X001971Y011411D01*
X001943Y011608D02*
X001697Y011608D01*
X001796Y011706D02*
X001844Y011706D01*
X001598Y011509D02*
X003783Y011509D01*
X003684Y011411D02*
X003657Y011411D01*
X003497Y011608D02*
X003881Y011608D01*
X003980Y011706D02*
X003596Y011706D01*
X003690Y011805D02*
X004078Y011805D01*
X004177Y011904D02*
X003690Y011904D01*
X003690Y012002D02*
X004275Y012002D01*
X004374Y012101D02*
X003690Y012101D01*
X003749Y012199D02*
X004472Y012199D01*
X004571Y012298D02*
X003843Y012298D01*
X003942Y012396D02*
X004670Y012396D01*
X004768Y012495D02*
X004041Y012495D01*
X004139Y012593D02*
X004867Y012593D01*
X004965Y012692D02*
X004238Y012692D01*
X004336Y012790D02*
X005064Y012790D01*
X005162Y012889D02*
X004435Y012889D01*
X004080Y013185D02*
X003734Y013185D01*
X003690Y013086D02*
X003981Y013086D01*
X003883Y012988D02*
X003690Y012988D01*
X003690Y012889D02*
X003784Y012889D01*
X003686Y012790D02*
X003680Y012790D01*
X003587Y012692D02*
X003581Y012692D01*
X003489Y012593D02*
X003482Y012593D01*
X003390Y012495D02*
X000455Y012495D01*
X000460Y012593D02*
X002958Y012593D01*
X002859Y012692D02*
X000474Y012692D01*
X000488Y012790D02*
X002760Y012790D01*
X002750Y012889D02*
X000501Y012889D01*
X000515Y012988D02*
X002750Y012988D01*
X002750Y013086D02*
X000529Y013086D01*
X000543Y013185D02*
X002750Y013185D01*
X002843Y013283D02*
X000557Y013283D01*
X000571Y013382D02*
X002941Y013382D01*
X003379Y013480D02*
X000584Y013480D01*
X000598Y013579D02*
X003478Y013579D01*
X003577Y013677D02*
X000612Y013677D01*
X000626Y013776D02*
X009987Y013776D01*
X009987Y013874D02*
X000640Y013874D01*
X000654Y013973D02*
X009993Y013973D01*
X009257Y014958D02*
X008555Y014958D01*
X008557Y014860D02*
X008739Y014860D01*
X008706Y014761D02*
X008547Y014761D01*
X008506Y014663D02*
X008706Y014663D01*
X008706Y014564D02*
X008429Y014564D01*
X008271Y014466D02*
X008706Y014466D01*
X008706Y014367D02*
X000709Y014367D01*
X000695Y014269D02*
X008706Y014269D01*
X007987Y014466D02*
X000723Y014466D01*
X000737Y014564D02*
X007830Y014564D01*
X007752Y014663D02*
X000750Y014663D01*
X000764Y014761D02*
X007712Y014761D01*
X007702Y014860D02*
X000785Y014860D01*
X000807Y014958D02*
X007704Y014958D01*
X007744Y015057D02*
X000829Y015057D01*
X000851Y015156D02*
X007811Y015156D01*
X007941Y015254D02*
X000873Y015254D01*
X000895Y015353D02*
X007829Y015353D01*
X007752Y015451D02*
X000918Y015451D01*
X000940Y015550D02*
X007711Y015550D01*
X007702Y015648D02*
X000962Y015648D01*
X000984Y015747D02*
X007704Y015747D01*
X007745Y015845D02*
X001006Y015845D01*
X001028Y015944D02*
X007812Y015944D01*
X007943Y016042D02*
X001051Y016042D01*
X001073Y016141D02*
X007828Y016141D01*
X007752Y016239D02*
X001095Y016239D01*
X001117Y016338D02*
X007711Y016338D01*
X007702Y016437D02*
X001160Y016437D01*
X001208Y016535D02*
X007704Y016535D01*
X007745Y016634D02*
X001257Y016634D01*
X001305Y016732D02*
X007813Y016732D01*
X007945Y016831D02*
X001353Y016831D01*
X001401Y016929D02*
X004581Y016929D01*
X004707Y016877D02*
X004420Y016996D01*
X004201Y017215D01*
X004082Y017502D01*
X004082Y017812D01*
X004201Y018099D01*
X004420Y018318D01*
X004707Y018437D01*
X005017Y018437D01*
X005304Y018318D01*
X005523Y018099D01*
X005642Y017812D01*
X005642Y017502D01*
X005523Y017215D01*
X005304Y016996D01*
X005017Y016877D01*
X004707Y016877D01*
X005143Y016929D02*
X007827Y016929D01*
X007751Y017028D02*
X005336Y017028D01*
X005434Y017126D02*
X007710Y017126D01*
X007702Y017225D02*
X005527Y017225D01*
X005568Y017323D02*
X007705Y017323D01*
X007746Y017422D02*
X005609Y017422D01*
X005642Y017521D02*
X007814Y017521D01*
X007948Y017619D02*
X005642Y017619D01*
X005642Y017718D02*
X007826Y017718D01*
X007751Y017816D02*
X005640Y017816D01*
X005599Y017915D02*
X007710Y017915D01*
X007702Y018013D02*
X005558Y018013D01*
X005510Y018112D02*
X007705Y018112D01*
X007746Y018210D02*
X005411Y018210D01*
X005313Y018309D02*
X007815Y018309D01*
X007950Y018407D02*
X005088Y018407D01*
X004636Y018407D02*
X002148Y018407D01*
X002081Y018309D02*
X004411Y018309D01*
X004312Y018210D02*
X002029Y018210D01*
X001981Y018112D02*
X004214Y018112D01*
X004165Y018013D02*
X001932Y018013D01*
X001884Y017915D02*
X004124Y017915D01*
X004084Y017816D02*
X001836Y017816D01*
X001788Y017718D02*
X004082Y017718D01*
X004082Y017619D02*
X001739Y017619D01*
X001691Y017521D02*
X004082Y017521D01*
X004115Y017422D02*
X001643Y017422D01*
X001595Y017323D02*
X004156Y017323D01*
X004196Y017225D02*
X001546Y017225D01*
X001498Y017126D02*
X004289Y017126D01*
X004388Y017028D02*
X001450Y017028D01*
X002214Y018506D02*
X007826Y018506D01*
X007750Y018605D02*
X002281Y018605D01*
X002348Y018703D02*
X007710Y018703D01*
X007702Y018802D02*
X002414Y018802D01*
X002481Y018900D02*
X007706Y018900D01*
X007746Y018999D02*
X002547Y018999D01*
X002614Y019097D02*
X007816Y019097D01*
X007952Y019196D02*
X002681Y019196D01*
X002747Y019294D02*
X007825Y019294D01*
X007750Y019393D02*
X002814Y019393D01*
X002880Y019491D02*
X007709Y019491D01*
X007702Y019590D02*
X002947Y019590D01*
X003013Y019689D02*
X007706Y019689D01*
X007747Y019787D02*
X003092Y019787D01*
X003185Y019886D02*
X007816Y019886D01*
X007954Y019984D02*
X003277Y019984D01*
X003370Y020083D02*
X007824Y020083D01*
X007750Y020181D02*
X003463Y020181D01*
X003556Y020280D02*
X007709Y020280D01*
X007702Y020378D02*
X003649Y020378D01*
X003742Y020477D02*
X007706Y020477D01*
X007747Y020575D02*
X003835Y020575D01*
X003928Y020674D02*
X007817Y020674D01*
X007957Y020772D02*
X004021Y020772D01*
X004114Y020871D02*
X007823Y020871D01*
X007749Y020970D02*
X004207Y020970D01*
X004299Y021068D02*
X007708Y021068D01*
X007702Y021167D02*
X004408Y021167D01*
X004535Y021265D02*
X007707Y021265D01*
X007748Y021364D02*
X004662Y021364D01*
X004790Y021462D02*
X007818Y021462D01*
X007959Y021561D02*
X004917Y021561D01*
X005044Y021659D02*
X013790Y021659D01*
X013613Y021758D02*
X005171Y021758D01*
X005298Y021856D02*
X013435Y021856D01*
X013372Y021955D02*
X013285Y021955D01*
X012922Y021955D02*
X012785Y021955D01*
X012422Y021955D02*
X012285Y021955D01*
X011922Y021955D02*
X011785Y021955D01*
X011422Y021955D02*
X011285Y021955D01*
X010922Y021955D02*
X010785Y021955D01*
X010422Y021955D02*
X005425Y021955D01*
X005552Y022054D02*
X010336Y022054D01*
X010336Y022152D02*
X005680Y022152D01*
X005807Y022251D02*
X010336Y022251D01*
X010336Y022349D02*
X005938Y022349D01*
X006128Y022448D02*
X010336Y022448D01*
X010336Y022546D02*
X006317Y022546D01*
X006507Y022645D02*
X010336Y022645D01*
X010362Y022743D02*
X006696Y022743D01*
X006886Y022842D02*
X013746Y022842D01*
X013746Y022940D02*
X007075Y022940D01*
X007265Y023039D02*
X013746Y023039D01*
X013746Y023138D02*
X007454Y023138D01*
X007644Y023236D02*
X013746Y023236D01*
X013789Y023335D02*
X007833Y023335D01*
X008087Y023433D02*
X016810Y023433D01*
X016976Y023335D02*
X014439Y023335D01*
X014482Y023236D02*
X017142Y023236D01*
X017309Y023138D02*
X014482Y023138D01*
X014482Y023039D02*
X017475Y023039D01*
X017641Y022940D02*
X014482Y022940D01*
X014482Y022842D02*
X017808Y022842D01*
X017974Y022743D02*
X014482Y022743D01*
X014396Y022645D02*
X018140Y022645D01*
X018306Y022546D02*
X014376Y022546D01*
X014375Y022448D02*
X015782Y022448D01*
X015673Y022349D02*
X014373Y022349D01*
X014372Y022251D02*
X015563Y022251D01*
X015454Y022152D02*
X014952Y022152D01*
X014994Y022054D02*
X015345Y022054D01*
X015236Y021955D02*
X014994Y021955D01*
X014994Y021856D02*
X015127Y021856D01*
X015018Y021758D02*
X014994Y021758D01*
X014345Y021462D02*
X009634Y021462D01*
X009634Y021364D02*
X012298Y021364D01*
X012200Y021265D02*
X009634Y021265D01*
X009634Y021167D02*
X012101Y021167D01*
X012003Y021068D02*
X009634Y021068D01*
X009634Y020970D02*
X011904Y020970D01*
X011874Y020871D02*
X009634Y020871D01*
X009552Y020772D02*
X011874Y020772D01*
X011874Y020674D02*
X008441Y020674D01*
X008512Y020575D02*
X010836Y020575D01*
X010836Y020477D02*
X008553Y020477D01*
X008557Y020378D02*
X010836Y020378D01*
X010836Y020280D02*
X008636Y020280D01*
X008752Y020181D02*
X010836Y020181D01*
X010836Y020083D02*
X010242Y020083D01*
X010340Y019984D02*
X010836Y019984D01*
X010854Y019886D02*
X010439Y019886D01*
X010537Y019787D02*
X010911Y019787D01*
X010911Y019689D02*
X010636Y019689D01*
X010682Y019590D02*
X010911Y019590D01*
X010911Y019491D02*
X010682Y019491D01*
X010682Y019393D02*
X010911Y019393D01*
X010911Y019294D02*
X010682Y019294D01*
X010682Y019196D02*
X010911Y019196D01*
X010911Y019097D02*
X010682Y019097D01*
X010682Y018999D02*
X010911Y018999D01*
X010911Y018900D02*
X010682Y018900D01*
X010632Y018802D02*
X010911Y018802D01*
X010911Y018703D02*
X010583Y018703D01*
X010534Y018605D02*
X010911Y018605D01*
X010911Y018506D02*
X010525Y018506D01*
X010525Y018407D02*
X010911Y018407D01*
X010911Y018309D02*
X010525Y018309D01*
X010525Y018210D02*
X010911Y018210D01*
X010911Y018112D02*
X010525Y018112D01*
X010525Y018013D02*
X010911Y018013D01*
X010911Y017915D02*
X010525Y017915D01*
X010525Y017816D02*
X010911Y017816D01*
X010911Y017718D02*
X010525Y017718D01*
X010525Y017619D02*
X010911Y017619D01*
X010911Y017521D02*
X010525Y017521D01*
X010525Y017422D02*
X010911Y017422D01*
X010911Y017323D02*
X010525Y017323D01*
X010525Y017225D02*
X010911Y017225D01*
X010911Y017126D02*
X010525Y017126D01*
X010525Y017028D02*
X010911Y017028D01*
X010911Y016929D02*
X010525Y016929D01*
X010525Y016831D02*
X010911Y016831D01*
X010893Y016732D02*
X010525Y016732D01*
X010525Y016634D02*
X010893Y016634D01*
X010893Y016535D02*
X010525Y016535D01*
X010609Y016437D02*
X010893Y016437D01*
X010893Y016338D02*
X010728Y016338D01*
X010848Y016239D02*
X010893Y016239D01*
X009518Y015353D02*
X008938Y015353D01*
X009036Y015451D02*
X009419Y015451D01*
X009321Y015550D02*
X009107Y015550D01*
X009107Y015648D02*
X009317Y015648D01*
X009317Y015747D02*
X009107Y015747D01*
X009107Y015845D02*
X009317Y015845D01*
X009317Y015944D02*
X009107Y015944D01*
X009107Y016042D02*
X009317Y016042D01*
X009317Y016141D02*
X009107Y016141D01*
X009107Y016239D02*
X009317Y016239D01*
X009317Y016338D02*
X009107Y016338D01*
X009107Y016437D02*
X009317Y016437D01*
X009317Y016535D02*
X009107Y016535D01*
X009107Y016634D02*
X009317Y016634D01*
X009317Y016732D02*
X009107Y016732D01*
X009107Y016831D02*
X009317Y016831D01*
X009317Y016929D02*
X009107Y016929D01*
X009107Y017028D02*
X009317Y017028D01*
X009317Y017126D02*
X009107Y017126D01*
X009107Y017225D02*
X009317Y017225D01*
X009317Y017323D02*
X009107Y017323D01*
X009107Y017422D02*
X009317Y017422D01*
X009317Y017521D02*
X009107Y017521D01*
X009107Y017619D02*
X009317Y017619D01*
X009317Y017718D02*
X009107Y017718D01*
X009107Y017816D02*
X009317Y017816D01*
X009317Y017915D02*
X009107Y017915D01*
X009107Y018013D02*
X009317Y018013D01*
X009317Y018112D02*
X009107Y018112D01*
X009107Y018210D02*
X009317Y018210D01*
X009317Y018309D02*
X009107Y018309D01*
X009107Y018407D02*
X009317Y018407D01*
X009317Y018506D02*
X009107Y018506D01*
X009107Y018605D02*
X009317Y018605D01*
X009317Y018703D02*
X009107Y018703D01*
X009214Y018802D02*
X009317Y018802D01*
X009317Y018900D02*
X009246Y018900D01*
X009246Y018999D02*
X009317Y018999D01*
X009317Y019097D02*
X009246Y019097D01*
X009246Y019196D02*
X009317Y019196D01*
X009317Y019294D02*
X009246Y019294D01*
X008825Y020772D02*
X008302Y020772D01*
X008436Y020871D02*
X008743Y020871D01*
X008743Y021462D02*
X008440Y021462D01*
X008300Y021561D02*
X008813Y021561D01*
X009564Y021561D02*
X014257Y021561D01*
X014953Y020616D02*
X015075Y020616D01*
X016177Y021718D01*
X017168Y021718D01*
X017506Y021381D01*
X017506Y020114D01*
X017506Y019924D01*
X018615Y018815D01*
X018647Y018759D01*
X018680Y018750D01*
X018703Y018726D01*
X018768Y018726D01*
X019978Y018402D01*
X019774Y018318D01*
X019555Y018099D01*
X019436Y017812D01*
X019436Y017502D01*
X019555Y017215D01*
X019774Y016996D01*
X020061Y016877D01*
X020371Y016877D01*
X020658Y016996D01*
X020877Y017215D01*
X020990Y017487D01*
X020990Y016983D01*
X021078Y016895D01*
X021088Y016895D01*
X021088Y016688D01*
X021083Y016650D01*
X021088Y016635D01*
X021088Y016619D01*
X021102Y016584D01*
X021113Y016547D01*
X021123Y016535D01*
X021129Y016520D01*
X021156Y016493D01*
X021939Y015505D01*
X021918Y015505D01*
X021910Y015513D01*
X021782Y015566D01*
X021642Y015566D01*
X020125Y015566D01*
X018637Y017054D01*
X018637Y018671D01*
X018584Y018800D01*
X018485Y018899D01*
X018170Y019214D01*
X018042Y019267D01*
X017995Y019267D01*
X017977Y019285D01*
X017416Y019285D01*
X017328Y019197D01*
X017328Y018637D01*
X017416Y018549D01*
X017845Y018549D01*
X017937Y018457D01*
X017937Y016979D01*
X017937Y016839D01*
X017990Y016711D01*
X019683Y015018D01*
X019782Y014919D01*
X019910Y014866D01*
X020911Y014866D01*
X020872Y014827D01*
X020872Y014777D01*
X018852Y014777D01*
X018852Y014827D01*
X018764Y014915D01*
X018713Y014915D01*
X018773Y014975D01*
X018773Y015536D01*
X018685Y015624D01*
X018125Y015624D01*
X018037Y015536D01*
X018037Y015303D01*
X017751Y015131D01*
X017719Y015131D01*
X017690Y015102D01*
X017690Y017801D01*
X017740Y017801D01*
X017828Y017889D01*
X017828Y018449D01*
X017740Y018537D01*
X017180Y018537D01*
X017092Y018449D01*
X017092Y018322D01*
X017033Y018382D01*
X016957Y018413D01*
X017033Y018444D01*
X017153Y018564D01*
X017218Y018722D01*
X017218Y018892D01*
X017153Y019049D01*
X017033Y019169D01*
X016957Y019200D01*
X017033Y019232D01*
X017153Y019352D01*
X017218Y019509D01*
X017218Y019679D01*
X017153Y019836D01*
X017033Y019956D01*
X016957Y019988D01*
X017033Y020019D01*
X017153Y020139D01*
X017218Y020296D01*
X017218Y020466D01*
X017153Y020624D01*
X017033Y020744D01*
X016957Y020775D01*
X017033Y020806D01*
X017153Y020927D01*
X017218Y021084D01*
X017218Y021254D01*
X017153Y021411D01*
X017033Y021531D01*
X016876Y021596D01*
X016706Y021596D01*
X016549Y021531D01*
X016428Y021411D01*
X016363Y021254D01*
X016363Y021084D01*
X016428Y020927D01*
X016549Y020806D01*
X016624Y020775D01*
X016549Y020744D01*
X016428Y020624D01*
X016363Y020466D01*
X016363Y020296D01*
X016428Y020139D01*
X016549Y020019D01*
X016624Y019988D01*
X016549Y019956D01*
X016428Y019836D01*
X016363Y019679D01*
X016363Y019509D01*
X016428Y019352D01*
X016549Y019232D01*
X016624Y019200D01*
X016549Y019169D01*
X016428Y019049D01*
X016363Y018892D01*
X016363Y018722D01*
X016428Y018564D01*
X016549Y018444D01*
X016624Y018413D01*
X016549Y018382D01*
X016428Y018261D01*
X016363Y018104D01*
X016363Y017934D01*
X016428Y017777D01*
X016549Y017657D01*
X016624Y017625D01*
X016549Y017594D01*
X016428Y017474D01*
X016363Y017317D01*
X016363Y017147D01*
X016428Y016990D01*
X016549Y016869D01*
X016624Y016838D01*
X016549Y016807D01*
X016428Y016687D01*
X016363Y016529D01*
X016363Y016359D01*
X016428Y016202D01*
X016549Y016082D01*
X016624Y016051D01*
X016549Y016019D01*
X016428Y015899D01*
X016363Y015742D01*
X016363Y015572D01*
X016368Y015560D01*
X016293Y015484D01*
X016293Y015929D01*
X016205Y016017D01*
X015815Y016017D01*
X016096Y016285D01*
X016099Y016285D01*
X016163Y016350D01*
X016231Y016415D01*
X016231Y016418D01*
X016233Y016420D01*
X016233Y016512D01*
X016236Y016605D01*
X016233Y016607D01*
X016233Y018636D01*
X016237Y018727D01*
X016233Y018731D01*
X016233Y018736D01*
X016169Y018800D01*
X015761Y019243D01*
X015761Y019248D01*
X015697Y019312D01*
X015635Y019379D01*
X015630Y019379D01*
X015626Y019383D01*
X015536Y019383D01*
X015445Y019387D01*
X015441Y019383D01*
X015387Y019383D01*
X015387Y019433D01*
X015299Y019521D01*
X014777Y019521D01*
X014777Y019887D01*
X014945Y019887D01*
X015033Y019975D01*
X015033Y020536D01*
X014953Y020616D01*
X014993Y020575D02*
X016409Y020575D01*
X016368Y020477D02*
X015033Y020477D01*
X015033Y020378D02*
X016363Y020378D01*
X016370Y020280D02*
X015033Y020280D01*
X015033Y020181D02*
X016411Y020181D01*
X016485Y020083D02*
X015033Y020083D01*
X015033Y019984D02*
X016616Y019984D01*
X016478Y019886D02*
X014777Y019886D01*
X014777Y019787D02*
X016408Y019787D01*
X016367Y019689D02*
X014777Y019689D01*
X014777Y019590D02*
X016363Y019590D01*
X016371Y019491D02*
X015329Y019491D01*
X015387Y019393D02*
X016411Y019393D01*
X016486Y019294D02*
X015715Y019294D01*
X015805Y019196D02*
X016614Y019196D01*
X016477Y019097D02*
X015896Y019097D01*
X015986Y018999D02*
X016408Y018999D01*
X016367Y018900D02*
X016077Y018900D01*
X016168Y018802D02*
X016363Y018802D01*
X016371Y018703D02*
X016236Y018703D01*
X016233Y018605D02*
X016412Y018605D01*
X016487Y018506D02*
X016233Y018506D01*
X016233Y018407D02*
X016611Y018407D01*
X016476Y018309D02*
X016233Y018309D01*
X016233Y018210D02*
X016407Y018210D01*
X016367Y018112D02*
X016233Y018112D01*
X016233Y018013D02*
X016363Y018013D01*
X016371Y017915D02*
X016233Y017915D01*
X016233Y017816D02*
X016412Y017816D01*
X016488Y017718D02*
X016233Y017718D01*
X016233Y017619D02*
X016609Y017619D01*
X016475Y017521D02*
X016233Y017521D01*
X016233Y017422D02*
X016407Y017422D01*
X016366Y017323D02*
X016233Y017323D01*
X016233Y017225D02*
X016363Y017225D01*
X016372Y017126D02*
X016233Y017126D01*
X016233Y017028D02*
X016413Y017028D01*
X016489Y016929D02*
X016233Y016929D01*
X016233Y016831D02*
X016607Y016831D01*
X016474Y016732D02*
X016233Y016732D01*
X016233Y016634D02*
X016407Y016634D01*
X016366Y016535D02*
X016234Y016535D01*
X016233Y016437D02*
X016363Y016437D01*
X016372Y016338D02*
X016151Y016338D01*
X016048Y016239D02*
X016413Y016239D01*
X016490Y016141D02*
X015944Y016141D01*
X015841Y016042D02*
X016604Y016042D01*
X016473Y015944D02*
X016278Y015944D01*
X016293Y015845D02*
X016406Y015845D01*
X016365Y015747D02*
X016293Y015747D01*
X016293Y015648D02*
X016363Y015648D01*
X016358Y015550D02*
X016293Y015550D01*
X015588Y016437D02*
X014539Y016437D01*
X014539Y016535D02*
X015691Y016535D01*
X015773Y016634D02*
X014539Y016634D01*
X014539Y016732D02*
X015773Y016732D01*
X015773Y016831D02*
X014471Y016831D01*
X014226Y017028D02*
X015773Y017028D01*
X015773Y017126D02*
X014237Y017126D01*
X014261Y017225D02*
X015773Y017225D01*
X015773Y017323D02*
X014284Y017323D01*
X014308Y017422D02*
X015773Y017422D01*
X015773Y017521D02*
X014332Y017521D01*
X014355Y017619D02*
X015773Y017619D01*
X015773Y017718D02*
X014379Y017718D01*
X014600Y017816D02*
X015773Y017816D01*
X015773Y017915D02*
X014600Y017915D01*
X014600Y018013D02*
X015773Y018013D01*
X015773Y018112D02*
X014600Y018112D01*
X014600Y018210D02*
X015773Y018210D01*
X015773Y018309D02*
X014600Y018309D01*
X014563Y018407D02*
X015773Y018407D01*
X015773Y018506D02*
X014559Y018506D01*
X014647Y018605D02*
X015724Y018605D01*
X015633Y018703D02*
X014737Y018703D01*
X015316Y018802D02*
X015542Y018802D01*
X015451Y018900D02*
X015387Y018900D01*
X016968Y019196D02*
X017328Y019196D01*
X017328Y019097D02*
X017105Y019097D01*
X017174Y018999D02*
X017328Y018999D01*
X017328Y018900D02*
X017215Y018900D01*
X017218Y018802D02*
X017328Y018802D01*
X017328Y018703D02*
X017211Y018703D01*
X017170Y018605D02*
X017360Y018605D01*
X017149Y018506D02*
X017095Y018506D01*
X017092Y018407D02*
X016971Y018407D01*
X017756Y017816D02*
X017937Y017816D01*
X017937Y017718D02*
X017690Y017718D01*
X017690Y017619D02*
X017937Y017619D01*
X017937Y017521D02*
X017690Y017521D01*
X017690Y017422D02*
X017937Y017422D01*
X017937Y017323D02*
X017690Y017323D01*
X017690Y017225D02*
X017937Y017225D01*
X017937Y017126D02*
X017690Y017126D01*
X017690Y017028D02*
X017937Y017028D01*
X017937Y016929D02*
X017690Y016929D01*
X017690Y016831D02*
X017940Y016831D01*
X017981Y016732D02*
X017690Y016732D01*
X017690Y016634D02*
X018067Y016634D01*
X018166Y016535D02*
X017690Y016535D01*
X017690Y016437D02*
X018264Y016437D01*
X018363Y016338D02*
X017690Y016338D01*
X017690Y016239D02*
X018461Y016239D01*
X018560Y016141D02*
X017690Y016141D01*
X017690Y016042D02*
X018659Y016042D01*
X018757Y015944D02*
X017690Y015944D01*
X017690Y015845D02*
X018856Y015845D01*
X018954Y015747D02*
X017690Y015747D01*
X017690Y015648D02*
X019053Y015648D01*
X019151Y015550D02*
X018759Y015550D01*
X018773Y015451D02*
X019250Y015451D01*
X019348Y015353D02*
X018773Y015353D01*
X018773Y015254D02*
X019447Y015254D01*
X019545Y015156D02*
X018773Y015156D01*
X018773Y015057D02*
X019644Y015057D01*
X019742Y014958D02*
X018756Y014958D01*
X018819Y014860D02*
X020904Y014860D01*
X020043Y015648D02*
X021826Y015648D01*
X021821Y015550D02*
X021904Y015550D01*
X021748Y015747D02*
X019944Y015747D01*
X019846Y015845D02*
X021669Y015845D01*
X021591Y015944D02*
X019747Y015944D01*
X019648Y016042D02*
X021513Y016042D01*
X021435Y016141D02*
X019550Y016141D01*
X019451Y016239D02*
X021357Y016239D01*
X021279Y016338D02*
X019353Y016338D01*
X019254Y016437D02*
X021201Y016437D01*
X021122Y016535D02*
X019156Y016535D01*
X019057Y016634D02*
X021088Y016634D01*
X021088Y016732D02*
X018959Y016732D01*
X018860Y016831D02*
X021088Y016831D01*
X021043Y016929D02*
X020497Y016929D01*
X020690Y017028D02*
X020990Y017028D01*
X020990Y017126D02*
X020788Y017126D01*
X020881Y017225D02*
X020990Y017225D01*
X020990Y017323D02*
X020922Y017323D01*
X020963Y017422D02*
X020990Y017422D01*
X021936Y018407D02*
X022471Y018407D01*
X022531Y018309D02*
X022030Y018309D01*
X022124Y018210D02*
X022586Y018210D01*
X022641Y018112D02*
X022218Y018112D01*
X022313Y018013D02*
X022695Y018013D01*
X022750Y017915D02*
X022410Y017915D01*
X022415Y017816D02*
X022805Y017816D01*
X022860Y017718D02*
X022415Y017718D01*
X022415Y017619D02*
X022914Y017619D01*
X022969Y017521D02*
X022415Y017521D01*
X022415Y017422D02*
X023024Y017422D01*
X023079Y017323D02*
X022415Y017323D01*
X022448Y017225D02*
X023133Y017225D01*
X023188Y017126D02*
X022529Y017126D01*
X022609Y017028D02*
X023243Y017028D01*
X023293Y016929D02*
X022689Y016929D01*
X022769Y016831D02*
X023324Y016831D01*
X023355Y016732D02*
X022850Y016732D01*
X022930Y016634D02*
X023387Y016634D01*
X023418Y016535D02*
X023010Y016535D01*
X023091Y016437D02*
X023449Y016437D01*
X023480Y016338D02*
X023171Y016338D01*
X023259Y016239D02*
X023512Y016239D01*
X023543Y016141D02*
X023284Y016141D01*
X023281Y016042D02*
X023574Y016042D01*
X023605Y015944D02*
X023282Y015944D01*
X023282Y015845D02*
X023637Y015845D01*
X023668Y015747D02*
X023283Y015747D01*
X023283Y015648D02*
X023699Y015648D01*
X023730Y015550D02*
X023284Y015550D01*
X023284Y015451D02*
X023762Y015451D01*
X023793Y015353D02*
X023285Y015353D01*
X023285Y015254D02*
X023814Y015254D01*
X023832Y015156D02*
X023286Y015156D01*
X023286Y015057D02*
X023850Y015057D01*
X023869Y014958D02*
X023287Y014958D01*
X023288Y014860D02*
X023887Y014860D01*
X023905Y014761D02*
X023288Y014761D01*
X023289Y014663D02*
X023924Y014663D01*
X023942Y014564D02*
X023289Y014564D01*
X023290Y014466D02*
X023960Y014466D01*
X023979Y014367D02*
X023290Y014367D01*
X023291Y014269D02*
X023997Y014269D01*
X024015Y014170D02*
X023291Y014170D01*
X023292Y014072D02*
X024034Y014072D01*
X024052Y013973D02*
X023292Y013973D01*
X023293Y013874D02*
X024070Y013874D01*
X024089Y013776D02*
X023293Y013776D01*
X023294Y013677D02*
X024107Y013677D01*
X024117Y013579D02*
X023294Y013579D01*
X023295Y013480D02*
X024123Y013480D01*
X024129Y013382D02*
X023296Y013382D01*
X023296Y013283D02*
X024135Y013283D01*
X024141Y013185D02*
X023297Y013185D01*
X023297Y013086D02*
X024146Y013086D01*
X024152Y012988D02*
X023298Y012988D01*
X023298Y012889D02*
X024158Y012889D01*
X024164Y012790D02*
X023299Y012790D01*
X023299Y012692D02*
X024170Y012692D01*
X024175Y012593D02*
X023300Y012593D01*
X023300Y012495D02*
X024181Y012495D01*
X024187Y012396D02*
X023301Y012396D01*
X023301Y012298D02*
X024192Y012298D01*
X024190Y012199D02*
X023302Y012199D01*
X023303Y012101D02*
X024187Y012101D01*
X024184Y012002D02*
X023303Y012002D01*
X023304Y011904D02*
X024182Y011904D01*
X024179Y011805D02*
X023304Y011805D01*
X023305Y011706D02*
X024176Y011706D01*
X024174Y011608D02*
X023305Y011608D01*
X023306Y011509D02*
X024171Y011509D01*
X024168Y011411D02*
X023306Y011411D01*
X023307Y011312D02*
X024166Y011312D01*
X024163Y011214D02*
X023307Y011214D01*
X023308Y011115D02*
X024160Y011115D01*
X024158Y011017D02*
X023308Y011017D01*
X023309Y010918D02*
X024155Y010918D01*
X024148Y010820D02*
X023309Y010820D01*
X023310Y010721D02*
X024127Y010721D01*
X024107Y010623D02*
X023311Y010623D01*
X023311Y010524D02*
X024087Y010524D01*
X024067Y010425D02*
X023312Y010425D01*
X023312Y010327D02*
X024047Y010327D01*
X024026Y010228D02*
X023313Y010228D01*
X023313Y010130D02*
X024006Y010130D01*
X023986Y010031D02*
X023314Y010031D01*
X023314Y009933D02*
X023966Y009933D01*
X023946Y009834D02*
X023315Y009834D01*
X023315Y009736D02*
X023925Y009736D01*
X023905Y009637D02*
X023316Y009637D01*
X023316Y009539D02*
X023885Y009539D01*
X023865Y009440D02*
X023317Y009440D01*
X023318Y009341D02*
X023844Y009341D01*
X023816Y009243D02*
X023318Y009243D01*
X023319Y009144D02*
X023784Y009144D01*
X023752Y009046D02*
X023319Y009046D01*
X023320Y008947D02*
X023720Y008947D01*
X023688Y008849D02*
X023322Y008849D01*
X023291Y008750D02*
X023656Y008750D01*
X023624Y008652D02*
X023260Y008652D01*
X023228Y008553D02*
X023592Y008553D01*
X023560Y008455D02*
X023197Y008455D01*
X023166Y008356D02*
X023528Y008356D01*
X023496Y008257D02*
X023135Y008257D01*
X023103Y008159D02*
X023464Y008159D01*
X023432Y008060D02*
X023072Y008060D01*
X023041Y007962D02*
X023400Y007962D01*
X023368Y007863D02*
X023010Y007863D01*
X022978Y007765D02*
X023336Y007765D01*
X023288Y007666D02*
X022947Y007666D01*
X022916Y007568D02*
X023235Y007568D01*
X023181Y007469D02*
X022885Y007469D01*
X022854Y007371D02*
X023127Y007371D01*
X023073Y007272D02*
X022826Y007272D01*
X022791Y007174D02*
X023020Y007174D01*
X022966Y007075D02*
X022752Y007075D01*
X022714Y006976D02*
X022912Y006976D01*
X022858Y006878D02*
X022676Y006878D01*
X022638Y006779D02*
X022805Y006779D01*
X022751Y006681D02*
X022616Y006681D01*
X022563Y006582D02*
X022697Y006582D01*
X022643Y006484D02*
X022452Y006484D01*
X022365Y006385D02*
X022586Y006385D01*
X022526Y006287D02*
X022279Y006287D01*
X022192Y006188D02*
X022466Y006188D01*
X022406Y006090D02*
X022105Y006090D01*
X022018Y005991D02*
X022346Y005991D01*
X022286Y005892D02*
X021932Y005892D01*
X021845Y005794D02*
X022226Y005794D01*
X022166Y005695D02*
X021758Y005695D01*
X021696Y005597D02*
X022107Y005597D01*
X022041Y005498D02*
X021659Y005498D01*
X021621Y005400D02*
X021965Y005400D01*
X021890Y005301D02*
X021584Y005301D01*
X021546Y005203D02*
X021814Y005203D01*
X021738Y005104D02*
X021509Y005104D01*
X021471Y005006D02*
X021662Y005006D01*
X021586Y004907D02*
X021445Y004907D01*
X021396Y004808D02*
X021511Y004808D01*
X021435Y004710D02*
X021328Y004710D01*
X021359Y004611D02*
X021268Y004611D01*
X021283Y004513D02*
X021207Y004513D01*
X021190Y004414D02*
X021147Y004414D01*
X019966Y005203D02*
X019963Y005203D01*
X019954Y005301D02*
X019966Y005301D01*
X019954Y005400D02*
X019966Y005400D01*
X019966Y005498D02*
X019917Y005498D01*
X019988Y005597D02*
X019844Y005597D01*
X019676Y005695D02*
X020038Y005695D01*
X020097Y005794D02*
X018743Y005794D01*
X018774Y005892D02*
X020190Y005892D01*
X020283Y005991D02*
X018872Y005991D01*
X018971Y006090D02*
X019966Y006090D01*
X019755Y006188D02*
X019017Y006188D01*
X019017Y006287D02*
X019657Y006287D01*
X019558Y006385D02*
X019017Y006385D01*
X019017Y006484D02*
X019515Y006484D01*
X019475Y006582D02*
X018959Y006582D01*
X018861Y006681D02*
X019436Y006681D01*
X019436Y006779D02*
X018762Y006779D01*
X018741Y006860D02*
X019017Y007136D01*
X019017Y007525D01*
X018741Y007800D01*
X018352Y007800D01*
X018077Y007525D01*
X018077Y007136D01*
X018352Y006860D01*
X018741Y006860D01*
X018759Y006878D02*
X019436Y006878D01*
X019436Y006976D02*
X018858Y006976D01*
X018956Y007075D02*
X019473Y007075D01*
X019653Y007371D02*
X019017Y007371D01*
X019017Y007469D02*
X019752Y007469D01*
X019958Y007568D02*
X018974Y007568D01*
X018875Y007666D02*
X021491Y007666D01*
X021457Y007568D02*
X020474Y007568D01*
X020680Y007469D02*
X021423Y007469D01*
X021389Y007371D02*
X020779Y007371D01*
X020959Y007075D02*
X021287Y007075D01*
X021208Y006976D02*
X020996Y006976D01*
X020996Y006878D02*
X021116Y006878D01*
X021023Y006779D02*
X020996Y006779D01*
X021525Y007765D02*
X018777Y007765D01*
X018317Y007765D02*
X016777Y007765D01*
X016875Y007666D02*
X018218Y007666D01*
X018120Y007568D02*
X016974Y007568D01*
X017017Y007469D02*
X018077Y007469D01*
X018077Y007371D02*
X017017Y007371D01*
X017017Y007272D02*
X018077Y007272D01*
X018077Y007174D02*
X017017Y007174D01*
X016956Y007075D02*
X018137Y007075D01*
X018236Y006976D02*
X016858Y006976D01*
X016759Y006878D02*
X018334Y006878D01*
X018331Y006779D02*
X016762Y006779D01*
X016861Y006681D02*
X018233Y006681D01*
X018134Y006582D02*
X016959Y006582D01*
X017017Y006484D02*
X018077Y006484D01*
X018077Y006385D02*
X017017Y006385D01*
X017017Y006287D02*
X018077Y006287D01*
X018077Y006188D02*
X017017Y006188D01*
X016971Y006090D02*
X018123Y006090D01*
X018841Y005695D02*
X019496Y005695D01*
X019328Y005597D02*
X018940Y005597D01*
X019039Y005498D02*
X019256Y005498D01*
X019218Y005400D02*
X019137Y005400D01*
X017916Y004033D02*
X017916Y003945D01*
X017972Y003889D01*
X017916Y003833D01*
X017916Y003793D01*
X017821Y003793D01*
X017815Y003796D01*
X017768Y003793D01*
X017721Y003793D01*
X017715Y003790D01*
X017707Y003790D01*
X017665Y003770D01*
X017622Y003752D01*
X017617Y003747D01*
X017610Y003744D01*
X017579Y003709D01*
X017546Y003676D01*
X017543Y003669D01*
X016212Y002190D01*
X015768Y002061D01*
X015477Y002061D01*
X015166Y002341D01*
X015133Y002374D01*
X015126Y002377D01*
X015121Y002382D01*
X015077Y002397D01*
X015034Y002415D01*
X015026Y002415D01*
X015019Y002418D01*
X014973Y002415D01*
X013499Y002415D01*
X013463Y002443D02*
X016441Y002443D01*
X016352Y002345D02*
X015162Y002345D01*
X015271Y002246D02*
X016263Y002246D01*
X016067Y002148D02*
X015381Y002148D01*
X015011Y001754D02*
X006942Y001754D01*
X006757Y001852D02*
X014902Y001852D01*
X015121Y001655D02*
X007128Y001655D01*
X007313Y001557D02*
X015230Y001557D01*
X015968Y001557D02*
X016816Y001557D01*
X016816Y001655D02*
X016307Y001655D01*
X016546Y001754D02*
X016816Y001754D01*
X016816Y001852D02*
X016635Y001852D01*
X016723Y001951D02*
X016816Y001951D01*
X016812Y002049D02*
X016816Y002049D01*
X016529Y002542D02*
X014120Y002542D01*
X014197Y002641D02*
X016618Y002641D01*
X016706Y002739D02*
X014197Y002739D01*
X014197Y002838D02*
X016795Y002838D01*
X016884Y002936D02*
X014197Y002936D01*
X014197Y003035D02*
X016972Y003035D01*
X017061Y003133D02*
X016144Y003133D01*
X016175Y003164D02*
X016087Y003076D01*
X015526Y003076D01*
X015439Y003164D01*
X015439Y003466D01*
X015373Y003466D01*
X015345Y003438D01*
X014748Y003438D01*
X014661Y003526D01*
X014661Y003867D01*
X014748Y003955D01*
X015345Y003955D01*
X015373Y003926D01*
X015650Y003926D01*
X015764Y003812D01*
X016087Y003812D01*
X016175Y003725D01*
X016175Y003164D01*
X016175Y003232D02*
X017150Y003232D01*
X017239Y003330D02*
X016175Y003330D01*
X016175Y003429D02*
X017327Y003429D01*
X017416Y003527D02*
X016175Y003527D01*
X016175Y003626D02*
X017504Y003626D01*
X017593Y003724D02*
X016175Y003724D01*
X016115Y004192D02*
X016829Y004192D01*
X016917Y004280D01*
X016917Y004843D01*
X017727Y004033D01*
X017916Y004033D01*
X017916Y004020D02*
X013794Y004020D01*
X013794Y004119D02*
X017642Y004119D01*
X017543Y004217D02*
X016855Y004217D01*
X016917Y004316D02*
X017445Y004316D01*
X017346Y004414D02*
X016917Y004414D01*
X016917Y004513D02*
X017248Y004513D01*
X017149Y004611D02*
X016917Y004611D01*
X016917Y004710D02*
X017050Y004710D01*
X016952Y004808D02*
X016917Y004808D01*
X016115Y004192D02*
X016027Y004280D01*
X016027Y004355D01*
X016008Y004336D01*
X016000Y004336D01*
X015902Y004238D01*
X015711Y004238D01*
X015397Y004238D01*
X015345Y004186D01*
X014748Y004186D01*
X014661Y004274D01*
X014661Y004615D01*
X014748Y004703D01*
X015345Y004703D01*
X015350Y004698D01*
X015360Y004698D01*
X015360Y004907D01*
X015360Y004808D02*
X013884Y004808D01*
X014192Y004710D02*
X015360Y004710D01*
X015376Y004217D02*
X016089Y004217D01*
X016027Y004316D02*
X015980Y004316D01*
X015655Y003922D02*
X017940Y003922D01*
X017916Y003823D02*
X015753Y003823D01*
X015439Y003429D02*
X013794Y003429D01*
X014197Y003330D02*
X015439Y003330D01*
X015439Y003232D02*
X014197Y003232D01*
X014197Y003133D02*
X015469Y003133D01*
X014661Y003527D02*
X014409Y003527D01*
X014409Y003626D02*
X014661Y003626D01*
X014661Y003724D02*
X014409Y003724D01*
X014409Y003823D02*
X014661Y003823D01*
X014715Y003922D02*
X014355Y003922D01*
X014353Y004217D02*
X014717Y004217D01*
X014661Y004316D02*
X014409Y004316D01*
X014409Y004414D02*
X014661Y004414D01*
X014661Y004513D02*
X014409Y004513D01*
X014409Y004611D02*
X014661Y004611D01*
X015279Y005400D02*
X015652Y005400D01*
X016449Y007863D02*
X021559Y007863D01*
X021593Y007962D02*
X016461Y007962D01*
X016461Y008060D02*
X021627Y008060D01*
X021661Y008159D02*
X016461Y008159D01*
X016461Y008257D02*
X021696Y008257D01*
X021730Y008356D02*
X016461Y008356D01*
X016461Y008455D02*
X021764Y008455D01*
X021798Y008553D02*
X020418Y008553D01*
X020492Y008652D02*
X021832Y008652D01*
X021866Y008750D02*
X020566Y008750D01*
X020639Y008849D02*
X021900Y008849D01*
X021934Y008947D02*
X020713Y008947D01*
X020787Y009046D02*
X021968Y009046D01*
X021993Y009144D02*
X020861Y009144D01*
X020935Y009243D02*
X021993Y009243D01*
X021993Y009341D02*
X021009Y009341D01*
X021083Y009440D02*
X021993Y009440D01*
X021993Y009539D02*
X021163Y009539D01*
X021261Y009637D02*
X021993Y009637D01*
X021993Y009736D02*
X021360Y009736D01*
X021459Y009834D02*
X021993Y009834D01*
X021993Y009933D02*
X021557Y009933D01*
X021656Y010031D02*
X021993Y010031D01*
X021993Y010130D02*
X021754Y010130D01*
X021853Y010228D02*
X021993Y010228D01*
X021993Y010327D02*
X021951Y010327D01*
X019669Y012002D02*
X017918Y012002D01*
X017819Y011904D02*
X019570Y011904D01*
X019472Y011805D02*
X017721Y011805D01*
X017622Y011706D02*
X019373Y011706D01*
X019275Y011608D02*
X017524Y011608D01*
X018016Y012101D02*
X019671Y012101D01*
X019671Y012199D02*
X018044Y012199D01*
X018044Y012298D02*
X019671Y012298D01*
X019671Y012396D02*
X018044Y012396D01*
X018044Y012495D02*
X019671Y012495D01*
X019671Y012593D02*
X018044Y012593D01*
X018044Y012692D02*
X019671Y012692D01*
X019671Y012790D02*
X018044Y012790D01*
X018044Y012889D02*
X019671Y012889D01*
X019671Y012988D02*
X018044Y012988D01*
X018044Y013086D02*
X019671Y013086D01*
X019473Y013185D02*
X018044Y013185D01*
X018044Y013283D02*
X019415Y013283D01*
X019415Y013382D02*
X018044Y013382D01*
X018044Y013480D02*
X019415Y013480D01*
X019415Y013579D02*
X018794Y013579D01*
X018812Y013677D02*
X019415Y013677D01*
X018095Y013579D02*
X018044Y013579D01*
X018044Y013677D02*
X018076Y013677D01*
X018076Y013776D02*
X018044Y013776D01*
X018044Y013874D02*
X018076Y013874D01*
X018076Y013973D02*
X018044Y013973D01*
X018044Y014072D02*
X018076Y014072D01*
X018089Y014170D02*
X018044Y014170D01*
X018044Y014269D02*
X018116Y014269D01*
X018116Y014367D02*
X018044Y014367D01*
X018044Y014466D02*
X018116Y014466D01*
X018116Y014564D02*
X018044Y014564D01*
X018044Y014663D02*
X018116Y014663D01*
X018116Y014761D02*
X018044Y014761D01*
X017792Y015156D02*
X017690Y015156D01*
X017690Y015254D02*
X017956Y015254D01*
X018037Y015353D02*
X017690Y015353D01*
X017690Y015451D02*
X018037Y015451D01*
X018051Y015550D02*
X017690Y015550D01*
X018762Y016929D02*
X019935Y016929D01*
X019742Y017028D02*
X018663Y017028D01*
X018637Y017126D02*
X019644Y017126D01*
X019551Y017225D02*
X018637Y017225D01*
X018637Y017323D02*
X019510Y017323D01*
X019469Y017422D02*
X018637Y017422D01*
X018637Y017521D02*
X019436Y017521D01*
X019436Y017619D02*
X018637Y017619D01*
X018637Y017718D02*
X019436Y017718D01*
X019438Y017816D02*
X018637Y017816D01*
X018637Y017915D02*
X019479Y017915D01*
X019519Y018013D02*
X018637Y018013D01*
X018637Y018112D02*
X019568Y018112D01*
X019666Y018210D02*
X018637Y018210D01*
X018637Y018309D02*
X019765Y018309D01*
X019959Y018407D02*
X018637Y018407D01*
X018637Y018506D02*
X019591Y018506D01*
X019223Y018605D02*
X018637Y018605D01*
X018624Y018703D02*
X018855Y018703D01*
X018622Y018802D02*
X018582Y018802D01*
X018530Y018900D02*
X018484Y018900D01*
X018431Y018999D02*
X018385Y018999D01*
X018332Y019097D02*
X018286Y019097D01*
X018234Y019196D02*
X018188Y019196D01*
X018135Y019294D02*
X017096Y019294D01*
X017170Y019393D02*
X018037Y019393D01*
X017938Y019491D02*
X017211Y019491D01*
X017218Y019590D02*
X017840Y019590D01*
X017741Y019689D02*
X017214Y019689D01*
X017174Y019787D02*
X017643Y019787D01*
X017544Y019886D02*
X017104Y019886D01*
X016966Y019984D02*
X017506Y019984D01*
X017506Y020083D02*
X017097Y020083D01*
X017171Y020181D02*
X017506Y020181D01*
X017506Y020280D02*
X017211Y020280D01*
X017218Y020378D02*
X017506Y020378D01*
X017506Y020477D02*
X017214Y020477D01*
X017173Y020575D02*
X017506Y020575D01*
X017506Y020674D02*
X017103Y020674D01*
X016964Y020772D02*
X017506Y020772D01*
X017506Y020871D02*
X017098Y020871D01*
X017171Y020970D02*
X017506Y020970D01*
X017506Y021068D02*
X017212Y021068D01*
X017218Y021167D02*
X017506Y021167D01*
X017506Y021265D02*
X017214Y021265D01*
X017173Y021364D02*
X017506Y021364D01*
X017424Y021462D02*
X017102Y021462D01*
X016961Y021561D02*
X017326Y021561D01*
X017227Y021659D02*
X016118Y021659D01*
X016020Y021561D02*
X016620Y021561D01*
X016480Y021462D02*
X015921Y021462D01*
X015823Y021364D02*
X016409Y021364D01*
X016368Y021265D02*
X015724Y021265D01*
X015626Y021167D02*
X016363Y021167D01*
X016370Y021068D02*
X015527Y021068D01*
X015429Y020970D02*
X016411Y020970D01*
X016484Y020871D02*
X015330Y020871D01*
X015232Y020772D02*
X016618Y020772D01*
X016479Y020674D02*
X015133Y020674D01*
X013362Y022743D02*
X013346Y022743D01*
X012862Y022743D02*
X012846Y022743D01*
X012362Y022743D02*
X012346Y022743D01*
X011862Y022743D02*
X011846Y022743D01*
X011362Y022743D02*
X011346Y022743D01*
X010862Y022743D02*
X010846Y022743D01*
X010753Y024123D02*
X014139Y024123D01*
X014942Y024024D02*
X010063Y024024D01*
X009499Y023926D02*
X015256Y023926D01*
X015570Y023827D02*
X009217Y023827D01*
X008934Y023729D02*
X015884Y023729D01*
X016199Y023630D02*
X008652Y023630D01*
X008369Y023532D02*
X016513Y023532D01*
X017640Y022448D02*
X018473Y022448D01*
X018639Y022349D02*
X017739Y022349D01*
X017837Y022251D02*
X018805Y022251D01*
X018960Y022152D02*
X017936Y022152D01*
X018034Y022054D02*
X019092Y022054D01*
X019223Y021955D02*
X018133Y021955D01*
X018232Y021856D02*
X019354Y021856D01*
X019486Y021758D02*
X018330Y021758D01*
X018399Y021659D02*
X019617Y021659D01*
X019749Y021561D02*
X018399Y021561D01*
X018399Y021462D02*
X019880Y021462D01*
X020011Y021364D02*
X018399Y021364D01*
X018399Y021265D02*
X020143Y021265D01*
X020250Y021167D02*
X018399Y021167D01*
X018399Y021068D02*
X020348Y021068D01*
X020447Y020970D02*
X018399Y020970D01*
X018399Y020871D02*
X020545Y020871D01*
X020644Y020772D02*
X018399Y020772D01*
X018399Y020674D02*
X020742Y020674D01*
X020841Y020575D02*
X018399Y020575D01*
X018399Y020477D02*
X020940Y020477D01*
X021038Y020378D02*
X018399Y020378D01*
X018399Y020280D02*
X021137Y020280D01*
X021235Y020181D02*
X018489Y020181D01*
X018588Y020083D02*
X021329Y020083D01*
X021396Y019984D02*
X018687Y019984D01*
X018785Y019886D02*
X021463Y019886D01*
X021530Y019787D02*
X018884Y019787D01*
X018982Y019689D02*
X021598Y019689D01*
X021665Y019590D02*
X019092Y019590D01*
X019439Y019491D02*
X021732Y019491D01*
X021799Y019393D02*
X019787Y019393D01*
X020135Y019294D02*
X021866Y019294D01*
X021934Y019196D02*
X020483Y019196D01*
X020831Y019097D02*
X022001Y019097D01*
X022068Y018999D02*
X021178Y018999D01*
X021481Y018900D02*
X022135Y018900D01*
X022202Y018802D02*
X021559Y018802D01*
X021653Y018703D02*
X022269Y018703D01*
X022337Y018605D02*
X021747Y018605D01*
X021841Y018506D02*
X022404Y018506D01*
X017937Y018407D02*
X017828Y018407D01*
X017828Y018309D02*
X017937Y018309D01*
X017937Y018210D02*
X017828Y018210D01*
X017828Y018112D02*
X017937Y018112D01*
X017937Y018013D02*
X017828Y018013D01*
X017828Y017915D02*
X017937Y017915D01*
X017888Y018506D02*
X017771Y018506D01*
X015773Y016929D02*
X014148Y016929D01*
X014539Y016338D02*
X015485Y016338D01*
X015381Y016239D02*
X014539Y016239D01*
X014539Y016141D02*
X015278Y016141D01*
X015175Y016042D02*
X014534Y016042D01*
X014641Y015944D02*
X014193Y015944D01*
X014124Y015845D02*
X014554Y015845D01*
X014554Y015747D02*
X014042Y015747D01*
X013966Y015648D02*
X014554Y015648D01*
X014554Y015550D02*
X013891Y015550D01*
X013855Y015451D02*
X014554Y015451D01*
X014554Y015353D02*
X012946Y015353D01*
X012946Y015451D02*
X013191Y015451D01*
X013155Y015550D02*
X012946Y015550D01*
X012946Y015648D02*
X013155Y015648D01*
X013155Y015747D02*
X012946Y015747D01*
X012946Y015845D02*
X013155Y015845D01*
X013155Y015944D02*
X012946Y015944D01*
X012959Y016042D02*
X013103Y016042D01*
X013098Y016141D02*
X012964Y016141D01*
X012964Y016239D02*
X013098Y016239D01*
X013098Y016338D02*
X012964Y016338D01*
X012964Y016437D02*
X013098Y016437D01*
X013098Y016535D02*
X012964Y016535D01*
X012964Y016634D02*
X013098Y016634D01*
X012966Y015254D02*
X013936Y015254D01*
X013903Y015156D02*
X012966Y015156D01*
X012966Y015057D02*
X013903Y015057D01*
X012927Y014170D02*
X011823Y014170D01*
X011903Y014072D02*
X012998Y014072D01*
X012998Y013973D02*
X011903Y013973D01*
X011903Y013874D02*
X012998Y013874D01*
X012998Y013776D02*
X011903Y013776D01*
X011725Y014269D02*
X012829Y014269D01*
X012730Y014367D02*
X011626Y014367D01*
X009330Y015254D02*
X008839Y015254D01*
X008741Y015156D02*
X009257Y015156D01*
X009257Y015057D02*
X008642Y015057D01*
X006087Y012593D02*
X005517Y012593D01*
X005419Y012495D02*
X005989Y012495D01*
X005890Y012396D02*
X005320Y012396D01*
X005221Y012298D02*
X005791Y012298D01*
X005693Y012199D02*
X005123Y012199D01*
X005024Y012101D02*
X005594Y012101D01*
X005496Y012002D02*
X004926Y012002D01*
X004827Y011904D02*
X005397Y011904D01*
X005299Y011805D02*
X004729Y011805D01*
X004630Y011706D02*
X005200Y011706D01*
X005102Y011608D02*
X004532Y011608D01*
X004433Y011509D02*
X005003Y011509D01*
X004905Y011411D02*
X004335Y011411D01*
X004236Y011312D02*
X004806Y011312D01*
X004707Y011214D02*
X004137Y011214D01*
X004039Y011115D02*
X004609Y011115D01*
X004510Y011017D02*
X003940Y011017D01*
X003842Y010918D02*
X004412Y010918D01*
X004313Y010820D02*
X003743Y010820D01*
X003690Y010721D02*
X004215Y010721D01*
X004116Y010623D02*
X003690Y010623D01*
X002750Y010623D02*
X002512Y010623D01*
X002610Y010721D02*
X002750Y010721D01*
X002750Y010820D02*
X002690Y010820D01*
X002690Y010918D02*
X002750Y010918D01*
X002750Y011017D02*
X002690Y011017D01*
X002690Y011115D02*
X002750Y011115D01*
X002750Y011214D02*
X002666Y011214D01*
X002750Y011312D02*
X002568Y011312D01*
X002469Y011411D02*
X002783Y011411D01*
X002943Y011608D02*
X002497Y011608D01*
X002596Y011706D02*
X002844Y011706D01*
X002750Y011805D02*
X002690Y011805D01*
X002690Y011904D02*
X002750Y011904D01*
X002750Y012002D02*
X002690Y012002D01*
X002690Y012101D02*
X002750Y012101D01*
X002759Y012199D02*
X002681Y012199D01*
X002582Y012298D02*
X002858Y012298D01*
X002956Y012396D02*
X002484Y012396D01*
X001956Y012396D02*
X000460Y012396D01*
X000466Y012298D02*
X001858Y012298D01*
X001759Y012199D02*
X000471Y012199D01*
X000477Y012101D02*
X001539Y012101D01*
X001441Y012002D02*
X000482Y012002D01*
X000488Y011904D02*
X001342Y011904D01*
X001244Y011805D02*
X000493Y011805D01*
X000499Y011706D02*
X001145Y011706D01*
X001049Y011608D02*
X000504Y011608D01*
X000509Y011509D02*
X001049Y011509D01*
X001049Y011411D02*
X000515Y011411D01*
X000520Y011312D02*
X001049Y011312D01*
X001049Y011214D02*
X000526Y011214D01*
X000531Y011115D02*
X001049Y011115D01*
X001049Y011017D02*
X000537Y011017D01*
X000542Y010918D02*
X001049Y010918D01*
X001049Y010820D02*
X000548Y010820D01*
X000553Y010721D02*
X001049Y010721D01*
X001049Y010623D02*
X000559Y010623D01*
X000564Y010524D02*
X001049Y010524D01*
X001099Y010425D02*
X000570Y010425D01*
X000585Y010327D02*
X001197Y010327D01*
X001296Y010228D02*
X000601Y010228D01*
X000618Y010130D02*
X001394Y010130D01*
X001493Y010031D02*
X000634Y010031D01*
X000650Y009933D02*
X001340Y009933D01*
X001146Y009834D02*
X000667Y009834D01*
X000683Y009736D02*
X001066Y009736D01*
X001025Y009637D02*
X000700Y009637D01*
X000716Y009539D02*
X000999Y009539D01*
X001007Y009440D02*
X000733Y009440D01*
X000749Y009341D02*
X001007Y009341D01*
X001007Y009243D02*
X000765Y009243D01*
X000782Y009144D02*
X001007Y009144D01*
X001007Y009046D02*
X000798Y009046D01*
X000815Y008947D02*
X001007Y008947D01*
X001007Y008849D02*
X000831Y008849D01*
X000857Y008750D02*
X001004Y008750D01*
X001007Y008652D02*
X000886Y008652D01*
X000914Y008553D02*
X001022Y008553D01*
X001065Y008455D02*
X000942Y008455D01*
X000979Y008356D02*
X001153Y008356D01*
X001252Y008257D02*
X001034Y008257D01*
X001089Y008159D02*
X001350Y008159D01*
X001449Y008060D02*
X001144Y008060D01*
X001199Y007962D02*
X001572Y007962D01*
X001677Y007863D02*
X001254Y007863D01*
X001310Y007765D02*
X001781Y007765D01*
X001886Y007666D02*
X001365Y007666D01*
X001420Y007568D02*
X001990Y007568D01*
X002095Y007469D02*
X001475Y007469D01*
X001530Y007371D02*
X002199Y007371D01*
X002304Y007272D02*
X001585Y007272D01*
X001640Y007174D02*
X002408Y007174D01*
X002513Y007075D02*
X001695Y007075D01*
X001750Y006976D02*
X002669Y006976D01*
X002896Y006878D02*
X001806Y006878D01*
X001861Y006779D02*
X002896Y006779D01*
X002896Y006681D02*
X001916Y006681D01*
X001971Y006582D02*
X002896Y006582D01*
X002896Y006484D02*
X002026Y006484D01*
X002081Y006385D02*
X002896Y006385D01*
X002896Y006287D02*
X002136Y006287D01*
X002193Y006188D02*
X002896Y006188D01*
X002896Y006090D02*
X002265Y006090D01*
X002336Y005991D02*
X002896Y005991D01*
X002896Y005892D02*
X002408Y005892D01*
X002479Y005794D02*
X002896Y005794D01*
X002907Y005695D02*
X002551Y005695D01*
X002622Y005597D02*
X002948Y005597D01*
X003027Y005498D02*
X002694Y005498D01*
X002765Y005400D02*
X003124Y005400D01*
X003224Y005301D02*
X002836Y005301D01*
X002908Y005203D02*
X003322Y005203D01*
X003421Y005104D02*
X002979Y005104D01*
X003051Y005006D02*
X003564Y005006D01*
X003265Y004710D02*
X010789Y004710D01*
X010789Y004808D02*
X003194Y004808D01*
X003122Y004907D02*
X010789Y004907D01*
X010789Y005006D02*
X009017Y005006D01*
X009027Y005104D02*
X010828Y005104D01*
X010923Y005203D02*
X009027Y005203D01*
X009027Y005301D02*
X010990Y005301D01*
X010990Y005400D02*
X009027Y005400D01*
X009027Y005498D02*
X010990Y005498D01*
X011051Y005597D02*
X009027Y005597D01*
X009027Y005695D02*
X011651Y005695D01*
X011665Y005597D02*
X012887Y005597D01*
X012887Y005498D02*
X011726Y005498D01*
X011726Y005400D02*
X012887Y005400D01*
X012887Y005301D02*
X011726Y005301D01*
X011726Y005203D02*
X012887Y005203D01*
X012887Y005104D02*
X011726Y005104D01*
X011726Y005006D02*
X012887Y005006D01*
X012887Y004907D02*
X011658Y004907D01*
X011329Y004808D02*
X012909Y004808D01*
X012952Y004710D02*
X011329Y004710D01*
X011329Y004611D02*
X013050Y004611D01*
X013116Y004513D02*
X011329Y004513D01*
X011329Y004414D02*
X013165Y004414D01*
X013174Y004316D02*
X011329Y004316D01*
X011329Y004217D02*
X013174Y004217D01*
X013174Y004119D02*
X013144Y004119D01*
X013117Y003232D02*
X013174Y003232D01*
X013179Y003133D02*
X012938Y003133D01*
X012937Y003035D02*
X013220Y003035D01*
X013307Y002936D02*
X012937Y002936D01*
X012962Y002838D02*
X013385Y002838D01*
X013385Y002739D02*
X013087Y002739D01*
X013212Y002641D02*
X013385Y002641D01*
X013337Y002542D02*
X013461Y002542D01*
X012228Y003232D02*
X011503Y003232D01*
X011563Y003330D02*
X012168Y003330D01*
X012168Y003429D02*
X011563Y003429D01*
X011563Y003527D02*
X012168Y003527D01*
X012168Y003626D02*
X011563Y003626D01*
X011563Y003724D02*
X012168Y003724D01*
X012168Y003823D02*
X011563Y003823D01*
X011563Y003922D02*
X012168Y003922D01*
X012168Y004020D02*
X011563Y004020D01*
X011529Y004119D02*
X012202Y004119D01*
X010789Y004217D02*
X003746Y004217D01*
X003645Y004316D02*
X010789Y004316D01*
X010789Y004414D02*
X003544Y004414D01*
X003442Y004513D02*
X010789Y004513D01*
X010789Y004611D02*
X003341Y004611D01*
X003848Y004119D02*
X010588Y004119D01*
X011553Y005794D02*
X008964Y005794D01*
X008279Y005794D02*
X008183Y005794D01*
X008183Y005892D02*
X011454Y005892D01*
X011356Y005991D02*
X008183Y005991D01*
X008141Y006090D02*
X011257Y006090D01*
X011159Y006188D02*
X005323Y006188D01*
X005421Y006287D02*
X011060Y006287D01*
X010962Y006385D02*
X005520Y006385D01*
X005562Y006484D02*
X008961Y006484D01*
X008796Y006582D02*
X005603Y006582D01*
X005642Y006681D02*
X007670Y006681D01*
X007604Y006779D02*
X005642Y006779D01*
X005642Y006878D02*
X007601Y006878D01*
X007572Y006976D02*
X005642Y006976D01*
X005605Y007075D02*
X007572Y007075D01*
X007600Y007174D02*
X005564Y007174D01*
X005523Y007272D02*
X007604Y007272D01*
X007667Y007371D02*
X005424Y007371D01*
X005326Y007469D02*
X010058Y007469D01*
X010058Y007371D02*
X009133Y007371D01*
X009238Y007272D02*
X010109Y007272D01*
X010058Y007568D02*
X005119Y007568D01*
X004933Y007666D02*
X010058Y007666D01*
X010058Y007765D02*
X004933Y007765D01*
X004933Y007863D02*
X010058Y007863D01*
X010058Y007962D02*
X004933Y007962D01*
X004933Y008060D02*
X005971Y008060D01*
X005873Y008159D02*
X004933Y008159D01*
X004933Y008257D02*
X005774Y008257D01*
X006074Y008947D02*
X006151Y008947D01*
X006147Y009046D02*
X002684Y009046D01*
X002769Y008947D02*
X003924Y008947D01*
X003826Y008849D02*
X002854Y008849D01*
X002939Y008750D02*
X003727Y008750D01*
X003629Y008652D02*
X003024Y008652D01*
X003109Y008553D02*
X003530Y008553D01*
X003432Y008455D02*
X003194Y008455D01*
X003279Y008356D02*
X003333Y008356D01*
X003903Y007568D02*
X004129Y007568D01*
X003916Y007469D02*
X004398Y007469D01*
X004299Y007371D02*
X003912Y007371D01*
X003904Y007075D02*
X004119Y007075D01*
X004082Y006976D02*
X003902Y006976D01*
X003899Y006878D02*
X004082Y006878D01*
X004082Y006779D02*
X003897Y006779D01*
X003894Y006681D02*
X004082Y006681D01*
X004120Y006582D02*
X003892Y006582D01*
X003889Y006484D02*
X004161Y006484D01*
X004204Y006385D02*
X003887Y006385D01*
X003884Y006287D02*
X004302Y006287D01*
X004401Y006188D02*
X003882Y006188D01*
X003975Y006090D02*
X004612Y006090D01*
X005111Y006090D02*
X007488Y006090D01*
X007446Y005991D02*
X004109Y005991D01*
X006879Y008947D02*
X011160Y008947D01*
X011317Y009440D02*
X011383Y009440D01*
X011383Y009539D02*
X011293Y009539D01*
X011293Y009637D02*
X011383Y009637D01*
X011383Y009736D02*
X011293Y009736D01*
X011246Y009834D02*
X011383Y009834D01*
X011410Y009933D02*
X008256Y009933D01*
X008256Y010031D02*
X011541Y010031D01*
X011541Y010130D02*
X008256Y010130D01*
X008180Y010228D02*
X011541Y010228D01*
X011541Y010327D02*
X004471Y010327D01*
X004570Y010425D02*
X011541Y010425D01*
X011541Y010524D02*
X004668Y010524D01*
X004767Y010623D02*
X011541Y010623D01*
X011541Y010721D02*
X004865Y010721D01*
X004964Y010820D02*
X011541Y010820D01*
X011541Y010918D02*
X005062Y010918D01*
X005358Y011214D02*
X006680Y011214D01*
X006659Y011312D02*
X005456Y011312D01*
X005555Y011411D02*
X006659Y011411D01*
X006659Y011509D02*
X005654Y011509D01*
X005752Y011608D02*
X006659Y011608D01*
X006659Y011706D02*
X005851Y011706D01*
X005949Y011805D02*
X006669Y011805D01*
X006959Y011904D02*
X006048Y011904D01*
X006153Y009736D02*
X002122Y009736D01*
X002174Y009637D02*
X006153Y009637D01*
X006174Y009539D02*
X002259Y009539D01*
X002344Y009440D02*
X006147Y009440D01*
X006147Y009341D02*
X002429Y009341D01*
X002514Y009243D02*
X006147Y009243D01*
X006147Y009144D02*
X002599Y009144D01*
X007499Y001458D02*
X017185Y001458D01*
X016942Y001359D02*
X007717Y001359D01*
X007946Y001261D02*
X016699Y001261D01*
X016456Y001162D02*
X008174Y001162D01*
X008402Y001064D02*
X016213Y001064D01*
X015907Y000965D02*
X008630Y000965D01*
X008858Y000867D02*
X015585Y000867D01*
X015262Y000768D02*
X009087Y000768D01*
X009430Y000670D02*
X014940Y000670D01*
X014425Y000571D02*
X010261Y000571D01*
X011091Y000473D02*
X013612Y000473D01*
X014539Y011608D02*
X015782Y011608D01*
X015684Y011706D02*
X014539Y011706D01*
X014539Y011805D02*
X015631Y011805D01*
X015570Y011904D02*
X014539Y011904D01*
X014539Y012002D02*
X015509Y012002D01*
X015449Y012101D02*
X014539Y012101D01*
X014536Y012199D02*
X015388Y012199D01*
X015328Y012298D02*
X014521Y012298D01*
X014503Y012396D02*
X014554Y012396D01*
X014554Y012495D02*
X014404Y012495D01*
X014306Y012593D02*
X014554Y012593D01*
X015702Y013874D02*
X015957Y013874D01*
X016055Y013776D02*
X015800Y013776D01*
X015858Y013973D02*
X015603Y013973D01*
X012833Y024221D02*
X012315Y024221D01*
D31*
X008838Y008838D03*
X012342Y001122D03*
X019114Y004311D03*
X019586Y005334D03*
D32*
X012736Y007224D03*
X012263Y007657D03*
D33*
X007893Y005413D02*
X003720Y005413D01*
X003326Y005807D01*
X003326Y007342D01*
X003074Y007601D01*
X001830Y008877D01*
X001751Y009507D01*
X001437Y009507D01*
X001437Y008681D01*
X002814Y007381D01*
X003366Y007381D01*
X002303Y008405D01*
X001712Y008405D01*
X001437Y008681D01*
X001594Y009232D02*
X001437Y009507D01*
X001751Y009507D02*
X001594Y009232D01*
X001751Y009468D02*
X003420Y007534D01*
X003484Y007460D01*
X003444Y005885D01*
X003956Y005374D01*
X003799Y005374D02*
X007854Y005374D01*
X007893Y005413D01*
X001988Y008799D02*
X001751Y009468D01*
M02*
