G75*
G70*
%OFA0B0*%
%FSLAX24Y24*%
%IPPOS*%
%LPD*%
%AMOC8*
5,1,8,0,0,1.08239X$1,22.5*
%
%ADD10C,0.0000*%
%ADD11C,0.0039*%
%ADD12R,0.0640X0.0640*%
%ADD13OC8,0.0640*%
%ADD14R,0.2480X0.0866*%
%ADD15R,0.0512X0.0591*%
%ADD16R,0.1063X0.0630*%
%ADD17R,0.0551X0.0472*%
%ADD18R,0.0394X0.0433*%
%ADD19R,0.0591X0.0512*%
%ADD20C,0.0555*%
%ADD21R,0.0866X0.0236*%
%ADD22R,0.1024X0.0709*%
%ADD23R,0.0433X0.0551*%
%ADD24R,0.0709X0.0315*%
%ADD25R,0.1181X0.0827*%
%ADD26R,0.0550X0.0137*%
%ADD27R,0.2100X0.0760*%
%ADD28R,0.0866X0.2480*%
%ADD29R,0.0630X0.1181*%
%ADD30R,0.0394X0.2165*%
%ADD31R,0.0118X0.0394*%
%ADD32C,0.0160*%
%ADD33C,0.0320*%
%ADD34R,0.0436X0.0436*%
%ADD35C,0.0240*%
%ADD36C,0.0120*%
%ADD37C,0.0400*%
%ADD38C,0.0500*%
%ADD39C,0.0436*%
%ADD40OC8,0.0436*%
%ADD41C,0.0560*%
%ADD42C,0.0118*%
%ADD43C,0.0760*%
%ADD44C,0.0100*%
D10*
X004232Y006830D02*
X004234Y006880D01*
X004240Y006930D01*
X004250Y006979D01*
X004264Y007027D01*
X004281Y007074D01*
X004302Y007119D01*
X004327Y007163D01*
X004355Y007204D01*
X004387Y007243D01*
X004421Y007280D01*
X004458Y007314D01*
X004498Y007344D01*
X004540Y007371D01*
X004584Y007395D01*
X004630Y007416D01*
X004677Y007432D01*
X004725Y007445D01*
X004775Y007454D01*
X004824Y007459D01*
X004875Y007460D01*
X004925Y007457D01*
X004974Y007450D01*
X005023Y007439D01*
X005071Y007424D01*
X005117Y007406D01*
X005162Y007384D01*
X005205Y007358D01*
X005246Y007329D01*
X005285Y007297D01*
X005321Y007262D01*
X005353Y007224D01*
X005383Y007184D01*
X005410Y007141D01*
X005433Y007097D01*
X005452Y007051D01*
X005468Y007003D01*
X005480Y006954D01*
X005488Y006905D01*
X005492Y006855D01*
X005492Y006805D01*
X005488Y006755D01*
X005480Y006706D01*
X005468Y006657D01*
X005452Y006609D01*
X005433Y006563D01*
X005410Y006519D01*
X005383Y006476D01*
X005353Y006436D01*
X005321Y006398D01*
X005285Y006363D01*
X005246Y006331D01*
X005205Y006302D01*
X005162Y006276D01*
X005117Y006254D01*
X005071Y006236D01*
X005023Y006221D01*
X004974Y006210D01*
X004925Y006203D01*
X004875Y006200D01*
X004824Y006201D01*
X004775Y006206D01*
X004725Y006215D01*
X004677Y006228D01*
X004630Y006244D01*
X004584Y006265D01*
X004540Y006289D01*
X004498Y006316D01*
X004458Y006346D01*
X004421Y006380D01*
X004387Y006417D01*
X004355Y006456D01*
X004327Y006497D01*
X004302Y006541D01*
X004281Y006586D01*
X004264Y006633D01*
X004250Y006681D01*
X004240Y006730D01*
X004234Y006780D01*
X004232Y006830D01*
X004232Y017657D02*
X004234Y017707D01*
X004240Y017757D01*
X004250Y017806D01*
X004264Y017854D01*
X004281Y017901D01*
X004302Y017946D01*
X004327Y017990D01*
X004355Y018031D01*
X004387Y018070D01*
X004421Y018107D01*
X004458Y018141D01*
X004498Y018171D01*
X004540Y018198D01*
X004584Y018222D01*
X004630Y018243D01*
X004677Y018259D01*
X004725Y018272D01*
X004775Y018281D01*
X004824Y018286D01*
X004875Y018287D01*
X004925Y018284D01*
X004974Y018277D01*
X005023Y018266D01*
X005071Y018251D01*
X005117Y018233D01*
X005162Y018211D01*
X005205Y018185D01*
X005246Y018156D01*
X005285Y018124D01*
X005321Y018089D01*
X005353Y018051D01*
X005383Y018011D01*
X005410Y017968D01*
X005433Y017924D01*
X005452Y017878D01*
X005468Y017830D01*
X005480Y017781D01*
X005488Y017732D01*
X005492Y017682D01*
X005492Y017632D01*
X005488Y017582D01*
X005480Y017533D01*
X005468Y017484D01*
X005452Y017436D01*
X005433Y017390D01*
X005410Y017346D01*
X005383Y017303D01*
X005353Y017263D01*
X005321Y017225D01*
X005285Y017190D01*
X005246Y017158D01*
X005205Y017129D01*
X005162Y017103D01*
X005117Y017081D01*
X005071Y017063D01*
X005023Y017048D01*
X004974Y017037D01*
X004925Y017030D01*
X004875Y017027D01*
X004824Y017028D01*
X004775Y017033D01*
X004725Y017042D01*
X004677Y017055D01*
X004630Y017071D01*
X004584Y017092D01*
X004540Y017116D01*
X004498Y017143D01*
X004458Y017173D01*
X004421Y017207D01*
X004387Y017244D01*
X004355Y017283D01*
X004327Y017324D01*
X004302Y017368D01*
X004281Y017413D01*
X004264Y017460D01*
X004250Y017508D01*
X004240Y017557D01*
X004234Y017607D01*
X004232Y017657D01*
X019586Y017657D02*
X019588Y017707D01*
X019594Y017757D01*
X019604Y017806D01*
X019618Y017854D01*
X019635Y017901D01*
X019656Y017946D01*
X019681Y017990D01*
X019709Y018031D01*
X019741Y018070D01*
X019775Y018107D01*
X019812Y018141D01*
X019852Y018171D01*
X019894Y018198D01*
X019938Y018222D01*
X019984Y018243D01*
X020031Y018259D01*
X020079Y018272D01*
X020129Y018281D01*
X020178Y018286D01*
X020229Y018287D01*
X020279Y018284D01*
X020328Y018277D01*
X020377Y018266D01*
X020425Y018251D01*
X020471Y018233D01*
X020516Y018211D01*
X020559Y018185D01*
X020600Y018156D01*
X020639Y018124D01*
X020675Y018089D01*
X020707Y018051D01*
X020737Y018011D01*
X020764Y017968D01*
X020787Y017924D01*
X020806Y017878D01*
X020822Y017830D01*
X020834Y017781D01*
X020842Y017732D01*
X020846Y017682D01*
X020846Y017632D01*
X020842Y017582D01*
X020834Y017533D01*
X020822Y017484D01*
X020806Y017436D01*
X020787Y017390D01*
X020764Y017346D01*
X020737Y017303D01*
X020707Y017263D01*
X020675Y017225D01*
X020639Y017190D01*
X020600Y017158D01*
X020559Y017129D01*
X020516Y017103D01*
X020471Y017081D01*
X020425Y017063D01*
X020377Y017048D01*
X020328Y017037D01*
X020279Y017030D01*
X020229Y017027D01*
X020178Y017028D01*
X020129Y017033D01*
X020079Y017042D01*
X020031Y017055D01*
X019984Y017071D01*
X019938Y017092D01*
X019894Y017116D01*
X019852Y017143D01*
X019812Y017173D01*
X019775Y017207D01*
X019741Y017244D01*
X019709Y017283D01*
X019681Y017324D01*
X019656Y017368D01*
X019635Y017413D01*
X019618Y017460D01*
X019604Y017508D01*
X019594Y017557D01*
X019588Y017607D01*
X019586Y017657D01*
X019586Y006830D02*
X019588Y006880D01*
X019594Y006930D01*
X019604Y006979D01*
X019618Y007027D01*
X019635Y007074D01*
X019656Y007119D01*
X019681Y007163D01*
X019709Y007204D01*
X019741Y007243D01*
X019775Y007280D01*
X019812Y007314D01*
X019852Y007344D01*
X019894Y007371D01*
X019938Y007395D01*
X019984Y007416D01*
X020031Y007432D01*
X020079Y007445D01*
X020129Y007454D01*
X020178Y007459D01*
X020229Y007460D01*
X020279Y007457D01*
X020328Y007450D01*
X020377Y007439D01*
X020425Y007424D01*
X020471Y007406D01*
X020516Y007384D01*
X020559Y007358D01*
X020600Y007329D01*
X020639Y007297D01*
X020675Y007262D01*
X020707Y007224D01*
X020737Y007184D01*
X020764Y007141D01*
X020787Y007097D01*
X020806Y007051D01*
X020822Y007003D01*
X020834Y006954D01*
X020842Y006905D01*
X020846Y006855D01*
X020846Y006805D01*
X020842Y006755D01*
X020834Y006706D01*
X020822Y006657D01*
X020806Y006609D01*
X020787Y006563D01*
X020764Y006519D01*
X020737Y006476D01*
X020707Y006436D01*
X020675Y006398D01*
X020639Y006363D01*
X020600Y006331D01*
X020559Y006302D01*
X020516Y006276D01*
X020471Y006254D01*
X020425Y006236D01*
X020377Y006221D01*
X020328Y006210D01*
X020279Y006203D01*
X020229Y006200D01*
X020178Y006201D01*
X020129Y006206D01*
X020079Y006215D01*
X020031Y006228D01*
X019984Y006244D01*
X019938Y006265D01*
X019894Y006289D01*
X019852Y006316D01*
X019812Y006346D01*
X019775Y006380D01*
X019741Y006417D01*
X019709Y006456D01*
X019681Y006497D01*
X019656Y006541D01*
X019635Y006586D01*
X019618Y006633D01*
X019604Y006681D01*
X019594Y006730D01*
X019588Y006780D01*
X019586Y006830D01*
D11*
X000123Y012342D02*
X000138Y012942D01*
X000182Y013540D01*
X000255Y014135D01*
X000358Y014726D01*
X000489Y015311D01*
X000649Y015889D01*
X000837Y016458D01*
X001053Y017018D01*
X001296Y017566D01*
X001566Y018102D01*
X001861Y018624D01*
X002182Y019131D01*
X002528Y019621D01*
X002897Y020094D01*
X003288Y020548D01*
X003702Y020982D01*
X004136Y021396D01*
X004590Y021787D01*
X005063Y022156D01*
X005553Y022502D01*
X006060Y022823D01*
X006582Y023118D01*
X007118Y023388D01*
X007666Y023631D01*
X008226Y023847D01*
X008795Y024035D01*
X009373Y024195D01*
X009958Y024326D01*
X010549Y024429D01*
X011144Y024502D01*
X011742Y024546D01*
X012342Y024561D01*
X012942Y024546D01*
X013540Y024502D01*
X014135Y024429D01*
X014726Y024326D01*
X015311Y024195D01*
X015889Y024035D01*
X016458Y023847D01*
X017018Y023631D01*
X017566Y023388D01*
X018102Y023118D01*
X018624Y022823D01*
X019131Y022502D01*
X019621Y022156D01*
X020094Y021787D01*
X020548Y021396D01*
X020982Y020982D01*
X021396Y020548D01*
X021787Y020094D01*
X022156Y019621D01*
X022502Y019131D01*
X022823Y018624D01*
X023118Y018102D01*
X023388Y017566D01*
X023631Y017018D01*
X023847Y016458D01*
X024035Y015889D01*
X024195Y015311D01*
X024326Y014726D01*
X024429Y014135D01*
X024502Y013540D01*
X024546Y012942D01*
X024561Y012342D01*
X024546Y011742D01*
X024502Y011144D01*
X024429Y010549D01*
X024326Y009958D01*
X024195Y009373D01*
X024035Y008795D01*
X023847Y008226D01*
X023631Y007666D01*
X023388Y007118D01*
X023118Y006582D01*
X022823Y006060D01*
X022502Y005553D01*
X022156Y005063D01*
X021787Y004590D01*
X021396Y004136D01*
X020982Y003702D01*
X020548Y003288D01*
X020094Y002897D01*
X019621Y002528D01*
X019131Y002182D01*
X018624Y001861D01*
X018102Y001566D01*
X017566Y001296D01*
X017018Y001053D01*
X016458Y000837D01*
X015889Y000649D01*
X015311Y000489D01*
X014726Y000358D01*
X014135Y000255D01*
X013540Y000182D01*
X012942Y000138D01*
X012342Y000123D01*
X011742Y000138D01*
X011144Y000182D01*
X010549Y000255D01*
X009958Y000358D01*
X009373Y000489D01*
X008795Y000649D01*
X008226Y000837D01*
X007666Y001053D01*
X007118Y001296D01*
X006582Y001566D01*
X006060Y001861D01*
X005553Y002182D01*
X005063Y002528D01*
X004590Y002897D01*
X004136Y003288D01*
X003702Y003702D01*
X003288Y004136D01*
X002897Y004590D01*
X002528Y005063D01*
X002182Y005553D01*
X001861Y006060D01*
X001566Y006582D01*
X001296Y007118D01*
X001053Y007666D01*
X000837Y008226D01*
X000649Y008795D01*
X000489Y009373D01*
X000358Y009958D01*
X000255Y010549D01*
X000182Y011144D01*
X000138Y011742D01*
X000123Y012342D01*
D12*
X003220Y010996D03*
D13*
X003220Y011996D03*
X003220Y012996D03*
X002220Y012996D03*
X002220Y011996D03*
X002220Y010996D03*
X014547Y007330D03*
X014547Y006330D03*
X015547Y006330D03*
X015547Y007330D03*
X016547Y007330D03*
X016547Y006330D03*
X017547Y006330D03*
X018547Y006330D03*
X018547Y007330D03*
X017547Y007330D03*
D14*
X008921Y003496D03*
X008921Y001881D03*
D15*
X005862Y003681D03*
X005114Y003681D03*
X007881Y006393D03*
X008629Y006393D03*
X009566Y007673D03*
X010314Y007673D03*
X012984Y008980D03*
X013732Y008980D03*
X016897Y009740D03*
X017645Y009740D03*
X017665Y010606D03*
X016917Y010606D03*
X014236Y014295D03*
X013488Y014295D03*
X007157Y018291D03*
X006409Y018291D03*
X005224Y015940D03*
X004476Y015940D03*
X004496Y014976D03*
X005244Y014976D03*
X012192Y021374D03*
X012940Y021374D03*
X006799Y007063D03*
X006051Y007063D03*
X014598Y002976D03*
X015346Y002976D03*
D16*
X004850Y004551D03*
X004850Y005653D03*
D17*
X013492Y004374D03*
X013492Y003192D03*
D18*
X005925Y005629D03*
X005925Y006299D03*
X002696Y008622D03*
X002696Y009291D03*
X015192Y010700D03*
X015192Y011370D03*
X021610Y015799D03*
X021610Y016468D03*
D19*
X022523Y016326D03*
X022523Y015578D03*
X019255Y015874D03*
X019255Y016622D03*
X018362Y016606D03*
X018362Y015858D03*
X015566Y016940D03*
X015566Y017689D03*
X015665Y014137D03*
X015665Y013389D03*
X010673Y016385D03*
X010673Y017133D03*
X007149Y017389D03*
X007149Y016641D03*
X006610Y019736D03*
X006610Y020484D03*
X007818Y012251D03*
X007818Y011503D03*
X010259Y011149D03*
X010259Y010401D03*
X010251Y006055D03*
X010251Y005307D03*
X003563Y007007D03*
X003563Y007755D03*
X003563Y008622D03*
X003563Y009370D03*
X002696Y007755D03*
X002696Y007007D03*
X001039Y010996D03*
X001039Y011744D03*
X021342Y007976D03*
X021342Y007228D03*
X022287Y007196D03*
X022287Y007944D03*
D20*
X016791Y014082D03*
X016791Y014870D03*
X016791Y015657D03*
X016791Y016444D03*
X016791Y017232D03*
X016791Y018019D03*
X016791Y018807D03*
X016791Y019594D03*
X016791Y020381D03*
X016791Y021169D03*
X008129Y021169D03*
X008129Y020381D03*
X008129Y019594D03*
X008129Y018807D03*
X008129Y018019D03*
X008129Y017232D03*
X008129Y016444D03*
X008129Y015657D03*
X008129Y014870D03*
X008129Y014082D03*
D21*
X018598Y013582D03*
X018598Y013189D03*
X018598Y012795D03*
X018598Y012401D03*
X018598Y012007D03*
X018598Y011614D03*
X018598Y011220D03*
X018598Y010826D03*
X018598Y010433D03*
X018598Y010039D03*
D22*
X019543Y009015D03*
X019543Y014606D03*
D23*
X012283Y008492D03*
X011283Y008492D03*
X011283Y006051D03*
X012283Y006051D03*
D24*
X016665Y004143D03*
X016665Y003651D03*
D25*
X017895Y002667D03*
X017895Y005127D03*
D26*
X014128Y010033D03*
X014128Y010289D03*
X014128Y010545D03*
X014128Y010801D03*
X014128Y011057D03*
X014128Y011313D03*
X014128Y011568D03*
X014128Y011824D03*
X014128Y012080D03*
X014128Y012336D03*
X014128Y012592D03*
X014128Y012848D03*
X014128Y013104D03*
X014128Y013360D03*
X011249Y013360D03*
X011249Y013104D03*
X011249Y012848D03*
X011249Y012592D03*
X011249Y012336D03*
X011249Y012080D03*
X011249Y011824D03*
X011249Y011568D03*
X011249Y011313D03*
X011249Y011057D03*
X011249Y010801D03*
X011249Y010545D03*
X011249Y010289D03*
X011249Y010033D03*
D27*
X009081Y009594D03*
X005281Y009594D03*
D28*
X017921Y020330D03*
X019535Y020330D03*
D29*
X013838Y001724D03*
X011161Y001724D03*
D30*
X012106Y002618D03*
X012893Y002618D03*
D31*
X007263Y003937D03*
X007066Y003937D03*
X006870Y003937D03*
X006673Y003937D03*
X006476Y003937D03*
X006476Y005551D03*
X006673Y005551D03*
X006870Y005551D03*
X007066Y005551D03*
X007263Y005551D03*
D32*
X007500Y004626D02*
X007500Y004547D01*
X006830Y004547D01*
X009468Y007657D02*
X009586Y007736D01*
X009586Y008129D02*
X009901Y008484D01*
X010492Y008484D01*
X010531Y008523D01*
X010409Y007657D02*
X010314Y007673D01*
X010409Y007657D02*
X011318Y007657D01*
X011751Y008090D01*
X011751Y009626D01*
X012500Y009429D02*
X012535Y009429D01*
X012984Y008980D01*
X013051Y009507D02*
X015610Y009507D01*
X016318Y008799D01*
X018051Y008799D01*
X019074Y007775D01*
X019074Y006858D01*
X018547Y006330D01*
X019586Y005334D02*
X019468Y005059D01*
X019114Y004311D01*
X014547Y004940D02*
X014547Y005177D01*
X014311Y005413D01*
X014196Y005531D02*
X014153Y005531D01*
X013799Y005885D01*
X013472Y008472D02*
X012263Y008472D01*
X012500Y009429D02*
X012500Y015255D01*
X013248Y016437D01*
X013248Y017027D01*
X012224Y015964D02*
X012224Y012421D01*
X011948Y012342D01*
X011594Y012342D01*
X010964Y012578D02*
X010216Y012578D01*
X009940Y012342D01*
X009940Y011830D01*
X010334Y011437D01*
X010773Y011824D02*
X010492Y012106D01*
X010773Y011824D02*
X011249Y011824D01*
X010259Y010401D02*
X010925Y009736D01*
X010925Y009507D01*
X009626Y009665D02*
X009547Y009626D01*
X009112Y009626D01*
X009081Y009594D01*
X009507Y010021D01*
X009507Y014783D01*
X009626Y014901D01*
X010137Y014704D02*
X010295Y014507D01*
X011161Y014507D01*
X010137Y014704D02*
X010137Y015255D01*
X009901Y015492D01*
X009153Y015492D01*
X008641Y015019D01*
X008641Y013681D01*
X008484Y013484D01*
X007775Y013484D01*
X007500Y013759D01*
X007500Y014665D01*
X006555Y015610D01*
X006555Y017342D01*
X006602Y017389D01*
X007114Y017389D01*
X008129Y018019D02*
X008137Y018019D01*
X009586Y018799D01*
X013444Y018799D01*
X014232Y018090D01*
X014744Y019153D02*
X014035Y019901D01*
X009980Y019901D01*
X009192Y019114D01*
X008877Y019114D01*
X009980Y019192D02*
X010098Y019192D01*
X010452Y019429D01*
X012657Y019429D01*
X012696Y019350D01*
X011594Y017893D02*
X011594Y016437D01*
X012224Y015964D01*
X012775Y014783D02*
X013523Y015767D01*
X014271Y014940D02*
X014980Y015098D01*
X015334Y015452D01*
X015334Y015846D01*
X015610Y016122D01*
X016082Y016122D01*
X016200Y016240D01*
X016318Y016838D01*
X016791Y017232D01*
X015566Y016940D02*
X015484Y016940D01*
X015098Y016555D01*
X015925Y015649D02*
X015925Y014948D01*
X016791Y014082D01*
X015862Y014137D02*
X016850Y013149D01*
X017027Y012381D02*
X017814Y013169D01*
X017814Y014153D01*
X018208Y014547D01*
X018484Y014547D01*
X018405Y015255D02*
X018405Y015814D01*
X018362Y015858D01*
X019255Y016622D02*
X020716Y016622D01*
X021358Y017263D01*
X021610Y015799D02*
X021232Y015563D01*
X021240Y014547D01*
X020649Y012972D02*
X020452Y012775D01*
X018618Y012775D01*
X018598Y012795D01*
X018598Y012401D02*
X018618Y012381D01*
X021161Y012381D01*
X021515Y012185D01*
X021515Y011988D01*
X020807Y011122D02*
X020334Y011633D01*
X018618Y011633D01*
X018598Y011614D01*
X018598Y013189D02*
X018618Y013208D01*
X019586Y013208D01*
X019783Y013405D01*
X019783Y013523D01*
X020807Y011122D02*
X020885Y010374D01*
X015925Y013326D02*
X015728Y013326D01*
X015665Y013389D01*
X015141Y013389D01*
X014236Y014295D01*
X013488Y014039D02*
X013366Y013996D01*
X013051Y013602D01*
X013051Y012814D01*
X013208Y012657D01*
X013208Y011673D01*
X013568Y011313D01*
X014128Y011313D01*
X012775Y009744D02*
X013051Y009507D01*
X012775Y009744D02*
X012775Y014783D01*
X010673Y017133D02*
X010673Y017877D01*
X010728Y017972D01*
X009074Y014547D02*
X009074Y010728D01*
X008602Y010295D01*
X005981Y010295D01*
X005281Y009594D01*
X005643Y009232D01*
X006515Y009232D01*
X007893Y009350D02*
X008837Y009350D01*
X009081Y009594D01*
X013472Y008472D02*
X013759Y008759D01*
X013759Y008952D01*
X013732Y008980D01*
X015665Y014137D02*
X015862Y014137D01*
X015019Y019153D02*
X014744Y019153D01*
X014665Y020255D02*
X014626Y021161D01*
X014626Y021830D01*
X003220Y013393D02*
X003220Y012996D01*
X003220Y013393D02*
X002854Y013759D01*
X001437Y013759D01*
X001200Y013523D01*
X001200Y011905D01*
X001039Y011744D01*
D33*
X001035Y010996D02*
X001003Y010964D01*
X001035Y010996D02*
X001039Y010996D01*
X002220Y010996D01*
X001988Y008799D02*
X002165Y008622D01*
X002696Y008622D01*
X005964Y004626D02*
X005767Y004429D01*
X005964Y004626D02*
X006594Y004626D01*
X007500Y004626D01*
X007618Y004547D02*
X008326Y004547D01*
X008366Y004507D01*
X008629Y006393D02*
X009078Y006393D01*
X009271Y006200D01*
X009586Y007657D02*
X008838Y007657D01*
X008838Y008838D01*
X009586Y008208D02*
X009586Y008129D01*
X009586Y007736D01*
X009586Y007657D01*
X009566Y007673D02*
X008854Y007673D01*
X008838Y007657D01*
X009586Y008208D02*
X009862Y008484D01*
X009901Y008484D01*
X010531Y008484D01*
X010531Y008523D01*
X010531Y008956D01*
X012263Y008472D02*
X012283Y008492D01*
X012775Y007224D02*
X013090Y007224D01*
X014429Y008563D01*
X014429Y009074D01*
X014468Y009114D01*
X014468Y008405D02*
X014429Y008405D01*
X013208Y007185D01*
X012814Y007185D01*
X012775Y007224D01*
X013208Y007185D02*
X013563Y007185D01*
X014196Y005531D02*
X014192Y005374D01*
X013484Y004744D02*
X013492Y004736D01*
X013492Y004374D01*
X013484Y004350D02*
X013484Y004744D01*
X012893Y003799D02*
X012893Y002618D01*
X012933Y002578D01*
X012933Y000846D01*
X013799Y000610D01*
X013838Y000649D01*
X016850Y001535D01*
X016862Y002885D01*
X016665Y003651D01*
X015964Y002500D02*
X015964Y002421D01*
X015137Y001594D01*
X015098Y001594D01*
X015295Y001791D01*
X015098Y001594D02*
X014547Y001594D01*
X012342Y001122D02*
X012106Y001358D01*
X012106Y002618D01*
X012106Y002460D01*
X012106Y002618D02*
X012106Y003641D01*
X015255Y008169D02*
X015255Y008956D01*
X015334Y009114D01*
X013956Y012736D02*
X013602Y012736D01*
X013523Y012972D01*
X013523Y013405D01*
X011397Y015177D02*
X010673Y015901D01*
X010673Y016385D01*
X011082Y020492D02*
X010531Y021043D01*
X011082Y020492D02*
X012539Y020492D01*
X012933Y020885D01*
X012933Y021358D01*
X012940Y021366D01*
X012940Y021374D01*
X012192Y021374D02*
X012192Y022665D01*
X012736Y023208D01*
X008129Y021818D02*
X008129Y021169D01*
X008129Y021818D02*
X008024Y021923D01*
X005783Y015940D02*
X005224Y015940D01*
X004476Y015940D02*
X003657Y015940D01*
X003563Y015846D01*
X003563Y015059D02*
X003645Y014976D01*
X004496Y014976D01*
X005244Y014976D02*
X005921Y014976D01*
X005925Y014980D01*
X015566Y017689D02*
X015921Y017689D01*
X015952Y017657D01*
X017696Y018917D02*
X017657Y021555D01*
X017921Y021370D02*
X017921Y020330D01*
X020492Y016161D02*
X021003Y016161D01*
X021791Y015137D02*
X022082Y015137D01*
X022429Y015484D01*
X022618Y015484D01*
X022523Y015578D01*
X022618Y015484D02*
X022618Y010846D01*
X022145Y010374D01*
X020885Y010374D01*
X019862Y009940D02*
X020984Y008818D01*
X019862Y009940D02*
X019507Y009940D01*
D34*
X019507Y009940D03*
X020885Y010374D03*
X021751Y009586D03*
X020984Y008818D03*
X020177Y008011D03*
X020334Y005295D03*
X019114Y003681D03*
X019311Y002933D03*
X017185Y001830D03*
X015964Y002500D03*
X015807Y003444D03*
X015728Y004704D03*
X014547Y004940D03*
X013484Y004744D03*
X013129Y006082D03*
X011358Y005255D03*
X010216Y004626D03*
X009271Y006200D03*
X008090Y005295D03*
X007814Y005767D03*
X007854Y004507D03*
X008366Y004507D03*
X007972Y007027D03*
X008838Y007657D03*
X007893Y009350D03*
X006515Y009232D03*
X007027Y011515D03*
X009074Y014547D03*
X009626Y014901D03*
X011161Y014507D03*
X011122Y013799D03*
X011397Y015177D03*
X012696Y017027D03*
X013248Y017027D03*
X013523Y015767D03*
X014271Y014940D03*
X013366Y013996D03*
X013523Y013405D03*
X015925Y013326D03*
X017027Y012381D03*
X018444Y013877D03*
X018484Y014547D03*
X018405Y015255D03*
X019783Y013523D03*
X020649Y012972D03*
X021515Y011988D03*
X023759Y011555D03*
X023759Y013090D03*
X021791Y015137D03*
X021240Y014547D03*
X021003Y016161D03*
X020492Y016161D03*
X021358Y017263D03*
X019035Y017657D03*
X019035Y018208D03*
X017696Y018917D03*
X017460Y018169D03*
X015334Y019822D03*
X015019Y019153D03*
X015059Y018326D03*
X014232Y018090D03*
X013523Y019429D03*
X012696Y019350D03*
X011594Y017893D03*
X010728Y017972D03*
X009980Y019192D03*
X008877Y019114D03*
X010531Y021043D03*
X014114Y023011D03*
X014980Y022500D03*
X014626Y021830D03*
X014665Y020255D03*
X015098Y016555D03*
X015925Y015649D03*
X010492Y012106D03*
X010334Y011437D03*
X010925Y009507D03*
X010531Y008956D03*
X011751Y009626D03*
X011318Y007657D03*
X014468Y009114D03*
X015255Y008169D03*
X015334Y009114D03*
X014547Y001594D03*
X005767Y004429D03*
X003405Y005767D03*
X003405Y006279D03*
X002696Y006279D03*
X001988Y008799D03*
X001476Y008799D03*
X001476Y009350D03*
X005925Y014980D03*
X006003Y018996D03*
D35*
X006409Y018291D02*
X006437Y018263D01*
X006437Y017972D01*
X005783Y017200D01*
X005783Y015940D01*
X005925Y014980D02*
X005846Y014901D01*
X005846Y013563D01*
X007157Y012251D01*
X007818Y012251D01*
X007818Y011503D02*
X007039Y011503D01*
X007027Y011515D01*
X009980Y011751D02*
X010295Y011437D01*
X010334Y011437D01*
X010259Y011362D01*
X010259Y011149D01*
X009980Y011751D02*
X009980Y013354D01*
X010433Y013807D01*
X011114Y013807D01*
X011122Y013799D01*
X011122Y013759D02*
X011594Y014114D01*
X011594Y015059D01*
X011397Y015177D01*
X012696Y017027D02*
X012696Y017263D01*
X013011Y017578D01*
X013523Y017578D01*
X013917Y017224D01*
X014389Y017224D01*
X015059Y017618D01*
X015952Y017618D01*
X015492Y018602D02*
X015059Y018326D01*
X015492Y018602D02*
X015492Y019547D01*
X015334Y019822D01*
X017460Y018169D02*
X018090Y018169D01*
X018838Y018917D01*
X018838Y019594D01*
X019535Y020330D01*
X019350Y018523D02*
X019035Y018208D01*
X019350Y018523D02*
X021161Y018523D01*
X022185Y017500D01*
X022185Y016988D01*
X023759Y015334D01*
X023759Y013090D01*
X023759Y013011D01*
X023759Y011555D02*
X023759Y010344D01*
X023090Y009674D01*
X023208Y009940D01*
X023208Y015885D01*
X022696Y016429D02*
X022523Y016326D01*
X022696Y016429D02*
X021610Y016468D01*
X021271Y016429D01*
X021003Y016161D01*
X020492Y016161D02*
X020492Y014468D01*
X022106Y012854D01*
X022106Y011279D01*
X021358Y011279D01*
X020649Y011988D01*
X018618Y011988D01*
X018598Y012007D01*
X018500Y011988D01*
X017893Y011988D01*
X017696Y011830D01*
X017696Y011673D01*
X017578Y011555D01*
X015466Y011555D01*
X015452Y011568D01*
X015649Y011555D02*
X015228Y011555D01*
X015149Y011633D01*
X015149Y012629D01*
X015255Y012736D01*
X016437Y012736D01*
X016850Y013149D01*
X017460Y013917D01*
X017460Y016279D01*
X017748Y016606D01*
X018362Y016606D01*
X018366Y016594D02*
X018523Y016870D01*
X019035Y017657D01*
X019255Y015874D02*
X019240Y015858D01*
X018362Y015858D01*
X018444Y013877D02*
X018444Y013736D01*
X018598Y013582D01*
X017696Y011830D02*
X017696Y011594D01*
X017696Y011476D01*
X017992Y011220D01*
X018598Y011220D01*
X018598Y010826D02*
X019566Y010826D01*
X021437Y009153D01*
X022460Y008877D01*
X023011Y008602D01*
X023011Y007578D01*
X022708Y007196D01*
X022287Y007196D01*
X022287Y006814D01*
X021358Y005807D01*
X016830Y005807D01*
X015728Y004704D01*
X016665Y004143D02*
X017313Y004143D01*
X017775Y003681D01*
X019114Y003681D01*
X019311Y002933D02*
X020255Y003720D01*
X020334Y005295D01*
X021236Y007228D02*
X020177Y008011D01*
X021358Y007992D02*
X022240Y007992D01*
X022287Y007944D01*
X021342Y007228D02*
X021236Y007228D01*
X021751Y009586D02*
X023051Y009586D01*
X023090Y009674D01*
X018598Y010039D02*
X017944Y010039D01*
X017645Y009740D01*
X017838Y010433D02*
X017665Y010606D01*
X017838Y010433D02*
X018598Y010433D01*
X015149Y011291D02*
X015149Y011633D01*
X015255Y012736D02*
X013956Y012736D01*
X013366Y013996D02*
X013488Y014118D01*
X013488Y014295D01*
X013484Y014114D02*
X013366Y013996D01*
X013484Y014114D02*
X013484Y014980D01*
X014586Y016082D01*
X014586Y017342D01*
X012775Y017342D02*
X012696Y017263D01*
X008129Y017232D02*
X007263Y016602D01*
X007149Y016641D01*
X007114Y017389D02*
X007149Y017389D01*
X007149Y018283D01*
X007157Y018291D01*
X014114Y023011D02*
X014232Y023208D01*
X002220Y010996D02*
X002106Y010881D01*
X002106Y010059D01*
X002106Y008759D01*
X002283Y008622D01*
X002696Y008622D01*
X002696Y009291D02*
X003484Y009291D01*
X003563Y009370D01*
X003563Y008622D02*
X003563Y007755D01*
X006377Y007755D01*
X006633Y007500D01*
X006633Y007149D01*
X006799Y007063D01*
X006051Y007063D02*
X005925Y006937D01*
X005925Y006299D01*
X005177Y004547D02*
X005114Y004484D01*
X005114Y004287D01*
X004850Y004551D01*
X005114Y004287D02*
X005114Y003681D01*
X007500Y003523D02*
X007539Y003484D01*
X007618Y003405D01*
X007775Y003523D02*
X008248Y003602D01*
X008641Y003484D01*
X008921Y003496D02*
X009405Y003523D01*
X010216Y004626D02*
X010255Y004704D01*
X011988Y004704D01*
X012106Y003838D01*
X012106Y004547D01*
X012696Y005137D01*
X012696Y005177D01*
X013011Y005492D01*
X014153Y005492D01*
X013759Y005885D01*
X013759Y006279D01*
X013169Y006870D01*
X012736Y006870D01*
X012354Y006082D02*
X012283Y006051D01*
X011358Y005976D02*
X011358Y005255D01*
X011358Y005976D02*
X011283Y006051D01*
X011279Y006055D01*
X010251Y006055D01*
X010251Y005307D02*
X009535Y005307D01*
X009271Y005570D01*
X009271Y006200D01*
X010098Y006870D02*
X009507Y007460D01*
X009507Y007539D01*
X009389Y007657D01*
X008838Y007657D01*
X009566Y007673D02*
X009665Y007771D01*
X009665Y008248D01*
X009901Y008484D01*
X009909Y008492D01*
X011283Y008492D01*
X013641Y006633D02*
X013799Y006476D01*
X013799Y005885D01*
X012106Y004350D02*
X012055Y004401D01*
X013492Y003192D02*
X013578Y003192D01*
X013681Y003090D01*
X014484Y003090D01*
X014598Y002976D01*
X015346Y002976D02*
X015807Y003437D01*
X015807Y003444D01*
X017185Y001830D02*
X017027Y001673D01*
X016850Y001535D01*
X010251Y004661D02*
X010216Y004626D01*
X010251Y004661D02*
X010251Y005307D01*
X007972Y007027D02*
X007803Y006858D01*
X007881Y006393D01*
X003563Y007007D02*
X003405Y006850D01*
X003405Y006279D01*
X002696Y006279D02*
X002696Y007007D01*
X002696Y007755D02*
X003563Y007755D01*
D36*
X003872Y003892D02*
X004698Y003892D01*
X004698Y004010D02*
X003758Y004010D01*
X003644Y004129D02*
X004199Y004129D01*
X004158Y004169D02*
X004252Y004076D01*
X004731Y004076D01*
X004698Y004042D01*
X004698Y003741D01*
X005054Y003741D01*
X005054Y003621D01*
X005054Y003620D02*
X005174Y003620D01*
X005174Y003225D01*
X005436Y003225D01*
X005488Y003277D01*
X005540Y003225D01*
X006184Y003225D01*
X006278Y003319D01*
X006278Y003343D01*
X006413Y003343D01*
X006003Y002933D01*
X006633Y002027D01*
X006476Y001909D01*
X004980Y002893D01*
X004114Y003641D01*
X003090Y004704D01*
X002500Y005492D01*
X001948Y006397D01*
X001515Y007460D01*
X001259Y008229D01*
X001373Y008115D01*
X001386Y008091D01*
X001434Y008054D01*
X001477Y008011D01*
X001502Y008000D01*
X001524Y007983D01*
X001583Y007967D01*
X001638Y007944D01*
X001666Y007944D01*
X001693Y007937D01*
X001753Y007944D01*
X001813Y007944D01*
X001839Y007955D01*
X001924Y007965D01*
X001969Y007965D01*
X002038Y007959D01*
X002056Y007965D01*
X002075Y007965D01*
X002139Y007991D01*
X002140Y007992D01*
X002186Y007997D01*
X002222Y008018D01*
X002241Y008024D01*
X002241Y007433D01*
X002293Y007381D01*
X002241Y007330D01*
X002241Y007067D01*
X002636Y007067D01*
X002636Y006947D01*
X002756Y006947D01*
X002756Y006591D01*
X003055Y006591D01*
X003027Y006563D01*
X003027Y006052D01*
X003027Y005483D01*
X003121Y005389D01*
X003689Y005389D01*
X003707Y005407D01*
X003768Y005407D01*
X003827Y005348D01*
X003959Y005293D01*
X004103Y005293D01*
X004158Y005293D01*
X004158Y005272D01*
X004252Y005178D01*
X005448Y005178D01*
X005541Y005272D01*
X005541Y006034D01*
X005448Y006128D01*
X005230Y006128D01*
X005309Y006161D01*
X005531Y006383D01*
X005568Y006471D01*
X005568Y006016D01*
X005620Y005964D01*
X005568Y005912D01*
X005568Y005347D01*
X005662Y005253D01*
X006188Y005253D01*
X006257Y005322D01*
X006257Y005288D01*
X006351Y005194D01*
X006547Y005194D01*
X006798Y005194D01*
X006995Y005194D01*
X007053Y005194D01*
X007087Y005160D01*
X007116Y005091D01*
X007217Y004990D01*
X007286Y004961D01*
X007330Y004917D01*
X007512Y004917D01*
X007529Y004935D01*
X007788Y004935D01*
X007806Y004917D01*
X008374Y004917D01*
X008468Y005010D01*
X008468Y005579D01*
X008374Y005673D01*
X008193Y005673D01*
X008193Y005938D01*
X008204Y005938D01*
X008255Y005990D01*
X008307Y005938D01*
X008569Y005938D01*
X008569Y006333D01*
X008689Y006333D01*
X008689Y005938D01*
X008952Y005938D01*
X009045Y006032D01*
X009045Y006333D01*
X008690Y006333D01*
X008690Y006453D01*
X009045Y006453D01*
X009045Y006728D01*
X009267Y006728D01*
X009796Y006199D01*
X009796Y005732D01*
X009848Y005681D01*
X009796Y005629D01*
X009796Y005366D01*
X010191Y005366D01*
X010191Y005247D01*
X009796Y005247D01*
X009796Y004984D01*
X009890Y004891D01*
X010192Y004891D01*
X010192Y005246D01*
X010311Y005246D01*
X010311Y004891D01*
X010613Y004891D01*
X010707Y004984D01*
X010707Y005247D01*
X010312Y005247D01*
X010312Y005366D01*
X010707Y005366D01*
X010707Y005629D01*
X010655Y005681D01*
X010707Y005732D01*
X010707Y005775D01*
X010906Y005775D01*
X010906Y005709D01*
X011000Y005615D01*
X011055Y005615D01*
X010980Y005540D01*
X010980Y004971D01*
X011073Y004877D01*
X011642Y004877D01*
X011736Y004971D01*
X011736Y005540D01*
X011642Y005634D01*
X011638Y005634D01*
X011638Y005687D01*
X011659Y005709D01*
X011659Y006393D01*
X011566Y006486D01*
X011000Y006486D01*
X010906Y006393D01*
X010906Y006335D01*
X010707Y006335D01*
X010707Y006377D01*
X010613Y006471D01*
X010147Y006471D01*
X009449Y007168D01*
X009267Y007168D01*
X008890Y007168D01*
X008417Y007641D01*
X008235Y007641D01*
X007526Y007641D01*
X007398Y007512D01*
X007215Y007329D01*
X007215Y007424D01*
X007121Y007518D01*
X006913Y007518D01*
X006913Y007555D01*
X006871Y007658D01*
X006792Y007737D01*
X006536Y007993D01*
X006433Y008035D01*
X006322Y008035D01*
X004018Y008035D01*
X004018Y008078D01*
X003924Y008171D01*
X003842Y008171D01*
X003842Y008206D01*
X003924Y008206D01*
X004018Y008299D01*
X004018Y008405D01*
X010906Y008405D01*
X010906Y008150D01*
X011000Y008056D01*
X011235Y008056D01*
X011235Y008405D01*
X011331Y008405D01*
X011331Y008056D01*
X011378Y008056D01*
X011357Y008035D01*
X011034Y008035D01*
X010940Y007941D01*
X010940Y007897D01*
X010730Y007897D01*
X010730Y008034D01*
X010637Y008128D01*
X009992Y008128D01*
X009940Y008076D01*
X009889Y008128D01*
X009626Y008128D01*
X009626Y007733D01*
X009506Y007733D01*
X009506Y007613D01*
X009151Y007613D01*
X009151Y007311D01*
X009244Y007217D01*
X009506Y007217D01*
X009506Y007613D01*
X009626Y007613D01*
X009626Y007217D01*
X009889Y007217D01*
X009940Y007269D01*
X009992Y007217D01*
X010637Y007217D01*
X010730Y007311D01*
X010730Y007417D01*
X010940Y007417D01*
X010940Y007373D01*
X011034Y007279D01*
X011603Y007279D01*
X011696Y007373D01*
X011696Y007696D01*
X011955Y007954D01*
X011991Y008042D01*
X011991Y008065D01*
X012000Y008056D01*
X012566Y008056D01*
X012659Y008150D01*
X012659Y008232D01*
X013424Y008232D01*
X013520Y008232D01*
X013608Y008269D01*
X013744Y008405D01*
X014877Y008405D01*
X014877Y007884D01*
X014971Y007791D01*
X015329Y007791D01*
X015067Y007529D01*
X015067Y007131D01*
X015348Y006850D01*
X015746Y006850D01*
X016027Y007131D01*
X016027Y007529D01*
X015746Y007810D01*
X015559Y007810D01*
X015634Y007884D01*
X015634Y008405D01*
X017578Y008405D01*
X017814Y008169D01*
X017814Y007741D01*
X017746Y007810D01*
X017587Y007810D01*
X017587Y007370D01*
X017507Y007370D01*
X017506Y007370D02*
X017506Y007290D01*
X017067Y007290D01*
X017067Y007131D01*
X017348Y006850D01*
X017507Y006850D01*
X017507Y007290D01*
X017587Y007290D01*
X017587Y006850D01*
X017746Y006850D01*
X017814Y006919D01*
X017814Y006741D01*
X017746Y006810D01*
X017587Y006810D01*
X017587Y006370D01*
X017507Y006370D01*
X017506Y006370D02*
X017506Y006290D01*
X017067Y006290D01*
X017067Y006131D01*
X017112Y006087D01*
X016982Y006087D01*
X017027Y006131D01*
X017027Y006529D01*
X016746Y006810D01*
X016348Y006810D01*
X016067Y006529D01*
X016067Y006131D01*
X016305Y005893D01*
X015334Y005019D01*
X015334Y003523D01*
X014074Y003523D01*
X014074Y005019D01*
X013877Y005177D01*
X013208Y005177D01*
X013090Y005137D01*
X012224Y004507D01*
X012224Y003860D01*
X012144Y003860D01*
X012144Y002656D01*
X012067Y002656D01*
X012067Y002579D01*
X011749Y002579D01*
X011749Y001469D01*
X011843Y001375D01*
X012067Y001375D01*
X012067Y002579D01*
X012144Y002579D01*
X012144Y001375D01*
X012369Y001375D01*
X012375Y001381D01*
X012500Y001240D01*
X012500Y000413D01*
X011751Y000413D01*
X011082Y000492D01*
X010216Y000610D01*
X009704Y000728D01*
X009704Y001161D01*
X010216Y001161D01*
X010413Y001318D01*
X010413Y003956D01*
X010255Y004153D01*
X007482Y004153D01*
X007482Y004200D01*
X007389Y004293D01*
X007263Y004293D01*
X007192Y004293D01*
X007175Y004293D01*
X007138Y004293D01*
X006941Y004293D01*
X006744Y004293D01*
X006673Y004293D01*
X006673Y004222D01*
X006673Y004222D01*
X006673Y004222D01*
X006673Y004293D01*
X006601Y004293D01*
X006596Y004293D01*
X006547Y004293D01*
X006351Y004293D01*
X006257Y004200D01*
X006257Y004063D01*
X006184Y004136D01*
X005540Y004136D01*
X005488Y004084D01*
X005472Y004100D01*
X005541Y004169D01*
X005541Y004491D01*
X004910Y004491D01*
X004910Y004611D01*
X004790Y004611D01*
X004790Y005026D01*
X004252Y005026D01*
X004158Y004932D01*
X004158Y004611D01*
X004790Y004611D01*
X004790Y004491D01*
X004158Y004491D01*
X004158Y004169D01*
X004158Y004247D02*
X003530Y004247D01*
X003416Y004366D02*
X004158Y004366D01*
X004158Y004484D02*
X003302Y004484D01*
X003188Y004603D02*
X004790Y004603D01*
X004790Y004722D02*
X004910Y004722D01*
X004910Y004611D02*
X004910Y005026D01*
X005448Y005026D01*
X005541Y004932D01*
X005541Y004611D01*
X004910Y004611D01*
X004910Y004603D02*
X012355Y004603D01*
X012224Y004484D02*
X005541Y004484D01*
X005541Y004366D02*
X012224Y004366D01*
X012224Y004247D02*
X007435Y004247D01*
X007263Y004247D02*
X007263Y004247D01*
X007263Y004232D02*
X007578Y004547D01*
X007618Y004547D01*
X007814Y004547D01*
X007578Y004547D02*
X006830Y004547D01*
X006673Y004547D02*
X006594Y004626D01*
X006673Y004247D02*
X006673Y004247D01*
X006870Y003937D02*
X006870Y002696D01*
X007342Y002224D01*
X007521Y002232D02*
X006898Y002232D01*
X006810Y002351D02*
X007521Y002351D01*
X007521Y002381D02*
X007521Y001941D01*
X008861Y001941D01*
X008861Y001821D01*
X007521Y001821D01*
X007521Y001475D01*
X007460Y001476D01*
X006437Y002854D01*
X006866Y003479D01*
X006866Y003462D01*
X006830Y003208D01*
X007589Y002449D01*
X007521Y002381D01*
X007569Y002469D02*
X006722Y002469D01*
X006634Y002588D02*
X007451Y002588D01*
X007332Y002706D02*
X006546Y002706D01*
X006458Y002825D02*
X007214Y002825D01*
X007095Y002943D02*
X006498Y002943D01*
X006580Y003062D02*
X006976Y003062D01*
X006858Y003181D02*
X006661Y003181D01*
X006743Y003299D02*
X006843Y003299D01*
X006824Y003418D02*
X006860Y003418D01*
X007066Y003444D02*
X007421Y003090D01*
X007578Y003129D01*
X008248Y003602D01*
X007460Y003602D01*
X007539Y003484D01*
X007539Y003602D01*
X007521Y003555D02*
X008861Y003555D01*
X008861Y003436D01*
X007521Y003436D01*
X007521Y003090D01*
X007460Y003090D01*
X007070Y003481D01*
X007070Y003566D01*
X007084Y003580D01*
X007192Y003580D01*
X007212Y003600D01*
X007380Y003600D01*
X007462Y003682D01*
X007462Y003683D01*
X007521Y003741D01*
X007521Y003555D01*
X007500Y003523D02*
X007460Y003602D01*
X007106Y003602D01*
X007070Y003536D02*
X008861Y003536D01*
X008981Y003536D02*
X010098Y003536D01*
X010098Y003555D02*
X008981Y003555D01*
X008981Y003436D01*
X010098Y003436D01*
X010098Y003555D01*
X010413Y003536D02*
X011749Y003536D01*
X011749Y003418D02*
X010413Y003418D01*
X010413Y003299D02*
X011749Y003299D01*
X011749Y003181D02*
X010413Y003181D01*
X010413Y003062D02*
X011749Y003062D01*
X011749Y002943D02*
X010413Y002943D01*
X010413Y002825D02*
X011749Y002825D01*
X011749Y002706D02*
X010413Y002706D01*
X010413Y002588D02*
X012067Y002588D01*
X012067Y002656D02*
X011749Y002656D01*
X011749Y003767D01*
X011843Y003860D01*
X012067Y003860D01*
X012067Y002656D01*
X012067Y002706D02*
X012144Y002706D01*
X012144Y002825D02*
X012067Y002825D01*
X012067Y002943D02*
X012144Y002943D01*
X012144Y003062D02*
X012067Y003062D01*
X012067Y003181D02*
X012144Y003181D01*
X012144Y003299D02*
X012067Y003299D01*
X012067Y003418D02*
X012144Y003418D01*
X012144Y003536D02*
X012067Y003536D01*
X012067Y003655D02*
X012144Y003655D01*
X012144Y003773D02*
X012067Y003773D01*
X012224Y003892D02*
X010413Y003892D01*
X010413Y003773D02*
X011756Y003773D01*
X011749Y003655D02*
X010413Y003655D01*
X010370Y004010D02*
X012224Y004010D01*
X012224Y004129D02*
X010275Y004129D01*
X010311Y004959D02*
X010192Y004959D01*
X010192Y005077D02*
X010311Y005077D01*
X010311Y005196D02*
X010192Y005196D01*
X010191Y005314D02*
X008468Y005314D01*
X008468Y005196D02*
X009796Y005196D01*
X009796Y005077D02*
X008468Y005077D01*
X008416Y004959D02*
X009822Y004959D01*
X009796Y005433D02*
X008468Y005433D01*
X008468Y005551D02*
X009796Y005551D01*
X009837Y005670D02*
X008377Y005670D01*
X008193Y005788D02*
X009796Y005788D01*
X009796Y005907D02*
X008193Y005907D01*
X008569Y006026D02*
X008689Y006026D01*
X008689Y006144D02*
X008569Y006144D01*
X008569Y006263D02*
X008689Y006263D01*
X008690Y006381D02*
X009614Y006381D01*
X009732Y006263D02*
X009045Y006263D01*
X009045Y006144D02*
X009796Y006144D01*
X009796Y006026D02*
X009039Y006026D01*
X009045Y006500D02*
X009495Y006500D01*
X009377Y006618D02*
X009045Y006618D01*
X008689Y006618D02*
X008569Y006618D01*
X008569Y006500D02*
X008689Y006500D01*
X008689Y006453D02*
X008689Y006747D01*
X008579Y006857D01*
X008350Y007086D01*
X008350Y006848D01*
X008569Y006848D01*
X008569Y006453D01*
X008689Y006453D01*
X008689Y006737D02*
X008569Y006737D01*
X008581Y006855D02*
X008350Y006855D01*
X008350Y006974D02*
X008462Y006974D01*
X008799Y006948D02*
X009358Y006948D01*
X010251Y006055D01*
X010117Y006500D02*
X014067Y006500D01*
X014067Y006529D02*
X014067Y006131D01*
X014348Y005850D01*
X014746Y005850D01*
X015027Y006131D01*
X015027Y006529D01*
X014746Y006810D01*
X014348Y006810D01*
X014067Y006529D01*
X014156Y006618D02*
X009999Y006618D01*
X009880Y006737D02*
X014275Y006737D01*
X014348Y006850D02*
X014067Y007131D01*
X014067Y007529D01*
X014348Y007810D01*
X014746Y007810D01*
X015027Y007529D01*
X015027Y007131D01*
X014746Y006850D01*
X014348Y006850D01*
X014343Y006855D02*
X009762Y006855D01*
X009643Y006974D02*
X014224Y006974D01*
X014106Y007092D02*
X009525Y007092D01*
X009506Y007330D02*
X009626Y007330D01*
X009626Y007448D02*
X009506Y007448D01*
X009506Y007567D02*
X009626Y007567D01*
X009506Y007685D02*
X006844Y007685D01*
X006909Y007567D02*
X007452Y007567D01*
X007334Y007448D02*
X007191Y007448D01*
X007215Y007330D02*
X007215Y007330D01*
X007342Y007145D02*
X007618Y007421D01*
X008326Y007421D01*
X008799Y006948D01*
X008847Y007211D02*
X014067Y007211D01*
X014067Y007330D02*
X011653Y007330D01*
X011696Y007448D02*
X014067Y007448D01*
X014104Y007567D02*
X011696Y007567D01*
X011696Y007685D02*
X014223Y007685D01*
X014341Y007804D02*
X011805Y007804D01*
X011923Y007922D02*
X014877Y007922D01*
X014877Y008041D02*
X011991Y008041D01*
X011363Y008041D02*
X010724Y008041D01*
X010730Y007922D02*
X010940Y007922D01*
X010906Y008159D02*
X003936Y008159D01*
X003996Y008278D02*
X010906Y008278D01*
X010906Y008396D02*
X004018Y008396D01*
X004018Y008041D02*
X009157Y008041D01*
X009151Y008034D02*
X009151Y007733D01*
X009506Y007733D01*
X009506Y008128D01*
X009244Y008128D01*
X009151Y008034D01*
X009151Y007922D02*
X006607Y007922D01*
X006725Y007804D02*
X009151Y007804D01*
X009151Y007567D02*
X008492Y007567D01*
X008610Y007448D02*
X009151Y007448D01*
X009151Y007330D02*
X008729Y007330D01*
X009506Y007804D02*
X009626Y007804D01*
X009626Y007922D02*
X009506Y007922D01*
X009506Y008041D02*
X009626Y008041D01*
X010730Y007330D02*
X010983Y007330D01*
X011235Y008159D02*
X011331Y008159D01*
X011331Y008278D02*
X011235Y008278D01*
X011235Y008396D02*
X011331Y008396D01*
X012659Y008159D02*
X014877Y008159D01*
X014877Y008278D02*
X013617Y008278D01*
X013736Y008396D02*
X014877Y008396D01*
X014958Y007804D02*
X014752Y007804D01*
X014871Y007685D02*
X015223Y007685D01*
X015104Y007567D02*
X014989Y007567D01*
X015027Y007448D02*
X015067Y007448D01*
X015067Y007330D02*
X015027Y007330D01*
X015027Y007211D02*
X015067Y007211D01*
X015106Y007092D02*
X014988Y007092D01*
X014869Y006974D02*
X015224Y006974D01*
X015343Y006855D02*
X014751Y006855D01*
X014819Y006737D02*
X015275Y006737D01*
X015348Y006810D02*
X015067Y006529D01*
X015067Y006131D01*
X015348Y005850D01*
X015746Y005850D01*
X016027Y006131D01*
X016027Y006529D01*
X015746Y006810D01*
X015348Y006810D01*
X015156Y006618D02*
X014937Y006618D01*
X015027Y006500D02*
X015067Y006500D01*
X015067Y006381D02*
X015027Y006381D01*
X015027Y006263D02*
X015067Y006263D01*
X015067Y006144D02*
X015027Y006144D01*
X014921Y006026D02*
X015173Y006026D01*
X015291Y005907D02*
X014802Y005907D01*
X014291Y005907D02*
X013508Y005907D01*
X013508Y005924D02*
X013508Y005798D01*
X013414Y005704D01*
X013288Y005704D01*
X013211Y005672D01*
X012623Y005672D01*
X012566Y005615D01*
X012000Y005615D01*
X011906Y005709D01*
X011906Y006393D01*
X012000Y006486D01*
X012258Y006486D01*
X012272Y006492D01*
X013211Y006492D01*
X013288Y006460D01*
X013414Y006460D01*
X013508Y006367D01*
X013508Y006241D01*
X013539Y006164D01*
X013539Y006001D01*
X013508Y005924D01*
X013539Y006026D02*
X014173Y006026D01*
X014067Y006144D02*
X013539Y006144D01*
X013508Y006263D02*
X014067Y006263D01*
X014067Y006381D02*
X013493Y006381D01*
X013498Y005788D02*
X016189Y005788D01*
X016291Y005907D02*
X015802Y005907D01*
X015921Y006026D02*
X016173Y006026D01*
X016067Y006144D02*
X016027Y006144D01*
X016027Y006263D02*
X016067Y006263D01*
X016067Y006381D02*
X016027Y006381D01*
X016027Y006500D02*
X016067Y006500D01*
X016156Y006618D02*
X015937Y006618D01*
X015819Y006737D02*
X016275Y006737D01*
X016348Y006850D02*
X016067Y007131D01*
X016067Y007529D01*
X016348Y007810D01*
X016746Y007810D01*
X017027Y007529D01*
X017027Y007131D01*
X016746Y006850D01*
X016348Y006850D01*
X016343Y006855D02*
X015751Y006855D01*
X015869Y006974D02*
X016224Y006974D01*
X016106Y007092D02*
X015988Y007092D01*
X016027Y007211D02*
X016067Y007211D01*
X016067Y007330D02*
X016027Y007330D01*
X016027Y007448D02*
X016067Y007448D01*
X016104Y007567D02*
X015989Y007567D01*
X015871Y007685D02*
X016223Y007685D01*
X016341Y007804D02*
X015752Y007804D01*
X015634Y007922D02*
X017814Y007922D01*
X017814Y007804D02*
X017752Y007804D01*
X017587Y007804D02*
X017507Y007804D01*
X017507Y007810D02*
X017348Y007810D01*
X017067Y007529D01*
X017067Y007370D01*
X017506Y007370D01*
X017507Y007370D02*
X017507Y007810D01*
X017507Y007685D02*
X017587Y007685D01*
X017587Y007567D02*
X017507Y007567D01*
X017507Y007448D02*
X017587Y007448D01*
X017506Y007330D02*
X017027Y007330D01*
X017027Y007448D02*
X017067Y007448D01*
X017104Y007567D02*
X016989Y007567D01*
X016871Y007685D02*
X017223Y007685D01*
X017341Y007804D02*
X016752Y007804D01*
X017027Y007211D02*
X017067Y007211D01*
X017106Y007092D02*
X016988Y007092D01*
X016869Y006974D02*
X017224Y006974D01*
X017343Y006855D02*
X016751Y006855D01*
X016819Y006737D02*
X017275Y006737D01*
X017348Y006810D02*
X017067Y006529D01*
X017067Y006370D01*
X017506Y006370D01*
X017507Y006370D02*
X017507Y006810D01*
X017348Y006810D01*
X017507Y006855D02*
X017587Y006855D01*
X017587Y006737D02*
X017507Y006737D01*
X017507Y006618D02*
X017587Y006618D01*
X017587Y006500D02*
X017507Y006500D01*
X017507Y006381D02*
X017587Y006381D01*
X017156Y006618D02*
X016937Y006618D01*
X017027Y006500D02*
X017067Y006500D01*
X017067Y006381D02*
X017027Y006381D01*
X017027Y006263D02*
X017067Y006263D01*
X017067Y006144D02*
X017027Y006144D01*
X017751Y006855D02*
X017814Y006855D01*
X017587Y006974D02*
X017507Y006974D01*
X017507Y007092D02*
X017587Y007092D01*
X017587Y007211D02*
X017507Y007211D01*
X017814Y008041D02*
X015634Y008041D01*
X015634Y008159D02*
X017814Y008159D01*
X017705Y008278D02*
X015634Y008278D01*
X015634Y008396D02*
X017587Y008396D01*
X018129Y009192D02*
X018917Y008444D01*
X021161Y008444D01*
X021358Y008248D01*
X021358Y007992D01*
X021342Y007976D01*
X018129Y009192D02*
X016397Y009192D01*
X015925Y009744D01*
X013799Y009744D01*
X013563Y009980D01*
X013563Y010885D01*
X013734Y011057D01*
X014128Y011057D01*
X014134Y010807D02*
X014128Y010801D01*
X014134Y010807D02*
X014665Y010807D01*
X015149Y011291D01*
X015192Y011370D01*
X015452Y011568D02*
X014128Y011568D01*
X014757Y011568D01*
X015452Y011568D02*
X015635Y011568D01*
X015649Y011555D01*
X015192Y010700D02*
X015116Y010545D01*
X014128Y010545D01*
X014128Y010289D02*
X016600Y010289D01*
X016917Y010606D01*
X016604Y010033D02*
X016897Y009740D01*
X016604Y010033D02*
X014128Y010033D01*
X014128Y012592D02*
X013984Y012736D01*
X013956Y012736D01*
X014068Y012848D01*
X014128Y012848D01*
X011948Y013523D02*
X011948Y015492D01*
X011200Y016240D01*
X011200Y018248D01*
X011318Y018444D01*
X013169Y018444D01*
X013956Y017657D01*
X014429Y017657D01*
X014626Y017814D01*
X014626Y018444D01*
X013681Y019311D01*
X013523Y019429D01*
X011948Y013523D02*
X011627Y013360D01*
X011249Y013360D01*
X011249Y012592D02*
X011135Y012592D01*
X011122Y012578D01*
X011235Y012578D01*
X011122Y012578D02*
X010964Y012578D01*
X011249Y012336D02*
X011255Y012342D01*
X011594Y012342D01*
X010259Y010401D02*
X010627Y010033D01*
X011249Y010033D01*
X010906Y006381D02*
X010702Y006381D01*
X011240Y006094D02*
X011283Y006051D01*
X011659Y006026D02*
X011906Y006026D01*
X011906Y006144D02*
X011659Y006144D01*
X011659Y006263D02*
X011906Y006263D01*
X011906Y006381D02*
X011659Y006381D01*
X011659Y005907D02*
X011906Y005907D01*
X011906Y005788D02*
X011659Y005788D01*
X011638Y005670D02*
X011945Y005670D01*
X011724Y005551D02*
X015926Y005551D01*
X016057Y005670D02*
X012621Y005670D01*
X013007Y005077D02*
X011736Y005077D01*
X011736Y005196D02*
X015530Y005196D01*
X015399Y005077D02*
X014002Y005077D01*
X014074Y004959D02*
X015334Y004959D01*
X015334Y004840D02*
X014074Y004840D01*
X014074Y004722D02*
X015334Y004722D01*
X015334Y004603D02*
X014074Y004603D01*
X014074Y004484D02*
X015334Y004484D01*
X015334Y004366D02*
X014074Y004366D01*
X014074Y004247D02*
X015334Y004247D01*
X015334Y004129D02*
X014074Y004129D01*
X014074Y004010D02*
X015334Y004010D01*
X015334Y003892D02*
X014074Y003892D01*
X014074Y003773D02*
X015334Y003773D01*
X015334Y003655D02*
X014074Y003655D01*
X014074Y003536D02*
X015334Y003536D01*
X015662Y005314D02*
X011736Y005314D01*
X011736Y005433D02*
X015794Y005433D01*
X012844Y004959D02*
X011724Y004959D01*
X010992Y004959D02*
X010681Y004959D01*
X010707Y005077D02*
X010980Y005077D01*
X010980Y005196D02*
X010707Y005196D01*
X010707Y005433D02*
X010980Y005433D01*
X010980Y005314D02*
X010312Y005314D01*
X010707Y005551D02*
X010991Y005551D01*
X010945Y005670D02*
X010666Y005670D01*
X012518Y004722D02*
X005541Y004722D01*
X005541Y004840D02*
X012681Y004840D01*
X012144Y002469D02*
X012067Y002469D01*
X012067Y002351D02*
X012144Y002351D01*
X012144Y002232D02*
X012067Y002232D01*
X012067Y002114D02*
X012144Y002114D01*
X012144Y001995D02*
X012067Y001995D01*
X012067Y001877D02*
X012144Y001877D01*
X012144Y001758D02*
X012067Y001758D01*
X012067Y001639D02*
X012144Y001639D01*
X012144Y001521D02*
X012067Y001521D01*
X012067Y001402D02*
X012144Y001402D01*
X012461Y001284D02*
X011636Y001284D01*
X011636Y001402D02*
X011815Y001402D01*
X011749Y001521D02*
X011636Y001521D01*
X011636Y001639D02*
X011749Y001639D01*
X011749Y001758D02*
X011636Y001758D01*
X011636Y001877D02*
X011749Y001877D01*
X011749Y001995D02*
X011636Y001995D01*
X011636Y002114D02*
X011749Y002114D01*
X011749Y002232D02*
X011636Y002232D01*
X011636Y002351D02*
X011749Y002351D01*
X011636Y002381D02*
X011542Y002474D01*
X010780Y002474D01*
X010686Y002381D01*
X010686Y001067D01*
X010780Y000973D01*
X011542Y000973D01*
X011636Y001067D01*
X011636Y002381D01*
X011547Y002469D02*
X011749Y002469D01*
X010774Y002469D02*
X010413Y002469D01*
X010413Y002351D02*
X010686Y002351D01*
X010686Y002232D02*
X010413Y002232D01*
X010413Y002114D02*
X010686Y002114D01*
X010686Y001995D02*
X010413Y001995D01*
X010413Y001877D02*
X010686Y001877D01*
X010686Y001758D02*
X010413Y001758D01*
X010413Y001639D02*
X010686Y001639D01*
X010686Y001521D02*
X010413Y001521D01*
X010413Y001402D02*
X010686Y001402D01*
X010686Y001284D02*
X010370Y001284D01*
X010221Y001165D02*
X010686Y001165D01*
X010706Y001047D02*
X009704Y001047D01*
X009704Y000928D02*
X012500Y000928D01*
X012500Y000810D02*
X009704Y000810D01*
X009864Y000691D02*
X012500Y000691D01*
X012500Y000573D02*
X010489Y000573D01*
X011402Y000454D02*
X012500Y000454D01*
X012500Y001047D02*
X011616Y001047D01*
X011636Y001165D02*
X012500Y001165D01*
X008861Y001877D02*
X007163Y001877D01*
X007074Y001995D02*
X007521Y001995D01*
X007521Y002114D02*
X006986Y002114D01*
X007251Y001758D02*
X007521Y001758D01*
X007521Y001639D02*
X007339Y001639D01*
X007427Y001521D02*
X007521Y001521D01*
X006591Y001995D02*
X006345Y001995D01*
X006165Y002114D02*
X006573Y002114D01*
X006491Y002232D02*
X005985Y002232D01*
X005804Y002351D02*
X006408Y002351D01*
X006326Y002469D02*
X005624Y002469D01*
X005444Y002588D02*
X006243Y002588D01*
X006161Y002706D02*
X005264Y002706D01*
X005084Y002825D02*
X006078Y002825D01*
X006014Y002943D02*
X004922Y002943D01*
X004784Y003062D02*
X006133Y003062D01*
X006251Y003181D02*
X004647Y003181D01*
X004718Y003299D02*
X004510Y003299D01*
X004373Y003418D02*
X004698Y003418D01*
X004698Y003319D02*
X004791Y003225D01*
X005054Y003225D01*
X005054Y003620D01*
X005054Y003621D02*
X004698Y003621D01*
X004698Y003319D01*
X004698Y003536D02*
X004235Y003536D01*
X004101Y003655D02*
X005054Y003655D01*
X005054Y003536D02*
X005174Y003536D01*
X005174Y003418D02*
X005054Y003418D01*
X005054Y003299D02*
X005174Y003299D01*
X004698Y003773D02*
X003987Y003773D01*
X004158Y004722D02*
X003077Y004722D01*
X002988Y004840D02*
X004158Y004840D01*
X004185Y004959D02*
X002899Y004959D01*
X002810Y005077D02*
X007129Y005077D01*
X007288Y004959D02*
X005515Y004959D01*
X005465Y005196D02*
X006349Y005196D01*
X006257Y005314D02*
X006249Y005314D01*
X005600Y005314D02*
X005541Y005314D01*
X005541Y005433D02*
X005568Y005433D01*
X005568Y005551D02*
X005541Y005551D01*
X005541Y005670D02*
X005568Y005670D01*
X005568Y005788D02*
X005541Y005788D01*
X005541Y005907D02*
X005568Y005907D01*
X005568Y006026D02*
X005541Y006026D01*
X005568Y006144D02*
X005269Y006144D01*
X005411Y006263D02*
X005568Y006263D01*
X005568Y006381D02*
X005530Y006381D01*
X006870Y005964D02*
X007342Y006437D01*
X007342Y007145D01*
X007696Y006397D02*
X007885Y006318D01*
X007881Y006393D01*
X007696Y006397D02*
X007066Y005846D01*
X007263Y005295D02*
X007421Y005137D01*
X007421Y005295D01*
X007263Y004293D02*
X007263Y004222D01*
X007263Y004293D01*
X007263Y004222D02*
X007263Y004222D01*
X007066Y003937D02*
X007066Y003444D01*
X007133Y003418D02*
X007521Y003418D01*
X007521Y003299D02*
X007251Y003299D01*
X007370Y003181D02*
X007521Y003181D01*
X007578Y003129D02*
X008051Y003129D01*
X007521Y003655D02*
X007435Y003655D01*
X006476Y003641D02*
X006397Y003563D01*
X005980Y003563D01*
X005862Y003681D01*
X006258Y003299D02*
X006370Y003299D01*
X006257Y004129D02*
X006191Y004129D01*
X006305Y004247D02*
X005541Y004247D01*
X005533Y004129D02*
X005501Y004129D01*
X004910Y004840D02*
X004790Y004840D01*
X004790Y004959D02*
X004910Y004959D01*
X004234Y005196D02*
X002721Y005196D01*
X002633Y005314D02*
X003908Y005314D01*
X003077Y005433D02*
X002544Y005433D01*
X002463Y005551D02*
X003027Y005551D01*
X003027Y005670D02*
X002391Y005670D01*
X002319Y005788D02*
X003027Y005788D01*
X003027Y005907D02*
X002247Y005907D01*
X002175Y006026D02*
X003027Y006026D01*
X003027Y006144D02*
X002102Y006144D01*
X002030Y006263D02*
X003027Y006263D01*
X003027Y006381D02*
X001958Y006381D01*
X001907Y006500D02*
X003027Y006500D01*
X002756Y006618D02*
X002636Y006618D01*
X002636Y006591D02*
X002636Y006947D01*
X002241Y006947D01*
X002241Y006685D01*
X002335Y006591D01*
X002636Y006591D01*
X002636Y006737D02*
X002756Y006737D01*
X002756Y006855D02*
X002636Y006855D01*
X002636Y006974D02*
X001713Y006974D01*
X001665Y007092D02*
X002241Y007092D01*
X002241Y007211D02*
X001617Y007211D01*
X001569Y007330D02*
X002241Y007330D01*
X002241Y007448D02*
X001520Y007448D01*
X001480Y007567D02*
X002241Y007567D01*
X002241Y007685D02*
X001440Y007685D01*
X001401Y007804D02*
X002241Y007804D01*
X002241Y007922D02*
X001361Y007922D01*
X001322Y008041D02*
X001447Y008041D01*
X001328Y008159D02*
X001282Y008159D01*
X001762Y006855D02*
X002241Y006855D01*
X002241Y006737D02*
X001810Y006737D01*
X001858Y006618D02*
X002308Y006618D01*
X006610Y020484D02*
X006610Y020785D01*
X006440Y020954D01*
X017671Y011568D02*
X017696Y011594D01*
D37*
X014468Y009114D02*
X014468Y008405D01*
X013799Y007736D01*
X013799Y005885D01*
X014547Y005137D01*
X014547Y004940D01*
X012106Y003799D02*
X012106Y003641D01*
X008090Y005295D02*
X007460Y005295D01*
X007696Y005531D01*
X007814Y005767D01*
X007460Y005295D02*
X007421Y005295D01*
X004850Y005653D02*
X004031Y005653D01*
X003917Y005767D01*
X003917Y006082D01*
X003759Y006240D01*
X003444Y006240D01*
X003405Y006279D01*
X003444Y005807D02*
X003405Y005767D01*
X003917Y005767D01*
X003877Y005807D01*
X003444Y005807D01*
X006397Y018224D02*
X006409Y018291D01*
X006397Y018224D02*
X006397Y019389D01*
X006610Y019602D01*
X006003Y018996D01*
X006610Y019602D02*
X006610Y019736D01*
X006610Y021054D02*
X006608Y021056D01*
X014980Y022500D02*
X015334Y022066D01*
X015334Y019822D01*
X015952Y017657D02*
X015952Y017618D01*
X015952Y017657D02*
X015952Y023078D01*
X015777Y023186D01*
X015767Y023169D01*
X022696Y016429D02*
X023444Y015681D01*
X023444Y010019D01*
X023011Y009586D01*
X021751Y009586D01*
X017547Y007374D02*
X017547Y007330D01*
X017547Y006330D01*
D38*
X014192Y005374D02*
X013051Y005374D01*
X012106Y004665D01*
X012106Y004547D01*
X012106Y004350D01*
X012106Y003799D01*
X012893Y003799D02*
X013484Y004389D01*
X013484Y004744D01*
X013129Y006082D02*
X012354Y006082D01*
X012736Y006870D02*
X012027Y007578D01*
X012185Y007578D01*
X012263Y007657D01*
X012736Y006870D02*
X012893Y006870D01*
X012736Y006870D02*
X010098Y006870D01*
X007814Y004547D02*
X007854Y004507D01*
X007814Y004547D02*
X006673Y004547D01*
X005177Y004547D01*
X003641Y010059D02*
X002299Y010059D01*
X002220Y010137D01*
X002220Y010996D01*
X003641Y010059D02*
X005098Y011515D01*
X007027Y011515D01*
X017657Y021555D02*
X017421Y021870D01*
X017921Y021370D01*
X018000Y021370D01*
X017421Y021870D02*
X017421Y022421D01*
X016673Y023169D01*
X015610Y023169D01*
X015570Y023208D01*
D39*
X008838Y008838D03*
X012342Y001122D03*
X019114Y004311D03*
X019586Y005334D03*
D40*
X012736Y007224D03*
X012263Y007657D03*
D41*
X012618Y007657D01*
X012893Y007381D01*
X012736Y007224D01*
X012893Y007381D02*
X013641Y006633D01*
X005098Y011515D02*
X003563Y015059D01*
X003563Y015846D01*
X003563Y019192D01*
X006440Y020954D01*
X006608Y021056D01*
X008024Y021923D01*
X008129Y021988D01*
X010531Y023208D01*
X012736Y023208D01*
X014232Y023208D01*
X015570Y023208D01*
X015767Y023208D01*
X015767Y023169D01*
X001870Y010689D02*
X001988Y010098D01*
X001988Y008405D01*
X002045Y008423D01*
X001726Y008384D01*
X001476Y008634D01*
X001476Y009350D01*
X001472Y009426D02*
X001472Y009464D01*
X002106Y010059D01*
X001712Y009666D02*
X001472Y009426D01*
X001712Y009666D02*
X001712Y010846D01*
X001870Y010689D01*
X001988Y008799D02*
X001476Y008799D01*
D42*
X006476Y003937D02*
X006476Y003641D01*
X006673Y003937D02*
X006673Y004547D01*
X007263Y004232D02*
X007263Y003937D01*
X007263Y005295D02*
X007263Y005551D01*
X007066Y005551D02*
X007066Y005846D01*
X006870Y005964D02*
X006870Y005551D01*
X006673Y005551D02*
X006673Y006267D01*
D43*
X007775Y003523D02*
X007618Y003405D01*
X007775Y003523D02*
X008641Y003484D01*
X009405Y003523D01*
X008921Y001881D02*
X008870Y001830D01*
X007736Y001830D01*
X007342Y002224D01*
D44*
X006673Y006267D02*
X006673Y006937D01*
X006799Y007063D01*
M02*
