G75*
G70*
%OFA0B0*%
%FSLAX24Y24*%
%IPPOS*%
%LPD*%
%AMOC8*
5,1,8,0,0,1.08239X$1,22.5*
%
%ADD10C,0.1340*%
%ADD11R,0.0720X0.0720*%
%ADD12OC8,0.0720*%
%ADD13R,0.2560X0.0946*%
%ADD14R,0.0592X0.0671*%
%ADD15R,0.1143X0.0710*%
%ADD16R,0.0631X0.0552*%
%ADD17R,0.0474X0.0513*%
%ADD18R,0.0671X0.0592*%
%ADD19C,0.0635*%
%ADD20R,0.0946X0.0316*%
%ADD21R,0.1104X0.0789*%
%ADD22R,0.0513X0.0631*%
%ADD23R,0.0789X0.0395*%
%ADD24R,0.1261X0.0907*%
%ADD25R,0.0630X0.0217*%
%ADD26R,0.2180X0.0840*%
%ADD27R,0.0946X0.2560*%
%ADD28R,0.0710X0.1261*%
%ADD29R,0.0474X0.2245*%
%ADD30R,0.0157X0.0433*%
D10*
X004862Y006830D03*
X004862Y017657D03*
X020216Y017657D03*
X020216Y006830D03*
D11*
X003220Y010996D03*
D12*
X003220Y011996D03*
X003220Y012996D03*
X002220Y012996D03*
X002220Y011996D03*
X002220Y010996D03*
X014547Y007330D03*
X014547Y006330D03*
X015547Y006330D03*
X015547Y007330D03*
X016547Y007330D03*
X016547Y006330D03*
X017547Y006330D03*
X018547Y006330D03*
X018547Y007330D03*
X017547Y007330D03*
D13*
X008921Y003496D03*
X008921Y001881D03*
D14*
X005862Y003681D03*
X005114Y003681D03*
X007881Y006393D03*
X008629Y006393D03*
X009566Y007673D03*
X010314Y007673D03*
X012984Y008980D03*
X013732Y008980D03*
X016897Y009740D03*
X017645Y009740D03*
X017665Y010606D03*
X016917Y010606D03*
X014236Y014295D03*
X013488Y014295D03*
X007157Y018291D03*
X006409Y018291D03*
X005224Y015940D03*
X004476Y015940D03*
X004496Y014976D03*
X005244Y014976D03*
X012192Y021374D03*
X012940Y021374D03*
X006799Y007063D03*
X006051Y007063D03*
X014598Y002976D03*
X015346Y002976D03*
D15*
X004850Y004551D03*
X004850Y005653D03*
D16*
X013492Y004374D03*
X013492Y003192D03*
D17*
X005925Y005629D03*
X005925Y006299D03*
X002696Y008622D03*
X002696Y009291D03*
X015192Y010700D03*
X015192Y011370D03*
X021610Y015799D03*
X021610Y016468D03*
D18*
X022523Y016326D03*
X022523Y015578D03*
X019255Y015874D03*
X019255Y016622D03*
X018362Y016606D03*
X018362Y015858D03*
X015566Y016940D03*
X015566Y017689D03*
X015665Y014137D03*
X015665Y013389D03*
X010673Y016385D03*
X010673Y017133D03*
X007149Y017389D03*
X007149Y016641D03*
X006610Y019736D03*
X006610Y020484D03*
X007818Y012251D03*
X007818Y011503D03*
X010259Y011149D03*
X010259Y010401D03*
X010251Y006055D03*
X010251Y005307D03*
X003563Y007007D03*
X003563Y007755D03*
X003563Y008622D03*
X003563Y009370D03*
X002696Y007755D03*
X002696Y007007D03*
X001039Y010996D03*
X001039Y011744D03*
X021342Y007976D03*
X021342Y007228D03*
X022287Y007196D03*
X022287Y007944D03*
D19*
X016791Y014082D03*
X016791Y014870D03*
X016791Y015657D03*
X016791Y016444D03*
X016791Y017232D03*
X016791Y018019D03*
X016791Y018807D03*
X016791Y019594D03*
X016791Y020381D03*
X016791Y021169D03*
X008129Y021169D03*
X008129Y020381D03*
X008129Y019594D03*
X008129Y018807D03*
X008129Y018019D03*
X008129Y017232D03*
X008129Y016444D03*
X008129Y015657D03*
X008129Y014870D03*
X008129Y014082D03*
D20*
X018598Y013582D03*
X018598Y013189D03*
X018598Y012795D03*
X018598Y012401D03*
X018598Y012007D03*
X018598Y011614D03*
X018598Y011220D03*
X018598Y010826D03*
X018598Y010433D03*
X018598Y010039D03*
D21*
X019543Y009015D03*
X019543Y014606D03*
D22*
X012283Y008492D03*
X011283Y008492D03*
X011283Y006051D03*
X012283Y006051D03*
D23*
X016665Y004143D03*
X016665Y003651D03*
D24*
X017895Y002667D03*
X017895Y005127D03*
D25*
X014128Y010033D03*
X014128Y010289D03*
X014128Y010545D03*
X014128Y010801D03*
X014128Y011057D03*
X014128Y011313D03*
X014128Y011568D03*
X014128Y011824D03*
X014128Y012080D03*
X014128Y012336D03*
X014128Y012592D03*
X014128Y012848D03*
X014128Y013104D03*
X014128Y013360D03*
X011249Y013360D03*
X011249Y013104D03*
X011249Y012848D03*
X011249Y012592D03*
X011249Y012336D03*
X011249Y012080D03*
X011249Y011824D03*
X011249Y011568D03*
X011249Y011313D03*
X011249Y011057D03*
X011249Y010801D03*
X011249Y010545D03*
X011249Y010289D03*
X011249Y010033D03*
D26*
X009081Y009594D03*
X005281Y009594D03*
D27*
X017921Y020330D03*
X019535Y020330D03*
D28*
X013838Y001724D03*
X011161Y001724D03*
D29*
X012106Y002618D03*
X012893Y002618D03*
D30*
X007263Y003937D03*
X007066Y003937D03*
X006870Y003937D03*
X006673Y003937D03*
X006476Y003937D03*
X006476Y005551D03*
X006673Y005551D03*
X006870Y005551D03*
X007066Y005551D03*
X007263Y005551D03*
M02*
