%
M48
M72
T01C0.0236
T02C0.0315
T03C0.0400
T04C0.1260
%
T01
X341Y577
X341Y628
X270Y628
X199Y880
X148Y880
X148Y935
X577Y443
X785Y451
X837Y451
X809Y529
X781Y577
X797Y703
X884Y766
X884Y884
X789Y935
X652Y923
X703Y1152
X907Y1455
X963Y1490
X1116Y1451
X1140Y1518
X1112Y1380
X1049Y1211
X1033Y1144
X1092Y951
X1053Y896
X1175Y963
X1132Y766
X1226Y766
X1274Y722
X1313Y608
X1348Y474
X1455Y494
X1573Y470
X1581Y344
X1596Y250
X1718Y183
X1911Y368
X1911Y431
X1959Y533
X2033Y529
X1931Y293
X1455Y159
X1234Y112
X1022Y463
X1136Y526
X927Y620
X1447Y911
X1526Y817
X1533Y911
X1703Y1238
X1592Y1333
X1427Y1494
X1352Y1577
X1325Y1703
X1270Y1703
X1159Y1789
X1073Y1797
X998Y1919
X888Y1911
X1053Y2104
X1270Y1935
X1352Y1943
X1466Y2026
X1533Y1982
X1502Y1915
X1506Y1833
X1423Y1809
X1510Y1655
X1592Y1565
X1841Y1526
X1848Y1455
X1844Y1388
X1978Y1352
X2065Y1297
X2152Y1199
X2089Y1037
X2175Y959
X2098Y882
X2018Y801
X1951Y994
X2376Y1155
X2376Y1309
X2179Y1514
X2124Y1455
X2100Y1616
X2049Y1616
X2136Y1726
X1903Y1766
X1903Y1821
X1770Y1892
X1746Y1817
X1463Y2183
X1498Y2250
X1411Y2301
X600Y1900
X592Y1498
X1337Y1400
X1352Y1341
T02
X1679Y1408
X1679Y1487
X1679Y1566
X1679Y1644
X1679Y1723
X1679Y1802
X1679Y1881
X1679Y1959
X1679Y2038
X1679Y2117
X813Y2117
X813Y2038
X813Y1959
X813Y1881
X813Y1802
X813Y1723
X813Y1644
X813Y1566
X813Y1487
X813Y1408
T03
X322Y1300
X322Y1200
X322Y1100
X222Y1100
X222Y1200
X222Y1300
X1455Y733
X1555Y733
X1655Y733
X1755Y733
X1855Y733
X1855Y633
X1755Y633
X1655Y633
X1555Y633
X1455Y633
T04
X2022Y683
X2022Y1766
X486Y1766
X486Y683
M30
