%
M48
M72
T01C0.0236
T02C0.0315
T03C0.0354
T04C0.0472
T05C0.0512
T06C0.0669
T07C0.0906
%
T01
X2258Y1511
X2357Y1740
X2628Y1661
X2668Y1401
X2490Y869
X2679Y566
X2483Y491
X2538Y393
T02
X1526Y1121
X1219Y1224
X1124Y1141
X762Y1141
X664Y1208
X931Y1472
X242Y1795
X695Y842
X754Y716
X620Y535
X152Y444
X1309Y665
X1427Y511
X1368Y409
T03
X2895Y336
X2895Y510
T04
X2880Y747
X2790Y759
X2534Y1192
X2549Y1310
X2857Y1657
X1880Y1062
X884Y409
X345Y1673
T05
X1394Y2027
X1394Y240
T06
X406Y343
X406Y1924
T07
X288Y343
X288Y1924
M30
