G75*
G70*
%OFA0B0*%
%FSLAX24Y24*%
%IPPOS*%
%LPD*%
%AMOC8*
5,1,8,0,0,1.08239X$1,22.5*
%
%ADD10C,0.0000*%
%ADD11R,0.0300X0.0450*%
%ADD12R,0.0315X0.0709*%
%ADD13R,0.0827X0.1181*%
%ADD14R,0.0217X0.0472*%
%ADD15R,0.1181X0.0630*%
%ADD16R,0.2165X0.0394*%
%ADD17R,0.0984X0.0197*%
%ADD18R,0.0984X0.0787*%
%ADD19R,0.0472X0.0551*%
%ADD20R,0.0512X0.0591*%
%ADD21R,0.0591X0.0177*%
%ADD22R,0.0787X0.1969*%
%ADD23R,0.0709X0.0669*%
%ADD24R,0.1063X0.0630*%
%ADD25R,0.0591X0.0394*%
%ADD26R,0.0591X0.0512*%
%ADD27R,0.0394X0.0591*%
%ADD28C,0.0660*%
%ADD29C,0.0240*%
%ADD30C,0.0320*%
%ADD31C,0.0560*%
%ADD32R,0.0515X0.0515*%
%ADD33C,0.0500*%
%ADD34R,0.0709X0.0709*%
%ADD35C,0.0160*%
%ADD36C,0.0436*%
%ADD37R,0.0436X0.0436*%
%ADD38C,0.0400*%
%ADD39C,0.0120*%
D10*
X000101Y001411D02*
X000101Y021372D01*
X031597Y021372D01*
X031597Y001411D01*
X000101Y001411D01*
X002427Y003431D02*
X002429Y003473D01*
X002435Y003515D01*
X002445Y003557D01*
X002458Y003597D01*
X002476Y003636D01*
X002497Y003673D01*
X002521Y003707D01*
X002549Y003740D01*
X002579Y003770D01*
X002612Y003796D01*
X002647Y003820D01*
X002685Y003840D01*
X002724Y003856D01*
X002764Y003869D01*
X002806Y003878D01*
X002848Y003883D01*
X002891Y003884D01*
X002933Y003881D01*
X002975Y003874D01*
X003016Y003863D01*
X003056Y003848D01*
X003094Y003830D01*
X003131Y003808D01*
X003165Y003783D01*
X003197Y003755D01*
X003225Y003724D01*
X003251Y003690D01*
X003274Y003654D01*
X003293Y003617D01*
X003309Y003577D01*
X003321Y003536D01*
X003329Y003495D01*
X003333Y003452D01*
X003333Y003410D01*
X003329Y003367D01*
X003321Y003326D01*
X003309Y003285D01*
X003293Y003245D01*
X003274Y003208D01*
X003251Y003172D01*
X003225Y003138D01*
X003197Y003107D01*
X003165Y003079D01*
X003131Y003054D01*
X003094Y003032D01*
X003056Y003014D01*
X003016Y002999D01*
X002975Y002988D01*
X002933Y002981D01*
X002891Y002978D01*
X002848Y002979D01*
X002806Y002984D01*
X002764Y002993D01*
X002724Y003006D01*
X002685Y003022D01*
X002647Y003042D01*
X002612Y003066D01*
X002579Y003092D01*
X002549Y003122D01*
X002521Y003155D01*
X002497Y003189D01*
X002476Y003226D01*
X002458Y003265D01*
X002445Y003305D01*
X002435Y003347D01*
X002429Y003389D01*
X002427Y003431D01*
X003726Y003431D02*
X003728Y003467D01*
X003734Y003503D01*
X003744Y003538D01*
X003757Y003572D01*
X003774Y003604D01*
X003794Y003634D01*
X003818Y003661D01*
X003844Y003686D01*
X003873Y003708D01*
X003904Y003727D01*
X003937Y003742D01*
X003971Y003754D01*
X004007Y003762D01*
X004043Y003766D01*
X004079Y003766D01*
X004115Y003762D01*
X004151Y003754D01*
X004185Y003742D01*
X004218Y003727D01*
X004249Y003708D01*
X004278Y003686D01*
X004304Y003661D01*
X004328Y003634D01*
X004348Y003604D01*
X004365Y003572D01*
X004378Y003538D01*
X004388Y003503D01*
X004394Y003467D01*
X004396Y003431D01*
X004394Y003395D01*
X004388Y003359D01*
X004378Y003324D01*
X004365Y003290D01*
X004348Y003258D01*
X004328Y003228D01*
X004304Y003201D01*
X004278Y003176D01*
X004249Y003154D01*
X004218Y003135D01*
X004185Y003120D01*
X004151Y003108D01*
X004115Y003100D01*
X004079Y003096D01*
X004043Y003096D01*
X004007Y003100D01*
X003971Y003108D01*
X003937Y003120D01*
X003904Y003135D01*
X003873Y003154D01*
X003844Y003176D01*
X003818Y003201D01*
X003794Y003228D01*
X003774Y003258D01*
X003757Y003290D01*
X003744Y003324D01*
X003734Y003359D01*
X003728Y003395D01*
X003726Y003431D01*
X013687Y002399D02*
X013689Y002430D01*
X013695Y002461D01*
X013704Y002491D01*
X013717Y002520D01*
X013734Y002547D01*
X013754Y002571D01*
X013776Y002593D01*
X013802Y002612D01*
X013829Y002628D01*
X013858Y002640D01*
X013888Y002649D01*
X013919Y002654D01*
X013951Y002655D01*
X013982Y002652D01*
X014013Y002645D01*
X014043Y002635D01*
X014071Y002621D01*
X014097Y002603D01*
X014121Y002583D01*
X014142Y002559D01*
X014161Y002534D01*
X014176Y002506D01*
X014187Y002477D01*
X014195Y002446D01*
X014199Y002415D01*
X014199Y002383D01*
X014195Y002352D01*
X014187Y002321D01*
X014176Y002292D01*
X014161Y002264D01*
X014142Y002239D01*
X014121Y002215D01*
X014097Y002195D01*
X014071Y002177D01*
X014043Y002163D01*
X014013Y002153D01*
X013982Y002146D01*
X013951Y002143D01*
X013919Y002144D01*
X013888Y002149D01*
X013858Y002158D01*
X013829Y002170D01*
X013802Y002186D01*
X013776Y002205D01*
X013754Y002227D01*
X013734Y002251D01*
X013717Y002278D01*
X013704Y002307D01*
X013695Y002337D01*
X013689Y002368D01*
X013687Y002399D01*
X028774Y003364D02*
X028776Y003390D01*
X028782Y003416D01*
X028792Y003441D01*
X028805Y003464D01*
X028821Y003484D01*
X028841Y003502D01*
X028863Y003517D01*
X028886Y003529D01*
X028912Y003537D01*
X028938Y003541D01*
X028964Y003541D01*
X028990Y003537D01*
X029016Y003529D01*
X029040Y003517D01*
X029061Y003502D01*
X029081Y003484D01*
X029097Y003464D01*
X029110Y003441D01*
X029120Y003416D01*
X029126Y003390D01*
X029128Y003364D01*
X029126Y003338D01*
X029120Y003312D01*
X029110Y003287D01*
X029097Y003264D01*
X029081Y003244D01*
X029061Y003226D01*
X029039Y003211D01*
X029016Y003199D01*
X028990Y003191D01*
X028964Y003187D01*
X028938Y003187D01*
X028912Y003191D01*
X028886Y003199D01*
X028862Y003211D01*
X028841Y003226D01*
X028821Y003244D01*
X028805Y003264D01*
X028792Y003287D01*
X028782Y003312D01*
X028776Y003338D01*
X028774Y003364D01*
X028774Y005096D02*
X028776Y005122D01*
X028782Y005148D01*
X028792Y005173D01*
X028805Y005196D01*
X028821Y005216D01*
X028841Y005234D01*
X028863Y005249D01*
X028886Y005261D01*
X028912Y005269D01*
X028938Y005273D01*
X028964Y005273D01*
X028990Y005269D01*
X029016Y005261D01*
X029040Y005249D01*
X029061Y005234D01*
X029081Y005216D01*
X029097Y005196D01*
X029110Y005173D01*
X029120Y005148D01*
X029126Y005122D01*
X029128Y005096D01*
X029126Y005070D01*
X029120Y005044D01*
X029110Y005019D01*
X029097Y004996D01*
X029081Y004976D01*
X029061Y004958D01*
X029039Y004943D01*
X029016Y004931D01*
X028990Y004923D01*
X028964Y004919D01*
X028938Y004919D01*
X028912Y004923D01*
X028886Y004931D01*
X028862Y004943D01*
X028841Y004958D01*
X028821Y004976D01*
X028805Y004996D01*
X028792Y005019D01*
X028782Y005044D01*
X028776Y005070D01*
X028774Y005096D01*
X013687Y020273D02*
X013689Y020304D01*
X013695Y020335D01*
X013704Y020365D01*
X013717Y020394D01*
X013734Y020421D01*
X013754Y020445D01*
X013776Y020467D01*
X013802Y020486D01*
X013829Y020502D01*
X013858Y020514D01*
X013888Y020523D01*
X013919Y020528D01*
X013951Y020529D01*
X013982Y020526D01*
X014013Y020519D01*
X014043Y020509D01*
X014071Y020495D01*
X014097Y020477D01*
X014121Y020457D01*
X014142Y020433D01*
X014161Y020408D01*
X014176Y020380D01*
X014187Y020351D01*
X014195Y020320D01*
X014199Y020289D01*
X014199Y020257D01*
X014195Y020226D01*
X014187Y020195D01*
X014176Y020166D01*
X014161Y020138D01*
X014142Y020113D01*
X014121Y020089D01*
X014097Y020069D01*
X014071Y020051D01*
X014043Y020037D01*
X014013Y020027D01*
X013982Y020020D01*
X013951Y020017D01*
X013919Y020018D01*
X013888Y020023D01*
X013858Y020032D01*
X013829Y020044D01*
X013802Y020060D01*
X013776Y020079D01*
X013754Y020101D01*
X013734Y020125D01*
X013717Y020152D01*
X013704Y020181D01*
X013695Y020211D01*
X013689Y020242D01*
X013687Y020273D01*
X003726Y019242D02*
X003728Y019278D01*
X003734Y019314D01*
X003744Y019349D01*
X003757Y019383D01*
X003774Y019415D01*
X003794Y019445D01*
X003818Y019472D01*
X003844Y019497D01*
X003873Y019519D01*
X003904Y019538D01*
X003937Y019553D01*
X003971Y019565D01*
X004007Y019573D01*
X004043Y019577D01*
X004079Y019577D01*
X004115Y019573D01*
X004151Y019565D01*
X004185Y019553D01*
X004218Y019538D01*
X004249Y019519D01*
X004278Y019497D01*
X004304Y019472D01*
X004328Y019445D01*
X004348Y019415D01*
X004365Y019383D01*
X004378Y019349D01*
X004388Y019314D01*
X004394Y019278D01*
X004396Y019242D01*
X004394Y019206D01*
X004388Y019170D01*
X004378Y019135D01*
X004365Y019101D01*
X004348Y019069D01*
X004328Y019039D01*
X004304Y019012D01*
X004278Y018987D01*
X004249Y018965D01*
X004218Y018946D01*
X004185Y018931D01*
X004151Y018919D01*
X004115Y018911D01*
X004079Y018907D01*
X004043Y018907D01*
X004007Y018911D01*
X003971Y018919D01*
X003937Y018931D01*
X003904Y018946D01*
X003873Y018965D01*
X003844Y018987D01*
X003818Y019012D01*
X003794Y019039D01*
X003774Y019069D01*
X003757Y019101D01*
X003744Y019135D01*
X003734Y019170D01*
X003728Y019206D01*
X003726Y019242D01*
X002427Y019242D02*
X002429Y019284D01*
X002435Y019326D01*
X002445Y019368D01*
X002458Y019408D01*
X002476Y019447D01*
X002497Y019484D01*
X002521Y019518D01*
X002549Y019551D01*
X002579Y019581D01*
X002612Y019607D01*
X002647Y019631D01*
X002685Y019651D01*
X002724Y019667D01*
X002764Y019680D01*
X002806Y019689D01*
X002848Y019694D01*
X002891Y019695D01*
X002933Y019692D01*
X002975Y019685D01*
X003016Y019674D01*
X003056Y019659D01*
X003094Y019641D01*
X003131Y019619D01*
X003165Y019594D01*
X003197Y019566D01*
X003225Y019535D01*
X003251Y019501D01*
X003274Y019465D01*
X003293Y019428D01*
X003309Y019388D01*
X003321Y019347D01*
X003329Y019306D01*
X003333Y019263D01*
X003333Y019221D01*
X003329Y019178D01*
X003321Y019137D01*
X003309Y019096D01*
X003293Y019056D01*
X003274Y019019D01*
X003251Y018983D01*
X003225Y018949D01*
X003197Y018918D01*
X003165Y018890D01*
X003131Y018865D01*
X003094Y018843D01*
X003056Y018825D01*
X003016Y018810D01*
X002975Y018799D01*
X002933Y018792D01*
X002891Y018789D01*
X002848Y018790D01*
X002806Y018795D01*
X002764Y018804D01*
X002724Y018817D01*
X002685Y018833D01*
X002647Y018853D01*
X002612Y018877D01*
X002579Y018903D01*
X002549Y018933D01*
X002521Y018966D01*
X002497Y019000D01*
X002476Y019037D01*
X002458Y019076D01*
X002445Y019116D01*
X002435Y019158D01*
X002429Y019200D01*
X002427Y019242D01*
D11*
X008329Y013783D03*
X008829Y013783D03*
X009329Y013783D03*
X009829Y013783D03*
X010329Y013783D03*
X010829Y013783D03*
X011329Y013783D03*
X011829Y013783D03*
X012329Y013783D03*
X012829Y013773D03*
X012829Y010033D03*
X012329Y010033D03*
X011829Y010033D03*
X011329Y010033D03*
X010829Y010033D03*
X010329Y010033D03*
X009829Y010033D03*
X009329Y010033D03*
X008829Y010033D03*
X008329Y010033D03*
D12*
X008111Y003486D03*
X007619Y003486D03*
X007126Y003486D03*
X006634Y003486D03*
X006142Y003486D03*
X005650Y003486D03*
X011520Y003494D03*
X012012Y003494D03*
D13*
X012996Y002263D03*
X010536Y002263D03*
X009095Y002256D03*
X004666Y002256D03*
D14*
X025617Y006572D03*
X025991Y006572D03*
X026365Y006572D03*
X026365Y007596D03*
X025617Y007596D03*
D15*
X030254Y007065D03*
X030254Y009742D03*
X030207Y010702D03*
X030207Y013380D03*
D16*
X029313Y012435D03*
X029313Y011647D03*
X029361Y008797D03*
X029361Y008009D03*
D17*
X027967Y004860D03*
X027967Y004545D03*
X027967Y004230D03*
X027967Y003915D03*
X027967Y003600D03*
D18*
X027967Y002458D03*
X030132Y002458D03*
X030132Y006002D03*
X027967Y006002D03*
D19*
X027006Y002482D03*
X025825Y002482D03*
X017975Y017009D03*
X016794Y017009D03*
X016802Y018112D03*
X017983Y018112D03*
D20*
X015561Y018116D03*
X014892Y018116D03*
X014861Y016974D03*
X015530Y016974D03*
X023703Y002486D03*
X024372Y002486D03*
D21*
X023569Y014150D03*
X023569Y014400D03*
X023569Y014650D03*
X023569Y014900D03*
X023569Y015150D03*
X023569Y015400D03*
X023569Y015650D03*
X023569Y015900D03*
X025687Y015900D03*
X025687Y015650D03*
X025687Y015400D03*
X025687Y015150D03*
X025687Y014900D03*
X025687Y014650D03*
X025687Y014400D03*
X025687Y014150D03*
D22*
X026290Y018844D03*
X029439Y018844D03*
D23*
X023676Y018824D03*
X022061Y018824D03*
D24*
X020880Y015659D03*
X019502Y015659D03*
X019502Y014557D03*
X020880Y014557D03*
X027865Y014466D03*
X027865Y015569D03*
X029282Y015569D03*
X029282Y014466D03*
D25*
X022770Y017395D03*
X022030Y017395D03*
D26*
X021983Y012931D03*
X021983Y012261D03*
X024148Y012309D03*
X024148Y012978D03*
X026557Y012970D03*
X026557Y012301D03*
X014404Y012305D03*
X014404Y011635D03*
D27*
X020963Y012222D03*
X020963Y012962D03*
X023054Y012978D03*
X023054Y012238D03*
X024467Y007088D03*
X024467Y006348D03*
X012093Y005395D03*
X012093Y004655D03*
D28*
X018802Y010624D02*
X019502Y011324D01*
X019502Y014557D01*
X020880Y014557D01*
X020880Y015659D02*
X019833Y015659D01*
X019668Y015824D01*
X019502Y015659D01*
X019668Y015824D02*
X019668Y017041D01*
X019668Y017277D01*
X019668Y017828D01*
X019845Y018006D01*
X020664Y018824D01*
X020770Y018824D01*
X019955Y019639D01*
X014589Y019639D01*
X013329Y018380D01*
X010809Y018380D01*
X008329Y015899D01*
X008329Y014797D01*
X006400Y016726D01*
X003447Y016726D01*
X002424Y017946D02*
X002384Y017946D01*
X001243Y016805D01*
X001243Y004718D01*
X001518Y004443D01*
X008329Y014718D02*
X008329Y014797D01*
X020770Y018824D02*
X022061Y018824D01*
X023676Y018824D02*
X026270Y018824D01*
X026290Y018844D01*
X026140Y018694D01*
X025298Y018694D01*
X024628Y018143D01*
X024628Y015506D01*
X024392Y015151D01*
X023644Y015151D01*
X028487Y011411D02*
X028487Y011293D01*
X028487Y009246D01*
X028920Y009246D01*
X028920Y009009D01*
X028920Y011450D01*
X028487Y011293D02*
X028093Y011293D01*
X028093Y009206D01*
X028132Y009206D01*
X029282Y014466D02*
X030203Y014466D01*
X030809Y014876D01*
X030809Y018419D01*
X029589Y019128D01*
X029589Y018994D01*
X029439Y018844D01*
D29*
X025534Y015072D02*
X025337Y015072D01*
X024904Y014639D01*
X024825Y014600D02*
X024983Y014521D01*
X025534Y015072D01*
X025140Y014639D02*
X025022Y014521D01*
X024825Y014600D01*
X025101Y014206D01*
X025101Y012750D01*
X025550Y012301D01*
X026557Y012301D01*
X024156Y012301D01*
X024148Y012309D01*
X023164Y012309D01*
X023054Y012238D01*
X023030Y012261D01*
X021983Y012261D01*
X020963Y012222D02*
X020963Y009407D01*
X024038Y006332D01*
X024451Y006332D01*
X024467Y006348D01*
X025617Y006572D02*
X025617Y005194D01*
X027187Y003537D01*
X028376Y003537D01*
X027967Y003600D01*
X027006Y003049D02*
X026597Y003380D01*
X025928Y003380D01*
X025376Y003931D01*
X024825Y004915D02*
X023743Y003714D01*
X023703Y002486D01*
X024372Y002486D02*
X025231Y002486D01*
X025825Y002482D01*
X027006Y002482D02*
X027006Y003049D01*
X026872Y004876D02*
X027857Y004876D01*
X028880Y005663D01*
X028920Y007080D01*
X027896Y007592D01*
X027699Y007553D01*
X027699Y007671D01*
X026365Y006572D02*
X026361Y006569D01*
X026361Y006057D01*
X026754Y005663D01*
X026794Y005663D01*
X026872Y004876D02*
X025991Y005490D01*
X025991Y006572D01*
X025617Y007596D02*
X025617Y008147D01*
X027069Y009600D01*
X027620Y009600D01*
X026557Y012970D02*
X026557Y013891D01*
X026676Y014009D01*
X023565Y017395D02*
X022770Y017395D01*
X022030Y017395D02*
X022030Y018793D01*
X022061Y018824D01*
X019845Y018006D02*
X019739Y018112D01*
X017983Y018112D01*
X016802Y018112D02*
X016798Y018116D01*
X015561Y018116D01*
X014892Y018116D02*
X014841Y018065D01*
X014235Y018065D01*
X011829Y015659D01*
X011829Y013783D01*
X012329Y013783D02*
X012345Y013799D01*
X012345Y015112D01*
X014207Y016974D01*
X014861Y016974D01*
X015530Y016974D02*
X016758Y016974D01*
X016794Y017009D01*
X017975Y017009D02*
X019636Y017009D01*
X019668Y017041D01*
X012187Y012238D02*
X011329Y013096D01*
X009829Y013783D02*
X009825Y013779D01*
X009825Y012710D01*
X011124Y011411D01*
X011243Y011411D01*
X012829Y010675D02*
X013723Y011569D01*
X014337Y011569D01*
X014404Y011635D01*
X012829Y010675D02*
X012829Y010033D01*
X009329Y010033D02*
X009329Y011395D01*
X008644Y012080D01*
X006636Y012080D01*
X006243Y013025D02*
X005611Y012551D01*
X005650Y003486D01*
X006634Y003486D02*
X006634Y004559D01*
X006951Y005230D01*
X006951Y008419D01*
X007542Y007159D02*
X007542Y005230D01*
X007126Y004421D01*
X007126Y003486D01*
X007619Y003486D02*
X007619Y004322D01*
X008329Y005387D01*
X008329Y010033D01*
X008802Y010060D02*
X008829Y010033D01*
X008802Y010060D02*
X008802Y011017D01*
X008408Y011411D01*
X007620Y011411D01*
X006243Y013025D02*
X009038Y013025D01*
X009353Y013340D01*
X009353Y013759D01*
X009329Y013783D01*
X008829Y013783D02*
X008829Y014234D01*
X009313Y014718D01*
X013408Y005112D02*
X012975Y004718D01*
X012156Y004718D01*
X012093Y004655D01*
X013408Y005112D02*
X014274Y005112D01*
X027857Y004876D02*
X027872Y004876D01*
X027967Y004860D01*
D30*
X016479Y012356D02*
X016428Y012305D01*
X014404Y012305D01*
X014404Y011635D02*
X014837Y011635D01*
X015258Y011214D01*
X011329Y013096D02*
X011329Y013783D01*
X008329Y013783D02*
X008329Y014718D01*
X013369Y006647D02*
X013369Y006057D01*
X012707Y005395D01*
X012093Y005395D01*
X012093Y004655D02*
X011520Y004480D01*
X011520Y003494D01*
X012012Y003494D02*
X012735Y004084D01*
X013683Y004088D01*
X008841Y004088D02*
X008841Y004167D01*
X008723Y004285D01*
X008595Y004285D01*
X008111Y003486D01*
X006142Y003486D02*
X006142Y005444D01*
X006203Y005348D01*
D31*
X013369Y006647D02*
X013369Y007631D01*
X016479Y010742D01*
X016479Y012474D01*
X016479Y014088D01*
X019668Y017277D01*
X016479Y012474D02*
X016479Y012356D01*
D32*
X015258Y011214D03*
X012187Y012238D03*
X011243Y011411D03*
X007620Y011411D03*
X006636Y012080D03*
X009313Y014718D03*
X002424Y017946D03*
X006951Y008419D03*
X007542Y007159D03*
X006203Y005348D03*
X001518Y004443D03*
X013093Y006647D03*
X014274Y005112D03*
X013683Y004088D03*
D33*
X013369Y006647D02*
X013093Y006647D01*
X024904Y008694D02*
X026361Y008694D01*
X027620Y009954D01*
X025337Y011923D02*
X025494Y013104D01*
X025805Y015033D02*
X025687Y015150D01*
X025805Y015033D02*
X026321Y015033D01*
X026857Y015569D01*
X027865Y015569D01*
X029282Y015569D01*
X029274Y015576D01*
X029274Y016214D01*
X028920Y016569D01*
X028565Y016569D01*
D34*
X028565Y016569D03*
X025494Y013104D03*
X025337Y011923D03*
X027896Y007592D03*
X028802Y007474D03*
X018802Y010624D03*
X008841Y004088D03*
X003447Y016726D03*
D35*
X018802Y010624D02*
X019392Y011214D01*
X019431Y011214D01*
X019550Y011332D01*
X019550Y014482D01*
X019624Y014557D01*
X020880Y014557D01*
X021833Y014128D02*
X021833Y015230D01*
X022660Y015899D01*
X023568Y015899D01*
X023569Y015900D01*
X023569Y015650D02*
X023080Y015650D01*
X022935Y015506D01*
X022935Y014836D01*
X023121Y014650D01*
X023569Y014650D01*
X023569Y014400D02*
X024001Y014400D01*
X024274Y014128D01*
X024274Y013104D01*
X024148Y012978D01*
X023054Y012978D01*
X021983Y012931D02*
X021983Y013490D01*
X022620Y014128D01*
X023547Y014128D01*
X023569Y014150D01*
X023093Y014639D02*
X022581Y015072D01*
X022542Y015112D01*
X022896Y015466D01*
X022896Y014915D01*
X022857Y014876D01*
X022857Y014915D01*
X022660Y015112D01*
X022699Y015112D01*
X022817Y015230D01*
X022817Y015072D01*
X022620Y015072D01*
X022581Y015112D01*
X023569Y015150D02*
X023569Y014900D01*
X023569Y015150D02*
X023569Y015400D01*
X023569Y015226D01*
X023644Y015151D01*
X024786Y014639D02*
X024825Y014600D01*
X025061Y014561D02*
X025061Y014324D01*
X025236Y014150D01*
X025687Y014150D01*
X025687Y014400D02*
X026285Y014400D01*
X026676Y014009D01*
X025687Y014650D02*
X025687Y014900D01*
X025687Y015150D01*
X025612Y015150D01*
X025534Y015072D01*
X025687Y015150D02*
X025687Y015400D01*
X025687Y015650D02*
X025687Y015900D01*
X025691Y015904D01*
X025691Y016293D01*
X026006Y016608D01*
X026282Y016608D01*
X025558Y014797D02*
X025687Y014650D01*
X025140Y014639D02*
X025061Y014561D01*
X021833Y014128D02*
X020963Y013061D01*
X020963Y012962D01*
X028526Y007828D02*
X028526Y007631D01*
X028723Y007671D01*
X025967Y006923D02*
X025967Y006557D01*
X025991Y006572D01*
X025617Y006572D02*
X025550Y006348D01*
X024467Y006348D01*
X024467Y007088D02*
X025762Y007088D01*
X025967Y006923D01*
D36*
X026794Y005663D03*
X024825Y004915D03*
X025376Y003931D03*
X024904Y008694D03*
D37*
X026676Y014009D03*
X026282Y016608D03*
X023565Y017395D03*
X022581Y015112D03*
D38*
X027660Y014285D02*
X029077Y014285D01*
X029117Y014246D01*
X029117Y012710D01*
X028998Y012592D01*
X028605Y012592D01*
X027935Y013261D01*
X027935Y014009D01*
X028762Y014009D01*
X028802Y013970D01*
X028802Y012828D01*
X028762Y012789D01*
X028762Y012907D01*
X028211Y013458D01*
X028211Y013773D01*
X028132Y013852D01*
X028487Y013852D01*
X028565Y013773D01*
X028565Y013340D01*
X028526Y013301D01*
X028526Y013805D01*
X027865Y014466D01*
X029282Y014466D01*
X027699Y014246D02*
X027660Y014285D01*
X027699Y014246D02*
X027699Y013065D01*
X028329Y012435D01*
X029313Y012435D01*
X029313Y011647D02*
X028054Y011647D01*
X027620Y011214D01*
X027620Y009954D01*
X027620Y009600D01*
X027620Y009246D01*
X027916Y008950D01*
X028069Y008797D01*
X029361Y008797D01*
X028998Y008931D02*
X028920Y009009D01*
X028841Y009088D01*
X027778Y009088D01*
X027916Y008950D01*
X028038Y008009D02*
X027699Y007671D01*
X028644Y007671D01*
X028920Y007946D01*
X028369Y007946D01*
X028172Y007395D01*
X027896Y007592D01*
X028038Y008009D02*
X029361Y008009D01*
D39*
X028802Y007513D02*
X028644Y007671D01*
X028802Y007513D02*
X028802Y007474D01*
X023569Y014650D02*
X023541Y014639D01*
X023093Y014639D01*
M02*
