G75*
G70*
%OFA0B0*%
%FSLAX24Y24*%
%IPPOS*%
%LPD*%
%AMOC8*
5,1,8,0,0,1.08239X$1,22.5*
%
%ADD10C,0.0749*%
%ADD11C,0.0986*%
%ADD12R,0.1458X0.0237*%
%ADD13C,0.0592*%
%ADD14R,0.1655X0.1261*%
%ADD15C,0.0434*%
%ADD16R,0.0595X0.0595*%
%ADD17R,0.0789X0.0789*%
D10*
X004061Y003431D03*
X004061Y019242D03*
D11*
X002880Y003431D03*
X002880Y019242D03*
D12*
X001955Y017461D03*
X001955Y017211D03*
X001955Y016961D03*
X001955Y016711D03*
X001955Y016461D03*
X001955Y016211D03*
X001955Y015961D03*
X001955Y015711D03*
X001955Y015461D03*
X001955Y015211D03*
X001955Y014961D03*
X001955Y014711D03*
X001955Y014461D03*
X001955Y014211D03*
X001955Y013961D03*
X001955Y013711D03*
X001955Y013461D03*
X001955Y013211D03*
X001955Y012961D03*
X001955Y012711D03*
X001955Y012461D03*
X001955Y012211D03*
X001955Y011961D03*
X001955Y011711D03*
X001955Y011461D03*
X001955Y011211D03*
X001955Y010961D03*
X001955Y010711D03*
X001955Y010461D03*
X001955Y010211D03*
X001955Y009961D03*
X001955Y009711D03*
X001955Y009461D03*
X001955Y009211D03*
X001955Y008961D03*
X001955Y008711D03*
X001955Y008461D03*
X001955Y008211D03*
X001955Y007961D03*
X001955Y007711D03*
X001955Y007461D03*
X001955Y007211D03*
X001955Y006961D03*
X001955Y006711D03*
X001955Y006461D03*
X001955Y006211D03*
X001955Y005961D03*
X001955Y005711D03*
X001955Y005461D03*
X001955Y005211D03*
D13*
X013943Y002399D03*
X013943Y020273D03*
D14*
X012644Y020509D03*
X012644Y002163D03*
D15*
X028951Y003364D03*
X028951Y005096D03*
D16*
X015258Y011214D03*
X012187Y012238D03*
X011243Y011411D03*
X007620Y011411D03*
X006636Y012080D03*
X009313Y014718D03*
X002424Y017946D03*
X006951Y008419D03*
X007542Y007159D03*
X006203Y005348D03*
X001518Y004443D03*
X013093Y006647D03*
X014274Y005112D03*
X013683Y004088D03*
D17*
X008841Y004088D03*
X018802Y010624D03*
X025337Y011923D03*
X025494Y013104D03*
X028565Y016569D03*
X027896Y007592D03*
X028802Y007474D03*
X003447Y016726D03*
M02*
