G75*
G70*
%OFA0B0*%
%FSLAX24Y24*%
%IPPOS*%
%LPD*%
%AMOC8*
5,1,8,0,0,1.08239X$1,22.5*
%
%ADD10C,0.0000*%
%ADD11R,0.1378X0.0157*%
%ADD12R,0.1575X0.1181*%
%ADD13R,0.0515X0.0515*%
%ADD14C,0.0500*%
%ADD15C,0.0160*%
%ADD16R,0.0709X0.0709*%
%ADD17C,0.0240*%
%ADD18C,0.0436*%
%ADD19R,0.0436X0.0436*%
%ADD20C,0.0320*%
%ADD21C,0.0660*%
D10*
X000101Y001411D02*
X000101Y021372D01*
X031597Y021372D01*
X031597Y001411D01*
X000101Y001411D01*
X002427Y003431D02*
X002429Y003473D01*
X002435Y003515D01*
X002445Y003557D01*
X002458Y003597D01*
X002476Y003636D01*
X002497Y003673D01*
X002521Y003707D01*
X002549Y003740D01*
X002579Y003770D01*
X002612Y003796D01*
X002647Y003820D01*
X002685Y003840D01*
X002724Y003856D01*
X002764Y003869D01*
X002806Y003878D01*
X002848Y003883D01*
X002891Y003884D01*
X002933Y003881D01*
X002975Y003874D01*
X003016Y003863D01*
X003056Y003848D01*
X003094Y003830D01*
X003131Y003808D01*
X003165Y003783D01*
X003197Y003755D01*
X003225Y003724D01*
X003251Y003690D01*
X003274Y003654D01*
X003293Y003617D01*
X003309Y003577D01*
X003321Y003536D01*
X003329Y003495D01*
X003333Y003452D01*
X003333Y003410D01*
X003329Y003367D01*
X003321Y003326D01*
X003309Y003285D01*
X003293Y003245D01*
X003274Y003208D01*
X003251Y003172D01*
X003225Y003138D01*
X003197Y003107D01*
X003165Y003079D01*
X003131Y003054D01*
X003094Y003032D01*
X003056Y003014D01*
X003016Y002999D01*
X002975Y002988D01*
X002933Y002981D01*
X002891Y002978D01*
X002848Y002979D01*
X002806Y002984D01*
X002764Y002993D01*
X002724Y003006D01*
X002685Y003022D01*
X002647Y003042D01*
X002612Y003066D01*
X002579Y003092D01*
X002549Y003122D01*
X002521Y003155D01*
X002497Y003189D01*
X002476Y003226D01*
X002458Y003265D01*
X002445Y003305D01*
X002435Y003347D01*
X002429Y003389D01*
X002427Y003431D01*
X003726Y003431D02*
X003728Y003467D01*
X003734Y003503D01*
X003744Y003538D01*
X003757Y003572D01*
X003774Y003604D01*
X003794Y003634D01*
X003818Y003661D01*
X003844Y003686D01*
X003873Y003708D01*
X003904Y003727D01*
X003937Y003742D01*
X003971Y003754D01*
X004007Y003762D01*
X004043Y003766D01*
X004079Y003766D01*
X004115Y003762D01*
X004151Y003754D01*
X004185Y003742D01*
X004218Y003727D01*
X004249Y003708D01*
X004278Y003686D01*
X004304Y003661D01*
X004328Y003634D01*
X004348Y003604D01*
X004365Y003572D01*
X004378Y003538D01*
X004388Y003503D01*
X004394Y003467D01*
X004396Y003431D01*
X004394Y003395D01*
X004388Y003359D01*
X004378Y003324D01*
X004365Y003290D01*
X004348Y003258D01*
X004328Y003228D01*
X004304Y003201D01*
X004278Y003176D01*
X004249Y003154D01*
X004218Y003135D01*
X004185Y003120D01*
X004151Y003108D01*
X004115Y003100D01*
X004079Y003096D01*
X004043Y003096D01*
X004007Y003100D01*
X003971Y003108D01*
X003937Y003120D01*
X003904Y003135D01*
X003873Y003154D01*
X003844Y003176D01*
X003818Y003201D01*
X003794Y003228D01*
X003774Y003258D01*
X003757Y003290D01*
X003744Y003324D01*
X003734Y003359D01*
X003728Y003395D01*
X003726Y003431D01*
X013687Y002399D02*
X013689Y002430D01*
X013695Y002461D01*
X013704Y002491D01*
X013717Y002520D01*
X013734Y002547D01*
X013754Y002571D01*
X013776Y002593D01*
X013802Y002612D01*
X013829Y002628D01*
X013858Y002640D01*
X013888Y002649D01*
X013919Y002654D01*
X013951Y002655D01*
X013982Y002652D01*
X014013Y002645D01*
X014043Y002635D01*
X014071Y002621D01*
X014097Y002603D01*
X014121Y002583D01*
X014142Y002559D01*
X014161Y002534D01*
X014176Y002506D01*
X014187Y002477D01*
X014195Y002446D01*
X014199Y002415D01*
X014199Y002383D01*
X014195Y002352D01*
X014187Y002321D01*
X014176Y002292D01*
X014161Y002264D01*
X014142Y002239D01*
X014121Y002215D01*
X014097Y002195D01*
X014071Y002177D01*
X014043Y002163D01*
X014013Y002153D01*
X013982Y002146D01*
X013951Y002143D01*
X013919Y002144D01*
X013888Y002149D01*
X013858Y002158D01*
X013829Y002170D01*
X013802Y002186D01*
X013776Y002205D01*
X013754Y002227D01*
X013734Y002251D01*
X013717Y002278D01*
X013704Y002307D01*
X013695Y002337D01*
X013689Y002368D01*
X013687Y002399D01*
X028774Y003364D02*
X028776Y003390D01*
X028782Y003416D01*
X028792Y003441D01*
X028805Y003464D01*
X028821Y003484D01*
X028841Y003502D01*
X028863Y003517D01*
X028886Y003529D01*
X028912Y003537D01*
X028938Y003541D01*
X028964Y003541D01*
X028990Y003537D01*
X029016Y003529D01*
X029040Y003517D01*
X029061Y003502D01*
X029081Y003484D01*
X029097Y003464D01*
X029110Y003441D01*
X029120Y003416D01*
X029126Y003390D01*
X029128Y003364D01*
X029126Y003338D01*
X029120Y003312D01*
X029110Y003287D01*
X029097Y003264D01*
X029081Y003244D01*
X029061Y003226D01*
X029039Y003211D01*
X029016Y003199D01*
X028990Y003191D01*
X028964Y003187D01*
X028938Y003187D01*
X028912Y003191D01*
X028886Y003199D01*
X028862Y003211D01*
X028841Y003226D01*
X028821Y003244D01*
X028805Y003264D01*
X028792Y003287D01*
X028782Y003312D01*
X028776Y003338D01*
X028774Y003364D01*
X028774Y005096D02*
X028776Y005122D01*
X028782Y005148D01*
X028792Y005173D01*
X028805Y005196D01*
X028821Y005216D01*
X028841Y005234D01*
X028863Y005249D01*
X028886Y005261D01*
X028912Y005269D01*
X028938Y005273D01*
X028964Y005273D01*
X028990Y005269D01*
X029016Y005261D01*
X029040Y005249D01*
X029061Y005234D01*
X029081Y005216D01*
X029097Y005196D01*
X029110Y005173D01*
X029120Y005148D01*
X029126Y005122D01*
X029128Y005096D01*
X029126Y005070D01*
X029120Y005044D01*
X029110Y005019D01*
X029097Y004996D01*
X029081Y004976D01*
X029061Y004958D01*
X029039Y004943D01*
X029016Y004931D01*
X028990Y004923D01*
X028964Y004919D01*
X028938Y004919D01*
X028912Y004923D01*
X028886Y004931D01*
X028862Y004943D01*
X028841Y004958D01*
X028821Y004976D01*
X028805Y004996D01*
X028792Y005019D01*
X028782Y005044D01*
X028776Y005070D01*
X028774Y005096D01*
X013687Y020273D02*
X013689Y020304D01*
X013695Y020335D01*
X013704Y020365D01*
X013717Y020394D01*
X013734Y020421D01*
X013754Y020445D01*
X013776Y020467D01*
X013802Y020486D01*
X013829Y020502D01*
X013858Y020514D01*
X013888Y020523D01*
X013919Y020528D01*
X013951Y020529D01*
X013982Y020526D01*
X014013Y020519D01*
X014043Y020509D01*
X014071Y020495D01*
X014097Y020477D01*
X014121Y020457D01*
X014142Y020433D01*
X014161Y020408D01*
X014176Y020380D01*
X014187Y020351D01*
X014195Y020320D01*
X014199Y020289D01*
X014199Y020257D01*
X014195Y020226D01*
X014187Y020195D01*
X014176Y020166D01*
X014161Y020138D01*
X014142Y020113D01*
X014121Y020089D01*
X014097Y020069D01*
X014071Y020051D01*
X014043Y020037D01*
X014013Y020027D01*
X013982Y020020D01*
X013951Y020017D01*
X013919Y020018D01*
X013888Y020023D01*
X013858Y020032D01*
X013829Y020044D01*
X013802Y020060D01*
X013776Y020079D01*
X013754Y020101D01*
X013734Y020125D01*
X013717Y020152D01*
X013704Y020181D01*
X013695Y020211D01*
X013689Y020242D01*
X013687Y020273D01*
X003726Y019242D02*
X003728Y019278D01*
X003734Y019314D01*
X003744Y019349D01*
X003757Y019383D01*
X003774Y019415D01*
X003794Y019445D01*
X003818Y019472D01*
X003844Y019497D01*
X003873Y019519D01*
X003904Y019538D01*
X003937Y019553D01*
X003971Y019565D01*
X004007Y019573D01*
X004043Y019577D01*
X004079Y019577D01*
X004115Y019573D01*
X004151Y019565D01*
X004185Y019553D01*
X004218Y019538D01*
X004249Y019519D01*
X004278Y019497D01*
X004304Y019472D01*
X004328Y019445D01*
X004348Y019415D01*
X004365Y019383D01*
X004378Y019349D01*
X004388Y019314D01*
X004394Y019278D01*
X004396Y019242D01*
X004394Y019206D01*
X004388Y019170D01*
X004378Y019135D01*
X004365Y019101D01*
X004348Y019069D01*
X004328Y019039D01*
X004304Y019012D01*
X004278Y018987D01*
X004249Y018965D01*
X004218Y018946D01*
X004185Y018931D01*
X004151Y018919D01*
X004115Y018911D01*
X004079Y018907D01*
X004043Y018907D01*
X004007Y018911D01*
X003971Y018919D01*
X003937Y018931D01*
X003904Y018946D01*
X003873Y018965D01*
X003844Y018987D01*
X003818Y019012D01*
X003794Y019039D01*
X003774Y019069D01*
X003757Y019101D01*
X003744Y019135D01*
X003734Y019170D01*
X003728Y019206D01*
X003726Y019242D01*
X002427Y019242D02*
X002429Y019284D01*
X002435Y019326D01*
X002445Y019368D01*
X002458Y019408D01*
X002476Y019447D01*
X002497Y019484D01*
X002521Y019518D01*
X002549Y019551D01*
X002579Y019581D01*
X002612Y019607D01*
X002647Y019631D01*
X002685Y019651D01*
X002724Y019667D01*
X002764Y019680D01*
X002806Y019689D01*
X002848Y019694D01*
X002891Y019695D01*
X002933Y019692D01*
X002975Y019685D01*
X003016Y019674D01*
X003056Y019659D01*
X003094Y019641D01*
X003131Y019619D01*
X003165Y019594D01*
X003197Y019566D01*
X003225Y019535D01*
X003251Y019501D01*
X003274Y019465D01*
X003293Y019428D01*
X003309Y019388D01*
X003321Y019347D01*
X003329Y019306D01*
X003333Y019263D01*
X003333Y019221D01*
X003329Y019178D01*
X003321Y019137D01*
X003309Y019096D01*
X003293Y019056D01*
X003274Y019019D01*
X003251Y018983D01*
X003225Y018949D01*
X003197Y018918D01*
X003165Y018890D01*
X003131Y018865D01*
X003094Y018843D01*
X003056Y018825D01*
X003016Y018810D01*
X002975Y018799D01*
X002933Y018792D01*
X002891Y018789D01*
X002848Y018790D01*
X002806Y018795D01*
X002764Y018804D01*
X002724Y018817D01*
X002685Y018833D01*
X002647Y018853D01*
X002612Y018877D01*
X002579Y018903D01*
X002549Y018933D01*
X002521Y018966D01*
X002497Y019000D01*
X002476Y019037D01*
X002458Y019076D01*
X002445Y019116D01*
X002435Y019158D01*
X002429Y019200D01*
X002427Y019242D01*
D11*
X001955Y017461D03*
X001955Y017211D03*
X001955Y016961D03*
X001955Y016711D03*
X001955Y016461D03*
X001955Y016211D03*
X001955Y015961D03*
X001955Y015711D03*
X001955Y015461D03*
X001955Y015211D03*
X001955Y014961D03*
X001955Y014711D03*
X001955Y014461D03*
X001955Y014211D03*
X001955Y013961D03*
X001955Y013711D03*
X001955Y013461D03*
X001955Y013211D03*
X001955Y012961D03*
X001955Y012711D03*
X001955Y012461D03*
X001955Y012211D03*
X001955Y011961D03*
X001955Y011711D03*
X001955Y011461D03*
X001955Y011211D03*
X001955Y010961D03*
X001955Y010711D03*
X001955Y010461D03*
X001955Y010211D03*
X001955Y009961D03*
X001955Y009711D03*
X001955Y009461D03*
X001955Y009211D03*
X001955Y008961D03*
X001955Y008711D03*
X001955Y008461D03*
X001955Y008211D03*
X001955Y007961D03*
X001955Y007711D03*
X001955Y007461D03*
X001955Y007211D03*
X001955Y006961D03*
X001955Y006711D03*
X001955Y006461D03*
X001955Y006211D03*
X001955Y005961D03*
X001955Y005711D03*
X001955Y005461D03*
X001955Y005211D03*
D12*
X012644Y002163D03*
X012644Y020509D03*
D13*
X009313Y014718D03*
X006636Y012080D03*
X007620Y011411D03*
X011243Y011411D03*
X012187Y012238D03*
X015258Y011214D03*
X013093Y006647D03*
X014274Y005112D03*
X013683Y004088D03*
X007542Y007159D03*
X006951Y008419D03*
X006203Y005348D03*
X001518Y004443D03*
X002424Y017946D03*
D14*
X011636Y006647D02*
X013093Y006647D01*
X011636Y006647D02*
X010337Y005348D01*
X006203Y005348D01*
X025337Y011923D02*
X025455Y012002D01*
X025849Y013025D01*
X027660Y013025D01*
X028605Y013931D01*
X028565Y016569D01*
X025809Y012946D02*
X025494Y013104D01*
X025809Y012946D02*
X025809Y009521D01*
X027896Y007592D01*
D15*
X027008Y005984D02*
X026869Y006041D01*
X026718Y006041D01*
X026579Y005984D01*
X026473Y005877D01*
X026416Y005738D01*
X026416Y005681D01*
X025930Y005195D01*
X025080Y005195D01*
X025039Y005235D01*
X024900Y005293D01*
X024750Y005293D01*
X024611Y005235D01*
X024505Y005129D01*
X024447Y004990D01*
X024447Y004840D01*
X024505Y004701D01*
X024611Y004594D01*
X024750Y004537D01*
X024900Y004537D01*
X025039Y004594D01*
X025080Y004635D01*
X025990Y004635D01*
X026101Y004635D01*
X026204Y004678D01*
X026812Y005285D01*
X026869Y005285D01*
X027008Y005342D01*
X027114Y005449D01*
X027172Y005588D01*
X027172Y005738D01*
X027114Y005877D01*
X027008Y005984D01*
X026947Y006009D02*
X031321Y006009D01*
X031321Y006167D02*
X023924Y006167D01*
X023924Y006009D02*
X026641Y006009D01*
X026462Y005850D02*
X023924Y005850D01*
X023924Y005692D02*
X026416Y005692D01*
X026268Y005533D02*
X023924Y005533D01*
X023924Y005375D02*
X026109Y005375D01*
X025951Y005216D02*
X025059Y005216D01*
X024592Y005216D02*
X023924Y005216D01*
X023924Y005058D02*
X024475Y005058D01*
X024447Y004899D02*
X024056Y004899D01*
X023924Y005031D02*
X023924Y007791D01*
X024587Y008454D01*
X024610Y008454D01*
X024690Y008374D01*
X024829Y008316D01*
X024979Y008316D01*
X025118Y008374D01*
X025224Y008480D01*
X025282Y008619D01*
X025282Y008770D01*
X025224Y008909D01*
X025118Y009015D01*
X024979Y009073D01*
X024829Y009073D01*
X024690Y009015D01*
X024689Y009014D01*
X024415Y009014D01*
X024312Y008971D01*
X024234Y008892D01*
X023407Y008066D01*
X023364Y007963D01*
X023364Y007851D01*
X023364Y004859D01*
X023407Y004756D01*
X023485Y004678D01*
X024470Y003693D01*
X024573Y003651D01*
X024684Y003651D01*
X025122Y003651D01*
X025162Y003610D01*
X025301Y003553D01*
X025452Y003553D01*
X025591Y003610D01*
X025697Y003716D01*
X025754Y003855D01*
X025754Y004006D01*
X025697Y004145D01*
X025591Y004251D01*
X025452Y004309D01*
X025301Y004309D01*
X025162Y004251D01*
X025122Y004211D01*
X024744Y004211D01*
X023924Y005031D01*
X024215Y004740D02*
X024488Y004740D01*
X024373Y004582D02*
X024641Y004582D01*
X024532Y004423D02*
X031321Y004423D01*
X031321Y004265D02*
X025558Y004265D01*
X025713Y004106D02*
X031321Y004106D01*
X031321Y003948D02*
X025754Y003948D01*
X025727Y003789D02*
X031321Y003789D01*
X031321Y003631D02*
X029189Y003631D01*
X029153Y003667D02*
X029254Y003566D01*
X029308Y003435D01*
X029308Y003293D01*
X029254Y003161D01*
X029153Y003061D01*
X029022Y003007D01*
X028880Y003007D01*
X028749Y003061D01*
X028648Y003161D01*
X028594Y003293D01*
X028594Y003435D01*
X028648Y003566D01*
X028749Y003667D01*
X028880Y003721D01*
X029022Y003721D01*
X029153Y003667D01*
X029293Y003472D02*
X031321Y003472D01*
X031321Y003314D02*
X029308Y003314D01*
X029247Y003155D02*
X031321Y003155D01*
X031321Y002996D02*
X013948Y002996D01*
X013920Y003025D02*
X013762Y003025D01*
X013723Y003065D01*
X010534Y003025D01*
X009471Y001687D01*
X001439Y001687D01*
X000455Y002671D01*
X000455Y020072D01*
X001518Y021135D01*
X001636Y021135D01*
X001754Y021017D01*
X010180Y021017D01*
X011557Y019639D01*
X011557Y019561D01*
X011597Y019521D01*
X013880Y019521D01*
X015416Y021057D01*
X030376Y021057D01*
X031321Y020112D01*
X031321Y002671D01*
X030337Y001687D01*
X015258Y001687D01*
X014323Y002622D01*
X014313Y002646D01*
X014190Y002769D01*
X014166Y002779D01*
X013920Y003025D01*
X014107Y002838D02*
X031321Y002838D01*
X031321Y002679D02*
X014280Y002679D01*
X014424Y002521D02*
X031171Y002521D01*
X031013Y002362D02*
X014583Y002362D01*
X014741Y002204D02*
X030854Y002204D01*
X030696Y002045D02*
X014900Y002045D01*
X015058Y001887D02*
X030537Y001887D01*
X030379Y001728D02*
X015217Y001728D01*
X014598Y004694D02*
X013950Y004694D01*
X013857Y004788D01*
X013857Y005436D01*
X013950Y005529D01*
X014296Y005529D01*
X015175Y006409D01*
X015175Y008224D01*
X012029Y011371D01*
X011950Y011449D01*
X011907Y011552D01*
X011907Y011820D01*
X011864Y011820D01*
X011770Y011914D01*
X011770Y012562D01*
X011864Y012655D01*
X012511Y012655D01*
X012605Y012562D01*
X012605Y011914D01*
X012511Y011820D01*
X012467Y011820D01*
X012467Y011724D01*
X015614Y008577D01*
X015692Y008499D01*
X015735Y008396D01*
X015735Y006349D01*
X015735Y006237D01*
X015692Y006134D01*
X014691Y005133D01*
X014691Y004788D01*
X014598Y004694D01*
X014644Y004740D02*
X023423Y004740D01*
X023364Y004899D02*
X014691Y004899D01*
X014691Y005058D02*
X023364Y005058D01*
X023364Y005216D02*
X014774Y005216D01*
X014933Y005375D02*
X023364Y005375D01*
X023364Y005533D02*
X015091Y005533D01*
X015250Y005692D02*
X023364Y005692D01*
X023364Y005850D02*
X015408Y005850D01*
X015567Y006009D02*
X023364Y006009D01*
X023364Y006167D02*
X015706Y006167D01*
X015735Y006326D02*
X023364Y006326D01*
X023364Y006484D02*
X015735Y006484D01*
X015735Y006643D02*
X023364Y006643D01*
X023364Y006801D02*
X015735Y006801D01*
X015735Y006960D02*
X023364Y006960D01*
X023364Y007119D02*
X015735Y007119D01*
X015735Y007277D02*
X023364Y007277D01*
X023364Y007436D02*
X015735Y007436D01*
X015735Y007594D02*
X023364Y007594D01*
X023364Y007753D02*
X015735Y007753D01*
X015735Y007911D02*
X023364Y007911D01*
X023411Y008070D02*
X015735Y008070D01*
X015735Y008228D02*
X023569Y008228D01*
X023728Y008387D02*
X015735Y008387D01*
X015646Y008545D02*
X023887Y008545D01*
X024045Y008704D02*
X015487Y008704D01*
X015329Y008863D02*
X024204Y008863D01*
X024704Y009021D02*
X015170Y009021D01*
X015012Y009180D02*
X031321Y009180D01*
X031321Y009338D02*
X014853Y009338D01*
X014694Y009497D02*
X031321Y009497D01*
X031321Y009655D02*
X014536Y009655D01*
X014377Y009814D02*
X031321Y009814D01*
X031321Y009972D02*
X014219Y009972D01*
X014060Y010131D02*
X031321Y010131D01*
X031321Y010289D02*
X013902Y010289D01*
X013743Y010448D02*
X031321Y010448D01*
X031321Y010607D02*
X013585Y010607D01*
X013426Y010765D02*
X031321Y010765D01*
X031321Y010924D02*
X013268Y010924D01*
X013109Y011082D02*
X031321Y011082D01*
X031321Y011241D02*
X012950Y011241D01*
X012792Y011399D02*
X031321Y011399D01*
X031321Y011558D02*
X012633Y011558D01*
X012475Y011716D02*
X031321Y011716D01*
X031321Y011875D02*
X012566Y011875D01*
X012605Y012033D02*
X031321Y012033D01*
X031321Y012192D02*
X012605Y012192D01*
X012605Y012351D02*
X031321Y012351D01*
X031321Y012509D02*
X012605Y012509D01*
X011770Y012509D02*
X009593Y012509D01*
X009593Y012351D02*
X011770Y012351D01*
X011770Y012192D02*
X009593Y012192D01*
X009593Y012033D02*
X011770Y012033D01*
X011809Y011875D02*
X009593Y011875D01*
X009593Y011716D02*
X010825Y011716D01*
X010825Y011735D02*
X010825Y011389D01*
X007304Y007869D01*
X007262Y007766D01*
X007262Y007655D01*
X007262Y007576D01*
X007218Y007576D01*
X007124Y007483D01*
X007124Y006835D01*
X007218Y006742D01*
X007865Y006742D01*
X007959Y006835D01*
X007959Y007483D01*
X007865Y007576D01*
X007822Y007576D01*
X007822Y007594D01*
X015175Y007594D01*
X015175Y007436D02*
X007959Y007436D01*
X007959Y007277D02*
X015175Y007277D01*
X015175Y007119D02*
X007959Y007119D01*
X007959Y006960D02*
X011369Y006960D01*
X011404Y006995D02*
X011289Y006879D01*
X010167Y005758D01*
X006534Y005758D01*
X006527Y005765D01*
X005879Y005765D01*
X005786Y005672D01*
X005786Y005024D01*
X005879Y004931D01*
X006527Y004931D01*
X006534Y004938D01*
X010255Y004938D01*
X010419Y004938D01*
X010569Y005000D01*
X011806Y006237D01*
X012762Y006237D01*
X012769Y006230D01*
X013417Y006230D01*
X013510Y006323D01*
X013510Y006971D01*
X013417Y007065D01*
X012769Y007065D01*
X012762Y007057D01*
X011555Y007057D01*
X011404Y006995D01*
X011211Y006801D02*
X007925Y006801D01*
X007158Y006801D02*
X002804Y006801D01*
X002804Y006816D02*
X002804Y007066D01*
X002804Y007316D01*
X002804Y007566D01*
X002804Y007816D01*
X002804Y008066D01*
X002804Y008316D01*
X002804Y008566D01*
X002804Y008816D01*
X002804Y009066D01*
X002804Y009316D01*
X002804Y009566D01*
X002804Y009816D01*
X002804Y010066D01*
X002804Y010221D01*
X006623Y010221D01*
X006718Y010221D01*
X006807Y010258D01*
X007542Y010994D01*
X007944Y010994D01*
X008038Y011087D01*
X008038Y011735D01*
X007944Y011828D01*
X007297Y011828D01*
X007203Y011735D01*
X007203Y011333D01*
X006571Y010701D01*
X002804Y010701D01*
X002804Y010721D01*
X002989Y010721D01*
X003085Y010721D01*
X003173Y010758D01*
X004255Y011840D01*
X006219Y011840D01*
X006219Y011757D01*
X006312Y011663D01*
X006960Y011663D01*
X007054Y011757D01*
X007054Y012404D01*
X006960Y012498D01*
X006312Y012498D01*
X006219Y012404D01*
X006219Y012320D01*
X004204Y012320D01*
X004108Y012320D01*
X004020Y012284D01*
X002937Y011201D01*
X002804Y011201D01*
X002804Y011316D01*
X002804Y011566D01*
X002804Y011816D01*
X002804Y012066D01*
X002804Y012316D01*
X002804Y012566D01*
X002804Y012816D01*
X002804Y013066D01*
X002804Y013316D01*
X002804Y013566D01*
X002804Y013816D01*
X002804Y014066D01*
X002804Y014316D01*
X002804Y014566D01*
X002804Y014788D01*
X002824Y014808D01*
X002824Y014961D01*
X001956Y014961D01*
X001956Y014961D01*
X002824Y014961D01*
X002824Y015114D01*
X002804Y015134D01*
X002804Y015316D01*
X002804Y015566D01*
X002804Y015816D01*
X002804Y016066D01*
X002804Y016221D01*
X003017Y016221D01*
X003027Y016212D01*
X003868Y016212D01*
X003962Y016305D01*
X003962Y017147D01*
X003868Y017240D01*
X003155Y017240D01*
X003177Y017292D01*
X003177Y017420D01*
X003128Y017537D01*
X003038Y017627D01*
X002920Y017676D01*
X002763Y017676D01*
X002719Y017720D01*
X001955Y017720D01*
X001192Y017720D01*
X001148Y017676D01*
X001061Y017676D01*
X000943Y017627D01*
X000853Y017537D01*
X000804Y017420D01*
X000804Y017292D01*
X000853Y017175D01*
X000943Y017085D01*
X001061Y017036D01*
X001106Y017036D01*
X001106Y016884D01*
X001086Y016864D01*
X001086Y016711D01*
X001086Y016558D01*
X001106Y016538D01*
X001106Y016316D01*
X001106Y016066D01*
X001106Y015816D01*
X001106Y015566D01*
X001106Y015316D01*
X001106Y015134D01*
X001086Y015114D01*
X001086Y014961D01*
X001086Y014808D01*
X001106Y014788D01*
X001106Y014566D01*
X001106Y014316D01*
X001106Y014066D01*
X001106Y013816D01*
X001106Y013566D01*
X001106Y013316D01*
X001106Y013066D01*
X001106Y012816D01*
X001106Y012566D01*
X001106Y012316D01*
X001106Y012066D01*
X001106Y011816D01*
X001106Y011566D01*
X001106Y011316D01*
X001106Y011066D01*
X001106Y010816D01*
X001106Y010566D01*
X001106Y010356D01*
X001106Y010066D01*
X001106Y009816D01*
X001106Y009566D01*
X001106Y009316D01*
X001106Y009066D01*
X001106Y008816D01*
X001106Y008566D01*
X001106Y008316D01*
X001106Y008066D01*
X001106Y007816D01*
X001106Y007566D01*
X001106Y007316D01*
X001106Y007066D01*
X001106Y006816D01*
X001106Y006566D01*
X001106Y006316D01*
X001106Y006066D01*
X001106Y005884D01*
X001086Y005864D01*
X001086Y005711D01*
X001086Y005558D01*
X001086Y005461D01*
X001086Y005308D01*
X001106Y005288D01*
X001106Y005066D01*
X001200Y004972D01*
X002710Y004972D01*
X002804Y005066D01*
X002804Y005288D01*
X002824Y005308D01*
X002824Y005461D01*
X002727Y005461D01*
X002728Y005461D01*
X002824Y005461D01*
X002824Y005558D01*
X002824Y005711D01*
X002728Y005711D01*
X002727Y005711D01*
X002824Y005711D01*
X002824Y005864D01*
X002804Y005884D01*
X002804Y006066D01*
X002804Y006316D01*
X002804Y006566D01*
X002804Y006816D01*
X002804Y006960D02*
X007124Y006960D01*
X007124Y007119D02*
X002804Y007119D01*
X002804Y007277D02*
X007124Y007277D01*
X007124Y007436D02*
X002804Y007436D01*
X002804Y007594D02*
X007262Y007594D01*
X007262Y007753D02*
X002804Y007753D01*
X002804Y007911D02*
X007347Y007911D01*
X007275Y008001D02*
X007369Y008095D01*
X007369Y008440D01*
X009472Y010544D01*
X009551Y010622D01*
X009593Y010725D01*
X009593Y014301D01*
X009637Y014301D01*
X009731Y014394D01*
X009731Y015042D01*
X009637Y015136D01*
X008990Y015136D01*
X008896Y015042D01*
X008896Y014394D01*
X008990Y014301D01*
X009033Y014301D01*
X009033Y010897D01*
X006973Y008836D01*
X006627Y008836D01*
X006534Y008743D01*
X006534Y008095D01*
X006627Y008001D01*
X007275Y008001D01*
X007343Y008070D02*
X007505Y008070D01*
X007369Y008228D02*
X007664Y008228D01*
X007822Y008387D02*
X007369Y008387D01*
X007474Y008545D02*
X007981Y008545D01*
X008140Y008704D02*
X007632Y008704D01*
X007791Y008863D02*
X008298Y008863D01*
X008457Y009021D02*
X007949Y009021D01*
X008108Y009180D02*
X008615Y009180D01*
X008774Y009338D02*
X008266Y009338D01*
X008425Y009497D02*
X008932Y009497D01*
X009091Y009655D02*
X008583Y009655D01*
X008742Y009814D02*
X009249Y009814D01*
X009408Y009972D02*
X008901Y009972D01*
X009059Y010131D02*
X009566Y010131D01*
X009725Y010289D02*
X009218Y010289D01*
X009376Y010448D02*
X009884Y010448D01*
X010042Y010607D02*
X009535Y010607D01*
X009472Y010544D02*
X009472Y010544D01*
X009593Y010765D02*
X010201Y010765D01*
X010359Y010924D02*
X009593Y010924D01*
X009593Y011082D02*
X010518Y011082D01*
X010676Y011241D02*
X009593Y011241D01*
X009593Y011399D02*
X010825Y011399D01*
X010825Y011558D02*
X009593Y011558D01*
X009033Y011558D02*
X008038Y011558D01*
X008038Y011716D02*
X009033Y011716D01*
X009033Y011875D02*
X007054Y011875D01*
X007054Y012033D02*
X009033Y012033D01*
X009033Y012192D02*
X007054Y012192D01*
X007054Y012351D02*
X009033Y012351D01*
X009033Y012509D02*
X002804Y012509D01*
X002804Y012351D02*
X006219Y012351D01*
X006636Y012080D02*
X004156Y012080D01*
X003037Y010961D01*
X001955Y010961D01*
X002804Y011241D02*
X002977Y011241D01*
X003135Y011399D02*
X002804Y011399D01*
X002804Y011558D02*
X003294Y011558D01*
X003453Y011716D02*
X002804Y011716D01*
X002804Y011875D02*
X003611Y011875D01*
X003770Y012033D02*
X002804Y012033D01*
X002804Y012192D02*
X003928Y012192D01*
X004131Y011716D02*
X006259Y011716D01*
X007013Y011716D02*
X007203Y011716D01*
X007203Y011558D02*
X003973Y011558D01*
X003814Y011399D02*
X007203Y011399D01*
X007111Y011241D02*
X003656Y011241D01*
X003497Y011082D02*
X006952Y011082D01*
X006794Y010924D02*
X003339Y010924D01*
X003180Y010765D02*
X006635Y010765D01*
X006671Y010461D02*
X007620Y011411D01*
X008038Y011399D02*
X009033Y011399D01*
X009033Y011241D02*
X008038Y011241D01*
X008033Y011082D02*
X009033Y011082D01*
X009033Y010924D02*
X007472Y010924D01*
X007314Y010765D02*
X008901Y010765D01*
X008743Y010607D02*
X007155Y010607D01*
X006997Y010448D02*
X008584Y010448D01*
X008426Y010289D02*
X006838Y010289D01*
X006671Y010461D02*
X001955Y010461D01*
X002804Y010131D02*
X008267Y010131D01*
X008109Y009972D02*
X002804Y009972D01*
X002804Y009814D02*
X007950Y009814D01*
X007792Y009655D02*
X002804Y009655D01*
X002804Y009497D02*
X007633Y009497D01*
X007475Y009338D02*
X002804Y009338D01*
X002804Y009180D02*
X007316Y009180D01*
X007157Y009021D02*
X002804Y009021D01*
X002804Y008863D02*
X006999Y008863D01*
X006534Y008704D02*
X002804Y008704D01*
X002804Y008545D02*
X006534Y008545D01*
X006534Y008387D02*
X002804Y008387D01*
X002804Y008228D02*
X006534Y008228D01*
X006559Y008070D02*
X002804Y008070D01*
X001106Y008070D02*
X000455Y008070D01*
X000455Y008228D02*
X001106Y008228D01*
X001106Y008387D02*
X000455Y008387D01*
X000455Y008545D02*
X001106Y008545D01*
X001106Y008704D02*
X000455Y008704D01*
X000455Y008863D02*
X001106Y008863D01*
X001106Y009021D02*
X000455Y009021D01*
X000455Y009180D02*
X001106Y009180D01*
X001106Y009338D02*
X000455Y009338D01*
X000455Y009497D02*
X001106Y009497D01*
X001106Y009655D02*
X000455Y009655D01*
X000455Y009814D02*
X001106Y009814D01*
X001106Y009972D02*
X000455Y009972D01*
X000455Y010131D02*
X001106Y010131D01*
X001106Y010289D02*
X000455Y010289D01*
X000455Y010448D02*
X001106Y010448D01*
X001106Y010607D02*
X000455Y010607D01*
X000455Y010765D02*
X001106Y010765D01*
X001106Y010924D02*
X000455Y010924D01*
X000455Y011082D02*
X001106Y011082D01*
X001106Y011241D02*
X000455Y011241D01*
X000455Y011399D02*
X001106Y011399D01*
X001106Y011558D02*
X000455Y011558D01*
X000455Y011716D02*
X001106Y011716D01*
X001106Y011875D02*
X000455Y011875D01*
X000455Y012033D02*
X001106Y012033D01*
X001106Y012192D02*
X000455Y012192D01*
X000455Y012351D02*
X001106Y012351D01*
X001106Y012509D02*
X000455Y012509D01*
X000455Y012668D02*
X001106Y012668D01*
X001106Y012826D02*
X000455Y012826D01*
X000455Y012985D02*
X001106Y012985D01*
X001106Y013143D02*
X000455Y013143D01*
X000455Y013302D02*
X001106Y013302D01*
X001106Y013460D02*
X000455Y013460D01*
X000455Y013619D02*
X001106Y013619D01*
X001106Y013777D02*
X000455Y013777D01*
X000455Y013936D02*
X001106Y013936D01*
X001106Y014094D02*
X000455Y014094D01*
X000455Y014253D02*
X001106Y014253D01*
X001106Y014412D02*
X000455Y014412D01*
X000455Y014570D02*
X001106Y014570D01*
X001106Y014729D02*
X000455Y014729D01*
X000455Y014887D02*
X001086Y014887D01*
X001086Y014961D02*
X001955Y014961D01*
X001039Y014961D01*
X000809Y015191D01*
X000809Y017395D01*
X000888Y017474D01*
X001085Y017474D01*
X001164Y017395D01*
X001124Y017395D02*
X000888Y017159D01*
X000888Y016883D01*
X001060Y016711D01*
X001955Y016711D01*
X001086Y016711D01*
X001955Y016711D01*
X001955Y016711D01*
X001956Y016711D02*
X001956Y016711D01*
X002824Y016711D01*
X002824Y016701D01*
X002933Y016701D01*
X002933Y016722D01*
X002824Y016722D01*
X002824Y016711D01*
X001956Y016711D01*
X001955Y016461D02*
X003182Y016461D01*
X003447Y016726D01*
X003408Y016726D01*
X003172Y016962D01*
X001956Y016962D01*
X001955Y016961D01*
X001955Y017211D02*
X001098Y017211D01*
X000967Y017080D01*
X000967Y016805D01*
X001060Y016711D01*
X001086Y016790D02*
X000455Y016790D01*
X000455Y016948D02*
X001106Y016948D01*
X000921Y017107D02*
X000455Y017107D01*
X000455Y017265D02*
X000816Y017265D01*
X000806Y017424D02*
X000455Y017424D01*
X000455Y017582D02*
X000898Y017582D01*
X000455Y017741D02*
X023249Y017741D01*
X023281Y017773D02*
X023187Y017680D01*
X023187Y017111D01*
X023281Y017017D01*
X023850Y017017D01*
X023943Y017111D01*
X023943Y017115D01*
X025379Y017115D01*
X025904Y016590D01*
X025904Y016323D01*
X025997Y016230D01*
X026321Y016230D01*
X026436Y016115D01*
X026436Y014388D01*
X026391Y014388D01*
X026297Y014294D01*
X026297Y013725D01*
X026391Y013631D01*
X026960Y013631D01*
X027054Y013725D01*
X027054Y014294D01*
X026960Y014388D01*
X026916Y014388D01*
X026916Y016166D01*
X026916Y016262D01*
X026879Y016350D01*
X026660Y016569D01*
X026660Y016892D01*
X026566Y016986D01*
X026300Y016986D01*
X025653Y017633D01*
X025550Y017675D01*
X025439Y017675D01*
X023943Y017675D01*
X023943Y017680D01*
X023850Y017773D01*
X023281Y017773D01*
X023187Y017582D02*
X003083Y017582D01*
X003175Y017424D02*
X023187Y017424D01*
X023187Y017265D02*
X003166Y017265D01*
X003962Y017107D02*
X023191Y017107D01*
X023939Y017107D02*
X025387Y017107D01*
X025546Y016948D02*
X003962Y016948D01*
X003962Y016790D02*
X025704Y016790D01*
X025863Y016631D02*
X003962Y016631D01*
X003962Y016473D02*
X025904Y016473D01*
X025913Y016314D02*
X003962Y016314D01*
X002804Y016156D02*
X026395Y016156D01*
X026436Y015997D02*
X002804Y015997D01*
X002804Y015838D02*
X026436Y015838D01*
X026436Y015680D02*
X002804Y015680D01*
X002804Y015521D02*
X026436Y015521D01*
X026436Y015363D02*
X002804Y015363D01*
X002804Y015204D02*
X026436Y015204D01*
X026436Y015046D02*
X009727Y015046D01*
X009731Y014887D02*
X026436Y014887D01*
X026436Y014729D02*
X009731Y014729D01*
X009731Y014570D02*
X026436Y014570D01*
X026436Y014412D02*
X009731Y014412D01*
X009593Y014253D02*
X026297Y014253D01*
X026297Y014094D02*
X009593Y014094D01*
X009593Y013936D02*
X026297Y013936D01*
X026297Y013777D02*
X009593Y013777D01*
X009593Y013619D02*
X031321Y013619D01*
X031321Y013777D02*
X027054Y013777D01*
X027054Y013936D02*
X031321Y013936D01*
X031321Y014094D02*
X027054Y014094D01*
X027054Y014253D02*
X031321Y014253D01*
X031321Y014412D02*
X026916Y014412D01*
X026916Y014570D02*
X031321Y014570D01*
X031321Y014729D02*
X026916Y014729D01*
X026916Y014887D02*
X031321Y014887D01*
X031321Y015046D02*
X026916Y015046D01*
X026916Y015204D02*
X031321Y015204D01*
X031321Y015363D02*
X026916Y015363D01*
X026916Y015521D02*
X031321Y015521D01*
X031321Y015680D02*
X026916Y015680D01*
X026916Y015838D02*
X031321Y015838D01*
X031321Y015997D02*
X026916Y015997D01*
X026916Y016156D02*
X031321Y016156D01*
X031321Y016314D02*
X026894Y016314D01*
X026756Y016473D02*
X031321Y016473D01*
X031321Y016631D02*
X026660Y016631D01*
X026660Y016790D02*
X031321Y016790D01*
X031321Y016948D02*
X026604Y016948D01*
X026179Y017107D02*
X031321Y017107D01*
X031321Y017265D02*
X026020Y017265D01*
X025862Y017424D02*
X031321Y017424D01*
X031321Y017582D02*
X025703Y017582D01*
X026282Y016608D02*
X026676Y016214D01*
X026676Y014009D01*
X022542Y014324D02*
X018802Y010584D01*
X018802Y010624D01*
X015171Y008228D02*
X008456Y008228D01*
X008297Y008070D02*
X015175Y008070D01*
X015175Y007911D02*
X008139Y007911D01*
X007980Y007753D02*
X015175Y007753D01*
X015012Y008387D02*
X008614Y008387D01*
X008773Y008545D02*
X014854Y008545D01*
X014695Y008704D02*
X008931Y008704D01*
X009090Y008863D02*
X014537Y008863D01*
X014378Y009021D02*
X009249Y009021D01*
X009407Y009180D02*
X014220Y009180D01*
X014061Y009338D02*
X009566Y009338D01*
X009724Y009497D02*
X013903Y009497D01*
X013744Y009655D02*
X009883Y009655D01*
X010041Y009814D02*
X013585Y009814D01*
X013427Y009972D02*
X010200Y009972D01*
X010358Y010131D02*
X013268Y010131D01*
X013110Y010289D02*
X010517Y010289D01*
X010675Y010448D02*
X012951Y010448D01*
X012793Y010607D02*
X010834Y010607D01*
X010993Y010765D02*
X012634Y010765D01*
X012476Y010924D02*
X011151Y010924D01*
X011221Y010994D02*
X011566Y010994D01*
X011660Y011087D01*
X011660Y011735D01*
X011566Y011828D01*
X010919Y011828D01*
X010825Y011735D01*
X011660Y011716D02*
X011907Y011716D01*
X011907Y011558D02*
X011660Y011558D01*
X011660Y011399D02*
X012000Y011399D01*
X012159Y011241D02*
X011660Y011241D01*
X011655Y011082D02*
X012317Y011082D01*
X011221Y010994D02*
X007822Y007594D01*
X010259Y005850D02*
X002824Y005850D01*
X002824Y005692D02*
X005806Y005692D01*
X005786Y005533D02*
X002824Y005533D01*
X002824Y005375D02*
X005786Y005375D01*
X005786Y005216D02*
X002804Y005216D01*
X002795Y005058D02*
X005786Y005058D01*
X004498Y003722D02*
X004353Y003867D01*
X004164Y003945D01*
X003959Y003945D01*
X003770Y003867D01*
X003625Y003722D01*
X003547Y003533D01*
X003547Y003328D01*
X003625Y003139D01*
X003770Y002994D01*
X003959Y002916D01*
X004164Y002916D01*
X004353Y002994D01*
X004498Y003139D01*
X004576Y003328D01*
X004576Y003533D01*
X004498Y003722D01*
X004431Y003789D02*
X024374Y003789D01*
X024215Y003948D02*
X003258Y003948D01*
X003239Y003967D02*
X003006Y004063D01*
X002754Y004063D01*
X002522Y003967D01*
X002344Y003789D01*
X002248Y003557D01*
X002248Y003305D01*
X002344Y003072D01*
X002522Y002894D01*
X002754Y002798D01*
X003006Y002798D01*
X003239Y002894D01*
X003417Y003072D01*
X003513Y003305D01*
X003513Y003557D01*
X003417Y003789D01*
X003239Y003967D01*
X003417Y003789D02*
X003692Y003789D01*
X003587Y003631D02*
X003482Y003631D01*
X003513Y003472D02*
X003547Y003472D01*
X003553Y003314D02*
X003513Y003314D01*
X003451Y003155D02*
X003619Y003155D01*
X003768Y002996D02*
X003341Y002996D01*
X003103Y002838D02*
X010385Y002838D01*
X010259Y002679D02*
X000455Y002679D01*
X000455Y002838D02*
X002658Y002838D01*
X002420Y002996D02*
X000455Y002996D01*
X000455Y003155D02*
X002310Y003155D01*
X002248Y003314D02*
X000455Y003314D01*
X000455Y003472D02*
X002248Y003472D01*
X002278Y003631D02*
X000455Y003631D01*
X000455Y003789D02*
X002344Y003789D01*
X002503Y003948D02*
X000455Y003948D01*
X000455Y004106D02*
X024057Y004106D01*
X023898Y004265D02*
X000455Y004265D01*
X000455Y004423D02*
X023740Y004423D01*
X023581Y004582D02*
X000455Y004582D01*
X000455Y004740D02*
X013904Y004740D01*
X013857Y004899D02*
X000455Y004899D01*
X000455Y005058D02*
X001115Y005058D01*
X001106Y005216D02*
X000455Y005216D01*
X000455Y005375D02*
X001086Y005375D01*
X001086Y005461D02*
X001183Y005461D01*
X001183Y005461D01*
X001086Y005461D01*
X001086Y005533D02*
X000455Y005533D01*
X000455Y005692D02*
X001086Y005692D01*
X001086Y005711D02*
X001183Y005711D01*
X001183Y005711D01*
X001086Y005711D01*
X001086Y005850D02*
X000455Y005850D01*
X000455Y006009D02*
X001106Y006009D01*
X001106Y006167D02*
X000455Y006167D01*
X000455Y006326D02*
X001106Y006326D01*
X001106Y006484D02*
X000455Y006484D01*
X000455Y006643D02*
X001106Y006643D01*
X001106Y006801D02*
X000455Y006801D01*
X000455Y006960D02*
X001106Y006960D01*
X001106Y007119D02*
X000455Y007119D01*
X000455Y007277D02*
X001106Y007277D01*
X001106Y007436D02*
X000455Y007436D01*
X000455Y007594D02*
X001106Y007594D01*
X001106Y007753D02*
X000455Y007753D01*
X000455Y007911D02*
X001106Y007911D01*
X002804Y006643D02*
X011052Y006643D01*
X010894Y006484D02*
X002804Y006484D01*
X002804Y006326D02*
X010735Y006326D01*
X010576Y006167D02*
X002804Y006167D01*
X002804Y006009D02*
X010418Y006009D01*
X010943Y005375D02*
X013857Y005375D01*
X013857Y005216D02*
X010785Y005216D01*
X010626Y005058D02*
X013857Y005058D01*
X014299Y005533D02*
X011102Y005533D01*
X011260Y005692D02*
X014458Y005692D01*
X014616Y005850D02*
X011419Y005850D01*
X011578Y006009D02*
X014775Y006009D01*
X014934Y006167D02*
X011736Y006167D01*
X013510Y006326D02*
X015092Y006326D01*
X015175Y006484D02*
X013510Y006484D01*
X013510Y006643D02*
X015175Y006643D01*
X015175Y006801D02*
X013510Y006801D01*
X013510Y006960D02*
X015175Y006960D01*
X010511Y002996D02*
X004355Y002996D01*
X004504Y003155D02*
X028655Y003155D01*
X028594Y003314D02*
X004570Y003314D01*
X004576Y003472D02*
X028609Y003472D01*
X028713Y003631D02*
X025611Y003631D01*
X025142Y003631D02*
X004536Y003631D01*
X001955Y005461D02*
X001955Y005711D01*
X001955Y005711D01*
X001955Y005462D01*
X001955Y005462D01*
X001955Y005711D01*
X001955Y005698D01*
X002069Y005584D01*
X001955Y005533D02*
X001955Y005533D01*
X001955Y005692D02*
X001955Y005692D01*
X000605Y002521D02*
X010133Y002521D01*
X010007Y002362D02*
X000764Y002362D01*
X000922Y002204D02*
X009882Y002204D01*
X009756Y002045D02*
X001081Y002045D01*
X001239Y001887D02*
X009630Y001887D01*
X009504Y001728D02*
X001398Y001728D01*
X002804Y012668D02*
X009033Y012668D01*
X009033Y012826D02*
X002804Y012826D01*
X002804Y012985D02*
X009033Y012985D01*
X009033Y013143D02*
X002804Y013143D01*
X002804Y013302D02*
X009033Y013302D01*
X009033Y013460D02*
X002804Y013460D01*
X002804Y013619D02*
X009033Y013619D01*
X009033Y013777D02*
X002804Y013777D01*
X002804Y013936D02*
X009033Y013936D01*
X009033Y014094D02*
X002804Y014094D01*
X002804Y014253D02*
X009033Y014253D01*
X008896Y014412D02*
X002804Y014412D01*
X002804Y014570D02*
X008896Y014570D01*
X008896Y014729D02*
X002804Y014729D01*
X002824Y014887D02*
X008896Y014887D01*
X008900Y015046D02*
X002824Y015046D01*
X001955Y014961D02*
X001955Y014961D01*
X001086Y014961D01*
X001086Y015046D02*
X000455Y015046D01*
X000455Y015204D02*
X001106Y015204D01*
X001106Y015363D02*
X000455Y015363D01*
X000455Y015521D02*
X001106Y015521D01*
X001106Y015680D02*
X000455Y015680D01*
X000455Y015838D02*
X001106Y015838D01*
X001106Y015997D02*
X000455Y015997D01*
X000455Y016156D02*
X001106Y016156D01*
X001106Y016314D02*
X000455Y016314D01*
X000455Y016473D02*
X001106Y016473D01*
X001086Y016631D02*
X000455Y016631D01*
X001955Y017211D02*
X001955Y017461D01*
X001955Y017676D02*
X001955Y017720D01*
X001955Y017676D01*
X001955Y017676D01*
X002522Y018705D02*
X002754Y018609D01*
X003006Y018609D01*
X003239Y018705D01*
X003417Y018883D01*
X003513Y019116D01*
X003513Y019368D01*
X003417Y019600D01*
X003239Y019778D01*
X003006Y019874D01*
X002754Y019874D01*
X002522Y019778D01*
X002344Y019600D01*
X002248Y019368D01*
X002248Y019116D01*
X002344Y018883D01*
X002522Y018705D01*
X002553Y018692D02*
X000455Y018692D01*
X000455Y018534D02*
X031321Y018534D01*
X031321Y018692D02*
X003207Y018692D01*
X003384Y018851D02*
X003725Y018851D01*
X003770Y018805D02*
X003959Y018727D01*
X004164Y018727D01*
X004353Y018805D01*
X004498Y018950D01*
X004576Y019139D01*
X004576Y019344D01*
X004498Y019533D01*
X004353Y019678D01*
X004164Y019756D01*
X003959Y019756D01*
X003770Y019678D01*
X003625Y019533D01*
X003547Y019344D01*
X003547Y019139D01*
X003625Y018950D01*
X003770Y018805D01*
X003601Y019009D02*
X003469Y019009D01*
X003513Y019168D02*
X003547Y019168D01*
X003547Y019326D02*
X003513Y019326D01*
X003464Y019485D02*
X003605Y019485D01*
X003735Y019644D02*
X003373Y019644D01*
X003181Y019802D02*
X011395Y019802D01*
X011553Y019644D02*
X004387Y019644D01*
X004518Y019485D02*
X031321Y019485D01*
X031321Y019644D02*
X014003Y019644D01*
X014161Y019802D02*
X031321Y019802D01*
X031321Y019961D02*
X014320Y019961D01*
X014478Y020119D02*
X031314Y020119D01*
X031155Y020278D02*
X014637Y020278D01*
X014795Y020436D02*
X030997Y020436D01*
X030838Y020595D02*
X014954Y020595D01*
X015112Y020753D02*
X030680Y020753D01*
X030521Y020912D02*
X015271Y020912D01*
X011236Y019961D02*
X000455Y019961D01*
X000455Y019802D02*
X002580Y019802D01*
X002387Y019644D02*
X000455Y019644D01*
X000455Y019485D02*
X002296Y019485D01*
X002248Y019326D02*
X000455Y019326D01*
X000455Y019168D02*
X002248Y019168D01*
X002292Y019009D02*
X000455Y019009D01*
X000455Y018851D02*
X002376Y018851D01*
X000455Y018375D02*
X031321Y018375D01*
X031321Y018217D02*
X000455Y018217D01*
X000455Y018058D02*
X031321Y018058D01*
X031321Y017900D02*
X000455Y017900D01*
X000502Y020119D02*
X011078Y020119D01*
X010919Y020278D02*
X000660Y020278D01*
X000819Y020436D02*
X010761Y020436D01*
X010602Y020595D02*
X000977Y020595D01*
X001136Y020753D02*
X010444Y020753D01*
X010285Y020912D02*
X001295Y020912D01*
X001453Y021070D02*
X001701Y021070D01*
X004576Y019326D02*
X031321Y019326D01*
X031321Y019168D02*
X004576Y019168D01*
X004522Y019009D02*
X031321Y019009D01*
X031321Y018851D02*
X004398Y018851D01*
X009593Y013460D02*
X031321Y013460D01*
X031321Y013302D02*
X009593Y013302D01*
X009593Y013143D02*
X031321Y013143D01*
X031321Y012985D02*
X009593Y012985D01*
X009593Y012826D02*
X031321Y012826D01*
X031321Y012668D02*
X009593Y012668D01*
X022542Y014324D02*
X022542Y015112D01*
X022620Y015191D01*
X022581Y015112D01*
X023882Y017741D02*
X031321Y017741D01*
X031321Y009021D02*
X025103Y009021D01*
X025244Y008863D02*
X031321Y008863D01*
X031321Y008704D02*
X025282Y008704D01*
X025251Y008545D02*
X031321Y008545D01*
X031321Y008387D02*
X025131Y008387D01*
X024677Y008387D02*
X024520Y008387D01*
X024361Y008228D02*
X031321Y008228D01*
X031321Y008070D02*
X024203Y008070D01*
X024044Y007911D02*
X031321Y007911D01*
X031321Y007753D02*
X023924Y007753D01*
X023924Y007594D02*
X031321Y007594D01*
X031321Y007436D02*
X023924Y007436D01*
X023924Y007277D02*
X031321Y007277D01*
X031321Y007119D02*
X023924Y007119D01*
X023924Y006960D02*
X031321Y006960D01*
X031321Y006801D02*
X023924Y006801D01*
X023924Y006643D02*
X031321Y006643D01*
X031321Y006484D02*
X023924Y006484D01*
X023924Y006326D02*
X031321Y006326D01*
X031321Y005850D02*
X027125Y005850D01*
X027172Y005692D02*
X031321Y005692D01*
X031321Y005533D02*
X027149Y005533D01*
X027040Y005375D02*
X028725Y005375D01*
X028749Y005399D02*
X028648Y005298D01*
X028594Y005167D01*
X028594Y005025D01*
X028648Y004894D01*
X028749Y004793D01*
X028880Y004739D01*
X029022Y004739D01*
X029153Y004793D01*
X029254Y004894D01*
X029308Y005025D01*
X029308Y005167D01*
X029254Y005298D01*
X029153Y005399D01*
X029022Y005453D01*
X028880Y005453D01*
X028749Y005399D01*
X028614Y005216D02*
X026743Y005216D01*
X026584Y005058D02*
X028594Y005058D01*
X028646Y004899D02*
X026426Y004899D01*
X026267Y004740D02*
X028876Y004740D01*
X029026Y004740D02*
X031321Y004740D01*
X031321Y004582D02*
X025009Y004582D01*
X025195Y004265D02*
X024690Y004265D01*
X029256Y004899D02*
X031321Y004899D01*
X031321Y005058D02*
X029308Y005058D01*
X029288Y005216D02*
X031321Y005216D01*
X031321Y005375D02*
X029178Y005375D01*
D16*
X028802Y007474D03*
X027896Y007592D03*
X025337Y011923D03*
X025494Y013104D03*
X028565Y016569D03*
X018802Y010624D03*
X008841Y004088D03*
X003447Y016726D03*
D17*
X009313Y014718D02*
X009313Y010781D01*
X006951Y008419D01*
X007542Y007710D02*
X011243Y011411D01*
X012187Y011608D02*
X012187Y012238D01*
X012187Y011608D02*
X015455Y008340D01*
X015455Y006293D01*
X014274Y005112D01*
X007542Y007159D02*
X007542Y007710D01*
X023644Y007907D02*
X023644Y004915D01*
X024628Y003931D01*
X025376Y003931D01*
X024825Y004915D02*
X026046Y004915D01*
X026794Y005663D01*
X024471Y008734D02*
X023644Y007907D01*
X024471Y008734D02*
X024865Y008734D01*
X024904Y008694D01*
X026282Y016608D02*
X025494Y017395D01*
X023565Y017395D01*
D18*
X024904Y008694D03*
X026794Y005663D03*
X024825Y004915D03*
X025376Y003931D03*
D19*
X026676Y014009D03*
X026282Y016608D03*
X023565Y017395D03*
X022581Y015112D03*
D20*
X018802Y010624D02*
X015849Y010624D01*
X015258Y011214D01*
X018802Y010624D02*
X015573Y004088D01*
X013683Y004088D01*
X008841Y004088D01*
X008329Y003576D01*
X005416Y003576D01*
X003782Y005210D01*
X003014Y004443D01*
X001518Y004443D01*
X001006Y005584D02*
X002935Y005584D01*
X002935Y005663D01*
X002935Y005584D02*
X003408Y005584D01*
X003782Y005210D01*
X002935Y005584D02*
X002069Y005584D01*
X001006Y005584D02*
X001006Y005663D01*
X000809Y005663D01*
X001124Y017356D02*
X002857Y017356D01*
X002424Y017946D02*
X001872Y017395D01*
X001164Y017395D01*
X001124Y017395D01*
D21*
X018802Y010624D02*
X024038Y010624D01*
X025337Y011923D01*
M02*
