G75*
G70*
%OFA0B0*%
%FSLAX24Y24*%
%IPPOS*%
%LPD*%
%AMOC8*
5,1,8,0,0,1.08239X$1,22.5*
%
%ADD10C,0.0000*%
%ADD11C,0.0060*%
%ADD12R,0.0160X0.0520*%
%ADD13C,0.0070*%
%ADD14C,0.0080*%
%ADD15C,0.0020*%
%ADD16R,0.0197X0.0246*%
%ADD17C,0.0040*%
%ADD18R,0.0197X0.0256*%
%ADD19C,0.0010*%
%ADD20R,0.0256X0.0551*%
%ADD21R,0.0512X0.0118*%
%ADD22C,0.0236*%
%ADD23R,0.0098X0.0531*%
%ADD24C,0.0100*%
%ADD25R,0.0118X0.0827*%
%ADD26C,0.0050*%
%ADD27R,0.1024X0.0295*%
%ADD28R,0.0571X0.0295*%
%ADD29R,0.0551X0.0256*%
%ADD30C,0.0001*%
D10*
X000101Y001411D02*
X000101Y021372D01*
X031597Y021372D01*
X031597Y001411D01*
X000101Y001411D01*
X002427Y003431D02*
X002429Y003473D01*
X002435Y003515D01*
X002445Y003557D01*
X002458Y003597D01*
X002476Y003636D01*
X002497Y003673D01*
X002521Y003707D01*
X002549Y003740D01*
X002579Y003770D01*
X002612Y003796D01*
X002647Y003820D01*
X002685Y003840D01*
X002724Y003856D01*
X002764Y003869D01*
X002806Y003878D01*
X002848Y003883D01*
X002891Y003884D01*
X002933Y003881D01*
X002975Y003874D01*
X003016Y003863D01*
X003056Y003848D01*
X003094Y003830D01*
X003131Y003808D01*
X003165Y003783D01*
X003197Y003755D01*
X003225Y003724D01*
X003251Y003690D01*
X003274Y003654D01*
X003293Y003617D01*
X003309Y003577D01*
X003321Y003536D01*
X003329Y003495D01*
X003333Y003452D01*
X003333Y003410D01*
X003329Y003367D01*
X003321Y003326D01*
X003309Y003285D01*
X003293Y003245D01*
X003274Y003208D01*
X003251Y003172D01*
X003225Y003138D01*
X003197Y003107D01*
X003165Y003079D01*
X003131Y003054D01*
X003094Y003032D01*
X003056Y003014D01*
X003016Y002999D01*
X002975Y002988D01*
X002933Y002981D01*
X002891Y002978D01*
X002848Y002979D01*
X002806Y002984D01*
X002764Y002993D01*
X002724Y003006D01*
X002685Y003022D01*
X002647Y003042D01*
X002612Y003066D01*
X002579Y003092D01*
X002549Y003122D01*
X002521Y003155D01*
X002497Y003189D01*
X002476Y003226D01*
X002458Y003265D01*
X002445Y003305D01*
X002435Y003347D01*
X002429Y003389D01*
X002427Y003431D01*
X003726Y003431D02*
X003728Y003467D01*
X003734Y003503D01*
X003744Y003538D01*
X003757Y003572D01*
X003774Y003604D01*
X003794Y003634D01*
X003818Y003661D01*
X003844Y003686D01*
X003873Y003708D01*
X003904Y003727D01*
X003937Y003742D01*
X003971Y003754D01*
X004007Y003762D01*
X004043Y003766D01*
X004079Y003766D01*
X004115Y003762D01*
X004151Y003754D01*
X004185Y003742D01*
X004218Y003727D01*
X004249Y003708D01*
X004278Y003686D01*
X004304Y003661D01*
X004328Y003634D01*
X004348Y003604D01*
X004365Y003572D01*
X004378Y003538D01*
X004388Y003503D01*
X004394Y003467D01*
X004396Y003431D01*
X004394Y003395D01*
X004388Y003359D01*
X004378Y003324D01*
X004365Y003290D01*
X004348Y003258D01*
X004328Y003228D01*
X004304Y003201D01*
X004278Y003176D01*
X004249Y003154D01*
X004218Y003135D01*
X004185Y003120D01*
X004151Y003108D01*
X004115Y003100D01*
X004079Y003096D01*
X004043Y003096D01*
X004007Y003100D01*
X003971Y003108D01*
X003937Y003120D01*
X003904Y003135D01*
X003873Y003154D01*
X003844Y003176D01*
X003818Y003201D01*
X003794Y003228D01*
X003774Y003258D01*
X003757Y003290D01*
X003744Y003324D01*
X003734Y003359D01*
X003728Y003395D01*
X003726Y003431D01*
X013687Y002399D02*
X013689Y002430D01*
X013695Y002461D01*
X013704Y002491D01*
X013717Y002520D01*
X013734Y002547D01*
X013754Y002571D01*
X013776Y002593D01*
X013802Y002612D01*
X013829Y002628D01*
X013858Y002640D01*
X013888Y002649D01*
X013919Y002654D01*
X013951Y002655D01*
X013982Y002652D01*
X014013Y002645D01*
X014043Y002635D01*
X014071Y002621D01*
X014097Y002603D01*
X014121Y002583D01*
X014142Y002559D01*
X014161Y002534D01*
X014176Y002506D01*
X014187Y002477D01*
X014195Y002446D01*
X014199Y002415D01*
X014199Y002383D01*
X014195Y002352D01*
X014187Y002321D01*
X014176Y002292D01*
X014161Y002264D01*
X014142Y002239D01*
X014121Y002215D01*
X014097Y002195D01*
X014071Y002177D01*
X014043Y002163D01*
X014013Y002153D01*
X013982Y002146D01*
X013951Y002143D01*
X013919Y002144D01*
X013888Y002149D01*
X013858Y002158D01*
X013829Y002170D01*
X013802Y002186D01*
X013776Y002205D01*
X013754Y002227D01*
X013734Y002251D01*
X013717Y002278D01*
X013704Y002307D01*
X013695Y002337D01*
X013689Y002368D01*
X013687Y002399D01*
X028774Y003364D02*
X028776Y003390D01*
X028782Y003416D01*
X028792Y003441D01*
X028805Y003464D01*
X028821Y003484D01*
X028841Y003502D01*
X028863Y003517D01*
X028886Y003529D01*
X028912Y003537D01*
X028938Y003541D01*
X028964Y003541D01*
X028990Y003537D01*
X029016Y003529D01*
X029040Y003517D01*
X029061Y003502D01*
X029081Y003484D01*
X029097Y003464D01*
X029110Y003441D01*
X029120Y003416D01*
X029126Y003390D01*
X029128Y003364D01*
X029126Y003338D01*
X029120Y003312D01*
X029110Y003287D01*
X029097Y003264D01*
X029081Y003244D01*
X029061Y003226D01*
X029039Y003211D01*
X029016Y003199D01*
X028990Y003191D01*
X028964Y003187D01*
X028938Y003187D01*
X028912Y003191D01*
X028886Y003199D01*
X028862Y003211D01*
X028841Y003226D01*
X028821Y003244D01*
X028805Y003264D01*
X028792Y003287D01*
X028782Y003312D01*
X028776Y003338D01*
X028774Y003364D01*
X028774Y005096D02*
X028776Y005122D01*
X028782Y005148D01*
X028792Y005173D01*
X028805Y005196D01*
X028821Y005216D01*
X028841Y005234D01*
X028863Y005249D01*
X028886Y005261D01*
X028912Y005269D01*
X028938Y005273D01*
X028964Y005273D01*
X028990Y005269D01*
X029016Y005261D01*
X029040Y005249D01*
X029061Y005234D01*
X029081Y005216D01*
X029097Y005196D01*
X029110Y005173D01*
X029120Y005148D01*
X029126Y005122D01*
X029128Y005096D01*
X029126Y005070D01*
X029120Y005044D01*
X029110Y005019D01*
X029097Y004996D01*
X029081Y004976D01*
X029061Y004958D01*
X029039Y004943D01*
X029016Y004931D01*
X028990Y004923D01*
X028964Y004919D01*
X028938Y004919D01*
X028912Y004923D01*
X028886Y004931D01*
X028862Y004943D01*
X028841Y004958D01*
X028821Y004976D01*
X028805Y004996D01*
X028792Y005019D01*
X028782Y005044D01*
X028776Y005070D01*
X028774Y005096D01*
X011197Y019106D02*
X011190Y019099D01*
X011185Y019095D01*
X011180Y019091D01*
X011174Y019086D01*
X011169Y019083D01*
X011162Y019078D01*
X011154Y019075D01*
X011146Y019071D01*
X011136Y019068D01*
X011127Y019065D01*
X011110Y019061D01*
X011100Y019060D01*
X011089Y019059D01*
X011076Y019059D01*
X011064Y019060D01*
X011046Y019060D01*
X011024Y019059D01*
X010878Y019060D01*
X010680Y019060D01*
X010481Y019059D01*
X010224Y019059D01*
X009983Y019060D01*
X009400Y019060D01*
X009383Y019060D01*
X009375Y019061D01*
X009368Y019063D01*
X009361Y019065D01*
X009354Y019068D01*
X009349Y019072D01*
X009343Y019076D01*
X009339Y019081D01*
X009335Y019086D01*
X009330Y019093D01*
X009327Y019098D01*
X009325Y019104D01*
X009324Y019108D01*
X009322Y019114D01*
X009322Y019127D01*
X009323Y019131D01*
X009323Y019135D01*
X009323Y019138D01*
X009325Y019144D01*
X009327Y019148D01*
X009329Y019152D01*
X009365Y019216D01*
X009383Y019242D01*
X009392Y019253D01*
X009400Y019260D01*
X009409Y019268D01*
X009417Y019274D01*
X009426Y019278D01*
X009433Y019282D01*
X009446Y019288D01*
X009456Y019291D01*
X009467Y019294D01*
X009479Y019296D01*
X009498Y019297D01*
X009514Y019296D01*
X009670Y019297D01*
X009770Y019297D01*
X010107Y019297D01*
X010325Y019297D01*
X010590Y019297D01*
X010884Y019297D01*
X011107Y019297D01*
X011194Y019297D01*
X011204Y019297D01*
X011213Y019295D01*
X011221Y019293D01*
X011227Y019291D01*
X011231Y019288D01*
X011236Y019285D01*
X011241Y019282D01*
X011245Y019278D01*
X011248Y019274D01*
X011252Y019269D01*
X011257Y019264D01*
X011258Y019260D01*
X011260Y019254D01*
X011263Y019247D01*
X011264Y019240D01*
X011265Y019235D01*
X011264Y019226D01*
X011263Y019218D01*
X011259Y019211D01*
X011257Y019203D01*
X011250Y019192D01*
X011209Y019122D01*
X011202Y019111D01*
X011197Y019106D01*
X009693Y020139D02*
X009674Y020115D01*
X009657Y020098D01*
X009640Y020081D01*
X009617Y020061D01*
X009570Y020025D01*
X009539Y020006D01*
X009515Y019992D01*
X009483Y019977D01*
X009405Y019941D01*
X009344Y019915D01*
X009263Y019886D01*
X009159Y019850D01*
X009109Y019834D01*
X009069Y019822D01*
X009015Y019807D01*
X008944Y019786D01*
X008868Y019765D01*
X008804Y019749D01*
X008742Y019733D01*
X008666Y019714D01*
X008617Y019701D01*
X008552Y019686D01*
X008511Y019677D01*
X008447Y019661D01*
X008376Y019646D01*
X008339Y019635D01*
X008296Y019625D01*
X008220Y019605D01*
X008180Y019593D01*
X008157Y019588D01*
X008136Y019582D01*
X008119Y019576D01*
X008114Y019573D01*
X008109Y019571D01*
X008105Y019568D01*
X008100Y019564D01*
X008096Y019560D01*
X008094Y019556D01*
X008090Y019550D01*
X008089Y019547D01*
X008089Y019541D01*
X008091Y019538D01*
X008092Y019536D01*
X008095Y019534D01*
X008099Y019534D01*
X008103Y019533D01*
X008117Y019534D01*
X008294Y019533D01*
X008462Y019533D01*
X008685Y019534D01*
X009397Y019534D01*
X009407Y019534D01*
X009416Y019533D01*
X009424Y019531D01*
X009432Y019528D01*
X009438Y019525D01*
X009444Y019520D01*
X009449Y019515D01*
X009454Y019511D01*
X009457Y019507D01*
X009460Y019501D01*
X009463Y019497D01*
X009465Y019493D01*
X009467Y019488D01*
X009467Y019485D01*
X009469Y019479D01*
X009470Y019473D01*
X009470Y019466D01*
X009470Y019463D01*
X009469Y019455D01*
X009467Y019450D01*
X009465Y019445D01*
X009461Y019438D01*
X009459Y019432D01*
X009440Y019401D01*
X009423Y019372D01*
X009409Y019351D01*
X009402Y019342D01*
X009397Y019337D01*
X009392Y019333D01*
X009385Y019326D01*
X009377Y019322D01*
X009372Y019318D01*
X009362Y019312D01*
X009356Y019310D01*
X009344Y019304D01*
X009336Y019302D01*
X009323Y019300D01*
X009312Y019298D01*
X009297Y019296D01*
X008244Y019296D01*
X007712Y019298D01*
X007256Y019298D01*
X007243Y019297D01*
X007223Y019298D01*
X007211Y019299D01*
X007203Y019301D01*
X007194Y019304D01*
X007185Y019308D01*
X007177Y019312D01*
X007171Y019315D01*
X007166Y019318D01*
X007163Y019323D01*
X007160Y019328D01*
X007157Y019332D01*
X007155Y019339D01*
X007154Y019345D01*
X007154Y019356D01*
X007156Y019362D01*
X007157Y019368D01*
X007160Y019376D01*
X007161Y019380D01*
X007163Y019386D01*
X007167Y019391D01*
X007169Y019397D01*
X007244Y019526D01*
X007273Y019577D01*
X007288Y019598D01*
X007297Y019610D01*
X007301Y019616D01*
X007306Y019620D01*
X007311Y019627D01*
X007317Y019631D01*
X007323Y019636D01*
X007330Y019642D01*
X007336Y019645D01*
X007345Y019650D01*
X007354Y019655D01*
X007364Y019660D01*
X007377Y019667D01*
X007386Y019670D01*
X007396Y019674D01*
X007436Y019687D01*
X007468Y019695D01*
X007509Y019705D01*
X007580Y019722D01*
X007693Y019748D01*
X007882Y019794D01*
X008179Y019869D01*
X008394Y019926D01*
X008629Y019993D01*
X008797Y020050D01*
X008935Y020107D01*
X008988Y020135D01*
X009012Y020151D01*
X009027Y020164D01*
X009041Y020179D01*
X009048Y020189D01*
X009052Y020196D01*
X009054Y020202D01*
X009057Y020210D01*
X009057Y020215D01*
X009056Y020220D01*
X009055Y020226D01*
X009054Y020233D01*
X009052Y020238D01*
X009050Y020245D01*
X009046Y020251D01*
X009042Y020257D01*
X009039Y020260D01*
X009036Y020264D01*
X009023Y020277D01*
X009018Y020280D01*
X009014Y020283D01*
X009009Y020286D01*
X009003Y020290D01*
X008996Y020294D01*
X008988Y020298D01*
X008979Y020301D01*
X008972Y020304D01*
X008963Y020309D01*
X008954Y020311D01*
X008942Y020314D01*
X008934Y020317D01*
X008919Y020320D01*
X008902Y020323D01*
X008872Y020329D01*
X008854Y020332D01*
X008812Y020336D01*
X008773Y020340D01*
X008723Y020341D01*
X008662Y020343D01*
X008570Y020342D01*
X008527Y020340D01*
X008456Y020337D01*
X008390Y020332D01*
X008318Y020325D01*
X008243Y020315D01*
X008099Y020288D01*
X008016Y020271D01*
X007948Y020254D01*
X007850Y020224D01*
X007787Y020202D01*
X007758Y020194D01*
X007739Y020187D01*
X007723Y020181D01*
X007711Y020177D01*
X007699Y020175D01*
X007688Y020173D01*
X007675Y020173D01*
X007664Y020175D01*
X007655Y020179D01*
X007650Y020183D01*
X007647Y020187D01*
X007644Y020192D01*
X007643Y020199D01*
X007643Y020205D01*
X007645Y020215D01*
X007647Y020224D01*
X007655Y020239D01*
X007681Y020283D01*
X007700Y020318D01*
X007728Y020367D01*
X007746Y020397D01*
X007768Y020422D01*
X007784Y020437D01*
X007801Y020448D01*
X007820Y020459D01*
X007842Y020468D01*
X007874Y020479D01*
X007940Y020496D01*
X007968Y020504D01*
X008004Y020513D01*
X008053Y020526D01*
X008093Y020534D01*
X008136Y020542D01*
X008172Y020548D01*
X008212Y020554D01*
X008242Y020556D01*
X008275Y020561D01*
X008317Y020565D01*
X008376Y020570D01*
X008440Y020575D01*
X008498Y020578D01*
X008545Y020580D01*
X008603Y020581D01*
X008655Y020582D01*
X008724Y020581D01*
X008779Y020581D01*
X008839Y020579D01*
X008926Y020575D01*
X008987Y020571D01*
X009039Y020567D01*
X009155Y020554D01*
X009205Y020548D01*
X009263Y020539D01*
X009300Y020532D01*
X009350Y020521D01*
X009384Y020515D01*
X009424Y020504D01*
X009480Y020487D01*
X009516Y020473D01*
X009546Y020461D01*
X009575Y020448D01*
X009599Y020437D01*
X009630Y020420D01*
X009657Y020402D01*
X009678Y020384D01*
X009695Y020367D01*
X009714Y020344D01*
X009723Y020329D01*
X009730Y020316D01*
X009736Y020294D01*
X009739Y020273D01*
X009740Y020261D01*
X009739Y020243D01*
X009736Y020225D01*
X009732Y020211D01*
X009726Y020197D01*
X009716Y020176D01*
X009708Y020161D01*
X009693Y020139D01*
X007681Y020417D02*
X007680Y020409D01*
X007675Y020399D01*
X007670Y020387D01*
X007664Y020378D01*
X007655Y020367D01*
X007646Y020358D01*
X007634Y020347D01*
X007618Y020334D01*
X007598Y020319D01*
X007537Y020278D01*
X007499Y020251D01*
X007423Y020200D01*
X007259Y020088D01*
X007094Y019975D01*
X006906Y019846D01*
X006732Y019726D01*
X006518Y019580D01*
X006366Y019476D01*
X006243Y019391D01*
X006207Y019366D01*
X006182Y019349D01*
X006164Y019338D01*
X006148Y019328D01*
X006137Y019322D01*
X006124Y019315D01*
X006116Y019311D01*
X006109Y019309D01*
X006103Y019306D01*
X006091Y019303D01*
X006082Y019301D01*
X006071Y019298D01*
X006063Y019297D01*
X006054Y019296D01*
X006047Y019296D01*
X005915Y019296D01*
X005857Y019296D01*
X005766Y019296D01*
X005750Y019297D01*
X005743Y019300D01*
X005737Y019301D01*
X005731Y019303D01*
X005724Y019307D01*
X005719Y019308D01*
X005716Y019312D01*
X005711Y019315D01*
X005708Y019321D01*
X005703Y019328D01*
X005699Y019334D01*
X005696Y019343D01*
X005693Y019350D01*
X005611Y019601D01*
X005559Y019758D01*
X005494Y019954D01*
X005440Y020115D01*
X005385Y020284D01*
X005367Y020348D01*
X005361Y020380D01*
X005359Y020395D01*
X005359Y020407D01*
X005361Y020418D01*
X005363Y020425D01*
X005365Y020431D01*
X005368Y020435D01*
X005371Y020440D01*
X005374Y020443D01*
X005377Y020448D01*
X005381Y020451D01*
X005386Y020454D01*
X005391Y020457D01*
X005395Y020459D01*
X005400Y020461D01*
X005411Y020464D01*
X005416Y020465D01*
X005421Y020466D01*
X005429Y020466D01*
X005439Y020468D01*
X005466Y020469D01*
X005484Y020470D01*
X005508Y020469D01*
X005545Y020470D01*
X005644Y020469D01*
X005696Y020469D01*
X005732Y020470D01*
X005772Y020469D01*
X005830Y020469D01*
X005850Y020468D01*
X005863Y020466D01*
X005868Y020464D01*
X005873Y020463D01*
X005880Y020461D01*
X005887Y020457D01*
X005893Y020454D01*
X005898Y020449D01*
X005903Y020445D01*
X005906Y020440D01*
X005911Y020433D01*
X005915Y020425D01*
X005918Y020418D01*
X005922Y020408D01*
X005927Y020395D01*
X005929Y020387D01*
X005936Y020364D01*
X005942Y020344D01*
X005946Y020331D01*
X005949Y020323D01*
X005954Y020305D01*
X005959Y020289D01*
X005963Y020275D01*
X005968Y020260D01*
X005977Y020233D01*
X005981Y020219D01*
X005988Y020197D01*
X005996Y020173D01*
X006000Y020161D01*
X006019Y020106D01*
X006051Y020007D01*
X006080Y019924D01*
X006091Y019891D01*
X006099Y019866D01*
X006105Y019847D01*
X006114Y019824D01*
X006120Y019809D01*
X006125Y019799D01*
X006131Y019790D01*
X006137Y019781D01*
X006142Y019774D01*
X006150Y019768D01*
X006155Y019766D01*
X006160Y019763D01*
X006164Y019762D01*
X006171Y019761D01*
X006174Y019761D01*
X006178Y019762D01*
X006182Y019763D01*
X006191Y019765D01*
X006200Y019769D01*
X006210Y019773D01*
X006236Y019785D01*
X006251Y019794D01*
X006271Y019806D01*
X006291Y019819D01*
X006310Y019832D01*
X006361Y019867D01*
X006381Y019880D01*
X006400Y019893D01*
X006436Y019918D01*
X006473Y019942D01*
X006564Y020005D01*
X006640Y020057D01*
X006746Y020129D01*
X006786Y020154D01*
X006835Y020190D01*
X006881Y020221D01*
X006970Y020283D01*
X007035Y020327D01*
X007112Y020382D01*
X007151Y020408D01*
X007181Y020428D01*
X007196Y020436D01*
X007219Y020448D01*
X007229Y020453D01*
X007241Y020457D01*
X007254Y020461D01*
X007260Y020463D01*
X007266Y020464D01*
X007275Y020465D01*
X007285Y020467D01*
X007298Y020468D01*
X007308Y020468D01*
X007320Y020469D01*
X007349Y020470D01*
X007404Y020468D01*
X007448Y020468D01*
X007495Y020469D01*
X007531Y020469D01*
X007565Y020470D01*
X007628Y020469D01*
X007637Y020469D01*
X007644Y020468D01*
X007650Y020467D01*
X007653Y020465D01*
X007660Y020462D01*
X007664Y020460D01*
X007669Y020456D01*
X007674Y020452D01*
X007677Y020448D01*
X007680Y020441D01*
X007681Y020434D01*
X007682Y020425D01*
X007681Y020417D01*
X003726Y019242D02*
X003728Y019278D01*
X003734Y019314D01*
X003744Y019349D01*
X003757Y019383D01*
X003774Y019415D01*
X003794Y019445D01*
X003818Y019472D01*
X003844Y019497D01*
X003873Y019519D01*
X003904Y019538D01*
X003937Y019553D01*
X003971Y019565D01*
X004007Y019573D01*
X004043Y019577D01*
X004079Y019577D01*
X004115Y019573D01*
X004151Y019565D01*
X004185Y019553D01*
X004218Y019538D01*
X004249Y019519D01*
X004278Y019497D01*
X004304Y019472D01*
X004328Y019445D01*
X004348Y019415D01*
X004365Y019383D01*
X004378Y019349D01*
X004388Y019314D01*
X004394Y019278D01*
X004396Y019242D01*
X004394Y019206D01*
X004388Y019170D01*
X004378Y019135D01*
X004365Y019101D01*
X004348Y019069D01*
X004328Y019039D01*
X004304Y019012D01*
X004278Y018987D01*
X004249Y018965D01*
X004218Y018946D01*
X004185Y018931D01*
X004151Y018919D01*
X004115Y018911D01*
X004079Y018907D01*
X004043Y018907D01*
X004007Y018911D01*
X003971Y018919D01*
X003937Y018931D01*
X003904Y018946D01*
X003873Y018965D01*
X003844Y018987D01*
X003818Y019012D01*
X003794Y019039D01*
X003774Y019069D01*
X003757Y019101D01*
X003744Y019135D01*
X003734Y019170D01*
X003728Y019206D01*
X003726Y019242D01*
X002427Y019242D02*
X002429Y019284D01*
X002435Y019326D01*
X002445Y019368D01*
X002458Y019408D01*
X002476Y019447D01*
X002497Y019484D01*
X002521Y019518D01*
X002549Y019551D01*
X002579Y019581D01*
X002612Y019607D01*
X002647Y019631D01*
X002685Y019651D01*
X002724Y019667D01*
X002764Y019680D01*
X002806Y019689D01*
X002848Y019694D01*
X002891Y019695D01*
X002933Y019692D01*
X002975Y019685D01*
X003016Y019674D01*
X003056Y019659D01*
X003094Y019641D01*
X003131Y019619D01*
X003165Y019594D01*
X003197Y019566D01*
X003225Y019535D01*
X003251Y019501D01*
X003274Y019465D01*
X003293Y019428D01*
X003309Y019388D01*
X003321Y019347D01*
X003329Y019306D01*
X003333Y019263D01*
X003333Y019221D01*
X003329Y019178D01*
X003321Y019137D01*
X003309Y019096D01*
X003293Y019056D01*
X003274Y019019D01*
X003251Y018983D01*
X003225Y018949D01*
X003197Y018918D01*
X003165Y018890D01*
X003131Y018865D01*
X003094Y018843D01*
X003056Y018825D01*
X003016Y018810D01*
X002975Y018799D01*
X002933Y018792D01*
X002891Y018789D01*
X002848Y018790D01*
X002806Y018795D01*
X002764Y018804D01*
X002724Y018817D01*
X002685Y018833D01*
X002647Y018853D01*
X002612Y018877D01*
X002579Y018903D01*
X002549Y018933D01*
X002521Y018966D01*
X002497Y019000D01*
X002476Y019037D01*
X002458Y019076D01*
X002445Y019116D01*
X002435Y019158D01*
X002429Y019200D01*
X002427Y019242D01*
X013687Y020273D02*
X013689Y020304D01*
X013695Y020335D01*
X013704Y020365D01*
X013717Y020394D01*
X013734Y020421D01*
X013754Y020445D01*
X013776Y020467D01*
X013802Y020486D01*
X013829Y020502D01*
X013858Y020514D01*
X013888Y020523D01*
X013919Y020528D01*
X013951Y020529D01*
X013982Y020526D01*
X014013Y020519D01*
X014043Y020509D01*
X014071Y020495D01*
X014097Y020477D01*
X014121Y020457D01*
X014142Y020433D01*
X014161Y020408D01*
X014176Y020380D01*
X014187Y020351D01*
X014195Y020320D01*
X014199Y020289D01*
X014199Y020257D01*
X014195Y020226D01*
X014187Y020195D01*
X014176Y020166D01*
X014161Y020138D01*
X014142Y020113D01*
X014121Y020089D01*
X014097Y020069D01*
X014071Y020051D01*
X014043Y020037D01*
X014013Y020027D01*
X013982Y020020D01*
X013951Y020017D01*
X013919Y020018D01*
X013888Y020023D01*
X013858Y020032D01*
X013829Y020044D01*
X013802Y020060D01*
X013776Y020079D01*
X013754Y020101D01*
X013734Y020125D01*
X013717Y020152D01*
X013704Y020181D01*
X013695Y020211D01*
X013689Y020242D01*
X013687Y020273D01*
D11*
X015065Y018366D02*
X015388Y018366D01*
X015388Y017866D02*
X015065Y017866D01*
X015034Y017224D02*
X015357Y017224D01*
X015357Y016724D02*
X015034Y016724D01*
X013049Y013343D02*
X008109Y013343D01*
X008109Y010453D01*
X013049Y010453D01*
X013049Y013343D01*
X008249Y010813D02*
X008251Y010842D01*
X008257Y010870D01*
X008266Y010897D01*
X008280Y010922D01*
X008296Y010946D01*
X008316Y010966D01*
X008338Y010985D01*
X008362Y010999D01*
X008389Y011011D01*
X008416Y011019D01*
X008445Y011023D01*
X008473Y011023D01*
X008502Y011019D01*
X008529Y011011D01*
X008556Y010999D01*
X008580Y010985D01*
X008602Y010966D01*
X008622Y010946D01*
X008638Y010922D01*
X008652Y010897D01*
X008661Y010870D01*
X008667Y010842D01*
X008669Y010813D01*
X008667Y010784D01*
X008661Y010756D01*
X008652Y010729D01*
X008638Y010704D01*
X008622Y010680D01*
X008602Y010660D01*
X008580Y010641D01*
X008556Y010627D01*
X008529Y010615D01*
X008502Y010607D01*
X008473Y010603D01*
X008445Y010603D01*
X008416Y010607D01*
X008389Y010615D01*
X008362Y010627D01*
X008338Y010641D01*
X008316Y010660D01*
X008296Y010680D01*
X008280Y010704D01*
X008266Y010729D01*
X008257Y010756D01*
X008251Y010784D01*
X008249Y010813D01*
X011843Y005187D02*
X011843Y004864D01*
X012343Y004864D02*
X012343Y005187D01*
X010346Y002578D02*
X010346Y001878D01*
X010579Y001878D02*
X010112Y001878D01*
X010112Y002345D02*
X010346Y002578D01*
X004709Y001870D02*
X004242Y001870D01*
X004476Y001870D02*
X004476Y002571D01*
X004242Y002337D01*
X020713Y012431D02*
X020713Y012754D01*
X021213Y012754D02*
X021213Y012431D01*
X022804Y012446D02*
X022804Y012769D01*
X023304Y012769D02*
X023304Y012446D01*
X022561Y017145D02*
X022239Y017145D01*
X022239Y017645D02*
X022561Y017645D01*
X025431Y007403D02*
X025468Y007403D01*
X025431Y007403D02*
X026550Y007403D01*
X026513Y007403D01*
X026550Y007403D02*
X026550Y006765D01*
X026513Y006765D01*
X026550Y006765D02*
X025431Y006765D01*
X025468Y006765D01*
X025431Y006765D02*
X025431Y007403D01*
X025785Y007403D02*
X026196Y007403D01*
X026196Y006765D02*
X026159Y006765D01*
X025822Y006765D02*
X025785Y006765D01*
X024717Y006880D02*
X024717Y006557D01*
X024217Y006557D02*
X024217Y006880D01*
X024199Y002736D02*
X023876Y002736D01*
X023876Y002236D02*
X024199Y002236D01*
D12*
X012829Y010173D03*
X012329Y010173D03*
X011829Y010173D03*
X011329Y010173D03*
X010829Y010173D03*
X010329Y010173D03*
X009829Y010173D03*
X009329Y010173D03*
X008829Y010173D03*
X008329Y010173D03*
X008329Y013623D03*
X008829Y013623D03*
X009329Y013623D03*
X009829Y013623D03*
X010329Y013623D03*
X010829Y013623D03*
X011329Y013623D03*
X011829Y013623D03*
X012329Y013623D03*
X012829Y013623D03*
D13*
X007904Y012082D02*
X007904Y011662D01*
X007904Y011872D02*
X007274Y011872D01*
X007484Y011662D01*
X007379Y011438D02*
X007274Y011333D01*
X007274Y011123D01*
X007379Y011017D01*
X007799Y011017D01*
X007904Y011123D01*
X007904Y011333D01*
X007799Y011438D01*
X007904Y010798D02*
X007904Y010588D01*
X007904Y010693D02*
X007274Y010693D01*
X007274Y010588D02*
X007274Y010798D01*
D14*
X016439Y016616D02*
X016439Y017403D01*
X016991Y017403D01*
X017266Y017285D02*
X017266Y017009D01*
X017502Y017246D01*
X017502Y016773D01*
X017266Y017009D01*
X017266Y016734D01*
X016991Y016616D02*
X016439Y016616D01*
X016447Y017718D02*
X016447Y018506D01*
X016998Y018506D01*
X017274Y018387D02*
X017274Y018112D01*
X017510Y018348D01*
X017510Y017876D01*
X017274Y018112D01*
X017274Y017836D01*
X016998Y017718D02*
X016447Y017718D01*
X017786Y017718D02*
X018337Y017718D01*
X018337Y018506D01*
X017786Y018506D01*
X017778Y017403D02*
X018329Y017403D01*
X018329Y016616D01*
X017778Y016616D01*
X023900Y015998D02*
X023900Y014053D01*
X025357Y014053D01*
X025357Y015998D01*
X023900Y015998D01*
X029262Y013655D02*
X031270Y013655D01*
X031270Y010387D01*
X029262Y010387D01*
X029262Y013655D01*
X029274Y013655D02*
X029392Y013655D01*
X029274Y013655D02*
X029274Y012828D01*
X031006Y013655D02*
X031282Y013655D01*
X031282Y010387D01*
X031006Y010387D01*
X031054Y010017D02*
X031329Y010017D01*
X031329Y006750D01*
X031054Y006750D01*
X031317Y006750D02*
X029309Y006750D01*
X029309Y010017D01*
X031317Y010017D01*
X031317Y006750D01*
X031274Y005726D02*
X030723Y005726D01*
X031274Y005726D02*
X031274Y002734D01*
X030723Y002734D01*
X029463Y002734D02*
X028636Y002734D01*
X027652Y003009D02*
X027652Y003364D01*
X027361Y002876D02*
X026809Y002876D01*
X026534Y002718D02*
X026298Y002482D01*
X026534Y002246D01*
X026534Y002718D01*
X026298Y002757D02*
X026298Y002482D01*
X026298Y002206D01*
X026022Y002088D02*
X025471Y002088D01*
X025471Y002876D01*
X026022Y002876D01*
X026809Y002088D02*
X027361Y002088D01*
X027361Y002876D01*
X027652Y005096D02*
X027652Y005450D01*
X028636Y005726D02*
X029463Y005726D01*
X029479Y006750D02*
X029321Y006750D01*
X029321Y007616D01*
X029321Y009191D02*
X029321Y010017D01*
X029439Y010017D01*
X029431Y010387D02*
X029274Y010387D01*
X029274Y011254D01*
X013341Y002805D02*
X013341Y001673D01*
X012603Y001673D01*
X012563Y001673D02*
X012563Y003051D01*
X012258Y003051D01*
X011274Y003051D01*
X010969Y003051D01*
X010969Y001673D01*
X011028Y001673D01*
X012504Y001673D01*
X012563Y001673D01*
X010930Y001673D02*
X010191Y001673D01*
X010191Y002805D01*
X010930Y002805D01*
X009439Y002797D02*
X008701Y002797D01*
X008662Y003043D02*
X008357Y003043D01*
X008662Y003043D02*
X008662Y001665D01*
X008603Y001665D01*
X005158Y001665D01*
X005099Y001665D01*
X005099Y003043D01*
X005404Y003043D01*
X005059Y002797D02*
X004321Y002797D01*
X004321Y001665D01*
X005059Y001665D01*
X008701Y001665D02*
X009439Y001665D01*
X009439Y002797D01*
X012603Y002805D02*
X013341Y002805D01*
D15*
X012554Y002903D02*
X012357Y002903D01*
X012258Y002903D01*
X012258Y003051D01*
X012357Y002903D02*
X012357Y002608D01*
X012554Y002608D01*
X012554Y002116D02*
X012357Y002116D01*
X012357Y001820D01*
X012504Y001673D01*
X012357Y001820D02*
X011176Y001820D01*
X011028Y001673D01*
X011176Y001820D02*
X011176Y002116D01*
X010979Y002116D01*
X010979Y002608D02*
X011176Y002608D01*
X011176Y002903D01*
X011274Y002903D01*
X011274Y003051D01*
X011176Y002903D02*
X010979Y002903D01*
X008652Y002895D02*
X008455Y002895D01*
X008357Y002895D01*
X008357Y003043D01*
X005404Y003043D01*
X005404Y002895D01*
X005306Y002895D01*
X005109Y002895D01*
X005306Y002895D02*
X005306Y002600D01*
X005109Y002600D01*
X005109Y002108D02*
X005306Y002108D01*
X005306Y001813D01*
X005158Y001665D01*
X005306Y001813D02*
X008455Y001813D01*
X008603Y001665D01*
X008455Y001813D02*
X008455Y002108D01*
X008652Y002108D01*
X008652Y002600D02*
X008455Y002600D01*
X008455Y002895D01*
D16*
X008111Y002231D03*
X007619Y002231D03*
X007126Y002231D03*
X006634Y002231D03*
X006142Y002231D03*
X005650Y002231D03*
X011520Y002239D03*
X012012Y002239D03*
D17*
X012755Y003063D02*
X013062Y003523D01*
X013216Y003447D02*
X013292Y003523D01*
X013446Y003523D01*
X013522Y003447D01*
X013522Y003370D01*
X013446Y003293D01*
X013522Y003216D01*
X013522Y003140D01*
X013446Y003063D01*
X013292Y003063D01*
X013216Y003140D01*
X013062Y003063D02*
X012755Y003523D01*
X013369Y003293D02*
X013446Y003293D01*
X011555Y004598D02*
X011094Y004598D01*
X011094Y004829D01*
X011171Y004905D01*
X011325Y004905D01*
X011401Y004829D01*
X011401Y004598D01*
X011401Y004752D02*
X011555Y004905D01*
X011478Y005059D02*
X011325Y005059D01*
X011325Y005289D01*
X011401Y005366D01*
X011478Y005366D01*
X011555Y005289D01*
X011555Y005135D01*
X011478Y005059D01*
X011325Y005059D02*
X011171Y005212D01*
X011094Y005366D01*
X009721Y003437D02*
X009491Y003437D01*
X009491Y002976D01*
X009491Y003130D02*
X009721Y003130D01*
X009798Y003206D01*
X009798Y003360D01*
X009721Y003437D01*
X009338Y003360D02*
X009261Y003437D01*
X009107Y003437D01*
X009031Y003360D01*
X009031Y003283D01*
X009107Y003206D01*
X009261Y003206D01*
X009338Y003130D01*
X009338Y003053D01*
X009261Y002976D01*
X009107Y002976D01*
X009031Y003053D01*
X008877Y002976D02*
X008724Y002976D01*
X008801Y002976D02*
X008801Y003437D01*
X008877Y003437D02*
X008724Y003437D01*
X020320Y010878D02*
X020320Y011109D01*
X020396Y011185D01*
X020550Y011185D01*
X020627Y011109D01*
X020627Y010878D01*
X020780Y010878D02*
X020320Y010878D01*
X020627Y011032D02*
X020780Y011185D01*
X020703Y011339D02*
X020627Y011339D01*
X020550Y011415D01*
X020550Y011569D01*
X020627Y011646D01*
X020703Y011646D01*
X020780Y011569D01*
X020780Y011415D01*
X020703Y011339D01*
X020550Y011415D02*
X020473Y011339D01*
X020396Y011339D01*
X020320Y011415D01*
X020320Y011569D01*
X020396Y011646D01*
X020473Y011646D01*
X020550Y011569D01*
X021772Y011553D02*
X021772Y011246D01*
X021849Y011092D02*
X021772Y011016D01*
X021772Y010862D01*
X021849Y010785D01*
X022156Y010785D01*
X022233Y010862D01*
X022233Y011016D01*
X022156Y011092D01*
X022156Y011246D02*
X022233Y011246D01*
X022156Y011246D02*
X021849Y011553D01*
X021772Y011553D01*
X022803Y011610D02*
X022803Y011303D01*
X023033Y011303D01*
X022957Y011456D01*
X022957Y011533D01*
X023033Y011610D01*
X023187Y011610D01*
X023263Y011533D01*
X023263Y011379D01*
X023187Y011303D01*
X023263Y011149D02*
X023110Y010996D01*
X023110Y011073D02*
X023110Y010842D01*
X023263Y010842D02*
X022803Y010842D01*
X022803Y011073D01*
X022880Y011149D01*
X023033Y011149D01*
X023110Y011073D01*
X023938Y011024D02*
X023938Y010870D01*
X024014Y010793D01*
X024321Y010793D01*
X024398Y010870D01*
X024398Y011024D01*
X024321Y011100D01*
X024321Y011254D02*
X024245Y011254D01*
X024168Y011330D01*
X024168Y011484D01*
X024245Y011561D01*
X024321Y011561D01*
X024398Y011484D01*
X024398Y011330D01*
X024321Y011254D01*
X024168Y011330D02*
X024091Y011254D01*
X024014Y011254D01*
X023938Y011330D01*
X023938Y011484D01*
X024014Y011561D01*
X024091Y011561D01*
X024168Y011484D01*
X024014Y011100D02*
X023938Y011024D01*
X022243Y012446D02*
X022243Y012746D01*
X021723Y012736D02*
X021723Y012446D01*
X023888Y012493D02*
X023888Y012783D01*
X024408Y012793D02*
X024408Y012493D01*
X026298Y012485D02*
X026298Y012776D01*
X026817Y012785D02*
X026817Y012485D01*
X026731Y011592D02*
X026577Y011592D01*
X026501Y011515D01*
X026501Y011439D01*
X026577Y011285D01*
X026347Y011285D01*
X026347Y011592D01*
X026731Y011592D02*
X026808Y011515D01*
X026808Y011362D01*
X026731Y011285D01*
X026731Y011132D02*
X026808Y011055D01*
X026808Y010902D01*
X026731Y010825D01*
X026424Y010825D01*
X026347Y010902D01*
X026347Y011055D01*
X026424Y011132D01*
X028514Y012392D02*
X028514Y012546D01*
X028514Y012469D02*
X028898Y012469D01*
X028974Y012392D01*
X028974Y012316D01*
X028898Y012239D01*
X028974Y012699D02*
X028514Y012699D01*
X028514Y012929D01*
X028591Y013006D01*
X028744Y013006D01*
X028821Y012929D01*
X028821Y012699D01*
X028974Y013160D02*
X028668Y013466D01*
X028591Y013466D01*
X028514Y013390D01*
X028514Y013236D01*
X028591Y013160D01*
X028974Y013160D02*
X028974Y013466D01*
X028792Y014637D02*
X028792Y015397D01*
X028355Y015397D02*
X028355Y014637D01*
X027375Y014637D02*
X027375Y015397D01*
X027559Y016101D02*
X027866Y016101D01*
X027943Y016178D01*
X027943Y016332D01*
X027866Y016408D01*
X027943Y016562D02*
X027943Y016869D01*
X027943Y016715D02*
X027482Y016715D01*
X027636Y016562D01*
X027559Y016408D02*
X027482Y016332D01*
X027482Y016178D01*
X027559Y016101D01*
X029293Y016178D02*
X029370Y016101D01*
X029677Y016101D01*
X029754Y016178D01*
X029754Y016332D01*
X029677Y016408D01*
X029754Y016562D02*
X029447Y016869D01*
X029370Y016869D01*
X029293Y016792D01*
X029293Y016639D01*
X029370Y016562D01*
X029370Y016408D02*
X029293Y016332D01*
X029293Y016178D01*
X029754Y016562D02*
X029754Y016869D01*
X029772Y015397D02*
X029772Y014637D01*
X025055Y015052D02*
X024441Y015052D01*
X024518Y015129D02*
X024595Y015205D01*
X024518Y015129D02*
X024518Y014975D01*
X024595Y014898D01*
X024672Y014898D01*
X024748Y014975D01*
X024748Y015129D01*
X024825Y015205D01*
X024902Y015205D01*
X024978Y015129D01*
X024978Y014975D01*
X024902Y014898D01*
X024902Y014745D02*
X024518Y014745D01*
X024518Y014438D02*
X024902Y014438D01*
X024978Y014515D01*
X024978Y014668D01*
X024902Y014745D01*
X024902Y015359D02*
X024978Y015435D01*
X024978Y015589D01*
X024902Y015666D01*
X024748Y015666D01*
X024672Y015589D01*
X024672Y015512D01*
X024748Y015359D01*
X024518Y015359D01*
X024518Y015666D01*
X021370Y015488D02*
X021370Y014728D01*
X020390Y014728D02*
X020390Y015488D01*
X019992Y015488D02*
X019992Y014728D01*
X019012Y014728D02*
X019012Y015488D01*
X019140Y016207D02*
X019293Y016207D01*
X019370Y016284D01*
X019523Y016284D02*
X019600Y016207D01*
X019753Y016207D01*
X019830Y016284D01*
X019830Y016360D01*
X019753Y016437D01*
X019677Y016437D01*
X019753Y016437D02*
X019830Y016514D01*
X019830Y016591D01*
X019753Y016667D01*
X019600Y016667D01*
X019523Y016591D01*
X019370Y016591D02*
X019293Y016667D01*
X019140Y016667D01*
X019063Y016591D01*
X019063Y016284D01*
X019140Y016207D01*
X020441Y016284D02*
X020518Y016207D01*
X020671Y016207D01*
X020748Y016284D01*
X020901Y016437D02*
X021208Y016437D01*
X021131Y016207D02*
X021131Y016667D01*
X020901Y016437D01*
X020748Y016591D02*
X020671Y016667D01*
X020518Y016667D01*
X020441Y016591D01*
X020441Y016284D01*
X020647Y017185D02*
X020647Y017645D01*
X020877Y017645D01*
X020954Y017568D01*
X020954Y017415D01*
X020877Y017338D01*
X020647Y017338D01*
X020800Y017338D02*
X020954Y017185D01*
X021107Y017415D02*
X021414Y017415D01*
X021337Y017185D02*
X021337Y017645D01*
X021107Y017415D01*
X015714Y018536D02*
X015407Y018536D01*
X015714Y018843D01*
X015714Y018919D01*
X015637Y018996D01*
X015484Y018996D01*
X015407Y018919D01*
X015254Y018919D02*
X015254Y018766D01*
X015177Y018689D01*
X014947Y018689D01*
X015100Y018689D02*
X015254Y018536D01*
X014947Y018536D02*
X014947Y018996D01*
X015177Y018996D01*
X015254Y018919D01*
X015334Y016476D02*
X015488Y016476D01*
X015564Y016400D01*
X015564Y016323D01*
X015488Y016246D01*
X015564Y016169D01*
X015564Y016093D01*
X015488Y016016D01*
X015334Y016016D01*
X015258Y016093D01*
X015104Y016016D02*
X014951Y016169D01*
X015027Y016169D02*
X014797Y016169D01*
X014797Y016016D02*
X014797Y016476D01*
X015027Y016476D01*
X015104Y016400D01*
X015104Y016246D01*
X015027Y016169D01*
X015258Y016400D02*
X015334Y016476D01*
X015411Y016246D02*
X015488Y016246D01*
X014577Y013604D02*
X014501Y013604D01*
X014424Y013527D01*
X014424Y013297D01*
X014577Y013297D01*
X014654Y013374D01*
X014654Y013527D01*
X014577Y013604D01*
X014270Y013450D02*
X014424Y013297D01*
X014577Y013144D02*
X014654Y013067D01*
X014654Y012913D01*
X014577Y012837D01*
X014270Y012837D01*
X014194Y012913D01*
X014194Y013067D01*
X014270Y013144D01*
X014270Y013450D02*
X014194Y013604D01*
X014144Y012110D02*
X014144Y011820D01*
X014664Y011820D02*
X014664Y012120D01*
X023973Y005831D02*
X024203Y005831D01*
X024280Y005754D01*
X024280Y005601D01*
X024203Y005524D01*
X023973Y005524D01*
X024127Y005524D02*
X024280Y005370D01*
X024434Y005370D02*
X024434Y005447D01*
X024740Y005754D01*
X024740Y005831D01*
X024434Y005831D01*
X023973Y005831D02*
X023973Y005370D01*
X023988Y003366D02*
X023758Y003366D01*
X023758Y002906D01*
X023758Y003059D02*
X023988Y003059D01*
X024065Y003136D01*
X024065Y003289D01*
X023988Y003366D01*
X024218Y003213D02*
X024372Y003366D01*
X024372Y002906D01*
X024525Y002906D02*
X024218Y002906D01*
X024065Y002906D02*
X023911Y003059D01*
X025261Y007854D02*
X025414Y007854D01*
X025337Y007854D02*
X025337Y008315D01*
X025261Y008315D02*
X025414Y008315D01*
X025567Y008238D02*
X025567Y007931D01*
X025644Y007854D01*
X025798Y007854D01*
X025874Y007931D01*
X026028Y007854D02*
X026335Y008161D01*
X026335Y008238D01*
X026258Y008315D01*
X026104Y008315D01*
X026028Y008238D01*
X025874Y008238D02*
X025798Y008315D01*
X025644Y008315D01*
X025567Y008238D01*
X026028Y007854D02*
X026335Y007854D01*
X028561Y008794D02*
X028561Y008947D01*
X028561Y008871D02*
X028945Y008871D01*
X029022Y008794D01*
X029022Y008717D01*
X028945Y008640D01*
X029022Y009101D02*
X028561Y009101D01*
X028561Y009331D01*
X028638Y009408D01*
X028792Y009408D01*
X028868Y009331D01*
X028868Y009101D01*
X028715Y009561D02*
X028561Y009715D01*
X029022Y009715D01*
X029022Y009868D02*
X029022Y009561D01*
D18*
X026365Y007547D03*
X025617Y007547D03*
X025617Y006622D03*
X025991Y006622D03*
X026365Y006622D03*
D19*
X030162Y003725D02*
X030262Y003575D01*
X030309Y003575D02*
X030409Y003675D01*
X030409Y003700D01*
X030384Y003725D01*
X030334Y003725D01*
X030309Y003700D01*
X030262Y003725D02*
X030162Y003575D01*
X030309Y003575D02*
X030409Y003575D01*
X026673Y001927D02*
X026673Y001777D01*
X026623Y001777D02*
X026724Y001777D01*
X026623Y001877D02*
X026673Y001927D01*
X026576Y001902D02*
X026551Y001927D01*
X026476Y001927D01*
X026476Y001777D01*
X026551Y001777D01*
X026576Y001802D01*
X026576Y001902D01*
X026429Y001927D02*
X026329Y001927D01*
X026329Y001777D01*
X026429Y001777D01*
X026379Y001852D02*
X026329Y001852D01*
X026282Y001777D02*
X026181Y001777D01*
X026181Y001927D01*
X017667Y016304D02*
X017617Y016304D01*
X017592Y016329D01*
X017545Y016329D02*
X017545Y016430D01*
X017520Y016455D01*
X017445Y016455D01*
X017445Y016304D01*
X017520Y016304D01*
X017545Y016329D01*
X017642Y016379D02*
X017667Y016379D01*
X017692Y016354D01*
X017692Y016329D01*
X017667Y016304D01*
X017667Y016379D02*
X017692Y016405D01*
X017692Y016430D01*
X017667Y016455D01*
X017617Y016455D01*
X017592Y016430D01*
X017397Y016455D02*
X017297Y016455D01*
X017297Y016304D01*
X017397Y016304D01*
X017347Y016379D02*
X017297Y016379D01*
X017250Y016304D02*
X017150Y016304D01*
X017150Y016455D01*
X017158Y017407D02*
X017258Y017407D01*
X017305Y017407D02*
X017405Y017407D01*
X017452Y017407D02*
X017528Y017407D01*
X017553Y017432D01*
X017553Y017532D01*
X017528Y017557D01*
X017452Y017557D01*
X017452Y017407D01*
X017355Y017482D02*
X017305Y017482D01*
X017305Y017557D02*
X017305Y017407D01*
X017158Y017407D02*
X017158Y017557D01*
X017305Y017557D02*
X017405Y017557D01*
X017600Y017532D02*
X017625Y017557D01*
X017675Y017557D01*
X017700Y017532D01*
X017700Y017507D01*
X017600Y017407D01*
X017700Y017407D01*
D20*
X015483Y016975D03*
X014903Y016975D03*
X014935Y018116D03*
X015515Y018116D03*
X022112Y017395D03*
X022692Y017395D03*
X023746Y002486D03*
X024326Y002486D03*
D21*
X023664Y014150D03*
X023664Y014400D03*
X023664Y014650D03*
X023664Y014900D03*
X023664Y015150D03*
X023664Y015400D03*
X023664Y015650D03*
X023664Y015900D03*
X025593Y015900D03*
X025593Y015650D03*
X025593Y015400D03*
X025593Y015150D03*
X025593Y014900D03*
X025593Y014650D03*
X025593Y014400D03*
X025593Y014150D03*
D22*
X024215Y015675D03*
D23*
X023863Y018815D03*
X021874Y018815D03*
D24*
X021963Y018450D02*
X021963Y019218D01*
X023774Y019218D01*
X023774Y018450D01*
X021963Y018450D01*
X022554Y018824D02*
X022967Y018549D01*
X022967Y019120D01*
X022554Y018824D01*
D25*
X022534Y018824D03*
D26*
X022465Y019356D02*
X022465Y019806D01*
X022314Y019656D01*
X022154Y019731D02*
X022154Y019431D01*
X022079Y019356D01*
X021854Y019356D01*
X021854Y019806D01*
X022079Y019806D01*
X022154Y019731D01*
X022314Y019356D02*
X022615Y019356D01*
D27*
X020882Y015630D03*
X019504Y015630D03*
X019501Y014586D03*
X020879Y014586D03*
X027863Y014495D03*
X027866Y015540D03*
X029284Y015540D03*
X029280Y014495D03*
D28*
X026558Y012918D03*
X026558Y012348D03*
X024148Y012356D03*
X024148Y012926D03*
X021983Y012878D03*
X021983Y012308D03*
X014404Y012252D03*
X014404Y011682D03*
D29*
X020964Y012304D03*
X020964Y012884D03*
X023053Y012896D03*
X023053Y012316D03*
X024468Y007010D03*
X024468Y006430D03*
X012092Y005313D03*
X012092Y004733D03*
D30*
X011106Y019060D02*
X009378Y019060D01*
X009372Y019061D02*
X011113Y019061D01*
X011116Y019062D02*
X009369Y019062D01*
X009365Y019063D02*
X011120Y019063D01*
X011123Y019064D02*
X009362Y019064D01*
X009359Y019065D02*
X011127Y019065D01*
X011130Y019066D02*
X009358Y019066D01*
X009356Y019067D02*
X011133Y019067D01*
X011136Y019068D02*
X009354Y019068D01*
X009353Y019069D02*
X011139Y019069D01*
X011143Y019070D02*
X009352Y019070D01*
X009350Y019071D02*
X011146Y019071D01*
X011148Y019072D02*
X009349Y019072D01*
X009348Y019073D02*
X011150Y019073D01*
X011151Y019074D02*
X009347Y019074D01*
X009345Y019075D02*
X011153Y019075D01*
X011156Y019076D02*
X009344Y019076D01*
X009343Y019077D02*
X011158Y019077D01*
X011160Y019077D02*
X009342Y019077D01*
X009341Y019078D02*
X011162Y019078D01*
X011164Y019079D02*
X009340Y019079D01*
X009339Y019080D02*
X011165Y019080D01*
X011166Y019081D02*
X009338Y019081D01*
X009338Y019082D02*
X011168Y019082D01*
X011169Y019083D02*
X009337Y019083D01*
X009336Y019084D02*
X011170Y019084D01*
X011172Y019085D02*
X009336Y019085D01*
X009335Y019086D02*
X011174Y019086D01*
X011175Y019087D02*
X009334Y019087D01*
X009334Y019088D02*
X011176Y019088D01*
X011178Y019089D02*
X009333Y019089D01*
X009332Y019090D02*
X011179Y019090D01*
X011180Y019091D02*
X009332Y019091D01*
X009331Y019092D02*
X011182Y019092D01*
X011183Y019093D02*
X009330Y019093D01*
X009330Y019094D02*
X011184Y019094D01*
X011185Y019094D02*
X009329Y019094D01*
X009329Y019095D02*
X011186Y019095D01*
X011187Y019096D02*
X009328Y019096D01*
X009328Y019097D02*
X011188Y019097D01*
X011189Y019098D02*
X009327Y019098D01*
X009327Y019099D02*
X011191Y019099D01*
X011191Y019100D02*
X009326Y019100D01*
X009326Y019101D02*
X011192Y019101D01*
X011193Y019102D02*
X009326Y019102D01*
X009325Y019103D02*
X011194Y019103D01*
X011195Y019104D02*
X009325Y019104D01*
X009325Y019105D02*
X011196Y019105D01*
X011197Y019106D02*
X009324Y019106D01*
X009324Y019107D02*
X011198Y019107D01*
X011199Y019108D02*
X009324Y019108D01*
X009323Y019109D02*
X011199Y019109D01*
X011200Y019110D02*
X009323Y019110D01*
X009323Y019111D02*
X011201Y019111D01*
X011202Y019111D02*
X009323Y019111D01*
X009322Y019112D02*
X011202Y019112D01*
X011203Y019113D02*
X009322Y019113D01*
X009322Y019114D02*
X011204Y019114D01*
X011204Y019115D02*
X009322Y019115D01*
X009322Y019116D02*
X011205Y019116D01*
X011206Y019117D02*
X009322Y019117D01*
X009322Y019118D02*
X011207Y019118D01*
X011207Y019119D02*
X009322Y019119D01*
X009322Y019120D02*
X011208Y019120D01*
X011209Y019121D02*
X009322Y019121D01*
X009322Y019122D02*
X011209Y019122D01*
X011210Y019123D02*
X009322Y019123D01*
X009322Y019124D02*
X011210Y019124D01*
X011211Y019125D02*
X009322Y019125D01*
X009322Y019126D02*
X011212Y019126D01*
X011212Y019127D02*
X009322Y019127D01*
X009322Y019128D02*
X011213Y019128D01*
X011213Y019129D02*
X009322Y019129D01*
X011214Y019129D01*
X011214Y019130D02*
X009323Y019130D01*
X009323Y019131D02*
X011215Y019131D01*
X011215Y019132D02*
X009323Y019132D01*
X009323Y019133D02*
X011216Y019133D01*
X011216Y019134D02*
X009323Y019134D01*
X009323Y019135D02*
X011217Y019135D01*
X011218Y019136D02*
X009323Y019136D01*
X009323Y019137D02*
X011218Y019137D01*
X011219Y019138D02*
X009323Y019138D01*
X009323Y019139D02*
X011219Y019139D01*
X011220Y019140D02*
X009324Y019140D01*
X009324Y019141D02*
X011220Y019141D01*
X011221Y019142D02*
X009324Y019142D01*
X009325Y019143D02*
X011221Y019143D01*
X011222Y019144D02*
X009325Y019144D01*
X009325Y019145D02*
X011223Y019145D01*
X011223Y019146D02*
X009326Y019146D01*
X011224Y019146D01*
X011224Y019147D02*
X009327Y019147D01*
X009327Y019148D02*
X011225Y019148D01*
X011225Y019149D02*
X009328Y019149D01*
X009328Y019150D02*
X011226Y019150D01*
X011226Y019151D02*
X009329Y019151D01*
X009329Y019152D02*
X011227Y019152D01*
X011227Y019153D02*
X009330Y019153D01*
X009330Y019154D02*
X011228Y019154D01*
X011229Y019155D02*
X009331Y019155D01*
X009331Y019156D02*
X011229Y019156D01*
X011230Y019157D02*
X009332Y019157D01*
X009332Y019158D02*
X011230Y019158D01*
X011231Y019159D02*
X009333Y019159D01*
X009333Y019160D02*
X011231Y019160D01*
X011232Y019161D02*
X009334Y019161D01*
X009334Y019162D02*
X011232Y019162D01*
X011233Y019163D02*
X009335Y019163D01*
X011234Y019163D01*
X011234Y019164D02*
X009336Y019164D01*
X009336Y019165D02*
X011235Y019165D01*
X011235Y019166D02*
X009337Y019166D01*
X009338Y019167D02*
X011236Y019167D01*
X011236Y019168D02*
X009338Y019168D01*
X009339Y019169D02*
X011237Y019169D01*
X011237Y019170D02*
X009339Y019170D01*
X009340Y019171D02*
X011238Y019171D01*
X011238Y019172D02*
X009340Y019172D01*
X009341Y019173D02*
X011239Y019173D01*
X011240Y019174D02*
X009341Y019174D01*
X009342Y019175D02*
X011240Y019175D01*
X011241Y019176D02*
X009342Y019176D01*
X009343Y019177D02*
X011241Y019177D01*
X011242Y019178D02*
X009343Y019178D01*
X009344Y019179D02*
X011242Y019179D01*
X011243Y019180D02*
X009344Y019180D01*
X009345Y019180D02*
X011243Y019180D01*
X011244Y019181D02*
X009346Y019181D01*
X009346Y019182D02*
X011244Y019182D01*
X011245Y019183D02*
X009347Y019183D01*
X009347Y019184D02*
X011246Y019184D01*
X011246Y019185D02*
X009348Y019185D01*
X009348Y019186D02*
X011247Y019186D01*
X011247Y019187D02*
X009349Y019187D01*
X009349Y019188D02*
X011248Y019188D01*
X011248Y019189D02*
X009350Y019189D01*
X009350Y019190D02*
X011249Y019190D01*
X011249Y019191D02*
X009351Y019191D01*
X009351Y019192D02*
X011250Y019192D01*
X011251Y019193D02*
X009352Y019193D01*
X009352Y019194D02*
X011251Y019194D01*
X011252Y019195D02*
X009353Y019195D01*
X009354Y019196D02*
X011252Y019196D01*
X011253Y019197D02*
X009354Y019197D01*
X009355Y019197D02*
X011253Y019197D01*
X011254Y019198D02*
X009355Y019198D01*
X009356Y019199D02*
X011255Y019199D01*
X011255Y019200D02*
X009356Y019200D01*
X009357Y019201D02*
X011256Y019201D01*
X011256Y019202D02*
X009357Y019202D01*
X009358Y019203D02*
X011257Y019203D01*
X011257Y019204D02*
X009358Y019204D01*
X009359Y019205D02*
X011257Y019205D01*
X011258Y019206D02*
X009359Y019206D01*
X009360Y019207D02*
X011258Y019207D01*
X011258Y019208D02*
X009360Y019208D01*
X009361Y019209D02*
X011259Y019209D01*
X011259Y019210D02*
X009361Y019210D01*
X009362Y019211D02*
X011259Y019211D01*
X011260Y019212D02*
X009363Y019212D01*
X009363Y019213D02*
X011260Y019213D01*
X011261Y019214D02*
X009364Y019214D01*
X011261Y019214D01*
X011261Y019215D02*
X009365Y019215D01*
X009365Y019216D02*
X011262Y019216D01*
X011262Y019217D02*
X009366Y019217D01*
X009367Y019218D02*
X011263Y019218D01*
X011263Y019219D02*
X009367Y019219D01*
X009368Y019220D02*
X011263Y019220D01*
X011263Y019221D02*
X009368Y019221D01*
X009369Y019222D02*
X011263Y019222D01*
X011263Y019223D02*
X009370Y019223D01*
X009370Y019224D02*
X011264Y019224D01*
X011264Y019225D02*
X009371Y019225D01*
X009372Y019226D02*
X011264Y019226D01*
X011264Y019227D02*
X009372Y019227D01*
X009373Y019228D02*
X011264Y019228D01*
X011264Y019229D02*
X009374Y019229D01*
X009374Y019230D02*
X011264Y019230D01*
X011264Y019231D02*
X009375Y019231D01*
X011264Y019231D01*
X011264Y019232D02*
X009376Y019232D01*
X009377Y019233D02*
X011264Y019233D01*
X011264Y019234D02*
X009377Y019234D01*
X009378Y019235D02*
X011264Y019235D01*
X011264Y019236D02*
X009379Y019236D01*
X009379Y019237D02*
X011264Y019237D01*
X011264Y019238D02*
X009380Y019238D01*
X009381Y019239D02*
X011264Y019239D01*
X011264Y019240D02*
X009381Y019240D01*
X009382Y019241D02*
X011264Y019241D01*
X011264Y019242D02*
X009382Y019242D01*
X009383Y019243D02*
X011264Y019243D01*
X011263Y019244D02*
X009384Y019244D01*
X009385Y019245D02*
X011263Y019245D01*
X011263Y019246D02*
X009386Y019246D01*
X009387Y019247D02*
X011263Y019247D01*
X011262Y019248D02*
X009387Y019248D01*
X009388Y019249D02*
X011262Y019249D01*
X009389Y019249D01*
X009390Y019250D02*
X011261Y019250D01*
X011261Y019251D02*
X009391Y019251D01*
X009392Y019252D02*
X011261Y019252D01*
X011261Y019253D02*
X009393Y019253D01*
X009394Y019254D02*
X011260Y019254D01*
X011260Y019255D02*
X009394Y019255D01*
X009395Y019256D02*
X011260Y019256D01*
X011259Y019257D02*
X009396Y019257D01*
X009397Y019258D02*
X011259Y019258D01*
X011259Y019259D02*
X009398Y019259D01*
X009399Y019260D02*
X011258Y019260D01*
X011258Y019261D02*
X009400Y019261D01*
X009401Y019262D02*
X011258Y019262D01*
X011257Y019263D02*
X009403Y019263D01*
X009404Y019264D02*
X011257Y019264D01*
X011256Y019265D02*
X009405Y019265D01*
X009406Y019266D02*
X011255Y019266D01*
X011254Y019266D02*
X009407Y019266D01*
X009409Y019267D02*
X011254Y019267D01*
X011253Y019268D02*
X009410Y019268D01*
X009411Y019269D02*
X011252Y019269D01*
X011251Y019270D02*
X009412Y019270D01*
X009414Y019271D02*
X011250Y019271D01*
X011249Y019272D02*
X009415Y019272D01*
X009416Y019273D02*
X011249Y019273D01*
X011248Y019274D02*
X009418Y019274D01*
X009420Y019275D02*
X011247Y019275D01*
X011246Y019276D02*
X009421Y019276D01*
X009423Y019277D02*
X011246Y019277D01*
X011245Y019278D02*
X009424Y019278D01*
X009426Y019279D02*
X011244Y019279D01*
X011243Y019280D02*
X009428Y019280D01*
X009430Y019281D02*
X011242Y019281D01*
X011241Y019282D02*
X009432Y019282D01*
X009433Y019283D02*
X011240Y019283D01*
X011238Y019283D02*
X009436Y019283D01*
X009438Y019284D02*
X011237Y019284D01*
X011235Y019285D02*
X009440Y019285D01*
X009443Y019286D02*
X011234Y019286D01*
X011232Y019287D02*
X009445Y019287D01*
X009447Y019288D02*
X011231Y019288D01*
X011230Y019289D02*
X009450Y019289D01*
X009453Y019290D02*
X011228Y019290D01*
X011227Y019291D02*
X009456Y019291D01*
X009460Y019292D02*
X011225Y019292D01*
X011222Y019293D02*
X009463Y019293D01*
X009467Y019294D02*
X011218Y019294D01*
X011213Y019295D02*
X009472Y019295D01*
X009478Y019296D02*
X011209Y019296D01*
X011204Y019297D02*
X009576Y019297D01*
X009508Y019297D02*
X009491Y019297D01*
X009410Y019352D02*
X007154Y019352D01*
X007154Y019351D02*
X009409Y019351D01*
X007154Y019351D01*
X007154Y019350D02*
X009408Y019350D01*
X009407Y019349D02*
X007154Y019349D01*
X007154Y019348D02*
X009406Y019348D01*
X009406Y019347D02*
X007154Y019347D01*
X007154Y019346D02*
X009405Y019346D01*
X009404Y019345D02*
X007154Y019345D01*
X007154Y019344D02*
X009403Y019344D01*
X009402Y019343D02*
X007155Y019343D01*
X007155Y019342D02*
X009402Y019342D01*
X009401Y019341D02*
X007155Y019341D01*
X007155Y019340D02*
X009400Y019340D01*
X009399Y019339D02*
X007155Y019339D01*
X007155Y019338D02*
X009398Y019338D01*
X009397Y019337D02*
X007155Y019337D01*
X007156Y019336D02*
X009396Y019336D01*
X009395Y019335D02*
X007156Y019335D01*
X007156Y019334D02*
X009393Y019334D01*
X009392Y019334D02*
X007157Y019334D01*
X007157Y019333D02*
X009391Y019333D01*
X009390Y019332D02*
X007157Y019332D01*
X007158Y019331D02*
X009389Y019331D01*
X009388Y019330D02*
X007159Y019330D01*
X007159Y019329D02*
X009387Y019329D01*
X009386Y019328D02*
X007160Y019328D01*
X007160Y019327D02*
X009386Y019327D01*
X009384Y019326D02*
X007161Y019326D01*
X007161Y019325D02*
X009383Y019325D01*
X009381Y019324D02*
X007162Y019324D01*
X007163Y019323D02*
X009380Y019323D01*
X009379Y019322D02*
X007163Y019322D01*
X007164Y019321D02*
X009377Y019321D01*
X009376Y019320D02*
X007165Y019320D01*
X007166Y019319D02*
X009374Y019319D01*
X009373Y019318D02*
X007166Y019318D01*
X007168Y019317D02*
X009371Y019317D01*
X009369Y019317D02*
X007169Y019317D01*
X007171Y019316D02*
X009368Y019316D01*
X009366Y019315D02*
X007172Y019315D01*
X007174Y019314D02*
X009365Y019314D01*
X009363Y019313D02*
X007175Y019313D01*
X007177Y019312D02*
X009361Y019312D01*
X009358Y019311D02*
X007179Y019311D01*
X007181Y019310D02*
X009356Y019310D01*
X009354Y019309D02*
X007183Y019309D01*
X007184Y019308D02*
X009352Y019308D01*
X009350Y019307D02*
X007187Y019307D01*
X007189Y019306D02*
X009348Y019306D01*
X009346Y019305D02*
X007192Y019305D01*
X007194Y019304D02*
X009343Y019304D01*
X009340Y019303D02*
X007197Y019303D01*
X007200Y019302D02*
X009337Y019302D01*
X009332Y019301D02*
X007202Y019301D01*
X007206Y019300D02*
X009327Y019300D01*
X009323Y019300D02*
X007209Y019300D01*
X007215Y019299D02*
X009317Y019299D01*
X009312Y019298D02*
X007222Y019298D01*
X007154Y019353D02*
X009411Y019353D01*
X009411Y019354D02*
X007154Y019354D01*
X007154Y019355D02*
X009412Y019355D01*
X009413Y019356D02*
X007154Y019356D01*
X007155Y019357D02*
X009413Y019357D01*
X009414Y019358D02*
X007155Y019358D01*
X007155Y019359D02*
X009414Y019359D01*
X009415Y019360D02*
X007155Y019360D01*
X007156Y019361D02*
X009416Y019361D01*
X009416Y019362D02*
X007156Y019362D01*
X007156Y019363D02*
X009417Y019363D01*
X009418Y019364D02*
X007156Y019364D01*
X007156Y019365D02*
X009418Y019365D01*
X009419Y019366D02*
X007156Y019366D01*
X007157Y019367D02*
X009420Y019367D01*
X009420Y019368D02*
X007157Y019368D01*
X007157Y019369D02*
X009421Y019369D01*
X009422Y019369D02*
X007157Y019369D01*
X007158Y019370D02*
X009422Y019370D01*
X009423Y019371D02*
X007158Y019371D01*
X007158Y019372D02*
X009423Y019372D01*
X009424Y019373D02*
X007159Y019373D01*
X007159Y019374D02*
X009425Y019374D01*
X009425Y019375D02*
X007159Y019375D01*
X007160Y019376D02*
X009426Y019376D01*
X009426Y019377D02*
X007160Y019377D01*
X007160Y019378D02*
X009427Y019378D01*
X009427Y019379D02*
X007161Y019379D01*
X007161Y019380D02*
X009428Y019380D01*
X009428Y019381D02*
X007161Y019381D01*
X007162Y019382D02*
X009429Y019382D01*
X009430Y019383D02*
X007162Y019383D01*
X007162Y019384D02*
X009430Y019384D01*
X009431Y019385D02*
X007163Y019385D01*
X007163Y019386D02*
X009431Y019386D01*
X009432Y019386D02*
X007164Y019386D01*
X007164Y019387D02*
X009432Y019387D01*
X009433Y019388D02*
X007165Y019388D01*
X007166Y019389D02*
X009433Y019389D01*
X009434Y019390D02*
X007166Y019390D01*
X007167Y019391D02*
X009434Y019391D01*
X009435Y019392D02*
X007167Y019392D01*
X007168Y019393D02*
X009436Y019393D01*
X009436Y019394D02*
X007168Y019394D01*
X007168Y019395D02*
X009437Y019395D01*
X009437Y019396D02*
X007169Y019396D01*
X007169Y019397D02*
X009438Y019397D01*
X009438Y019398D02*
X007170Y019398D01*
X007170Y019399D02*
X009439Y019399D01*
X009439Y019400D02*
X007171Y019400D01*
X007171Y019401D02*
X009440Y019401D01*
X009441Y019402D02*
X007172Y019402D01*
X007172Y019403D02*
X009441Y019403D01*
X009442Y019403D02*
X007173Y019403D01*
X007173Y019404D02*
X009442Y019404D01*
X009443Y019405D02*
X007174Y019405D01*
X007175Y019406D02*
X009444Y019406D01*
X009444Y019407D02*
X007175Y019407D01*
X007176Y019408D02*
X009445Y019408D01*
X009445Y019409D02*
X007176Y019409D01*
X007177Y019410D02*
X009446Y019410D01*
X009446Y019411D02*
X007177Y019411D01*
X007178Y019412D02*
X009447Y019412D01*
X009448Y019413D02*
X007178Y019413D01*
X007179Y019414D02*
X009448Y019414D01*
X009449Y019415D02*
X007179Y019415D01*
X007180Y019416D02*
X009449Y019416D01*
X009450Y019417D02*
X007181Y019417D01*
X007181Y019418D02*
X009450Y019418D01*
X009451Y019419D02*
X007182Y019419D01*
X007182Y019420D02*
X009452Y019420D01*
X007183Y019420D01*
X007183Y019421D02*
X009453Y019421D01*
X009453Y019422D02*
X007184Y019422D01*
X007184Y019423D02*
X009454Y019423D01*
X009455Y019424D02*
X007185Y019424D01*
X007185Y019425D02*
X009455Y019425D01*
X009456Y019426D02*
X007186Y019426D01*
X007187Y019427D02*
X009456Y019427D01*
X009457Y019428D02*
X007187Y019428D01*
X007188Y019429D02*
X009457Y019429D01*
X009458Y019430D02*
X007188Y019430D01*
X007189Y019431D02*
X009459Y019431D01*
X009459Y019432D02*
X007189Y019432D01*
X007190Y019433D02*
X009460Y019433D01*
X009460Y019434D02*
X007190Y019434D01*
X007191Y019435D02*
X009460Y019435D01*
X009461Y019436D02*
X007191Y019436D01*
X007192Y019437D02*
X009461Y019437D01*
X007193Y019437D01*
X007193Y019438D02*
X009462Y019438D01*
X009462Y019439D02*
X007194Y019439D01*
X007194Y019440D02*
X009463Y019440D01*
X009463Y019441D02*
X007195Y019441D01*
X007195Y019442D02*
X009464Y019442D01*
X009464Y019443D02*
X007196Y019443D01*
X007196Y019444D02*
X009465Y019444D01*
X009465Y019445D02*
X007197Y019445D01*
X007197Y019446D02*
X009465Y019446D01*
X009466Y019447D02*
X007198Y019447D01*
X007199Y019448D02*
X009466Y019448D01*
X009467Y019449D02*
X007199Y019449D01*
X007200Y019450D02*
X009467Y019450D01*
X009467Y019451D02*
X007200Y019451D01*
X007201Y019452D02*
X009468Y019452D01*
X009468Y019453D02*
X007201Y019453D01*
X007202Y019454D02*
X009469Y019454D01*
X007202Y019454D01*
X007203Y019455D02*
X009469Y019455D01*
X009469Y019456D02*
X007204Y019456D01*
X007204Y019457D02*
X009469Y019457D01*
X009469Y019458D02*
X007205Y019458D01*
X007205Y019459D02*
X009470Y019459D01*
X009470Y019460D02*
X007206Y019460D01*
X007206Y019461D02*
X009470Y019461D01*
X009470Y019462D02*
X007207Y019462D01*
X007207Y019463D02*
X009470Y019463D01*
X009470Y019464D02*
X007208Y019464D01*
X007208Y019465D02*
X009470Y019465D01*
X009470Y019466D02*
X007209Y019466D01*
X007210Y019467D02*
X009470Y019467D01*
X009470Y019468D02*
X007210Y019468D01*
X007211Y019469D02*
X009470Y019469D01*
X009470Y019470D02*
X007211Y019470D01*
X007212Y019471D02*
X009470Y019471D01*
X007212Y019471D01*
X007213Y019472D02*
X009470Y019472D01*
X009470Y019473D02*
X007213Y019473D01*
X007214Y019474D02*
X009470Y019474D01*
X009470Y019475D02*
X007214Y019475D01*
X007215Y019476D02*
X009470Y019476D01*
X009470Y019477D02*
X007216Y019477D01*
X007216Y019478D02*
X009469Y019478D01*
X009469Y019479D02*
X007217Y019479D01*
X007217Y019480D02*
X009469Y019480D01*
X009468Y019481D02*
X007218Y019481D01*
X007218Y019482D02*
X009468Y019482D01*
X009468Y019483D02*
X007219Y019483D01*
X007219Y019484D02*
X009467Y019484D01*
X009467Y019485D02*
X007220Y019485D01*
X007220Y019486D02*
X009467Y019486D01*
X009467Y019487D02*
X007221Y019487D01*
X007222Y019488D02*
X009467Y019488D01*
X009467Y019489D02*
X007222Y019489D01*
X007223Y019489D02*
X009466Y019489D01*
X009466Y019490D02*
X007223Y019490D01*
X007224Y019491D02*
X009465Y019491D01*
X009465Y019492D02*
X007224Y019492D01*
X007225Y019493D02*
X009464Y019493D01*
X009464Y019494D02*
X007225Y019494D01*
X007226Y019495D02*
X009464Y019495D01*
X009463Y019496D02*
X007226Y019496D01*
X007227Y019497D02*
X009463Y019497D01*
X009462Y019498D02*
X007228Y019498D01*
X007228Y019499D02*
X009462Y019499D01*
X009461Y019500D02*
X007229Y019500D01*
X007229Y019501D02*
X009460Y019501D01*
X009460Y019502D02*
X007230Y019502D01*
X007230Y019503D02*
X009459Y019503D01*
X009459Y019504D02*
X007231Y019504D01*
X007231Y019505D02*
X009458Y019505D01*
X009458Y019506D02*
X007232Y019506D01*
X009458Y019506D01*
X009457Y019507D02*
X007233Y019507D01*
X007234Y019508D02*
X009456Y019508D01*
X009455Y019509D02*
X007234Y019509D01*
X007235Y019510D02*
X009454Y019510D01*
X009453Y019511D02*
X007235Y019511D01*
X007236Y019512D02*
X009452Y019512D01*
X009451Y019513D02*
X007236Y019513D01*
X007237Y019514D02*
X009451Y019514D01*
X009450Y019515D02*
X007237Y019515D01*
X007238Y019516D02*
X009449Y019516D01*
X009448Y019517D02*
X007239Y019517D01*
X007239Y019518D02*
X009447Y019518D01*
X009446Y019519D02*
X007240Y019519D01*
X007240Y019520D02*
X009445Y019520D01*
X009444Y019521D02*
X007241Y019521D01*
X007241Y019522D02*
X009442Y019522D01*
X009441Y019523D02*
X007242Y019523D01*
X009440Y019523D01*
X009439Y019524D02*
X007243Y019524D01*
X007243Y019525D02*
X009438Y019525D01*
X009436Y019526D02*
X007244Y019526D01*
X007244Y019527D02*
X009433Y019527D01*
X009431Y019528D02*
X007245Y019528D01*
X007246Y019529D02*
X009429Y019529D01*
X009426Y019530D02*
X007246Y019530D01*
X007247Y019531D02*
X009424Y019531D01*
X009419Y019532D02*
X007247Y019532D01*
X007248Y019533D02*
X009414Y019533D01*
X009409Y019534D02*
X009400Y019534D01*
X009300Y019297D02*
X008146Y019297D01*
X008098Y019534D02*
X007248Y019534D01*
X007249Y019535D02*
X008094Y019535D01*
X008092Y019536D02*
X007249Y019536D01*
X007250Y019537D02*
X008092Y019537D01*
X008091Y019538D02*
X007251Y019538D01*
X007251Y019539D02*
X008091Y019539D01*
X008090Y019540D02*
X007252Y019540D01*
X008090Y019540D01*
X008089Y019541D02*
X007253Y019541D01*
X007253Y019542D02*
X008089Y019542D01*
X008089Y019543D02*
X007254Y019543D01*
X007254Y019544D02*
X008089Y019544D01*
X008089Y019545D02*
X007255Y019545D01*
X007255Y019546D02*
X008089Y019546D01*
X008090Y019547D02*
X007256Y019547D01*
X007256Y019548D02*
X008090Y019548D01*
X008090Y019549D02*
X007257Y019549D01*
X007258Y019550D02*
X008090Y019550D01*
X008090Y019551D02*
X007258Y019551D01*
X007259Y019552D02*
X008091Y019552D01*
X008092Y019553D02*
X007259Y019553D01*
X007260Y019554D02*
X008092Y019554D01*
X008093Y019555D02*
X007260Y019555D01*
X007261Y019556D02*
X008094Y019556D01*
X008094Y019557D02*
X007261Y019557D01*
X007262Y019557D02*
X008095Y019557D01*
X008095Y019558D02*
X007262Y019558D01*
X007263Y019559D02*
X008096Y019559D01*
X008096Y019560D02*
X007264Y019560D01*
X007264Y019561D02*
X008097Y019561D01*
X008099Y019562D02*
X007265Y019562D01*
X007265Y019563D02*
X008100Y019563D01*
X008101Y019564D02*
X007266Y019564D01*
X007266Y019565D02*
X008102Y019565D01*
X008103Y019566D02*
X007267Y019566D01*
X007267Y019567D02*
X008103Y019567D01*
X008104Y019568D02*
X007268Y019568D01*
X007269Y019569D02*
X008106Y019569D01*
X008107Y019570D02*
X007269Y019570D01*
X007270Y019571D02*
X008108Y019571D01*
X008110Y019572D02*
X007270Y019572D01*
X007271Y019573D02*
X008112Y019573D01*
X008114Y019574D02*
X007271Y019574D01*
X007272Y019574D02*
X008116Y019574D01*
X008117Y019575D02*
X007272Y019575D01*
X007273Y019576D02*
X008119Y019576D01*
X008121Y019577D02*
X007273Y019577D01*
X007274Y019578D02*
X008124Y019578D01*
X008127Y019579D02*
X007275Y019579D01*
X007275Y019580D02*
X008130Y019580D01*
X008133Y019581D02*
X007276Y019581D01*
X007277Y019582D02*
X008136Y019582D01*
X008139Y019583D02*
X007277Y019583D01*
X007278Y019584D02*
X008143Y019584D01*
X008146Y019585D02*
X007279Y019585D01*
X007279Y019586D02*
X008150Y019586D01*
X008153Y019587D02*
X007280Y019587D01*
X007281Y019588D02*
X008157Y019588D01*
X008161Y019589D02*
X007281Y019589D01*
X007282Y019590D02*
X008165Y019590D01*
X008169Y019591D02*
X007283Y019591D01*
X008173Y019591D01*
X008177Y019592D02*
X007284Y019592D01*
X007285Y019593D02*
X008181Y019593D01*
X008184Y019594D02*
X007285Y019594D01*
X007286Y019595D02*
X008187Y019595D01*
X008190Y019596D02*
X007287Y019596D01*
X007287Y019597D02*
X008193Y019597D01*
X008196Y019598D02*
X007288Y019598D01*
X007289Y019599D02*
X008200Y019599D01*
X008203Y019600D02*
X007289Y019600D01*
X007290Y019601D02*
X008206Y019601D01*
X008209Y019602D02*
X007291Y019602D01*
X007291Y019603D02*
X008212Y019603D01*
X008215Y019604D02*
X007292Y019604D01*
X007293Y019605D02*
X008219Y019605D01*
X008222Y019606D02*
X007293Y019606D01*
X007294Y019607D02*
X008226Y019607D01*
X008229Y019608D02*
X007295Y019608D01*
X007295Y019609D02*
X008233Y019609D01*
X008237Y019609D02*
X007296Y019609D01*
X007297Y019610D02*
X008240Y019610D01*
X008244Y019611D02*
X007297Y019611D01*
X007298Y019612D02*
X008247Y019612D01*
X008251Y019613D02*
X007299Y019613D01*
X007299Y019614D02*
X008255Y019614D01*
X008258Y019615D02*
X007300Y019615D01*
X007301Y019616D02*
X008262Y019616D01*
X008266Y019617D02*
X007302Y019617D01*
X007303Y019618D02*
X008269Y019618D01*
X008273Y019619D02*
X007304Y019619D01*
X007305Y019620D02*
X008276Y019620D01*
X008280Y019621D02*
X007306Y019621D01*
X007307Y019622D02*
X008284Y019622D01*
X008287Y019623D02*
X007308Y019623D01*
X007308Y019624D02*
X008291Y019624D01*
X008295Y019625D02*
X007309Y019625D01*
X007310Y019626D02*
X008298Y019626D01*
X008302Y019626D02*
X007311Y019626D01*
X007312Y019627D02*
X008306Y019627D01*
X008310Y019628D02*
X007313Y019628D01*
X007314Y019629D02*
X008314Y019629D01*
X008318Y019630D02*
X007316Y019630D01*
X007317Y019631D02*
X008322Y019631D01*
X008326Y019632D02*
X007318Y019632D01*
X007319Y019633D02*
X008330Y019633D01*
X008334Y019634D02*
X007320Y019634D01*
X007322Y019635D02*
X008338Y019635D01*
X008341Y019636D02*
X007323Y019636D01*
X007324Y019637D02*
X008345Y019637D01*
X008348Y019638D02*
X007325Y019638D01*
X007326Y019639D02*
X008351Y019639D01*
X008355Y019640D02*
X007328Y019640D01*
X007329Y019641D02*
X008358Y019641D01*
X008361Y019642D02*
X007330Y019642D01*
X007332Y019643D02*
X008365Y019643D01*
X008368Y019643D02*
X007333Y019643D01*
X007335Y019644D02*
X008371Y019644D01*
X008375Y019645D02*
X007337Y019645D01*
X007338Y019646D02*
X008379Y019646D01*
X008383Y019647D02*
X007340Y019647D01*
X007341Y019648D02*
X008387Y019648D01*
X008392Y019649D02*
X007343Y019649D01*
X007344Y019650D02*
X008396Y019650D01*
X008400Y019651D02*
X007346Y019651D01*
X007348Y019652D02*
X008404Y019652D01*
X008409Y019653D02*
X007350Y019653D01*
X007351Y019654D02*
X008413Y019654D01*
X008417Y019655D02*
X007353Y019655D01*
X007355Y019656D02*
X008422Y019656D01*
X008426Y019657D02*
X007357Y019657D01*
X007359Y019658D02*
X008430Y019658D01*
X008434Y019659D02*
X007361Y019659D01*
X007362Y019660D02*
X008439Y019660D01*
X008443Y019660D02*
X007364Y019660D01*
X007366Y019661D02*
X008447Y019661D01*
X008451Y019662D02*
X007368Y019662D01*
X007370Y019663D02*
X008455Y019663D01*
X008459Y019664D02*
X007372Y019664D01*
X007374Y019665D02*
X008463Y019665D01*
X008467Y019666D02*
X007376Y019666D01*
X007378Y019667D02*
X008470Y019667D01*
X008474Y019668D02*
X007381Y019668D01*
X007384Y019669D02*
X008478Y019669D01*
X008482Y019670D02*
X007387Y019670D01*
X007389Y019671D02*
X008486Y019671D01*
X008490Y019672D02*
X007391Y019672D01*
X007393Y019673D02*
X008494Y019673D01*
X008498Y019674D02*
X007395Y019674D01*
X007397Y019675D02*
X008501Y019675D01*
X008505Y019676D02*
X007400Y019676D01*
X007403Y019677D02*
X008509Y019677D01*
X008513Y019677D02*
X007406Y019677D01*
X007409Y019678D02*
X008518Y019678D01*
X008522Y019679D02*
X007412Y019679D01*
X007415Y019680D02*
X008526Y019680D01*
X008531Y019681D02*
X007418Y019681D01*
X007421Y019682D02*
X008535Y019682D01*
X008540Y019683D02*
X007424Y019683D01*
X007427Y019684D02*
X008544Y019684D01*
X008548Y019685D02*
X007430Y019685D01*
X007433Y019686D02*
X008553Y019686D01*
X008557Y019687D02*
X007436Y019687D01*
X007439Y019688D02*
X008561Y019688D01*
X008565Y019689D02*
X007443Y019689D01*
X007447Y019690D02*
X008569Y019690D01*
X008573Y019691D02*
X007450Y019691D01*
X007454Y019692D02*
X008577Y019692D01*
X008581Y019693D02*
X007457Y019693D01*
X007461Y019694D02*
X008585Y019694D01*
X008589Y019694D02*
X007465Y019694D01*
X007468Y019695D02*
X008593Y019695D01*
X008597Y019696D02*
X007472Y019696D01*
X007476Y019697D02*
X008601Y019697D01*
X008605Y019698D02*
X007480Y019698D01*
X007484Y019699D02*
X008609Y019699D01*
X008613Y019700D02*
X007488Y019700D01*
X007492Y019701D02*
X008617Y019701D01*
X008621Y019702D02*
X007496Y019702D01*
X007500Y019703D02*
X008625Y019703D01*
X008628Y019704D02*
X007504Y019704D01*
X007508Y019705D02*
X008632Y019705D01*
X008635Y019706D02*
X007512Y019706D01*
X007516Y019707D02*
X008639Y019707D01*
X008642Y019708D02*
X007520Y019708D01*
X007524Y019709D02*
X008646Y019709D01*
X008650Y019710D02*
X007528Y019710D01*
X007531Y019711D02*
X008653Y019711D01*
X008657Y019711D02*
X007535Y019711D01*
X007539Y019712D02*
X008660Y019712D01*
X008664Y019713D02*
X007543Y019713D01*
X007547Y019714D02*
X008668Y019714D01*
X008671Y019715D02*
X007551Y019715D01*
X007555Y019716D02*
X008675Y019716D01*
X008679Y019717D02*
X007558Y019717D01*
X007562Y019718D02*
X008683Y019718D01*
X008687Y019719D02*
X007566Y019719D01*
X007570Y019720D02*
X008691Y019720D01*
X008694Y019721D02*
X007574Y019721D01*
X007578Y019722D02*
X008698Y019722D01*
X008702Y019723D02*
X007582Y019723D01*
X007586Y019724D02*
X008706Y019724D01*
X008710Y019725D02*
X007590Y019725D01*
X007594Y019726D02*
X008713Y019726D01*
X008717Y019727D02*
X007598Y019727D01*
X007602Y019728D02*
X008721Y019728D01*
X008725Y019729D02*
X007606Y019729D01*
X007611Y019729D02*
X008729Y019729D01*
X008732Y019730D02*
X007615Y019730D01*
X007619Y019731D02*
X008736Y019731D01*
X008740Y019732D02*
X007623Y019732D01*
X007627Y019733D02*
X008744Y019733D01*
X008747Y019734D02*
X007631Y019734D01*
X007635Y019735D02*
X008751Y019735D01*
X008755Y019736D02*
X007639Y019736D01*
X007644Y019737D02*
X008758Y019737D01*
X008762Y019738D02*
X007648Y019738D01*
X007652Y019739D02*
X008765Y019739D01*
X008769Y019740D02*
X007656Y019740D01*
X007660Y019741D02*
X008773Y019741D01*
X008776Y019742D02*
X007664Y019742D01*
X007668Y019743D02*
X008780Y019743D01*
X008784Y019744D02*
X007672Y019744D01*
X007676Y019745D02*
X008787Y019745D01*
X008791Y019746D02*
X007681Y019746D01*
X007685Y019746D02*
X008794Y019746D01*
X008798Y019747D02*
X007689Y019747D01*
X007693Y019748D02*
X008802Y019748D01*
X008805Y019749D02*
X007697Y019749D01*
X007701Y019750D02*
X008809Y019750D01*
X008813Y019751D02*
X007705Y019751D01*
X007709Y019752D02*
X008817Y019752D01*
X008820Y019753D02*
X007713Y019753D01*
X007717Y019754D02*
X008824Y019754D01*
X008828Y019755D02*
X007720Y019755D01*
X007724Y019756D02*
X008831Y019756D01*
X008835Y019757D02*
X007728Y019757D01*
X007732Y019758D02*
X008839Y019758D01*
X008843Y019759D02*
X007736Y019759D01*
X007740Y019760D02*
X008846Y019760D01*
X008850Y019761D02*
X007744Y019761D01*
X007748Y019762D02*
X008854Y019762D01*
X008857Y019763D02*
X007752Y019763D01*
X007756Y019763D02*
X008861Y019763D01*
X008865Y019764D02*
X007760Y019764D01*
X007764Y019765D02*
X008869Y019765D01*
X008872Y019766D02*
X007768Y019766D01*
X007772Y019767D02*
X008875Y019767D01*
X008879Y019768D02*
X007776Y019768D01*
X007779Y019769D02*
X008882Y019769D01*
X008886Y019770D02*
X007783Y019770D01*
X007787Y019771D02*
X008889Y019771D01*
X008893Y019772D02*
X007791Y019772D01*
X007795Y019773D02*
X008896Y019773D01*
X008900Y019774D02*
X007799Y019774D01*
X007803Y019775D02*
X008903Y019775D01*
X008906Y019776D02*
X007807Y019776D01*
X007811Y019777D02*
X008910Y019777D01*
X008913Y019778D02*
X007815Y019778D01*
X007819Y019779D02*
X008917Y019779D01*
X008920Y019780D02*
X007823Y019780D01*
X007827Y019780D02*
X008924Y019780D01*
X008927Y019781D02*
X007831Y019781D01*
X007834Y019782D02*
X008931Y019782D01*
X008934Y019783D02*
X007838Y019783D01*
X007842Y019784D02*
X008938Y019784D01*
X008941Y019785D02*
X007846Y019785D01*
X007850Y019786D02*
X008944Y019786D01*
X008947Y019787D02*
X007854Y019787D01*
X007858Y019788D02*
X008951Y019788D01*
X008954Y019789D02*
X007862Y019789D01*
X007866Y019790D02*
X008957Y019790D01*
X008960Y019791D02*
X007870Y019791D01*
X007874Y019792D02*
X008963Y019792D01*
X008966Y019793D02*
X007878Y019793D01*
X007882Y019794D02*
X008969Y019794D01*
X008973Y019795D02*
X007885Y019795D01*
X007889Y019796D02*
X008976Y019796D01*
X008979Y019797D02*
X007893Y019797D01*
X007897Y019797D02*
X008982Y019797D01*
X008985Y019798D02*
X007900Y019798D01*
X007904Y019799D02*
X008988Y019799D01*
X008991Y019800D02*
X007908Y019800D01*
X007912Y019801D02*
X008995Y019801D01*
X008998Y019802D02*
X007915Y019802D01*
X007919Y019803D02*
X009001Y019803D01*
X009004Y019804D02*
X007923Y019804D01*
X007927Y019805D02*
X009007Y019805D01*
X009010Y019806D02*
X007930Y019806D01*
X007934Y019807D02*
X009013Y019807D01*
X009017Y019808D02*
X007938Y019808D01*
X007942Y019809D02*
X009020Y019809D01*
X009024Y019810D02*
X007945Y019810D01*
X007949Y019811D02*
X009027Y019811D01*
X009031Y019812D02*
X007953Y019812D01*
X007956Y019813D02*
X009034Y019813D01*
X009038Y019814D02*
X007960Y019814D01*
X007964Y019814D02*
X009042Y019814D01*
X009045Y019815D02*
X007968Y019815D01*
X007971Y019816D02*
X009049Y019816D01*
X009052Y019817D02*
X007975Y019817D01*
X007979Y019818D02*
X009056Y019818D01*
X009059Y019819D02*
X007983Y019819D01*
X007986Y019820D02*
X009063Y019820D01*
X009066Y019821D02*
X007990Y019821D01*
X007994Y019822D02*
X009070Y019822D01*
X009073Y019823D02*
X007998Y019823D01*
X008001Y019824D02*
X009076Y019824D01*
X009079Y019825D02*
X008005Y019825D01*
X008009Y019826D02*
X009082Y019826D01*
X009085Y019827D02*
X008013Y019827D01*
X008016Y019828D02*
X009088Y019828D01*
X009091Y019829D02*
X008020Y019829D01*
X008024Y019830D02*
X009094Y019830D01*
X009098Y019831D02*
X008028Y019831D01*
X008031Y019831D02*
X009101Y019831D01*
X009104Y019832D02*
X008035Y019832D01*
X008039Y019833D02*
X009107Y019833D01*
X009110Y019834D02*
X008043Y019834D01*
X008046Y019835D02*
X009113Y019835D01*
X009116Y019836D02*
X008050Y019836D01*
X008054Y019837D02*
X009119Y019837D01*
X009122Y019838D02*
X008058Y019838D01*
X008061Y019839D02*
X009125Y019839D01*
X009128Y019840D02*
X008065Y019840D01*
X008069Y019841D02*
X009131Y019841D01*
X009134Y019842D02*
X008072Y019842D01*
X008076Y019843D02*
X009137Y019843D01*
X009140Y019844D02*
X008080Y019844D01*
X008084Y019845D02*
X009143Y019845D01*
X009146Y019846D02*
X008087Y019846D01*
X008091Y019847D02*
X009149Y019847D01*
X009152Y019848D02*
X008095Y019848D01*
X008099Y019849D02*
X009155Y019849D01*
X009158Y019849D02*
X008102Y019849D01*
X008106Y019850D02*
X009161Y019850D01*
X009164Y019851D02*
X008110Y019851D01*
X008114Y019852D02*
X009166Y019852D01*
X009169Y019853D02*
X008117Y019853D01*
X008121Y019854D02*
X009172Y019854D01*
X009174Y019855D02*
X008125Y019855D01*
X008129Y019856D02*
X009177Y019856D01*
X009180Y019857D02*
X008132Y019857D01*
X008136Y019858D02*
X009183Y019858D01*
X009185Y019859D02*
X008140Y019859D01*
X008144Y019860D02*
X009188Y019860D01*
X009191Y019861D02*
X008147Y019861D01*
X008151Y019862D02*
X009193Y019862D01*
X009196Y019863D02*
X008155Y019863D01*
X008159Y019864D02*
X009199Y019864D01*
X009201Y019865D02*
X008162Y019865D01*
X008166Y019866D02*
X009204Y019866D01*
X009207Y019866D02*
X008170Y019866D01*
X008174Y019867D02*
X009210Y019867D01*
X009212Y019868D02*
X008177Y019868D01*
X008181Y019869D02*
X009215Y019869D01*
X009218Y019870D02*
X008184Y019870D01*
X008188Y019871D02*
X009220Y019871D01*
X009223Y019872D02*
X008191Y019872D01*
X008195Y019873D02*
X009226Y019873D01*
X009228Y019874D02*
X008199Y019874D01*
X008202Y019875D02*
X009231Y019875D01*
X009234Y019876D02*
X008206Y019876D01*
X008209Y019877D02*
X009236Y019877D01*
X009239Y019878D02*
X008213Y019878D01*
X008216Y019879D02*
X009242Y019879D01*
X009245Y019880D02*
X008220Y019880D01*
X008223Y019881D02*
X009247Y019881D01*
X009250Y019882D02*
X008227Y019882D01*
X008230Y019883D02*
X009253Y019883D01*
X009255Y019883D02*
X008234Y019883D01*
X008237Y019884D02*
X009258Y019884D01*
X009261Y019885D02*
X008241Y019885D01*
X008245Y019886D02*
X009263Y019886D01*
X009266Y019887D02*
X008248Y019887D01*
X008252Y019888D02*
X009269Y019888D01*
X009271Y019889D02*
X008255Y019889D01*
X008259Y019890D02*
X009274Y019890D01*
X009277Y019891D02*
X008262Y019891D01*
X008266Y019892D02*
X009279Y019892D01*
X009282Y019893D02*
X008269Y019893D01*
X008273Y019894D02*
X009284Y019894D01*
X009287Y019895D02*
X008276Y019895D01*
X008280Y019896D02*
X009290Y019896D01*
X009292Y019897D02*
X008283Y019897D01*
X008287Y019898D02*
X009295Y019898D01*
X009297Y019899D02*
X008291Y019899D01*
X008294Y019900D02*
X009300Y019900D01*
X009303Y019900D02*
X008298Y019900D01*
X008301Y019901D02*
X009305Y019901D01*
X009308Y019902D02*
X008305Y019902D01*
X008308Y019903D02*
X009311Y019903D01*
X009313Y019904D02*
X008312Y019904D01*
X008315Y019905D02*
X009316Y019905D01*
X009318Y019906D02*
X008319Y019906D01*
X008322Y019907D02*
X009321Y019907D01*
X009324Y019908D02*
X008326Y019908D01*
X008329Y019909D02*
X009326Y019909D01*
X009329Y019910D02*
X008333Y019910D01*
X008337Y019911D02*
X009331Y019911D01*
X009334Y019912D02*
X008340Y019912D01*
X008344Y019913D02*
X009337Y019913D01*
X009339Y019914D02*
X008347Y019914D01*
X008351Y019915D02*
X009342Y019915D01*
X009344Y019916D02*
X008354Y019916D01*
X008358Y019917D02*
X009347Y019917D01*
X009349Y019917D02*
X008361Y019917D01*
X008365Y019918D02*
X009351Y019918D01*
X009354Y019919D02*
X008368Y019919D01*
X008372Y019920D02*
X009356Y019920D01*
X009358Y019921D02*
X008375Y019921D01*
X008379Y019922D02*
X009360Y019922D01*
X009363Y019923D02*
X008383Y019923D01*
X008386Y019924D02*
X009365Y019924D01*
X009367Y019925D02*
X008390Y019925D01*
X008393Y019926D02*
X009369Y019926D01*
X009372Y019927D02*
X008396Y019927D01*
X008400Y019928D02*
X009374Y019928D01*
X009376Y019929D02*
X008403Y019929D01*
X008406Y019930D02*
X009379Y019930D01*
X009381Y019931D02*
X008410Y019931D01*
X008413Y019932D02*
X009383Y019932D01*
X009385Y019933D02*
X008416Y019933D01*
X008420Y019934D02*
X009388Y019934D01*
X009390Y019934D02*
X008423Y019934D01*
X008426Y019935D02*
X009392Y019935D01*
X009395Y019936D02*
X008430Y019936D01*
X008433Y019937D02*
X009397Y019937D01*
X009399Y019938D02*
X008436Y019938D01*
X008439Y019939D02*
X009401Y019939D01*
X009404Y019940D02*
X008443Y019940D01*
X008446Y019941D02*
X009406Y019941D01*
X009408Y019942D02*
X008449Y019942D01*
X008453Y019943D02*
X009410Y019943D01*
X009412Y019944D02*
X008456Y019944D01*
X008459Y019945D02*
X009414Y019945D01*
X009416Y019946D02*
X008463Y019946D01*
X008466Y019947D02*
X009418Y019947D01*
X009420Y019948D02*
X008469Y019948D01*
X008472Y019949D02*
X009422Y019949D01*
X009424Y019950D02*
X008476Y019950D01*
X008479Y019951D02*
X009426Y019951D01*
X009428Y019951D02*
X008482Y019951D01*
X008486Y019952D02*
X009430Y019952D01*
X009432Y019953D02*
X008489Y019953D01*
X008492Y019954D02*
X009434Y019954D01*
X009436Y019955D02*
X008496Y019955D01*
X008499Y019956D02*
X009438Y019956D01*
X009441Y019957D02*
X008502Y019957D01*
X008506Y019958D02*
X009443Y019958D01*
X009445Y019959D02*
X008509Y019959D01*
X008512Y019960D02*
X009447Y019960D01*
X009449Y019961D02*
X008515Y019961D01*
X008519Y019962D02*
X009451Y019962D01*
X009453Y019963D02*
X008522Y019963D01*
X008525Y019964D02*
X009455Y019964D01*
X009457Y019965D02*
X008529Y019965D01*
X008532Y019966D02*
X009459Y019966D01*
X009461Y019967D02*
X008535Y019967D01*
X008539Y019968D02*
X009463Y019968D01*
X009465Y019969D02*
X008542Y019969D01*
X008545Y019969D02*
X009467Y019969D01*
X009469Y019970D02*
X008548Y019970D01*
X008552Y019971D02*
X009471Y019971D01*
X009473Y019972D02*
X008555Y019972D01*
X008558Y019973D02*
X009475Y019973D01*
X009477Y019974D02*
X008562Y019974D01*
X008565Y019975D02*
X009479Y019975D01*
X009481Y019976D02*
X008568Y019976D01*
X008572Y019977D02*
X009483Y019977D01*
X009485Y019978D02*
X008575Y019978D01*
X008578Y019979D02*
X009487Y019979D01*
X009489Y019980D02*
X008581Y019980D01*
X008585Y019981D02*
X009491Y019981D01*
X009493Y019982D02*
X008588Y019982D01*
X008591Y019983D02*
X009495Y019983D01*
X009497Y019984D02*
X008595Y019984D01*
X008598Y019985D02*
X009499Y019985D01*
X009501Y019986D02*
X008601Y019986D01*
X008605Y019986D02*
X009503Y019986D01*
X009505Y019987D02*
X008608Y019987D01*
X008611Y019988D02*
X009507Y019988D01*
X009509Y019989D02*
X008614Y019989D01*
X008618Y019990D02*
X009511Y019990D01*
X009513Y019991D02*
X008621Y019991D01*
X008624Y019992D02*
X009515Y019992D01*
X009516Y019993D02*
X008628Y019993D01*
X008631Y019994D02*
X009518Y019994D01*
X009519Y019995D02*
X008634Y019995D01*
X008636Y019996D02*
X009521Y019996D01*
X009523Y019997D02*
X008639Y019997D01*
X008642Y019998D02*
X009524Y019998D01*
X009526Y019999D02*
X008645Y019999D01*
X008648Y020000D02*
X009527Y020000D01*
X009529Y020001D02*
X008651Y020001D01*
X008653Y020002D02*
X009530Y020002D01*
X009532Y020003D02*
X008656Y020003D01*
X008659Y020003D02*
X009534Y020003D01*
X009535Y020004D02*
X008662Y020004D01*
X008665Y020005D02*
X009537Y020005D01*
X009538Y020006D02*
X008667Y020006D01*
X008670Y020007D02*
X009540Y020007D01*
X009542Y020008D02*
X008673Y020008D01*
X008676Y020009D02*
X009543Y020009D01*
X009545Y020010D02*
X008679Y020010D01*
X008682Y020011D02*
X009546Y020011D01*
X009548Y020012D02*
X008684Y020012D01*
X008687Y020013D02*
X009550Y020013D01*
X009551Y020014D02*
X008690Y020014D01*
X008693Y020015D02*
X009553Y020015D01*
X009555Y020016D02*
X008696Y020016D01*
X008699Y020017D02*
X009556Y020017D01*
X009558Y020018D02*
X008701Y020018D01*
X008704Y020019D02*
X009559Y020019D01*
X009561Y020020D02*
X008707Y020020D01*
X008710Y020020D02*
X009563Y020020D01*
X009564Y020021D02*
X008713Y020021D01*
X008715Y020022D02*
X009566Y020022D01*
X009567Y020023D02*
X008718Y020023D01*
X008721Y020024D02*
X009569Y020024D01*
X009571Y020025D02*
X008724Y020025D01*
X008727Y020026D02*
X009572Y020026D01*
X009573Y020027D02*
X008730Y020027D01*
X008732Y020028D02*
X009574Y020028D01*
X009575Y020029D02*
X008735Y020029D01*
X008738Y020030D02*
X009577Y020030D01*
X009578Y020031D02*
X008741Y020031D01*
X008744Y020032D02*
X009579Y020032D01*
X009580Y020033D02*
X008747Y020033D01*
X008749Y020034D02*
X009581Y020034D01*
X009583Y020035D02*
X008752Y020035D01*
X008755Y020036D02*
X009584Y020036D01*
X009585Y020037D02*
X008758Y020037D01*
X008761Y020037D02*
X009586Y020037D01*
X009588Y020038D02*
X008764Y020038D01*
X008766Y020039D02*
X009589Y020039D01*
X009590Y020040D02*
X008769Y020040D01*
X008772Y020041D02*
X009591Y020041D01*
X009592Y020042D02*
X008775Y020042D01*
X008778Y020043D02*
X009594Y020043D01*
X009595Y020044D02*
X008780Y020044D01*
X008783Y020045D02*
X009596Y020045D01*
X009597Y020046D02*
X008786Y020046D01*
X008789Y020047D02*
X009598Y020047D01*
X009600Y020048D02*
X008792Y020048D01*
X008795Y020049D02*
X009601Y020049D01*
X009602Y020050D02*
X008797Y020050D01*
X008800Y020051D02*
X009603Y020051D01*
X009605Y020052D02*
X008802Y020052D01*
X008804Y020053D02*
X009606Y020053D01*
X009607Y020054D02*
X008806Y020054D01*
X008809Y020054D02*
X009608Y020054D01*
X009609Y020055D02*
X008811Y020055D01*
X008813Y020056D02*
X009611Y020056D01*
X009612Y020057D02*
X008816Y020057D01*
X008818Y020058D02*
X009613Y020058D01*
X009614Y020059D02*
X008820Y020059D01*
X008822Y020060D02*
X009615Y020060D01*
X009617Y020061D02*
X008825Y020061D01*
X008827Y020062D02*
X009618Y020062D01*
X009619Y020063D02*
X008829Y020063D01*
X008832Y020064D02*
X009620Y020064D01*
X009621Y020065D02*
X008834Y020065D01*
X008836Y020066D02*
X009622Y020066D01*
X009623Y020067D02*
X008838Y020067D01*
X008841Y020068D02*
X009624Y020068D01*
X009626Y020069D02*
X008843Y020069D01*
X008845Y020070D02*
X009627Y020070D01*
X009628Y020071D02*
X008847Y020071D01*
X008850Y020071D02*
X009629Y020071D01*
X009630Y020072D02*
X008852Y020072D01*
X008854Y020073D02*
X009631Y020073D01*
X009632Y020074D02*
X008857Y020074D01*
X008859Y020075D02*
X009633Y020075D01*
X009635Y020076D02*
X008861Y020076D01*
X008863Y020077D02*
X009636Y020077D01*
X009637Y020078D02*
X008866Y020078D01*
X008868Y020079D02*
X009638Y020079D01*
X009639Y020080D02*
X008870Y020080D01*
X008873Y020081D02*
X009640Y020081D01*
X009641Y020082D02*
X008875Y020082D01*
X008877Y020083D02*
X009642Y020083D01*
X009643Y020084D02*
X008879Y020084D01*
X008882Y020085D02*
X009644Y020085D01*
X009645Y020086D02*
X008884Y020086D01*
X008886Y020087D02*
X009646Y020087D01*
X009647Y020088D02*
X008889Y020088D01*
X008891Y020089D02*
X009648Y020089D01*
X009649Y020089D02*
X008893Y020089D01*
X008895Y020090D02*
X009650Y020090D01*
X009651Y020091D02*
X008898Y020091D01*
X008900Y020092D02*
X009651Y020092D01*
X009652Y020093D02*
X008902Y020093D01*
X008904Y020094D02*
X009653Y020094D01*
X009654Y020095D02*
X008907Y020095D01*
X008909Y020096D02*
X009655Y020096D01*
X009656Y020097D02*
X008911Y020097D01*
X008914Y020098D02*
X009657Y020098D01*
X009658Y020099D02*
X008916Y020099D01*
X008918Y020100D02*
X009659Y020100D01*
X009660Y020101D02*
X008920Y020101D01*
X008923Y020102D02*
X009661Y020102D01*
X009662Y020103D02*
X008925Y020103D01*
X008927Y020104D02*
X009663Y020104D01*
X009664Y020105D02*
X008929Y020105D01*
X008932Y020106D02*
X009664Y020106D01*
X009665Y020106D02*
X008934Y020106D01*
X008936Y020107D02*
X009666Y020107D01*
X009667Y020108D02*
X008938Y020108D01*
X008940Y020109D02*
X009668Y020109D01*
X009669Y020110D02*
X008941Y020110D01*
X008943Y020111D02*
X009670Y020111D01*
X009671Y020112D02*
X008945Y020112D01*
X008947Y020113D02*
X009672Y020113D01*
X009673Y020114D02*
X008948Y020114D01*
X008950Y020115D02*
X009674Y020115D01*
X009674Y020116D02*
X008952Y020116D01*
X008954Y020117D02*
X009675Y020117D01*
X009676Y020118D02*
X008955Y020118D01*
X008957Y020119D02*
X009677Y020119D01*
X009677Y020120D02*
X008959Y020120D01*
X008961Y020121D02*
X009678Y020121D01*
X009679Y020122D02*
X008962Y020122D01*
X008964Y020123D02*
X009680Y020123D01*
X008966Y020123D01*
X008968Y020124D02*
X009681Y020124D01*
X009682Y020125D02*
X008969Y020125D01*
X008971Y020126D02*
X009683Y020126D01*
X009684Y020127D02*
X008973Y020127D01*
X008975Y020128D02*
X009684Y020128D01*
X009685Y020129D02*
X008976Y020129D01*
X008978Y020130D02*
X009686Y020130D01*
X009687Y020131D02*
X008980Y020131D01*
X008982Y020132D02*
X009687Y020132D01*
X009688Y020133D02*
X008983Y020133D01*
X008985Y020134D02*
X009689Y020134D01*
X009690Y020135D02*
X008987Y020135D01*
X008988Y020136D02*
X009690Y020136D01*
X009691Y020137D02*
X008990Y020137D01*
X008991Y020138D02*
X009692Y020138D01*
X009693Y020139D02*
X008993Y020139D01*
X008994Y020140D02*
X009693Y020140D01*
X009694Y020140D02*
X008995Y020140D01*
X008997Y020141D02*
X009695Y020141D01*
X009695Y020142D02*
X008998Y020142D01*
X009000Y020143D02*
X009696Y020143D01*
X009697Y020144D02*
X009001Y020144D01*
X009002Y020145D02*
X009697Y020145D01*
X009698Y020146D02*
X009004Y020146D01*
X009005Y020147D02*
X009699Y020147D01*
X009699Y020148D02*
X009007Y020148D01*
X009008Y020149D02*
X009700Y020149D01*
X009701Y020150D02*
X009009Y020150D01*
X009011Y020151D02*
X009701Y020151D01*
X009702Y020152D02*
X009012Y020152D01*
X009013Y020153D02*
X009702Y020153D01*
X009703Y020154D02*
X009014Y020154D01*
X009016Y020155D02*
X009704Y020155D01*
X009704Y020156D02*
X009017Y020156D01*
X009018Y020157D02*
X009705Y020157D01*
X009706Y020157D02*
X009019Y020157D01*
X009020Y020158D02*
X009706Y020158D01*
X009707Y020159D02*
X009022Y020159D01*
X009023Y020160D02*
X009708Y020160D01*
X009708Y020161D02*
X009024Y020161D01*
X009025Y020162D02*
X009709Y020162D01*
X009709Y020163D02*
X009026Y020163D01*
X009027Y020164D02*
X009710Y020164D01*
X009710Y020165D02*
X009028Y020165D01*
X009029Y020166D02*
X009711Y020166D01*
X009711Y020167D02*
X009030Y020167D01*
X009031Y020168D02*
X009712Y020168D01*
X009712Y020169D02*
X009031Y020169D01*
X009032Y020170D02*
X009713Y020170D01*
X009713Y020171D02*
X009033Y020171D01*
X009034Y020172D02*
X009714Y020172D01*
X009715Y020173D02*
X009035Y020173D01*
X009036Y020174D02*
X009715Y020174D01*
X009716Y020174D02*
X009036Y020174D01*
X009037Y020175D02*
X009716Y020175D01*
X009717Y020176D02*
X009038Y020176D01*
X009039Y020177D02*
X009717Y020177D01*
X009717Y020178D02*
X009040Y020178D01*
X009040Y020179D02*
X009718Y020179D01*
X009718Y020180D02*
X009041Y020180D01*
X009042Y020181D02*
X009719Y020181D01*
X009719Y020182D02*
X009043Y020182D01*
X009043Y020183D02*
X009720Y020183D01*
X009720Y020184D02*
X009044Y020184D01*
X009045Y020185D02*
X009720Y020185D01*
X009721Y020186D02*
X009046Y020186D01*
X009046Y020187D02*
X009721Y020187D01*
X009722Y020188D02*
X009047Y020188D01*
X009048Y020189D02*
X009722Y020189D01*
X009722Y020190D02*
X009048Y020190D01*
X009049Y020191D02*
X009723Y020191D01*
X009049Y020191D01*
X009050Y020192D02*
X009724Y020192D01*
X009724Y020193D02*
X009050Y020193D01*
X009051Y020194D02*
X009725Y020194D01*
X009725Y020195D02*
X009051Y020195D01*
X009052Y020196D02*
X009725Y020196D01*
X009726Y020197D02*
X009052Y020197D01*
X009053Y020198D02*
X009726Y020198D01*
X009727Y020199D02*
X009053Y020199D01*
X009053Y020200D02*
X009727Y020200D01*
X009728Y020201D02*
X009054Y020201D01*
X009054Y020202D02*
X009728Y020202D01*
X009728Y020203D02*
X009055Y020203D01*
X009055Y020204D02*
X009729Y020204D01*
X009729Y020205D02*
X009055Y020205D01*
X009056Y020206D02*
X009730Y020206D01*
X009730Y020207D02*
X009056Y020207D01*
X009056Y020208D02*
X009731Y020208D01*
X009731Y020209D02*
X009056Y020209D01*
X009057Y020209D02*
X009731Y020209D01*
X009732Y020210D02*
X009057Y020210D01*
X009057Y020211D02*
X009732Y020211D01*
X009732Y020212D02*
X009057Y020212D01*
X009057Y020213D02*
X009733Y020213D01*
X009733Y020214D02*
X009057Y020214D01*
X009057Y020215D02*
X009733Y020215D01*
X009733Y020216D02*
X009057Y020216D01*
X009057Y020217D02*
X009734Y020217D01*
X009734Y020218D02*
X009057Y020218D01*
X009057Y020219D02*
X009734Y020219D01*
X009734Y020220D02*
X009056Y020220D01*
X009056Y020221D02*
X009734Y020221D01*
X009735Y020222D02*
X009056Y020222D01*
X009056Y020223D02*
X009735Y020223D01*
X009735Y020224D02*
X009056Y020224D01*
X009056Y020225D02*
X009735Y020225D01*
X009736Y020226D02*
X009056Y020226D01*
X009055Y020226D02*
X009736Y020226D01*
X009736Y020227D02*
X009055Y020227D01*
X009055Y020228D02*
X009736Y020228D01*
X009736Y020229D02*
X009055Y020229D01*
X009054Y020230D02*
X009737Y020230D01*
X009737Y020231D02*
X009054Y020231D01*
X009054Y020232D02*
X009737Y020232D01*
X009737Y020233D02*
X009054Y020233D01*
X009053Y020234D02*
X009737Y020234D01*
X009738Y020235D02*
X009053Y020235D01*
X009053Y020236D02*
X009738Y020236D01*
X009738Y020237D02*
X009052Y020237D01*
X009052Y020238D02*
X009738Y020238D01*
X009738Y020239D02*
X009052Y020239D01*
X009051Y020240D02*
X009739Y020240D01*
X009739Y020241D02*
X009051Y020241D01*
X009051Y020242D02*
X009739Y020242D01*
X009739Y020243D02*
X009050Y020243D01*
X009739Y020243D01*
X009739Y020244D02*
X009050Y020244D01*
X009049Y020245D02*
X009739Y020245D01*
X009739Y020246D02*
X009049Y020246D01*
X009048Y020247D02*
X009740Y020247D01*
X009740Y020248D02*
X009048Y020248D01*
X009047Y020249D02*
X009740Y020249D01*
X009740Y020250D02*
X009047Y020250D01*
X009046Y020251D02*
X009740Y020251D01*
X009740Y020252D02*
X009046Y020252D01*
X009045Y020253D02*
X009740Y020253D01*
X009740Y020254D02*
X009044Y020254D01*
X009044Y020255D02*
X009740Y020255D01*
X009740Y020256D02*
X009043Y020256D01*
X009042Y020257D02*
X009740Y020257D01*
X009740Y020258D02*
X009041Y020258D01*
X009041Y020259D02*
X009740Y020259D01*
X009740Y020260D02*
X009040Y020260D01*
X009039Y020260D02*
X009740Y020260D01*
X009740Y020261D02*
X009038Y020261D01*
X009037Y020262D02*
X009740Y020262D01*
X009740Y020263D02*
X009036Y020263D01*
X009035Y020264D02*
X009740Y020264D01*
X009740Y020265D02*
X009034Y020265D01*
X009033Y020266D02*
X009740Y020266D01*
X009740Y020267D02*
X009032Y020267D01*
X009031Y020268D02*
X009740Y020268D01*
X009740Y020269D02*
X009031Y020269D01*
X009030Y020270D02*
X009740Y020270D01*
X009739Y020271D02*
X009029Y020271D01*
X009028Y020272D02*
X009739Y020272D01*
X009739Y020273D02*
X009027Y020273D01*
X009026Y020274D02*
X009739Y020274D01*
X009739Y020275D02*
X009025Y020275D01*
X009024Y020276D02*
X009739Y020276D01*
X009739Y020277D02*
X009023Y020277D01*
X009022Y020277D02*
X009739Y020277D01*
X009738Y020278D02*
X009021Y020278D01*
X009019Y020279D02*
X009738Y020279D01*
X009738Y020280D02*
X009018Y020280D01*
X009017Y020281D02*
X009738Y020281D01*
X009738Y020282D02*
X009016Y020282D01*
X009014Y020283D02*
X009737Y020283D01*
X009737Y020284D02*
X009013Y020284D01*
X009011Y020285D02*
X009737Y020285D01*
X009737Y020286D02*
X009010Y020286D01*
X009008Y020287D02*
X009737Y020287D01*
X009737Y020288D02*
X009006Y020288D01*
X009005Y020289D02*
X009736Y020289D01*
X009736Y020290D02*
X009003Y020290D01*
X009002Y020291D02*
X009736Y020291D01*
X009736Y020292D02*
X009000Y020292D01*
X008999Y020293D02*
X009736Y020293D01*
X009736Y020294D02*
X008997Y020294D01*
X008996Y020294D02*
X009735Y020294D01*
X009735Y020295D02*
X008994Y020295D01*
X008991Y020296D02*
X009735Y020296D01*
X009735Y020297D02*
X008989Y020297D01*
X008987Y020298D02*
X009734Y020298D01*
X009734Y020299D02*
X008985Y020299D01*
X008982Y020300D02*
X009734Y020300D01*
X009734Y020301D02*
X008980Y020301D01*
X008978Y020302D02*
X009733Y020302D01*
X009733Y020303D02*
X008975Y020303D01*
X008973Y020304D02*
X009733Y020304D01*
X009733Y020305D02*
X008971Y020305D01*
X008969Y020306D02*
X009732Y020306D01*
X009732Y020307D02*
X008968Y020307D01*
X008966Y020308D02*
X009732Y020308D01*
X009732Y020309D02*
X008964Y020309D01*
X008962Y020310D02*
X009731Y020310D01*
X009731Y020311D02*
X008958Y020311D01*
X008954Y020311D02*
X009731Y020311D01*
X009731Y020312D02*
X008950Y020312D01*
X008946Y020313D02*
X009730Y020313D01*
X009730Y020314D02*
X008943Y020314D01*
X008939Y020315D02*
X009730Y020315D01*
X009729Y020316D02*
X008935Y020316D01*
X008931Y020317D02*
X009729Y020317D01*
X009729Y020318D02*
X008928Y020318D01*
X008924Y020319D02*
X009728Y020319D01*
X009728Y020320D02*
X008920Y020320D01*
X008915Y020321D02*
X009727Y020321D01*
X009727Y020322D02*
X008910Y020322D01*
X008904Y020323D02*
X009726Y020323D01*
X009726Y020324D02*
X008899Y020324D01*
X008894Y020325D02*
X009725Y020325D01*
X009725Y020326D02*
X008888Y020326D01*
X008883Y020327D02*
X009724Y020327D01*
X009724Y020328D02*
X008878Y020328D01*
X008872Y020329D02*
X009723Y020329D01*
X008867Y020329D01*
X008861Y020330D02*
X009722Y020330D01*
X009722Y020331D02*
X008856Y020331D01*
X008848Y020332D02*
X009721Y020332D01*
X009721Y020333D02*
X008840Y020333D01*
X008832Y020334D02*
X009720Y020334D01*
X009720Y020335D02*
X008823Y020335D01*
X008815Y020336D02*
X009719Y020336D01*
X009718Y020337D02*
X008805Y020337D01*
X008795Y020338D02*
X009718Y020338D01*
X009717Y020339D02*
X008785Y020339D01*
X008775Y020340D02*
X009717Y020340D01*
X009716Y020341D02*
X008718Y020341D01*
X008696Y020342D02*
X009716Y020342D01*
X009715Y020343D02*
X008674Y020343D01*
X008632Y020343D02*
X007714Y020343D01*
X007714Y020344D02*
X009715Y020344D01*
X009714Y020345D02*
X007715Y020345D01*
X007716Y020346D02*
X009713Y020346D01*
X009712Y020346D02*
X007716Y020346D01*
X007717Y020347D02*
X009712Y020347D01*
X009711Y020348D02*
X007717Y020348D01*
X007718Y020349D02*
X009710Y020349D01*
X009709Y020350D02*
X007718Y020350D01*
X007719Y020351D02*
X009708Y020351D01*
X009708Y020352D02*
X007719Y020352D01*
X007720Y020353D02*
X009707Y020353D01*
X009706Y020354D02*
X007720Y020354D01*
X007721Y020355D02*
X009705Y020355D01*
X009704Y020356D02*
X007722Y020356D01*
X007722Y020357D02*
X009704Y020357D01*
X009703Y020358D02*
X007723Y020358D01*
X007723Y020359D02*
X009702Y020359D01*
X009701Y020360D02*
X007724Y020360D01*
X007724Y020361D02*
X009700Y020361D01*
X009700Y020362D02*
X007725Y020362D01*
X007725Y020363D02*
X009699Y020363D01*
X009698Y020363D02*
X007726Y020363D01*
X007726Y020364D02*
X009697Y020364D01*
X009696Y020365D02*
X007727Y020365D01*
X007727Y020366D02*
X009696Y020366D01*
X009695Y020367D02*
X007728Y020367D01*
X007729Y020368D02*
X009694Y020368D01*
X009693Y020369D02*
X007729Y020369D01*
X007730Y020370D02*
X009692Y020370D01*
X009691Y020371D02*
X007730Y020371D01*
X007731Y020372D02*
X009690Y020372D01*
X009689Y020373D02*
X007732Y020373D01*
X007732Y020374D02*
X009688Y020374D01*
X009687Y020375D02*
X007733Y020375D01*
X007733Y020376D02*
X009687Y020376D01*
X009686Y020377D02*
X007734Y020377D01*
X007735Y020378D02*
X009685Y020378D01*
X009684Y020379D02*
X007735Y020379D01*
X007736Y020380D02*
X009683Y020380D01*
X009682Y020380D02*
X007736Y020380D01*
X007737Y020381D02*
X009681Y020381D01*
X009680Y020382D02*
X007737Y020382D01*
X007738Y020383D02*
X009679Y020383D01*
X009678Y020384D02*
X007739Y020384D01*
X007739Y020385D02*
X009677Y020385D01*
X009676Y020386D02*
X007740Y020386D01*
X007740Y020387D02*
X009675Y020387D01*
X009674Y020388D02*
X007741Y020388D01*
X007742Y020389D02*
X009672Y020389D01*
X009671Y020390D02*
X007742Y020390D01*
X007743Y020391D02*
X009670Y020391D01*
X009669Y020392D02*
X007743Y020392D01*
X007744Y020393D02*
X009668Y020393D01*
X009667Y020394D02*
X007744Y020394D01*
X007745Y020395D02*
X009665Y020395D01*
X009664Y020396D02*
X007746Y020396D01*
X007746Y020397D02*
X009663Y020397D01*
X009662Y020397D02*
X007747Y020397D01*
X007748Y020398D02*
X009661Y020398D01*
X009660Y020399D02*
X007749Y020399D01*
X007749Y020400D02*
X009658Y020400D01*
X009657Y020401D02*
X007750Y020401D01*
X007751Y020402D02*
X009656Y020402D01*
X009655Y020403D02*
X007752Y020403D01*
X007753Y020404D02*
X009653Y020404D01*
X009652Y020405D02*
X007753Y020405D01*
X007754Y020406D02*
X009650Y020406D01*
X009649Y020407D02*
X007755Y020407D01*
X007756Y020408D02*
X009647Y020408D01*
X009646Y020409D02*
X007757Y020409D01*
X007758Y020410D02*
X009645Y020410D01*
X009643Y020411D02*
X007758Y020411D01*
X007759Y020412D02*
X009642Y020412D01*
X009640Y020413D02*
X007760Y020413D01*
X007761Y020414D02*
X009639Y020414D01*
X009638Y020414D02*
X007762Y020414D01*
X007762Y020415D02*
X009636Y020415D01*
X009635Y020416D02*
X007763Y020416D01*
X007764Y020417D02*
X009633Y020417D01*
X009632Y020418D02*
X007765Y020418D01*
X007766Y020419D02*
X009631Y020419D01*
X009629Y020420D02*
X007766Y020420D01*
X007767Y020421D02*
X009627Y020421D01*
X009626Y020422D02*
X007768Y020422D01*
X007769Y020423D02*
X009624Y020423D01*
X009622Y020424D02*
X007770Y020424D01*
X007771Y020425D02*
X009621Y020425D01*
X009619Y020426D02*
X007772Y020426D01*
X007773Y020427D02*
X009617Y020427D01*
X009616Y020428D02*
X007774Y020428D01*
X007775Y020429D02*
X009614Y020429D01*
X009612Y020430D02*
X007776Y020430D01*
X007777Y020431D02*
X009611Y020431D01*
X009609Y020431D02*
X007778Y020431D01*
X007779Y020432D02*
X009607Y020432D01*
X009605Y020433D02*
X007780Y020433D01*
X007781Y020434D02*
X009604Y020434D01*
X009602Y020435D02*
X007782Y020435D01*
X007783Y020436D02*
X009600Y020436D01*
X009599Y020437D02*
X007784Y020437D01*
X007786Y020438D02*
X009597Y020438D01*
X009595Y020439D02*
X007787Y020439D01*
X007788Y020440D02*
X009592Y020440D01*
X009590Y020441D02*
X007790Y020441D01*
X007791Y020442D02*
X009588Y020442D01*
X009586Y020443D02*
X007792Y020443D01*
X007794Y020444D02*
X009584Y020444D01*
X009582Y020445D02*
X007795Y020445D01*
X007797Y020446D02*
X009580Y020446D01*
X009578Y020447D02*
X007798Y020447D01*
X007799Y020448D02*
X009576Y020448D01*
X009574Y020449D02*
X007801Y020449D01*
X007802Y020449D02*
X009572Y020449D01*
X009570Y020450D02*
X007804Y020450D01*
X007806Y020451D02*
X009568Y020451D01*
X009566Y020452D02*
X007807Y020452D01*
X007809Y020453D02*
X009564Y020453D01*
X009562Y020454D02*
X007811Y020454D01*
X007812Y020455D02*
X009560Y020455D01*
X009558Y020456D02*
X007814Y020456D01*
X007816Y020457D02*
X009556Y020457D01*
X009554Y020458D02*
X007817Y020458D01*
X007819Y020459D02*
X009552Y020459D01*
X009550Y020460D02*
X007821Y020460D01*
X007823Y020461D02*
X009548Y020461D01*
X009546Y020462D02*
X007826Y020462D01*
X007828Y020463D02*
X009543Y020463D01*
X009541Y020464D02*
X007830Y020464D01*
X007833Y020465D02*
X009538Y020465D01*
X009536Y020466D02*
X007835Y020466D01*
X007837Y020466D02*
X009533Y020466D01*
X009531Y020467D02*
X007840Y020467D01*
X007842Y020468D02*
X009528Y020468D01*
X009525Y020469D02*
X007845Y020469D01*
X007848Y020470D02*
X009523Y020470D01*
X009520Y020471D02*
X007851Y020471D01*
X007854Y020472D02*
X009518Y020472D01*
X009515Y020473D02*
X007856Y020473D01*
X007859Y020474D02*
X009513Y020474D01*
X009510Y020475D02*
X007862Y020475D01*
X007865Y020476D02*
X009508Y020476D01*
X009505Y020477D02*
X007868Y020477D01*
X007871Y020478D02*
X009503Y020478D01*
X009501Y020479D02*
X007874Y020479D01*
X007877Y020480D02*
X009498Y020480D01*
X009496Y020481D02*
X007881Y020481D01*
X007885Y020482D02*
X009493Y020482D01*
X009491Y020483D02*
X007888Y020483D01*
X007892Y020483D02*
X009488Y020483D01*
X009486Y020484D02*
X007896Y020484D01*
X007899Y020485D02*
X009483Y020485D01*
X009481Y020486D02*
X007903Y020486D01*
X007907Y020487D02*
X009478Y020487D01*
X009475Y020488D02*
X007910Y020488D01*
X007914Y020489D02*
X009472Y020489D01*
X009469Y020490D02*
X007918Y020490D01*
X007921Y020491D02*
X009465Y020491D01*
X009462Y020492D02*
X007925Y020492D01*
X007929Y020493D02*
X009459Y020493D01*
X009456Y020494D02*
X007932Y020494D01*
X007936Y020495D02*
X009453Y020495D01*
X009450Y020496D02*
X007940Y020496D01*
X007943Y020497D02*
X009447Y020497D01*
X009444Y020498D02*
X007946Y020498D01*
X007950Y020499D02*
X009441Y020499D01*
X009438Y020500D02*
X007953Y020500D01*
X007956Y020500D02*
X009435Y020500D01*
X009431Y020501D02*
X007960Y020501D01*
X007963Y020502D02*
X009428Y020502D01*
X009425Y020503D02*
X007966Y020503D01*
X007970Y020504D02*
X009422Y020504D01*
X009419Y020505D02*
X007974Y020505D01*
X007977Y020506D02*
X009415Y020506D01*
X009412Y020507D02*
X007981Y020507D01*
X007984Y020508D02*
X009408Y020508D01*
X009405Y020509D02*
X007988Y020509D01*
X007992Y020510D02*
X009401Y020510D01*
X009398Y020511D02*
X007995Y020511D01*
X007999Y020512D02*
X009394Y020512D01*
X009391Y020513D02*
X008003Y020513D01*
X008006Y020514D02*
X009387Y020514D01*
X009384Y020515D02*
X008010Y020515D01*
X008014Y020516D02*
X009379Y020516D01*
X009375Y020517D02*
X008017Y020517D01*
X008021Y020517D02*
X009370Y020517D01*
X009365Y020518D02*
X008025Y020518D01*
X008028Y020519D02*
X009361Y020519D01*
X009356Y020520D02*
X008032Y020520D01*
X008036Y020521D02*
X009351Y020521D01*
X009347Y020522D02*
X008040Y020522D01*
X008043Y020523D02*
X009342Y020523D01*
X009338Y020524D02*
X008047Y020524D01*
X008051Y020525D02*
X009333Y020525D01*
X009328Y020526D02*
X008055Y020526D01*
X008059Y020527D02*
X009324Y020527D01*
X009319Y020528D02*
X008063Y020528D01*
X008067Y020529D02*
X009315Y020529D01*
X009310Y020530D02*
X008072Y020530D01*
X008076Y020531D02*
X009306Y020531D01*
X009301Y020532D02*
X008080Y020532D01*
X008085Y020533D02*
X009296Y020533D01*
X009291Y020534D02*
X008089Y020534D01*
X008093Y020534D02*
X009286Y020534D01*
X009281Y020535D02*
X008099Y020535D01*
X008104Y020536D02*
X009276Y020536D01*
X009271Y020537D02*
X008110Y020537D01*
X008116Y020538D02*
X009265Y020538D01*
X009260Y020539D02*
X008121Y020539D01*
X008127Y020540D02*
X009254Y020540D01*
X009248Y020541D02*
X008132Y020541D01*
X008138Y020542D02*
X009242Y020542D01*
X009236Y020543D02*
X008143Y020543D01*
X008149Y020544D02*
X009230Y020544D01*
X009225Y020545D02*
X008154Y020545D01*
X008159Y020546D02*
X009219Y020546D01*
X009213Y020547D02*
X008165Y020547D01*
X008170Y020548D02*
X009207Y020548D01*
X009200Y020549D02*
X008176Y020549D01*
X008183Y020550D02*
X009192Y020550D01*
X009185Y020551D02*
X008190Y020551D01*
X008196Y020551D02*
X009177Y020551D01*
X009170Y020552D02*
X008203Y020552D01*
X008210Y020553D02*
X009162Y020553D01*
X009155Y020554D02*
X008219Y020554D01*
X008230Y020555D02*
X009146Y020555D01*
X009137Y020556D02*
X008240Y020556D01*
X008248Y020557D02*
X009128Y020557D01*
X009119Y020558D02*
X008254Y020558D01*
X008261Y020559D02*
X009111Y020559D01*
X009102Y020560D02*
X008268Y020560D01*
X008274Y020561D02*
X009093Y020561D01*
X009084Y020562D02*
X008283Y020562D01*
X008293Y020563D02*
X009076Y020563D01*
X009067Y020564D02*
X008302Y020564D01*
X008312Y020565D02*
X009058Y020565D01*
X009049Y020566D02*
X008322Y020566D01*
X008334Y020567D02*
X009040Y020567D01*
X009030Y020568D02*
X008346Y020568D01*
X008358Y020569D02*
X009020Y020569D01*
X009009Y020569D02*
X008370Y020569D01*
X008383Y020570D02*
X008999Y020570D01*
X008988Y020571D02*
X008396Y020571D01*
X008408Y020572D02*
X008971Y020572D01*
X008953Y020573D02*
X008421Y020573D01*
X008434Y020574D02*
X008934Y020574D01*
X008917Y020575D02*
X008450Y020575D01*
X008467Y020576D02*
X008899Y020576D01*
X008882Y020577D02*
X008484Y020577D01*
X008503Y020578D02*
X008864Y020578D01*
X008846Y020579D02*
X008524Y020579D01*
X008545Y020580D02*
X008819Y020580D01*
X008782Y020581D02*
X008581Y020581D01*
X008636Y020582D02*
X008679Y020582D01*
X008576Y020342D02*
X007713Y020342D01*
X007713Y020341D02*
X008547Y020341D01*
X008522Y020340D02*
X007712Y020340D01*
X007712Y020339D02*
X008501Y020339D01*
X008480Y020338D02*
X007711Y020338D01*
X007711Y020337D02*
X008458Y020337D01*
X008444Y020336D02*
X007710Y020336D01*
X007710Y020335D02*
X008431Y020335D01*
X008418Y020334D02*
X007709Y020334D01*
X007709Y020333D02*
X008404Y020333D01*
X008391Y020332D02*
X007708Y020332D01*
X007707Y020331D02*
X008381Y020331D01*
X008372Y020330D02*
X007707Y020330D01*
X007706Y020329D02*
X008363Y020329D01*
X008354Y020329D02*
X007706Y020329D01*
X007705Y020328D02*
X008344Y020328D01*
X008335Y020327D02*
X007705Y020327D01*
X007704Y020326D02*
X008326Y020326D01*
X008317Y020325D02*
X007704Y020325D01*
X007703Y020324D02*
X008310Y020324D01*
X008302Y020323D02*
X007703Y020323D01*
X007702Y020322D02*
X008295Y020322D01*
X008288Y020321D02*
X007701Y020321D01*
X007701Y020320D02*
X008281Y020320D01*
X008274Y020319D02*
X007700Y020319D01*
X007700Y020318D02*
X008267Y020318D01*
X008259Y020317D02*
X007699Y020317D01*
X007699Y020316D02*
X008252Y020316D01*
X008245Y020315D02*
X007698Y020315D01*
X007698Y020314D02*
X008239Y020314D01*
X008234Y020313D02*
X007697Y020313D01*
X007697Y020312D02*
X008229Y020312D01*
X008224Y020311D02*
X007696Y020311D01*
X008219Y020311D01*
X008214Y020310D02*
X007695Y020310D01*
X007695Y020309D02*
X008209Y020309D01*
X008204Y020308D02*
X007694Y020308D01*
X007694Y020307D02*
X008199Y020307D01*
X008193Y020306D02*
X007693Y020306D01*
X007693Y020305D02*
X008188Y020305D01*
X008183Y020304D02*
X007692Y020304D01*
X007692Y020303D02*
X008178Y020303D01*
X008173Y020302D02*
X007691Y020302D01*
X007691Y020301D02*
X008168Y020301D01*
X008163Y020300D02*
X007690Y020300D01*
X007690Y020299D02*
X008158Y020299D01*
X008153Y020298D02*
X007689Y020298D01*
X007688Y020297D02*
X008147Y020297D01*
X008142Y020296D02*
X007688Y020296D01*
X007687Y020295D02*
X008137Y020295D01*
X008132Y020294D02*
X007687Y020294D01*
X007686Y020294D02*
X008127Y020294D01*
X008122Y020293D02*
X007686Y020293D01*
X007685Y020292D02*
X008117Y020292D01*
X008112Y020291D02*
X007685Y020291D01*
X007684Y020290D02*
X008107Y020290D01*
X008102Y020289D02*
X007684Y020289D01*
X007683Y020288D02*
X008097Y020288D01*
X008092Y020287D02*
X007683Y020287D01*
X007682Y020286D02*
X008088Y020286D01*
X008083Y020285D02*
X007682Y020285D01*
X007681Y020284D02*
X008078Y020284D01*
X008074Y020283D02*
X007681Y020283D01*
X007680Y020282D02*
X008069Y020282D01*
X008065Y020281D02*
X007680Y020281D01*
X007679Y020280D02*
X008060Y020280D01*
X008056Y020279D02*
X007679Y020279D01*
X007678Y020278D02*
X008051Y020278D01*
X008046Y020277D02*
X007677Y020277D01*
X008042Y020277D01*
X008037Y020276D02*
X007676Y020276D01*
X007676Y020275D02*
X008033Y020275D01*
X008028Y020274D02*
X007675Y020274D01*
X007675Y020273D02*
X008023Y020273D01*
X008019Y020272D02*
X007674Y020272D01*
X007674Y020271D02*
X008015Y020271D01*
X008011Y020270D02*
X007673Y020270D01*
X007673Y020269D02*
X008007Y020269D01*
X008004Y020268D02*
X007672Y020268D01*
X007671Y020267D02*
X008000Y020267D01*
X007997Y020266D02*
X007671Y020266D01*
X007670Y020265D02*
X007993Y020265D01*
X007989Y020264D02*
X007670Y020264D01*
X007669Y020263D02*
X007986Y020263D01*
X007982Y020262D02*
X007669Y020262D01*
X007668Y020261D02*
X007979Y020261D01*
X007975Y020260D02*
X007668Y020260D01*
X007667Y020260D02*
X007971Y020260D01*
X007968Y020259D02*
X007667Y020259D01*
X007666Y020258D02*
X007964Y020258D01*
X007960Y020257D02*
X007666Y020257D01*
X007665Y020256D02*
X007957Y020256D01*
X007953Y020255D02*
X007664Y020255D01*
X007664Y020254D02*
X007950Y020254D01*
X007946Y020253D02*
X007663Y020253D01*
X007663Y020252D02*
X007943Y020252D01*
X007940Y020251D02*
X007662Y020251D01*
X007662Y020250D02*
X007937Y020250D01*
X007934Y020249D02*
X007661Y020249D01*
X007661Y020248D02*
X007931Y020248D01*
X007928Y020247D02*
X007660Y020247D01*
X007659Y020246D02*
X007924Y020246D01*
X007921Y020245D02*
X007659Y020245D01*
X007658Y020244D02*
X007918Y020244D01*
X007915Y020243D02*
X007658Y020243D01*
X007657Y020243D02*
X007912Y020243D01*
X007909Y020242D02*
X007657Y020242D01*
X007656Y020241D02*
X007906Y020241D01*
X007903Y020240D02*
X007656Y020240D01*
X007655Y020239D02*
X007900Y020239D01*
X007896Y020238D02*
X007655Y020238D01*
X007654Y020237D02*
X007893Y020237D01*
X007890Y020236D02*
X007654Y020236D01*
X007653Y020235D02*
X007887Y020235D01*
X007884Y020234D02*
X007653Y020234D01*
X007652Y020233D02*
X007881Y020233D01*
X007878Y020232D02*
X007652Y020232D01*
X007651Y020231D02*
X007875Y020231D01*
X007871Y020230D02*
X007651Y020230D01*
X007650Y020229D02*
X007868Y020229D01*
X007865Y020228D02*
X007650Y020228D01*
X007649Y020227D02*
X007862Y020227D01*
X007859Y020226D02*
X007649Y020226D01*
X007648Y020226D02*
X007856Y020226D01*
X007853Y020225D02*
X007648Y020225D01*
X007647Y020224D02*
X007850Y020224D01*
X007847Y020223D02*
X007647Y020223D01*
X007647Y020222D02*
X007844Y020222D01*
X007841Y020221D02*
X007647Y020221D01*
X007646Y020220D02*
X007838Y020220D01*
X007836Y020219D02*
X007646Y020219D01*
X007646Y020218D02*
X007833Y020218D01*
X007830Y020217D02*
X007646Y020217D01*
X007645Y020216D02*
X007827Y020216D01*
X007824Y020215D02*
X007645Y020215D01*
X007645Y020214D02*
X007822Y020214D01*
X007819Y020213D02*
X007645Y020213D01*
X007645Y020212D02*
X007816Y020212D01*
X007813Y020211D02*
X007645Y020211D01*
X007644Y020210D02*
X007810Y020210D01*
X007807Y020209D02*
X007644Y020209D01*
X007805Y020209D01*
X007802Y020208D02*
X007644Y020208D01*
X007644Y020207D02*
X007799Y020207D01*
X007796Y020206D02*
X007643Y020206D01*
X007643Y020205D02*
X007793Y020205D01*
X007791Y020204D02*
X007643Y020204D01*
X007643Y020203D02*
X007788Y020203D01*
X007785Y020202D02*
X007643Y020202D01*
X007643Y020201D02*
X007782Y020201D01*
X007779Y020200D02*
X007643Y020200D01*
X007643Y020199D02*
X007776Y020199D01*
X007773Y020198D02*
X007643Y020198D01*
X007643Y020197D02*
X007770Y020197D01*
X007766Y020196D02*
X007643Y020196D01*
X007644Y020195D02*
X007763Y020195D01*
X007760Y020194D02*
X007644Y020194D01*
X007644Y020193D02*
X007757Y020193D01*
X007755Y020192D02*
X007644Y020192D01*
X007645Y020191D02*
X007752Y020191D01*
X007750Y020191D02*
X007645Y020191D01*
X007646Y020190D02*
X007747Y020190D01*
X007744Y020189D02*
X007646Y020189D01*
X007647Y020188D02*
X007742Y020188D01*
X007739Y020187D02*
X007647Y020187D01*
X007648Y020186D02*
X007737Y020186D01*
X007734Y020185D02*
X007649Y020185D01*
X007649Y020184D02*
X007732Y020184D01*
X007729Y020183D02*
X007650Y020183D01*
X007651Y020182D02*
X007727Y020182D01*
X007724Y020181D02*
X007652Y020181D01*
X007654Y020180D02*
X007721Y020180D01*
X007717Y020179D02*
X007655Y020179D01*
X007657Y020178D02*
X007714Y020178D01*
X007710Y020177D02*
X007659Y020177D01*
X007661Y020176D02*
X007705Y020176D01*
X007699Y020175D02*
X007663Y020175D01*
X007667Y020174D02*
X007695Y020174D01*
X007691Y020174D02*
X007672Y020174D01*
X007582Y020309D02*
X007007Y020309D01*
X007006Y020308D02*
X007581Y020308D01*
X007579Y020307D02*
X007005Y020307D01*
X007003Y020306D02*
X007578Y020306D01*
X007577Y020305D02*
X007002Y020305D01*
X007001Y020304D02*
X007575Y020304D01*
X007574Y020303D02*
X006999Y020303D01*
X006998Y020302D02*
X007572Y020302D01*
X007571Y020301D02*
X006996Y020301D01*
X006995Y020300D02*
X007570Y020300D01*
X007568Y020299D02*
X006994Y020299D01*
X006992Y020298D02*
X007567Y020298D01*
X007565Y020297D02*
X006991Y020297D01*
X006990Y020296D02*
X007564Y020296D01*
X007563Y020295D02*
X006988Y020295D01*
X006987Y020294D02*
X007561Y020294D01*
X007560Y020294D02*
X006985Y020294D01*
X006984Y020293D02*
X007558Y020293D01*
X007557Y020292D02*
X006983Y020292D01*
X006981Y020291D02*
X007556Y020291D01*
X007554Y020290D02*
X006980Y020290D01*
X006979Y020289D02*
X007553Y020289D01*
X007551Y020288D02*
X006977Y020288D01*
X006976Y020287D02*
X007550Y020287D01*
X007549Y020286D02*
X006974Y020286D01*
X006973Y020285D02*
X007547Y020285D01*
X007546Y020284D02*
X006972Y020284D01*
X006970Y020283D02*
X007544Y020283D01*
X007543Y020282D02*
X006969Y020282D01*
X006968Y020281D02*
X007542Y020281D01*
X007540Y020280D02*
X006966Y020280D01*
X006965Y020279D02*
X007539Y020279D01*
X007537Y020278D02*
X006963Y020278D01*
X006962Y020277D02*
X007536Y020277D01*
X007535Y020277D02*
X006961Y020277D01*
X006959Y020276D02*
X007533Y020276D01*
X007532Y020275D02*
X006958Y020275D01*
X006957Y020274D02*
X007531Y020274D01*
X007529Y020273D02*
X006955Y020273D01*
X006954Y020272D02*
X007528Y020272D01*
X007527Y020271D02*
X006953Y020271D01*
X006951Y020270D02*
X007525Y020270D01*
X007524Y020269D02*
X006950Y020269D01*
X006948Y020268D02*
X007523Y020268D01*
X007521Y020267D02*
X006947Y020267D01*
X006946Y020266D02*
X007520Y020266D01*
X007519Y020265D02*
X006944Y020265D01*
X006943Y020264D02*
X007517Y020264D01*
X007516Y020263D02*
X006942Y020263D01*
X006940Y020262D02*
X007515Y020262D01*
X007513Y020261D02*
X006939Y020261D01*
X006938Y020260D02*
X007512Y020260D01*
X007511Y020260D02*
X006936Y020260D01*
X006935Y020259D02*
X007509Y020259D01*
X007508Y020258D02*
X006933Y020258D01*
X006932Y020257D02*
X007506Y020257D01*
X007505Y020256D02*
X006931Y020256D01*
X006929Y020255D02*
X007504Y020255D01*
X007502Y020254D02*
X006928Y020254D01*
X006927Y020253D02*
X007501Y020253D01*
X007500Y020252D02*
X006925Y020252D01*
X006924Y020251D02*
X007498Y020251D01*
X007497Y020250D02*
X006923Y020250D01*
X006921Y020249D02*
X007496Y020249D01*
X007494Y020248D02*
X006920Y020248D01*
X006918Y020247D02*
X007493Y020247D01*
X007491Y020246D02*
X006917Y020246D01*
X006916Y020245D02*
X007490Y020245D01*
X007489Y020244D02*
X006914Y020244D01*
X006913Y020243D02*
X007487Y020243D01*
X007486Y020243D02*
X006912Y020243D01*
X006910Y020242D02*
X007484Y020242D01*
X007483Y020241D02*
X006909Y020241D01*
X006908Y020240D02*
X007482Y020240D01*
X007480Y020239D02*
X006906Y020239D01*
X006905Y020238D02*
X007479Y020238D01*
X007477Y020237D02*
X006903Y020237D01*
X006902Y020236D02*
X007476Y020236D01*
X007475Y020235D02*
X006901Y020235D01*
X006899Y020234D02*
X007473Y020234D01*
X007472Y020233D02*
X006898Y020233D01*
X006897Y020232D02*
X007470Y020232D01*
X007469Y020231D02*
X006895Y020231D01*
X006894Y020230D02*
X007468Y020230D01*
X007466Y020229D02*
X006893Y020229D01*
X006891Y020228D02*
X007465Y020228D01*
X007464Y020227D02*
X006890Y020227D01*
X006889Y020226D02*
X007462Y020226D01*
X007461Y020226D02*
X006887Y020226D01*
X006886Y020225D02*
X007459Y020225D01*
X007458Y020224D02*
X006884Y020224D01*
X006883Y020223D02*
X007457Y020223D01*
X007455Y020222D02*
X006882Y020222D01*
X006880Y020221D02*
X007454Y020221D01*
X007452Y020220D02*
X006879Y020220D01*
X006878Y020219D02*
X007451Y020219D01*
X007450Y020218D02*
X006876Y020218D01*
X006875Y020217D02*
X007448Y020217D01*
X007447Y020216D02*
X006873Y020216D01*
X006872Y020215D02*
X007445Y020215D01*
X007444Y020214D02*
X006871Y020214D01*
X006869Y020213D02*
X007443Y020213D01*
X007441Y020212D02*
X006868Y020212D01*
X006866Y020211D02*
X007440Y020211D01*
X007438Y020210D02*
X006865Y020210D01*
X006864Y020209D02*
X007437Y020209D01*
X007436Y020209D02*
X006862Y020209D01*
X006861Y020208D02*
X007434Y020208D01*
X007433Y020207D02*
X006859Y020207D01*
X006858Y020206D02*
X007431Y020206D01*
X007430Y020205D02*
X006857Y020205D01*
X006855Y020204D02*
X007429Y020204D01*
X007427Y020203D02*
X006854Y020203D01*
X006853Y020202D02*
X007426Y020202D01*
X007424Y020201D02*
X006851Y020201D01*
X006850Y020200D02*
X007423Y020200D01*
X007422Y020199D02*
X006848Y020199D01*
X006847Y020198D02*
X007420Y020198D01*
X007419Y020197D02*
X006846Y020197D01*
X006844Y020196D02*
X007418Y020196D01*
X007416Y020195D02*
X006843Y020195D01*
X006841Y020194D02*
X007415Y020194D01*
X007413Y020193D02*
X006840Y020193D01*
X006839Y020192D02*
X007412Y020192D01*
X007411Y020191D02*
X006837Y020191D01*
X006836Y020191D02*
X007409Y020191D01*
X007408Y020190D02*
X006835Y020190D01*
X006833Y020189D02*
X007406Y020189D01*
X007405Y020188D02*
X006832Y020188D01*
X006831Y020187D02*
X007404Y020187D01*
X007402Y020186D02*
X006829Y020186D01*
X006828Y020185D02*
X007401Y020185D01*
X007399Y020184D02*
X006827Y020184D01*
X006825Y020183D02*
X007398Y020183D01*
X007397Y020182D02*
X006824Y020182D01*
X006823Y020181D02*
X007395Y020181D01*
X007394Y020180D02*
X006821Y020180D01*
X006820Y020179D02*
X007393Y020179D01*
X007391Y020178D02*
X006819Y020178D01*
X006817Y020177D02*
X007390Y020177D01*
X007388Y020176D02*
X006816Y020176D01*
X006815Y020175D02*
X007387Y020175D01*
X007386Y020174D02*
X006813Y020174D01*
X006812Y020174D02*
X007384Y020174D01*
X007383Y020173D02*
X006811Y020173D01*
X006809Y020172D02*
X007381Y020172D01*
X007380Y020171D02*
X006808Y020171D01*
X006807Y020170D02*
X007379Y020170D01*
X007377Y020169D02*
X006806Y020169D01*
X006804Y020168D02*
X007376Y020168D01*
X007375Y020167D02*
X006803Y020167D01*
X006802Y020166D02*
X007373Y020166D01*
X007372Y020165D02*
X006800Y020165D01*
X006799Y020164D02*
X007370Y020164D01*
X007369Y020163D02*
X006798Y020163D01*
X006796Y020162D02*
X007368Y020162D01*
X007366Y020161D02*
X006795Y020161D01*
X006794Y020160D02*
X007365Y020160D01*
X007363Y020159D02*
X006792Y020159D01*
X006791Y020158D02*
X007362Y020158D01*
X007361Y020157D02*
X006790Y020157D01*
X006788Y020157D02*
X007359Y020157D01*
X007358Y020156D02*
X006787Y020156D01*
X006786Y020155D02*
X007357Y020155D01*
X007355Y020154D02*
X006784Y020154D01*
X006783Y020153D02*
X007354Y020153D01*
X007352Y020152D02*
X006781Y020152D01*
X006780Y020151D02*
X007351Y020151D01*
X007350Y020150D02*
X006778Y020150D01*
X006777Y020149D02*
X007348Y020149D01*
X007347Y020148D02*
X006775Y020148D01*
X006774Y020147D02*
X007345Y020147D01*
X007344Y020146D02*
X006772Y020146D01*
X006771Y020145D02*
X007343Y020145D01*
X007341Y020144D02*
X006770Y020144D01*
X006768Y020143D02*
X007340Y020143D01*
X007339Y020142D02*
X006767Y020142D01*
X006765Y020141D02*
X007337Y020141D01*
X007336Y020140D02*
X006764Y020140D01*
X006762Y020140D02*
X007334Y020140D01*
X007333Y020139D02*
X006761Y020139D01*
X006759Y020138D02*
X007332Y020138D01*
X007330Y020137D02*
X006758Y020137D01*
X006756Y020136D02*
X007329Y020136D01*
X007327Y020135D02*
X006755Y020135D01*
X006753Y020134D02*
X007326Y020134D01*
X007325Y020133D02*
X006752Y020133D01*
X006750Y020132D02*
X007323Y020132D01*
X007322Y020131D02*
X006749Y020131D01*
X006747Y020130D02*
X007320Y020130D01*
X007319Y020129D02*
X006746Y020129D01*
X006745Y020128D02*
X007318Y020128D01*
X007316Y020127D02*
X006743Y020127D01*
X006742Y020126D02*
X007315Y020126D01*
X007314Y020125D02*
X006740Y020125D01*
X006739Y020124D02*
X007312Y020124D01*
X007311Y020123D02*
X006738Y020123D01*
X006736Y020123D02*
X007309Y020123D01*
X007308Y020122D02*
X006735Y020122D01*
X006733Y020121D02*
X007307Y020121D01*
X007305Y020120D02*
X006732Y020120D01*
X006731Y020119D02*
X007304Y020119D01*
X007302Y020118D02*
X006729Y020118D01*
X006728Y020117D02*
X007301Y020117D01*
X007300Y020116D02*
X006727Y020116D01*
X006725Y020115D02*
X007298Y020115D01*
X007297Y020114D02*
X006724Y020114D01*
X006722Y020113D02*
X007296Y020113D01*
X007294Y020112D02*
X006721Y020112D01*
X006720Y020111D02*
X007293Y020111D01*
X007291Y020110D02*
X006718Y020110D01*
X006717Y020109D02*
X007290Y020109D01*
X007289Y020108D02*
X006716Y020108D01*
X006714Y020107D02*
X007287Y020107D01*
X007286Y020106D02*
X006713Y020106D01*
X006711Y020106D02*
X007284Y020106D01*
X007283Y020105D02*
X006710Y020105D01*
X006709Y020104D02*
X007282Y020104D01*
X007280Y020103D02*
X006707Y020103D01*
X006706Y020102D02*
X007279Y020102D01*
X007278Y020101D02*
X006704Y020101D01*
X006703Y020100D02*
X007276Y020100D01*
X007275Y020099D02*
X006702Y020099D01*
X006700Y020098D02*
X007273Y020098D01*
X007272Y020097D02*
X006699Y020097D01*
X006698Y020096D02*
X007271Y020096D01*
X007269Y020095D02*
X006696Y020095D01*
X006695Y020094D02*
X007268Y020094D01*
X007266Y020093D02*
X006693Y020093D01*
X006692Y020092D02*
X007265Y020092D01*
X007264Y020091D02*
X006691Y020091D01*
X006689Y020090D02*
X007262Y020090D01*
X007261Y020089D02*
X006688Y020089D01*
X006686Y020089D02*
X007259Y020089D01*
X007258Y020088D02*
X006685Y020088D01*
X006684Y020087D02*
X007257Y020087D01*
X007255Y020086D02*
X006682Y020086D01*
X006681Y020085D02*
X007254Y020085D01*
X007253Y020084D02*
X006680Y020084D01*
X006678Y020083D02*
X007251Y020083D01*
X007250Y020082D02*
X006677Y020082D01*
X006675Y020081D02*
X007248Y020081D01*
X007247Y020080D02*
X006674Y020080D01*
X006673Y020079D02*
X007246Y020079D01*
X007244Y020078D02*
X006671Y020078D01*
X006670Y020077D02*
X007243Y020077D01*
X007242Y020076D02*
X006669Y020076D01*
X006667Y020075D02*
X007240Y020075D01*
X007239Y020074D02*
X006666Y020074D01*
X006664Y020073D02*
X007237Y020073D01*
X007236Y020072D02*
X006663Y020072D01*
X006662Y020071D02*
X007235Y020071D01*
X007233Y020071D02*
X006660Y020071D01*
X006659Y020070D02*
X007232Y020070D01*
X007230Y020069D02*
X006657Y020069D01*
X006656Y020068D02*
X007229Y020068D01*
X007228Y020067D02*
X006655Y020067D01*
X006653Y020066D02*
X007226Y020066D01*
X007225Y020065D02*
X006652Y020065D01*
X006651Y020064D02*
X007224Y020064D01*
X007222Y020063D02*
X006649Y020063D01*
X006648Y020062D02*
X007221Y020062D01*
X007219Y020061D02*
X006646Y020061D01*
X006645Y020060D02*
X007218Y020060D01*
X007217Y020059D02*
X006644Y020059D01*
X006642Y020058D02*
X007215Y020058D01*
X007214Y020057D02*
X006641Y020057D01*
X006640Y020056D02*
X007212Y020056D01*
X007211Y020055D02*
X006638Y020055D01*
X006637Y020054D02*
X007210Y020054D01*
X007208Y020054D02*
X006635Y020054D01*
X006634Y020053D02*
X007207Y020053D01*
X007206Y020052D02*
X006633Y020052D01*
X006631Y020051D02*
X007204Y020051D01*
X007203Y020050D02*
X006630Y020050D01*
X006629Y020049D02*
X007201Y020049D01*
X007200Y020048D02*
X006627Y020048D01*
X006626Y020047D02*
X007199Y020047D01*
X007197Y020046D02*
X006624Y020046D01*
X006623Y020045D02*
X007196Y020045D01*
X007195Y020044D02*
X006622Y020044D01*
X006620Y020043D02*
X007193Y020043D01*
X007192Y020042D02*
X006619Y020042D01*
X006617Y020041D02*
X007190Y020041D01*
X007189Y020040D02*
X006616Y020040D01*
X006615Y020039D02*
X007188Y020039D01*
X007186Y020038D02*
X006613Y020038D01*
X006612Y020037D02*
X007185Y020037D01*
X007183Y020037D02*
X006611Y020037D01*
X006609Y020036D02*
X007182Y020036D01*
X007181Y020035D02*
X006608Y020035D01*
X006606Y020034D02*
X007179Y020034D01*
X007178Y020033D02*
X006605Y020033D01*
X006604Y020032D02*
X007177Y020032D01*
X007175Y020031D02*
X006602Y020031D01*
X006601Y020030D02*
X007174Y020030D01*
X007172Y020029D02*
X006600Y020029D01*
X006598Y020028D02*
X007171Y020028D01*
X007170Y020027D02*
X006597Y020027D01*
X006595Y020026D02*
X007168Y020026D01*
X007167Y020025D02*
X006594Y020025D01*
X006593Y020024D02*
X007165Y020024D01*
X007164Y020023D02*
X006591Y020023D01*
X006590Y020022D02*
X007163Y020022D01*
X007161Y020021D02*
X006589Y020021D01*
X006587Y020020D02*
X007160Y020020D01*
X007159Y020020D02*
X006586Y020020D01*
X006584Y020019D02*
X007157Y020019D01*
X007156Y020018D02*
X006583Y020018D01*
X006582Y020017D02*
X007154Y020017D01*
X007153Y020016D02*
X006580Y020016D01*
X006579Y020015D02*
X007152Y020015D01*
X007150Y020014D02*
X006578Y020014D01*
X006576Y020013D02*
X007149Y020013D01*
X007148Y020012D02*
X006575Y020012D01*
X006573Y020011D02*
X007146Y020011D01*
X007145Y020010D02*
X006572Y020010D01*
X006571Y020009D02*
X007143Y020009D01*
X007142Y020008D02*
X006569Y020008D01*
X006568Y020007D02*
X007141Y020007D01*
X007139Y020006D02*
X006566Y020006D01*
X006565Y020005D02*
X007138Y020005D01*
X007136Y020004D02*
X006564Y020004D01*
X006562Y020003D02*
X007135Y020003D01*
X007134Y020003D02*
X006561Y020003D01*
X006560Y020002D02*
X007132Y020002D01*
X007131Y020001D02*
X006558Y020001D01*
X006557Y020000D02*
X007130Y020000D01*
X007128Y019999D02*
X006556Y019999D01*
X006554Y019998D02*
X007127Y019998D01*
X007125Y019997D02*
X006553Y019997D01*
X006551Y019996D02*
X007124Y019996D01*
X007123Y019995D02*
X006550Y019995D01*
X006549Y019994D02*
X007121Y019994D01*
X007120Y019993D02*
X006547Y019993D01*
X006546Y019992D02*
X007118Y019992D01*
X007117Y019991D02*
X006544Y019991D01*
X006543Y019990D02*
X007116Y019990D01*
X007114Y019989D02*
X006542Y019989D01*
X006540Y019988D02*
X007113Y019988D01*
X007112Y019987D02*
X006539Y019987D01*
X006538Y019986D02*
X007110Y019986D01*
X007109Y019986D02*
X006536Y019986D01*
X006535Y019985D02*
X007107Y019985D01*
X007106Y019984D02*
X006533Y019984D01*
X006532Y019983D02*
X007105Y019983D01*
X007103Y019982D02*
X006531Y019982D01*
X006529Y019981D02*
X007102Y019981D01*
X007100Y019980D02*
X006528Y019980D01*
X006527Y019979D02*
X007099Y019979D01*
X007098Y019978D02*
X006525Y019978D01*
X006524Y019977D02*
X007096Y019977D01*
X007095Y019976D02*
X006522Y019976D01*
X006521Y019975D02*
X007094Y019975D01*
X007092Y019974D02*
X006520Y019974D01*
X006518Y019973D02*
X007091Y019973D01*
X007089Y019972D02*
X006517Y019972D01*
X006516Y019971D02*
X007088Y019971D01*
X007087Y019970D02*
X006514Y019970D01*
X006513Y019969D02*
X007085Y019969D01*
X007084Y019969D02*
X006511Y019969D01*
X006510Y019968D02*
X007083Y019968D01*
X007081Y019967D02*
X006509Y019967D01*
X006507Y019966D02*
X007080Y019966D01*
X007078Y019965D02*
X006506Y019965D01*
X006505Y019964D02*
X007077Y019964D01*
X007076Y019963D02*
X006503Y019963D01*
X006502Y019962D02*
X007074Y019962D01*
X007073Y019961D02*
X006500Y019961D01*
X006499Y019960D02*
X007072Y019960D01*
X007070Y019959D02*
X006498Y019959D01*
X006496Y019958D02*
X007069Y019958D01*
X007067Y019957D02*
X006495Y019957D01*
X006494Y019956D02*
X007066Y019956D01*
X007065Y019955D02*
X006492Y019955D01*
X006491Y019954D02*
X007063Y019954D01*
X007062Y019953D02*
X006489Y019953D01*
X006488Y019952D02*
X007061Y019952D01*
X007059Y019951D02*
X006487Y019951D01*
X006485Y019951D02*
X007058Y019951D01*
X007056Y019950D02*
X006484Y019950D01*
X006483Y019949D02*
X007055Y019949D01*
X007054Y019948D02*
X006481Y019948D01*
X006480Y019947D02*
X007052Y019947D01*
X007051Y019946D02*
X006478Y019946D01*
X006477Y019945D02*
X007050Y019945D01*
X007048Y019944D02*
X006476Y019944D01*
X006474Y019943D02*
X007047Y019943D01*
X007045Y019942D02*
X006473Y019942D01*
X006471Y019941D02*
X007044Y019941D01*
X007043Y019940D02*
X006470Y019940D01*
X006469Y019939D02*
X007041Y019939D01*
X007040Y019938D02*
X006467Y019938D01*
X006466Y019937D02*
X007039Y019937D01*
X007037Y019936D02*
X006464Y019936D01*
X006463Y019935D02*
X007036Y019935D01*
X007034Y019934D02*
X006461Y019934D01*
X006460Y019934D02*
X007033Y019934D01*
X007032Y019933D02*
X006458Y019933D01*
X006457Y019932D02*
X007030Y019932D01*
X007029Y019931D02*
X006455Y019931D01*
X006454Y019930D02*
X007028Y019930D01*
X007026Y019929D02*
X006453Y019929D01*
X006451Y019928D02*
X007025Y019928D01*
X007024Y019927D02*
X006450Y019927D01*
X006448Y019926D02*
X007022Y019926D01*
X007021Y019925D02*
X006447Y019925D01*
X006445Y019924D02*
X007019Y019924D01*
X007018Y019923D02*
X006444Y019923D01*
X006442Y019922D02*
X007017Y019922D01*
X007015Y019921D02*
X006441Y019921D01*
X006439Y019920D02*
X007014Y019920D01*
X007012Y019919D02*
X006438Y019919D01*
X006437Y019918D02*
X007011Y019918D01*
X007010Y019917D02*
X006435Y019917D01*
X006434Y019917D02*
X007008Y019917D01*
X007007Y019916D02*
X006432Y019916D01*
X006431Y019915D02*
X007006Y019915D01*
X007004Y019914D02*
X006430Y019914D01*
X006428Y019913D02*
X007003Y019913D01*
X007001Y019912D02*
X006427Y019912D01*
X006426Y019911D02*
X007000Y019911D01*
X006999Y019910D02*
X006424Y019910D01*
X006423Y019909D02*
X006997Y019909D01*
X006996Y019908D02*
X006422Y019908D01*
X006420Y019907D02*
X006995Y019907D01*
X006993Y019906D02*
X006419Y019906D01*
X006418Y019905D02*
X006992Y019905D01*
X006991Y019904D02*
X006416Y019904D01*
X006415Y019903D02*
X006989Y019903D01*
X006988Y019902D02*
X006413Y019902D01*
X006412Y019901D02*
X006986Y019901D01*
X006985Y019900D02*
X006411Y019900D01*
X006409Y019900D02*
X006984Y019900D01*
X006982Y019899D02*
X006408Y019899D01*
X006407Y019898D02*
X006981Y019898D01*
X006980Y019897D02*
X006405Y019897D01*
X006404Y019896D02*
X006978Y019896D01*
X006977Y019895D02*
X006403Y019895D01*
X006401Y019894D02*
X006975Y019894D01*
X006974Y019893D02*
X006400Y019893D01*
X006399Y019892D02*
X006973Y019892D01*
X006971Y019891D02*
X006397Y019891D01*
X006396Y019890D02*
X006970Y019890D01*
X006969Y019889D02*
X006395Y019889D01*
X006393Y019888D02*
X006967Y019888D01*
X006966Y019887D02*
X006392Y019887D01*
X006391Y019886D02*
X006964Y019886D01*
X006963Y019885D02*
X006389Y019885D01*
X006388Y019884D02*
X006962Y019884D01*
X006960Y019883D02*
X006387Y019883D01*
X006385Y019883D02*
X006959Y019883D01*
X006958Y019882D02*
X006384Y019882D01*
X006383Y019881D02*
X006956Y019881D01*
X006955Y019880D02*
X006381Y019880D01*
X006380Y019879D02*
X006953Y019879D01*
X006952Y019878D02*
X006378Y019878D01*
X006377Y019877D02*
X006951Y019877D01*
X006949Y019876D02*
X006376Y019876D01*
X006374Y019875D02*
X006948Y019875D01*
X006947Y019874D02*
X006373Y019874D01*
X006371Y019873D02*
X006945Y019873D01*
X006944Y019872D02*
X006370Y019872D01*
X006368Y019871D02*
X006942Y019871D01*
X006941Y019870D02*
X006367Y019870D01*
X006365Y019869D02*
X006940Y019869D01*
X006938Y019868D02*
X006364Y019868D01*
X006362Y019867D02*
X006937Y019867D01*
X006936Y019866D02*
X006361Y019866D01*
X006359Y019866D02*
X006934Y019866D01*
X006933Y019865D02*
X006358Y019865D01*
X006357Y019864D02*
X006931Y019864D01*
X006930Y019863D02*
X006355Y019863D01*
X006354Y019862D02*
X006929Y019862D01*
X006927Y019861D02*
X006353Y019861D01*
X006351Y019860D02*
X006926Y019860D01*
X006925Y019859D02*
X006350Y019859D01*
X006348Y019858D02*
X006923Y019858D01*
X006922Y019857D02*
X006347Y019857D01*
X006346Y019856D02*
X006920Y019856D01*
X006919Y019855D02*
X006344Y019855D01*
X006343Y019854D02*
X006918Y019854D01*
X006916Y019853D02*
X006341Y019853D01*
X006340Y019852D02*
X006915Y019852D01*
X006914Y019851D02*
X006339Y019851D01*
X006337Y019850D02*
X006912Y019850D01*
X006911Y019849D02*
X006336Y019849D01*
X006334Y019849D02*
X006909Y019849D01*
X006908Y019848D02*
X006333Y019848D01*
X006332Y019847D02*
X006907Y019847D01*
X006905Y019846D02*
X006330Y019846D01*
X006329Y019845D02*
X006904Y019845D01*
X006903Y019844D02*
X006328Y019844D01*
X006326Y019843D02*
X006901Y019843D01*
X006900Y019842D02*
X006325Y019842D01*
X006323Y019841D02*
X006898Y019841D01*
X006897Y019840D02*
X006322Y019840D01*
X006321Y019839D02*
X006896Y019839D01*
X006894Y019838D02*
X006319Y019838D01*
X006318Y019837D02*
X006893Y019837D01*
X006892Y019836D02*
X006316Y019836D01*
X006315Y019835D02*
X006890Y019835D01*
X006889Y019834D02*
X006314Y019834D01*
X006312Y019833D02*
X006887Y019833D01*
X006886Y019832D02*
X006311Y019832D01*
X006309Y019831D02*
X006885Y019831D01*
X006883Y019831D02*
X006308Y019831D01*
X006307Y019830D02*
X006882Y019830D01*
X006881Y019829D02*
X006305Y019829D01*
X006304Y019828D02*
X006879Y019828D01*
X006878Y019827D02*
X006303Y019827D01*
X006301Y019826D02*
X006876Y019826D01*
X006875Y019825D02*
X006300Y019825D01*
X006298Y019824D02*
X006874Y019824D01*
X006872Y019823D02*
X006297Y019823D01*
X006296Y019822D02*
X006871Y019822D01*
X006870Y019821D02*
X006294Y019821D01*
X006293Y019820D02*
X006868Y019820D01*
X006867Y019819D02*
X006291Y019819D01*
X006290Y019818D02*
X006865Y019818D01*
X006864Y019817D02*
X006289Y019817D01*
X006287Y019816D02*
X006863Y019816D01*
X006861Y019815D02*
X006286Y019815D01*
X006284Y019814D02*
X006860Y019814D01*
X006859Y019814D02*
X006283Y019814D01*
X006281Y019813D02*
X006857Y019813D01*
X006856Y019812D02*
X006280Y019812D01*
X006278Y019811D02*
X006854Y019811D01*
X006853Y019810D02*
X006277Y019810D01*
X006275Y019809D02*
X006852Y019809D01*
X006850Y019808D02*
X006274Y019808D01*
X006272Y019807D02*
X006849Y019807D01*
X006848Y019806D02*
X006271Y019806D01*
X006269Y019805D02*
X006846Y019805D01*
X006845Y019804D02*
X006268Y019804D01*
X006266Y019803D02*
X006843Y019803D01*
X006842Y019802D02*
X006264Y019802D01*
X006263Y019801D02*
X006841Y019801D01*
X006839Y019800D02*
X006261Y019800D01*
X006259Y019799D02*
X006838Y019799D01*
X006836Y019798D02*
X006258Y019798D01*
X006256Y019797D02*
X006835Y019797D01*
X006834Y019797D02*
X006254Y019797D01*
X006253Y019796D02*
X006832Y019796D01*
X006831Y019795D02*
X006251Y019795D01*
X006250Y019794D02*
X006830Y019794D01*
X006828Y019793D02*
X006248Y019793D01*
X006246Y019792D02*
X006827Y019792D01*
X006826Y019791D02*
X006245Y019791D01*
X006243Y019790D02*
X006824Y019790D01*
X006823Y019789D02*
X006242Y019789D01*
X006240Y019788D02*
X006821Y019788D01*
X006820Y019787D02*
X006239Y019787D01*
X006237Y019786D02*
X006819Y019786D01*
X006817Y019785D02*
X006236Y019785D01*
X006234Y019784D02*
X006816Y019784D01*
X006814Y019783D02*
X006232Y019783D01*
X006230Y019782D02*
X006813Y019782D01*
X006812Y019781D02*
X006228Y019781D01*
X006226Y019780D02*
X006810Y019780D01*
X006809Y019780D02*
X006224Y019780D01*
X006222Y019779D02*
X006808Y019779D01*
X006806Y019778D02*
X006220Y019778D01*
X006218Y019777D02*
X006805Y019777D01*
X006803Y019776D02*
X006216Y019776D01*
X006214Y019775D02*
X006802Y019775D01*
X006801Y019774D02*
X006212Y019774D01*
X006210Y019773D02*
X006799Y019773D01*
X006798Y019772D02*
X006208Y019772D01*
X006206Y019771D02*
X006797Y019771D01*
X006795Y019770D02*
X006203Y019770D01*
X006201Y019769D02*
X006794Y019769D01*
X006792Y019768D02*
X006199Y019768D01*
X006196Y019767D02*
X006791Y019767D01*
X006790Y019766D02*
X006194Y019766D01*
X006191Y019765D02*
X006788Y019765D01*
X006787Y019764D02*
X006188Y019764D01*
X006185Y019763D02*
X006786Y019763D01*
X006784Y019763D02*
X006181Y019763D01*
X006176Y019762D02*
X006783Y019762D01*
X006781Y019761D02*
X006171Y019761D01*
X005558Y019761D01*
X005558Y019762D02*
X006165Y019762D01*
X006162Y019763D02*
X005557Y019763D01*
X006160Y019763D01*
X006157Y019764D02*
X005557Y019764D01*
X005556Y019765D02*
X006155Y019765D01*
X006153Y019766D02*
X005556Y019766D01*
X005556Y019767D02*
X006152Y019767D01*
X006150Y019768D02*
X005555Y019768D01*
X005555Y019769D02*
X006149Y019769D01*
X006147Y019770D02*
X005555Y019770D01*
X005555Y019771D02*
X006146Y019771D01*
X006145Y019772D02*
X005554Y019772D01*
X005554Y019773D02*
X006144Y019773D01*
X006142Y019774D02*
X005554Y019774D01*
X005553Y019775D02*
X006142Y019775D01*
X006141Y019776D02*
X005553Y019776D01*
X005553Y019777D02*
X006140Y019777D01*
X006139Y019778D02*
X005552Y019778D01*
X005552Y019779D02*
X006138Y019779D01*
X006138Y019780D02*
X005552Y019780D01*
X005551Y019780D02*
X006137Y019780D01*
X006136Y019781D02*
X005551Y019781D01*
X005551Y019782D02*
X006136Y019782D01*
X006135Y019783D02*
X005550Y019783D01*
X005550Y019784D02*
X006134Y019784D01*
X006134Y019785D02*
X005550Y019785D01*
X005550Y019786D02*
X006133Y019786D01*
X006132Y019787D02*
X005549Y019787D01*
X005549Y019788D02*
X006132Y019788D01*
X006131Y019789D02*
X005549Y019789D01*
X005548Y019790D02*
X006131Y019790D01*
X006130Y019791D02*
X005548Y019791D01*
X005548Y019792D02*
X006130Y019792D01*
X006129Y019793D02*
X005547Y019793D01*
X005547Y019794D02*
X006128Y019794D01*
X006128Y019795D02*
X005547Y019795D01*
X005546Y019796D02*
X006127Y019796D01*
X006127Y019797D02*
X005546Y019797D01*
X006126Y019797D01*
X006126Y019798D02*
X005545Y019798D01*
X005545Y019799D02*
X006125Y019799D01*
X006125Y019800D02*
X005545Y019800D01*
X005545Y019801D02*
X006124Y019801D01*
X006124Y019802D02*
X005544Y019802D01*
X005544Y019803D02*
X006123Y019803D01*
X006123Y019804D02*
X005544Y019804D01*
X005543Y019805D02*
X006122Y019805D01*
X006122Y019806D02*
X005543Y019806D01*
X005543Y019807D02*
X006121Y019807D01*
X006121Y019808D02*
X005542Y019808D01*
X005542Y019809D02*
X006120Y019809D01*
X006120Y019810D02*
X005542Y019810D01*
X005541Y019811D02*
X006119Y019811D01*
X006119Y019812D02*
X005541Y019812D01*
X005541Y019813D02*
X006119Y019813D01*
X006118Y019814D02*
X005540Y019814D01*
X006118Y019814D01*
X006117Y019815D02*
X005540Y019815D01*
X005540Y019816D02*
X006117Y019816D01*
X006117Y019817D02*
X005539Y019817D01*
X005539Y019818D02*
X006116Y019818D01*
X006116Y019819D02*
X005539Y019819D01*
X005538Y019820D02*
X006116Y019820D01*
X006115Y019821D02*
X005538Y019821D01*
X005538Y019822D02*
X006115Y019822D01*
X006114Y019823D02*
X005537Y019823D01*
X005537Y019824D02*
X006114Y019824D01*
X006114Y019825D02*
X005537Y019825D01*
X005536Y019826D02*
X006113Y019826D01*
X006113Y019827D02*
X005536Y019827D01*
X005536Y019828D02*
X006113Y019828D01*
X006112Y019829D02*
X005535Y019829D01*
X005535Y019830D02*
X006112Y019830D01*
X006112Y019831D02*
X005535Y019831D01*
X006111Y019831D01*
X006111Y019832D02*
X005534Y019832D01*
X005534Y019833D02*
X006110Y019833D01*
X006110Y019834D02*
X005534Y019834D01*
X005533Y019835D02*
X006110Y019835D01*
X006109Y019836D02*
X005533Y019836D01*
X005533Y019837D02*
X006109Y019837D01*
X006109Y019838D02*
X005532Y019838D01*
X005532Y019839D02*
X006108Y019839D01*
X006108Y019840D02*
X005532Y019840D01*
X005531Y019841D02*
X006108Y019841D01*
X006107Y019842D02*
X005531Y019842D01*
X005531Y019843D02*
X006107Y019843D01*
X006107Y019844D02*
X005530Y019844D01*
X005530Y019845D02*
X006106Y019845D01*
X006106Y019846D02*
X005530Y019846D01*
X005530Y019847D02*
X006106Y019847D01*
X006105Y019848D02*
X005529Y019848D01*
X005529Y019849D02*
X006105Y019849D01*
X005529Y019849D01*
X005528Y019850D02*
X006104Y019850D01*
X006104Y019851D02*
X005528Y019851D01*
X005528Y019852D02*
X006104Y019852D01*
X006103Y019853D02*
X005527Y019853D01*
X005527Y019854D02*
X006103Y019854D01*
X006103Y019855D02*
X005527Y019855D01*
X005526Y019856D02*
X006102Y019856D01*
X006102Y019857D02*
X005526Y019857D01*
X005526Y019858D02*
X006102Y019858D01*
X006101Y019859D02*
X005525Y019859D01*
X005525Y019860D02*
X006101Y019860D01*
X006101Y019861D02*
X005525Y019861D01*
X005525Y019862D02*
X006101Y019862D01*
X006100Y019863D02*
X005524Y019863D01*
X005524Y019864D02*
X006100Y019864D01*
X006100Y019865D02*
X005524Y019865D01*
X005523Y019866D02*
X006099Y019866D01*
X005523Y019866D01*
X005523Y019867D02*
X006099Y019867D01*
X006098Y019868D02*
X005522Y019868D01*
X005522Y019869D02*
X006098Y019869D01*
X006098Y019870D02*
X005522Y019870D01*
X005521Y019871D02*
X006097Y019871D01*
X006097Y019872D02*
X005521Y019872D01*
X005521Y019873D02*
X006097Y019873D01*
X006096Y019874D02*
X005520Y019874D01*
X005520Y019875D02*
X006096Y019875D01*
X006096Y019876D02*
X005520Y019876D01*
X005520Y019877D02*
X006096Y019877D01*
X006095Y019878D02*
X005519Y019878D01*
X005519Y019879D02*
X006095Y019879D01*
X006095Y019880D02*
X005519Y019880D01*
X005518Y019881D02*
X006094Y019881D01*
X006094Y019882D02*
X005518Y019882D01*
X005518Y019883D02*
X006094Y019883D01*
X006093Y019883D02*
X005517Y019883D01*
X005517Y019884D02*
X006093Y019884D01*
X006093Y019885D02*
X005517Y019885D01*
X005516Y019886D02*
X006092Y019886D01*
X006092Y019887D02*
X005516Y019887D01*
X005516Y019888D02*
X006092Y019888D01*
X006091Y019889D02*
X005515Y019889D01*
X005515Y019890D02*
X006091Y019890D01*
X006091Y019891D02*
X005515Y019891D01*
X005515Y019892D02*
X006090Y019892D01*
X006090Y019893D02*
X005514Y019893D01*
X005514Y019894D02*
X006090Y019894D01*
X006089Y019895D02*
X005514Y019895D01*
X005513Y019896D02*
X006089Y019896D01*
X006089Y019897D02*
X005513Y019897D01*
X005513Y019898D02*
X006088Y019898D01*
X006088Y019899D02*
X005512Y019899D01*
X005512Y019900D02*
X006088Y019900D01*
X006087Y019900D02*
X005512Y019900D01*
X005511Y019901D02*
X006087Y019901D01*
X006087Y019902D02*
X005511Y019902D01*
X005511Y019903D02*
X006086Y019903D01*
X006086Y019904D02*
X005510Y019904D01*
X005510Y019905D02*
X006086Y019905D01*
X006086Y019906D02*
X005510Y019906D01*
X005510Y019907D02*
X006085Y019907D01*
X006085Y019908D02*
X005509Y019908D01*
X005509Y019909D02*
X006085Y019909D01*
X006084Y019910D02*
X005509Y019910D01*
X005508Y019911D02*
X006084Y019911D01*
X006084Y019912D02*
X005508Y019912D01*
X005508Y019913D02*
X006083Y019913D01*
X006083Y019914D02*
X005507Y019914D01*
X005507Y019915D02*
X006083Y019915D01*
X006082Y019916D02*
X005507Y019916D01*
X005506Y019917D02*
X006082Y019917D01*
X005506Y019917D01*
X005506Y019918D02*
X006081Y019918D01*
X006081Y019919D02*
X005505Y019919D01*
X005505Y019920D02*
X006081Y019920D01*
X006080Y019921D02*
X005505Y019921D01*
X005505Y019922D02*
X006080Y019922D01*
X006080Y019923D02*
X005504Y019923D01*
X005504Y019924D02*
X006079Y019924D01*
X006079Y019925D02*
X005504Y019925D01*
X005503Y019926D02*
X006079Y019926D01*
X006078Y019927D02*
X005503Y019927D01*
X005503Y019928D02*
X006078Y019928D01*
X006078Y019929D02*
X005502Y019929D01*
X005502Y019930D02*
X006077Y019930D01*
X006077Y019931D02*
X005502Y019931D01*
X005501Y019932D02*
X006077Y019932D01*
X006077Y019933D02*
X005501Y019933D01*
X005501Y019934D02*
X006076Y019934D01*
X005500Y019934D01*
X005500Y019935D02*
X006076Y019935D01*
X006075Y019936D02*
X005500Y019936D01*
X005500Y019937D02*
X006075Y019937D01*
X006075Y019938D02*
X005499Y019938D01*
X005499Y019939D02*
X006074Y019939D01*
X006074Y019940D02*
X005499Y019940D01*
X005498Y019941D02*
X006074Y019941D01*
X006073Y019942D02*
X005498Y019942D01*
X005498Y019943D02*
X006073Y019943D01*
X006073Y019944D02*
X005497Y019944D01*
X005497Y019945D02*
X006072Y019945D01*
X006072Y019946D02*
X005497Y019946D01*
X005496Y019947D02*
X006072Y019947D01*
X006071Y019948D02*
X005496Y019948D01*
X005496Y019949D02*
X006071Y019949D01*
X006071Y019950D02*
X005495Y019950D01*
X005495Y019951D02*
X006070Y019951D01*
X005495Y019951D01*
X005495Y019952D02*
X006070Y019952D01*
X006070Y019953D02*
X005494Y019953D01*
X005494Y019954D02*
X006069Y019954D01*
X006069Y019955D02*
X005494Y019955D01*
X005493Y019956D02*
X006069Y019956D01*
X006068Y019957D02*
X005493Y019957D01*
X005493Y019958D02*
X006068Y019958D01*
X006068Y019959D02*
X005492Y019959D01*
X005492Y019960D02*
X006067Y019960D01*
X006067Y019961D02*
X005492Y019961D01*
X005491Y019962D02*
X006067Y019962D01*
X006066Y019963D02*
X005491Y019963D01*
X005491Y019964D02*
X006066Y019964D01*
X006066Y019965D02*
X005490Y019965D01*
X005490Y019966D02*
X006065Y019966D01*
X006065Y019967D02*
X005490Y019967D01*
X005489Y019968D02*
X006065Y019968D01*
X006064Y019969D02*
X005489Y019969D01*
X006064Y019969D01*
X006064Y019970D02*
X005489Y019970D01*
X005488Y019971D02*
X006063Y019971D01*
X006063Y019972D02*
X005488Y019972D01*
X005488Y019973D02*
X006063Y019973D01*
X006062Y019974D02*
X005487Y019974D01*
X005487Y019975D02*
X006062Y019975D01*
X006062Y019976D02*
X005487Y019976D01*
X005486Y019977D02*
X006062Y019977D01*
X006061Y019978D02*
X005486Y019978D01*
X005486Y019979D02*
X006061Y019979D01*
X006061Y019980D02*
X005485Y019980D01*
X005485Y019981D02*
X006060Y019981D01*
X006060Y019982D02*
X005485Y019982D01*
X005484Y019983D02*
X006060Y019983D01*
X006059Y019984D02*
X005484Y019984D01*
X005484Y019985D02*
X006059Y019985D01*
X006059Y019986D02*
X005483Y019986D01*
X006058Y019986D01*
X006058Y019987D02*
X005483Y019987D01*
X005483Y019988D02*
X006058Y019988D01*
X006057Y019989D02*
X005482Y019989D01*
X005482Y019990D02*
X006057Y019990D01*
X006057Y019991D02*
X005482Y019991D01*
X005481Y019992D02*
X006056Y019992D01*
X006056Y019993D02*
X005481Y019993D01*
X005481Y019994D02*
X006056Y019994D01*
X006055Y019995D02*
X005480Y019995D01*
X005480Y019996D02*
X006055Y019996D01*
X006055Y019997D02*
X005480Y019997D01*
X005479Y019998D02*
X006055Y019998D01*
X006054Y019999D02*
X005479Y019999D01*
X005479Y020000D02*
X006054Y020000D01*
X006054Y020001D02*
X005478Y020001D01*
X005478Y020002D02*
X006053Y020002D01*
X006053Y020003D02*
X005478Y020003D01*
X005477Y020003D02*
X006053Y020003D01*
X006052Y020004D02*
X005477Y020004D01*
X005477Y020005D02*
X006052Y020005D01*
X006052Y020006D02*
X005476Y020006D01*
X005476Y020007D02*
X006051Y020007D01*
X006051Y020008D02*
X005476Y020008D01*
X005476Y020009D02*
X006051Y020009D01*
X006050Y020010D02*
X005475Y020010D01*
X005475Y020011D02*
X006050Y020011D01*
X006050Y020012D02*
X005475Y020012D01*
X005474Y020013D02*
X006049Y020013D01*
X006049Y020014D02*
X005474Y020014D01*
X005474Y020015D02*
X006049Y020015D01*
X006049Y020016D02*
X005473Y020016D01*
X005473Y020017D02*
X006048Y020017D01*
X006048Y020018D02*
X005473Y020018D01*
X005472Y020019D02*
X006048Y020019D01*
X006047Y020020D02*
X005472Y020020D01*
X006047Y020020D01*
X006047Y020021D02*
X005471Y020021D01*
X005471Y020022D02*
X006046Y020022D01*
X006046Y020023D02*
X005471Y020023D01*
X005471Y020024D02*
X006046Y020024D01*
X006045Y020025D02*
X005470Y020025D01*
X005470Y020026D02*
X006045Y020026D01*
X006045Y020027D02*
X005470Y020027D01*
X005469Y020028D02*
X006044Y020028D01*
X006044Y020029D02*
X005469Y020029D01*
X005469Y020030D02*
X006044Y020030D01*
X006044Y020031D02*
X005468Y020031D01*
X005468Y020032D02*
X006043Y020032D01*
X006043Y020033D02*
X005468Y020033D01*
X005467Y020034D02*
X006043Y020034D01*
X006042Y020035D02*
X005467Y020035D01*
X005467Y020036D02*
X006042Y020036D01*
X006042Y020037D02*
X005466Y020037D01*
X006041Y020037D01*
X006041Y020038D02*
X005466Y020038D01*
X005465Y020039D02*
X006041Y020039D01*
X006040Y020040D02*
X005465Y020040D01*
X005465Y020041D02*
X006040Y020041D01*
X006040Y020042D02*
X005464Y020042D01*
X005464Y020043D02*
X006039Y020043D01*
X006039Y020044D02*
X005464Y020044D01*
X005464Y020045D02*
X006039Y020045D01*
X006039Y020046D02*
X005463Y020046D01*
X005463Y020047D02*
X006038Y020047D01*
X006038Y020048D02*
X005463Y020048D01*
X005462Y020049D02*
X006038Y020049D01*
X006037Y020050D02*
X005462Y020050D01*
X005462Y020051D02*
X006037Y020051D01*
X006037Y020052D02*
X005461Y020052D01*
X005461Y020053D02*
X006036Y020053D01*
X006036Y020054D02*
X005461Y020054D01*
X005460Y020054D02*
X006036Y020054D01*
X006035Y020055D02*
X005460Y020055D01*
X005460Y020056D02*
X006035Y020056D01*
X006035Y020057D02*
X005459Y020057D01*
X005459Y020058D02*
X006034Y020058D01*
X006034Y020059D02*
X005459Y020059D01*
X005458Y020060D02*
X006034Y020060D01*
X006034Y020061D02*
X005458Y020061D01*
X005458Y020062D02*
X006033Y020062D01*
X006033Y020063D02*
X005458Y020063D01*
X005457Y020064D02*
X006033Y020064D01*
X006032Y020065D02*
X005457Y020065D01*
X005457Y020066D02*
X006032Y020066D01*
X006032Y020067D02*
X005456Y020067D01*
X005456Y020068D02*
X006031Y020068D01*
X006031Y020069D02*
X005456Y020069D01*
X005455Y020070D02*
X006031Y020070D01*
X006030Y020071D02*
X005455Y020071D01*
X006030Y020071D01*
X006030Y020072D02*
X005454Y020072D01*
X005454Y020073D02*
X006029Y020073D01*
X006029Y020074D02*
X005454Y020074D01*
X005453Y020075D02*
X006029Y020075D01*
X006029Y020076D02*
X005453Y020076D01*
X005453Y020077D02*
X006028Y020077D01*
X006028Y020078D02*
X005452Y020078D01*
X005452Y020079D02*
X006028Y020079D01*
X006027Y020080D02*
X005452Y020080D01*
X005452Y020081D02*
X006027Y020081D01*
X006027Y020082D02*
X005451Y020082D01*
X005451Y020083D02*
X006026Y020083D01*
X006026Y020084D02*
X005451Y020084D01*
X005450Y020085D02*
X006026Y020085D01*
X006025Y020086D02*
X005450Y020086D01*
X005450Y020087D02*
X006025Y020087D01*
X006025Y020088D02*
X005449Y020088D01*
X005449Y020089D02*
X006024Y020089D01*
X005449Y020089D01*
X005448Y020090D02*
X006024Y020090D01*
X006024Y020091D02*
X005448Y020091D01*
X005448Y020092D02*
X006023Y020092D01*
X006023Y020093D02*
X005447Y020093D01*
X005447Y020094D02*
X006023Y020094D01*
X006022Y020095D02*
X005447Y020095D01*
X005446Y020096D02*
X006022Y020096D01*
X006022Y020097D02*
X005446Y020097D01*
X005446Y020098D02*
X006021Y020098D01*
X006021Y020099D02*
X005446Y020099D01*
X005445Y020100D02*
X006021Y020100D01*
X006020Y020101D02*
X005445Y020101D01*
X005445Y020102D02*
X006020Y020102D01*
X006020Y020103D02*
X005444Y020103D01*
X005444Y020104D02*
X006019Y020104D01*
X006019Y020105D02*
X005444Y020105D01*
X005443Y020106D02*
X006019Y020106D01*
X005443Y020106D01*
X005443Y020107D02*
X006018Y020107D01*
X006018Y020108D02*
X005442Y020108D01*
X005442Y020109D02*
X006018Y020109D01*
X006017Y020110D02*
X005442Y020110D01*
X005441Y020111D02*
X006017Y020111D01*
X006017Y020112D02*
X005441Y020112D01*
X005441Y020113D02*
X006016Y020113D01*
X006016Y020114D02*
X005440Y020114D01*
X005440Y020115D02*
X006016Y020115D01*
X006015Y020116D02*
X005440Y020116D01*
X005440Y020117D02*
X006015Y020117D01*
X006015Y020118D02*
X005439Y020118D01*
X005439Y020119D02*
X006014Y020119D01*
X006014Y020120D02*
X005439Y020120D01*
X005438Y020121D02*
X006014Y020121D01*
X006013Y020122D02*
X005438Y020122D01*
X005438Y020123D02*
X006013Y020123D01*
X005437Y020123D01*
X005437Y020124D02*
X006012Y020124D01*
X006012Y020125D02*
X005437Y020125D01*
X005436Y020126D02*
X006012Y020126D01*
X006011Y020127D02*
X005436Y020127D01*
X005436Y020128D02*
X006011Y020128D01*
X006011Y020129D02*
X005436Y020129D01*
X005435Y020130D02*
X006011Y020130D01*
X006010Y020131D02*
X005435Y020131D01*
X005435Y020132D02*
X006010Y020132D01*
X006010Y020133D02*
X005434Y020133D01*
X005434Y020134D02*
X006009Y020134D01*
X006009Y020135D02*
X005434Y020135D01*
X005433Y020136D02*
X006009Y020136D01*
X006008Y020137D02*
X005433Y020137D01*
X005433Y020138D02*
X006008Y020138D01*
X006008Y020139D02*
X005432Y020139D01*
X005432Y020140D02*
X006007Y020140D01*
X005432Y020140D01*
X005432Y020141D02*
X006007Y020141D01*
X006006Y020142D02*
X005431Y020142D01*
X005431Y020143D02*
X006006Y020143D01*
X006006Y020144D02*
X005431Y020144D01*
X005430Y020145D02*
X006005Y020145D01*
X006005Y020146D02*
X005430Y020146D01*
X005430Y020147D02*
X006005Y020147D01*
X006004Y020148D02*
X005429Y020148D01*
X005429Y020149D02*
X006004Y020149D01*
X006004Y020150D02*
X005429Y020150D01*
X005429Y020151D02*
X006003Y020151D01*
X006003Y020152D02*
X005428Y020152D01*
X005428Y020153D02*
X006003Y020153D01*
X006003Y020154D02*
X005428Y020154D01*
X005427Y020155D02*
X006002Y020155D01*
X006002Y020156D02*
X005427Y020156D01*
X005427Y020157D02*
X006002Y020157D01*
X006001Y020157D02*
X005426Y020157D01*
X005426Y020158D02*
X006001Y020158D01*
X006001Y020159D02*
X005426Y020159D01*
X005425Y020160D02*
X006000Y020160D01*
X006000Y020161D02*
X005425Y020161D01*
X005425Y020162D02*
X006000Y020162D01*
X005999Y020163D02*
X005424Y020163D01*
X005424Y020164D02*
X005999Y020164D01*
X005999Y020165D02*
X005424Y020165D01*
X005424Y020166D02*
X005998Y020166D01*
X005998Y020167D02*
X005423Y020167D01*
X005423Y020168D02*
X005998Y020168D01*
X005997Y020169D02*
X005423Y020169D01*
X005422Y020170D02*
X005997Y020170D01*
X005997Y020171D02*
X005422Y020171D01*
X005422Y020172D02*
X005996Y020172D01*
X005996Y020173D02*
X005421Y020173D01*
X005421Y020174D02*
X005996Y020174D01*
X005995Y020174D02*
X005421Y020174D01*
X005421Y020175D02*
X005995Y020175D01*
X005995Y020176D02*
X005420Y020176D01*
X005420Y020177D02*
X005995Y020177D01*
X005994Y020178D02*
X005420Y020178D01*
X005419Y020179D02*
X005994Y020179D01*
X005994Y020180D02*
X005419Y020180D01*
X005419Y020181D02*
X005993Y020181D01*
X005993Y020182D02*
X005418Y020182D01*
X005418Y020183D02*
X005993Y020183D01*
X005992Y020184D02*
X005418Y020184D01*
X005417Y020185D02*
X005992Y020185D01*
X005992Y020186D02*
X005417Y020186D01*
X005417Y020187D02*
X005991Y020187D01*
X005991Y020188D02*
X005417Y020188D01*
X005416Y020189D02*
X005991Y020189D01*
X005990Y020190D02*
X005416Y020190D01*
X005416Y020191D02*
X005990Y020191D01*
X005415Y020191D01*
X005415Y020192D02*
X005990Y020192D01*
X005989Y020193D02*
X005415Y020193D01*
X005414Y020194D02*
X005989Y020194D01*
X005989Y020195D02*
X005414Y020195D01*
X005414Y020196D02*
X005988Y020196D01*
X005988Y020197D02*
X005414Y020197D01*
X005413Y020198D02*
X005988Y020198D01*
X005987Y020199D02*
X005413Y020199D01*
X005413Y020200D02*
X005987Y020200D01*
X005987Y020201D02*
X005412Y020201D01*
X005412Y020202D02*
X005987Y020202D01*
X005986Y020203D02*
X005412Y020203D01*
X005411Y020204D02*
X005986Y020204D01*
X005986Y020205D02*
X005411Y020205D01*
X005411Y020206D02*
X005985Y020206D01*
X005985Y020207D02*
X005410Y020207D01*
X005410Y020208D02*
X005985Y020208D01*
X005985Y020209D02*
X005410Y020209D01*
X005409Y020209D02*
X005984Y020209D01*
X005984Y020210D02*
X005409Y020210D01*
X005409Y020211D02*
X005984Y020211D01*
X005983Y020212D02*
X005409Y020212D01*
X005408Y020213D02*
X005983Y020213D01*
X005983Y020214D02*
X005408Y020214D01*
X005408Y020215D02*
X005983Y020215D01*
X005982Y020216D02*
X005407Y020216D01*
X005407Y020217D02*
X005982Y020217D01*
X005982Y020218D02*
X005407Y020218D01*
X005406Y020219D02*
X005981Y020219D01*
X005981Y020220D02*
X005406Y020220D01*
X005406Y020221D02*
X005981Y020221D01*
X005981Y020222D02*
X005406Y020222D01*
X005405Y020223D02*
X005980Y020223D01*
X005980Y020224D02*
X005405Y020224D01*
X005405Y020225D02*
X005980Y020225D01*
X005979Y020226D02*
X005404Y020226D01*
X005979Y020226D01*
X005979Y020227D02*
X005404Y020227D01*
X005403Y020228D02*
X005978Y020228D01*
X005978Y020229D02*
X005403Y020229D01*
X005403Y020230D02*
X005978Y020230D01*
X005977Y020231D02*
X005402Y020231D01*
X005402Y020232D02*
X005977Y020232D01*
X005977Y020233D02*
X005402Y020233D01*
X005402Y020234D02*
X005976Y020234D01*
X005976Y020235D02*
X005401Y020235D01*
X005401Y020236D02*
X005976Y020236D01*
X005976Y020237D02*
X005401Y020237D01*
X005400Y020238D02*
X005975Y020238D01*
X005975Y020239D02*
X005400Y020239D01*
X005400Y020240D02*
X005975Y020240D01*
X005974Y020241D02*
X005399Y020241D01*
X005399Y020242D02*
X005974Y020242D01*
X005974Y020243D02*
X005399Y020243D01*
X005398Y020243D02*
X005973Y020243D01*
X005973Y020244D02*
X005398Y020244D01*
X005398Y020245D02*
X005973Y020245D01*
X005972Y020246D02*
X005398Y020246D01*
X005397Y020247D02*
X005972Y020247D01*
X005972Y020248D02*
X005397Y020248D01*
X005397Y020249D02*
X005971Y020249D01*
X005971Y020250D02*
X005396Y020250D01*
X005396Y020251D02*
X005971Y020251D01*
X005970Y020252D02*
X005396Y020252D01*
X005395Y020253D02*
X005970Y020253D01*
X005970Y020254D02*
X005395Y020254D01*
X005395Y020255D02*
X005969Y020255D01*
X005969Y020256D02*
X005394Y020256D01*
X005394Y020257D02*
X005969Y020257D01*
X005969Y020258D02*
X005394Y020258D01*
X005394Y020259D02*
X005968Y020259D01*
X005968Y020260D02*
X005393Y020260D01*
X005968Y020260D01*
X005967Y020261D02*
X005393Y020261D01*
X005392Y020262D02*
X005967Y020262D01*
X005967Y020263D02*
X005392Y020263D01*
X005392Y020264D02*
X005966Y020264D01*
X005966Y020265D02*
X005391Y020265D01*
X005391Y020266D02*
X005966Y020266D01*
X005966Y020267D02*
X005391Y020267D01*
X005391Y020268D02*
X005965Y020268D01*
X005965Y020269D02*
X005390Y020269D01*
X005390Y020270D02*
X005965Y020270D01*
X005965Y020271D02*
X005390Y020271D01*
X005389Y020272D02*
X005964Y020272D01*
X005964Y020273D02*
X005389Y020273D01*
X005389Y020274D02*
X005964Y020274D01*
X005964Y020275D02*
X005388Y020275D01*
X005388Y020276D02*
X005963Y020276D01*
X005963Y020277D02*
X005388Y020277D01*
X005387Y020277D02*
X005963Y020277D01*
X005962Y020278D02*
X005387Y020278D01*
X005387Y020279D02*
X005962Y020279D01*
X005962Y020280D02*
X005387Y020280D01*
X005386Y020281D02*
X005962Y020281D01*
X005961Y020282D02*
X005386Y020282D01*
X005386Y020283D02*
X005961Y020283D01*
X005961Y020284D02*
X005385Y020284D01*
X005385Y020285D02*
X005960Y020285D01*
X005960Y020286D02*
X005385Y020286D01*
X005385Y020287D02*
X005960Y020287D01*
X005960Y020288D02*
X005384Y020288D01*
X005384Y020289D02*
X005959Y020289D01*
X005959Y020290D02*
X005384Y020290D01*
X005383Y020291D02*
X005959Y020291D01*
X005958Y020292D02*
X005383Y020292D01*
X005383Y020293D02*
X005958Y020293D01*
X005958Y020294D02*
X005383Y020294D01*
X005382Y020294D02*
X005957Y020294D01*
X005957Y020295D02*
X005382Y020295D01*
X005382Y020296D02*
X005957Y020296D01*
X005956Y020297D02*
X005382Y020297D01*
X005381Y020298D02*
X005956Y020298D01*
X005956Y020299D02*
X005381Y020299D01*
X005381Y020300D02*
X005955Y020300D01*
X005955Y020301D02*
X005381Y020301D01*
X005380Y020302D02*
X005955Y020302D01*
X005954Y020303D02*
X005380Y020303D01*
X005380Y020304D02*
X005954Y020304D01*
X005954Y020305D02*
X005379Y020305D01*
X005379Y020306D02*
X005954Y020306D01*
X005953Y020307D02*
X005379Y020307D01*
X005379Y020308D02*
X005953Y020308D01*
X005953Y020309D02*
X005378Y020309D01*
X005378Y020310D02*
X005953Y020310D01*
X005952Y020311D02*
X005378Y020311D01*
X005952Y020311D01*
X005952Y020312D02*
X005377Y020312D01*
X005377Y020313D02*
X005951Y020313D01*
X005951Y020314D02*
X005377Y020314D01*
X005377Y020315D02*
X005951Y020315D01*
X005951Y020316D02*
X005376Y020316D01*
X005376Y020317D02*
X005950Y020317D01*
X005950Y020318D02*
X005376Y020318D01*
X005376Y020319D02*
X005950Y020319D01*
X005950Y020320D02*
X005375Y020320D01*
X005375Y020321D02*
X005949Y020321D01*
X005949Y020322D02*
X005375Y020322D01*
X005374Y020323D02*
X005949Y020323D01*
X005949Y020324D02*
X005374Y020324D01*
X005374Y020325D02*
X005948Y020325D01*
X005948Y020326D02*
X005374Y020326D01*
X005373Y020327D02*
X005948Y020327D01*
X005947Y020328D02*
X005373Y020328D01*
X005373Y020329D02*
X005947Y020329D01*
X005946Y020329D02*
X005373Y020329D01*
X005372Y020330D02*
X005946Y020330D01*
X005946Y020331D02*
X005372Y020331D01*
X005372Y020332D02*
X005946Y020332D01*
X005945Y020333D02*
X005372Y020333D01*
X005371Y020334D02*
X005945Y020334D01*
X005945Y020335D02*
X005371Y020335D01*
X005371Y020336D02*
X005944Y020336D01*
X005944Y020337D02*
X005370Y020337D01*
X005370Y020338D02*
X005944Y020338D01*
X005944Y020339D02*
X005370Y020339D01*
X005370Y020340D02*
X005943Y020340D01*
X005943Y020341D02*
X005369Y020341D01*
X005369Y020342D02*
X005943Y020342D01*
X005943Y020343D02*
X005369Y020343D01*
X005369Y020344D02*
X005942Y020344D01*
X005942Y020345D02*
X005368Y020345D01*
X005368Y020346D02*
X005942Y020346D01*
X005368Y020346D01*
X005368Y020347D02*
X005941Y020347D01*
X005941Y020348D02*
X005367Y020348D01*
X005367Y020349D02*
X005941Y020349D01*
X005940Y020350D02*
X005367Y020350D01*
X005367Y020351D02*
X005940Y020351D01*
X005940Y020352D02*
X005366Y020352D01*
X005366Y020353D02*
X005940Y020353D01*
X005939Y020354D02*
X005366Y020354D01*
X005366Y020355D02*
X005939Y020355D01*
X005939Y020356D02*
X005366Y020356D01*
X005365Y020357D02*
X005938Y020357D01*
X005938Y020358D02*
X005365Y020358D01*
X005365Y020359D02*
X005938Y020359D01*
X005937Y020360D02*
X005365Y020360D01*
X005365Y020361D02*
X005937Y020361D01*
X005937Y020362D02*
X005364Y020362D01*
X005364Y020363D02*
X005937Y020363D01*
X005936Y020363D02*
X005364Y020363D01*
X005364Y020364D02*
X005936Y020364D01*
X005936Y020365D02*
X005364Y020365D01*
X005363Y020366D02*
X005935Y020366D01*
X005935Y020367D02*
X005363Y020367D01*
X005363Y020368D02*
X005935Y020368D01*
X005935Y020369D02*
X005363Y020369D01*
X005363Y020370D02*
X005934Y020370D01*
X005934Y020371D02*
X005362Y020371D01*
X005362Y020372D02*
X005934Y020372D01*
X005934Y020373D02*
X005362Y020373D01*
X005362Y020374D02*
X005933Y020374D01*
X005933Y020375D02*
X005362Y020375D01*
X005361Y020376D02*
X005933Y020376D01*
X005932Y020377D02*
X005361Y020377D01*
X005361Y020378D02*
X005932Y020378D01*
X005932Y020379D02*
X005361Y020379D01*
X005361Y020380D02*
X005932Y020380D01*
X005931Y020380D02*
X005361Y020380D01*
X005360Y020381D02*
X005931Y020381D01*
X005931Y020382D02*
X005360Y020382D01*
X005360Y020383D02*
X005930Y020383D01*
X005930Y020384D02*
X005360Y020384D01*
X005360Y020385D02*
X005930Y020385D01*
X005930Y020386D02*
X005360Y020386D01*
X005360Y020387D02*
X005929Y020387D01*
X005929Y020388D02*
X005360Y020388D01*
X005360Y020389D02*
X005929Y020389D01*
X005928Y020390D02*
X005360Y020390D01*
X005359Y020391D02*
X005928Y020391D01*
X005928Y020392D02*
X005359Y020392D01*
X005359Y020393D02*
X005927Y020393D01*
X005927Y020394D02*
X005359Y020394D01*
X005359Y020395D02*
X005927Y020395D01*
X005926Y020396D02*
X005359Y020396D01*
X005359Y020397D02*
X005926Y020397D01*
X005359Y020397D01*
X005359Y020398D02*
X005926Y020398D01*
X005925Y020399D02*
X005359Y020399D01*
X005359Y020400D02*
X005925Y020400D01*
X005925Y020401D02*
X005359Y020401D01*
X005359Y020402D02*
X005924Y020402D01*
X005924Y020403D02*
X005359Y020403D01*
X005359Y020404D02*
X005924Y020404D01*
X005923Y020405D02*
X005359Y020405D01*
X005359Y020406D02*
X005923Y020406D01*
X005923Y020407D02*
X005359Y020407D01*
X005359Y020408D02*
X005922Y020408D01*
X005922Y020409D02*
X005359Y020409D01*
X005360Y020410D02*
X005922Y020410D01*
X005921Y020411D02*
X005360Y020411D01*
X005360Y020412D02*
X005921Y020412D01*
X005920Y020413D02*
X005360Y020413D01*
X005360Y020414D02*
X005920Y020414D01*
X005919Y020414D02*
X005360Y020414D01*
X005361Y020415D02*
X005919Y020415D01*
X005919Y020416D02*
X005361Y020416D01*
X005361Y020417D02*
X005918Y020417D01*
X005918Y020418D02*
X005361Y020418D01*
X005361Y020419D02*
X005917Y020419D01*
X005917Y020420D02*
X005362Y020420D01*
X005362Y020421D02*
X005917Y020421D01*
X005916Y020422D02*
X005362Y020422D01*
X005362Y020423D02*
X005916Y020423D01*
X005915Y020424D02*
X005363Y020424D01*
X005363Y020425D02*
X005915Y020425D01*
X005915Y020426D02*
X005363Y020426D01*
X005364Y020427D02*
X005914Y020427D01*
X005914Y020428D02*
X005364Y020428D01*
X005364Y020429D02*
X005913Y020429D01*
X005913Y020430D02*
X005365Y020430D01*
X005365Y020431D02*
X005912Y020431D01*
X005366Y020431D01*
X005366Y020432D02*
X005911Y020432D01*
X005911Y020433D02*
X005367Y020433D01*
X005368Y020434D02*
X005910Y020434D01*
X005909Y020435D02*
X005368Y020435D01*
X005369Y020436D02*
X005909Y020436D01*
X005908Y020437D02*
X005369Y020437D01*
X005370Y020438D02*
X005907Y020438D01*
X005906Y020439D02*
X005370Y020439D01*
X005371Y020440D02*
X005906Y020440D01*
X005905Y020441D02*
X005372Y020441D01*
X005372Y020442D02*
X005905Y020442D01*
X005904Y020443D02*
X005373Y020443D01*
X005374Y020444D02*
X005903Y020444D01*
X005903Y020445D02*
X005375Y020445D01*
X005375Y020446D02*
X005902Y020446D01*
X005901Y020447D02*
X005376Y020447D01*
X005377Y020448D02*
X005900Y020448D01*
X005899Y020449D02*
X005378Y020449D01*
X005379Y020449D02*
X005898Y020449D01*
X005896Y020450D02*
X005381Y020450D01*
X005382Y020451D02*
X005895Y020451D01*
X005894Y020452D02*
X005383Y020452D01*
X005385Y020453D02*
X005893Y020453D01*
X005892Y020454D02*
X005386Y020454D01*
X005388Y020455D02*
X005890Y020455D01*
X005889Y020456D02*
X005389Y020456D01*
X005391Y020457D02*
X005887Y020457D01*
X005886Y020458D02*
X005394Y020458D01*
X005396Y020459D02*
X005884Y020459D01*
X005883Y020460D02*
X005398Y020460D01*
X005400Y020461D02*
X005881Y020461D01*
X005879Y020462D02*
X005403Y020462D01*
X005406Y020463D02*
X005875Y020463D01*
X005872Y020464D02*
X005410Y020464D01*
X005414Y020465D02*
X005868Y020465D01*
X005864Y020466D02*
X005420Y020466D01*
X005429Y020466D02*
X005859Y020466D01*
X005855Y020467D02*
X005437Y020467D01*
X005451Y020468D02*
X005850Y020468D01*
X005764Y020469D02*
X005703Y020469D01*
X005624Y020469D02*
X005515Y020469D01*
X005503Y020469D02*
X005469Y020469D01*
X005558Y019760D02*
X006780Y019760D01*
X006779Y019759D02*
X005559Y019759D01*
X005559Y019758D02*
X006777Y019758D01*
X006776Y019757D02*
X005559Y019757D01*
X005560Y019756D02*
X006775Y019756D01*
X006773Y019755D02*
X005560Y019755D01*
X005560Y019754D02*
X006772Y019754D01*
X006770Y019753D02*
X005560Y019753D01*
X005561Y019752D02*
X006769Y019752D01*
X006768Y019751D02*
X005561Y019751D01*
X005561Y019750D02*
X006766Y019750D01*
X006765Y019749D02*
X005562Y019749D01*
X005562Y019748D02*
X006764Y019748D01*
X006762Y019747D02*
X005562Y019747D01*
X005563Y019746D02*
X006761Y019746D01*
X006759Y019746D02*
X005563Y019746D01*
X005563Y019745D02*
X006758Y019745D01*
X006757Y019744D02*
X005564Y019744D01*
X005564Y019743D02*
X006755Y019743D01*
X006754Y019742D02*
X005564Y019742D01*
X005565Y019741D02*
X006753Y019741D01*
X006751Y019740D02*
X005565Y019740D01*
X005565Y019739D02*
X006750Y019739D01*
X006748Y019738D02*
X005566Y019738D01*
X005566Y019737D02*
X006747Y019737D01*
X006746Y019736D02*
X005566Y019736D01*
X005566Y019735D02*
X006744Y019735D01*
X006743Y019734D02*
X005567Y019734D01*
X005567Y019733D02*
X006742Y019733D01*
X006740Y019732D02*
X005567Y019732D01*
X005568Y019731D02*
X006739Y019731D01*
X006737Y019730D02*
X005568Y019730D01*
X005568Y019729D02*
X006736Y019729D01*
X006735Y019729D02*
X005569Y019729D01*
X005569Y019728D02*
X006733Y019728D01*
X006732Y019727D02*
X005569Y019727D01*
X005570Y019726D02*
X006731Y019726D01*
X006729Y019725D02*
X005570Y019725D01*
X005570Y019724D02*
X006728Y019724D01*
X006726Y019723D02*
X005571Y019723D01*
X005571Y019722D02*
X006725Y019722D01*
X006724Y019721D02*
X005571Y019721D01*
X005571Y019720D02*
X006722Y019720D01*
X006721Y019719D02*
X005572Y019719D01*
X005572Y019718D02*
X006719Y019718D01*
X006718Y019717D02*
X005572Y019717D01*
X005573Y019716D02*
X006717Y019716D01*
X006715Y019715D02*
X005573Y019715D01*
X005573Y019714D02*
X006714Y019714D01*
X006713Y019713D02*
X005574Y019713D01*
X005574Y019712D02*
X006711Y019712D01*
X006710Y019711D02*
X005574Y019711D01*
X005575Y019711D02*
X006708Y019711D01*
X006707Y019710D02*
X005575Y019710D01*
X005575Y019709D02*
X006706Y019709D01*
X006704Y019708D02*
X005576Y019708D01*
X005576Y019707D02*
X006703Y019707D01*
X006702Y019706D02*
X005576Y019706D01*
X005577Y019705D02*
X006700Y019705D01*
X006699Y019704D02*
X005577Y019704D01*
X005577Y019703D02*
X006697Y019703D01*
X006696Y019702D02*
X005577Y019702D01*
X005578Y019701D02*
X006695Y019701D01*
X006693Y019700D02*
X005578Y019700D01*
X005578Y019699D02*
X006692Y019699D01*
X006690Y019698D02*
X005579Y019698D01*
X005579Y019697D02*
X006689Y019697D01*
X006688Y019696D02*
X005579Y019696D01*
X005580Y019695D02*
X006686Y019695D01*
X006685Y019694D02*
X005580Y019694D01*
X006684Y019694D01*
X006682Y019693D02*
X005581Y019693D01*
X005581Y019692D02*
X006681Y019692D01*
X006679Y019691D02*
X005581Y019691D01*
X005582Y019690D02*
X006678Y019690D01*
X006677Y019689D02*
X005582Y019689D01*
X005582Y019688D02*
X006675Y019688D01*
X006674Y019687D02*
X005583Y019687D01*
X005583Y019686D02*
X006672Y019686D01*
X006671Y019685D02*
X005583Y019685D01*
X005583Y019684D02*
X006670Y019684D01*
X006668Y019683D02*
X005584Y019683D01*
X005584Y019682D02*
X006667Y019682D01*
X006666Y019681D02*
X005584Y019681D01*
X005585Y019680D02*
X006664Y019680D01*
X006663Y019679D02*
X005585Y019679D01*
X005585Y019678D02*
X006661Y019678D01*
X006660Y019677D02*
X005586Y019677D01*
X006659Y019677D01*
X006657Y019676D02*
X005586Y019676D01*
X005587Y019675D02*
X006656Y019675D01*
X006655Y019674D02*
X005587Y019674D01*
X005587Y019673D02*
X006653Y019673D01*
X006652Y019672D02*
X005588Y019672D01*
X005588Y019671D02*
X006650Y019671D01*
X006649Y019670D02*
X005588Y019670D01*
X005589Y019669D02*
X006648Y019669D01*
X006646Y019668D02*
X005589Y019668D01*
X005589Y019667D02*
X006645Y019667D01*
X006643Y019666D02*
X005589Y019666D01*
X005590Y019665D02*
X006642Y019665D01*
X006641Y019664D02*
X005590Y019664D01*
X005590Y019663D02*
X006639Y019663D01*
X006638Y019662D02*
X005591Y019662D01*
X005591Y019661D02*
X006637Y019661D01*
X006635Y019660D02*
X005591Y019660D01*
X005592Y019660D02*
X006634Y019660D01*
X006632Y019659D02*
X005592Y019659D01*
X005592Y019658D02*
X006631Y019658D01*
X006630Y019657D02*
X005593Y019657D01*
X005593Y019656D02*
X006628Y019656D01*
X006627Y019655D02*
X005593Y019655D01*
X005594Y019654D02*
X006626Y019654D01*
X006624Y019653D02*
X005594Y019653D01*
X005594Y019652D02*
X006623Y019652D01*
X006621Y019651D02*
X005594Y019651D01*
X005595Y019650D02*
X006620Y019650D01*
X006619Y019649D02*
X005595Y019649D01*
X005595Y019648D02*
X006617Y019648D01*
X006616Y019647D02*
X005596Y019647D01*
X005596Y019646D02*
X006614Y019646D01*
X006613Y019645D02*
X005596Y019645D01*
X005597Y019644D02*
X006612Y019644D01*
X006610Y019643D02*
X005597Y019643D01*
X006609Y019643D01*
X006608Y019642D02*
X005598Y019642D01*
X005598Y019641D02*
X006606Y019641D01*
X006605Y019640D02*
X005598Y019640D01*
X005599Y019639D02*
X006603Y019639D01*
X006602Y019638D02*
X005599Y019638D01*
X005599Y019637D02*
X006601Y019637D01*
X006599Y019636D02*
X005600Y019636D01*
X005600Y019635D02*
X006598Y019635D01*
X006596Y019634D02*
X005600Y019634D01*
X005600Y019633D02*
X006595Y019633D01*
X006594Y019632D02*
X005601Y019632D01*
X005601Y019631D02*
X006592Y019631D01*
X006591Y019630D02*
X005601Y019630D01*
X005602Y019629D02*
X006590Y019629D01*
X006588Y019628D02*
X005602Y019628D01*
X005602Y019627D02*
X006587Y019627D01*
X006585Y019626D02*
X005603Y019626D01*
X006584Y019626D01*
X006583Y019625D02*
X005603Y019625D01*
X005604Y019624D02*
X006581Y019624D01*
X006580Y019623D02*
X005604Y019623D01*
X005604Y019622D02*
X006579Y019622D01*
X006577Y019621D02*
X005605Y019621D01*
X005605Y019620D02*
X006576Y019620D01*
X006574Y019619D02*
X005605Y019619D01*
X005606Y019618D02*
X006573Y019618D01*
X006572Y019617D02*
X005606Y019617D01*
X005606Y019616D02*
X006570Y019616D01*
X006569Y019615D02*
X005606Y019615D01*
X005607Y019614D02*
X006567Y019614D01*
X006566Y019613D02*
X005607Y019613D01*
X005607Y019612D02*
X006565Y019612D01*
X006563Y019611D02*
X005608Y019611D01*
X005608Y019610D02*
X006562Y019610D01*
X006561Y019609D02*
X005608Y019609D01*
X005609Y019609D02*
X006559Y019609D01*
X006558Y019608D02*
X005609Y019608D01*
X005609Y019607D02*
X006556Y019607D01*
X006555Y019606D02*
X005610Y019606D01*
X005610Y019605D02*
X006554Y019605D01*
X006552Y019604D02*
X005610Y019604D01*
X005611Y019603D02*
X006551Y019603D01*
X006549Y019602D02*
X005611Y019602D01*
X005611Y019601D02*
X006548Y019601D01*
X006547Y019600D02*
X005611Y019600D01*
X005612Y019599D02*
X006545Y019599D01*
X006544Y019598D02*
X005612Y019598D01*
X005612Y019597D02*
X006543Y019597D01*
X006541Y019596D02*
X005613Y019596D01*
X005613Y019595D02*
X006540Y019595D01*
X006538Y019594D02*
X005613Y019594D01*
X005614Y019593D02*
X006537Y019593D01*
X006536Y019592D02*
X005614Y019592D01*
X005614Y019591D02*
X006534Y019591D01*
X006533Y019591D02*
X005615Y019591D01*
X005615Y019590D02*
X006532Y019590D01*
X006530Y019589D02*
X005615Y019589D01*
X005615Y019588D02*
X006529Y019588D01*
X006527Y019587D02*
X005616Y019587D01*
X005616Y019586D02*
X006526Y019586D01*
X006525Y019585D02*
X005616Y019585D01*
X005617Y019584D02*
X006523Y019584D01*
X006522Y019583D02*
X005617Y019583D01*
X005617Y019582D02*
X006520Y019582D01*
X006519Y019581D02*
X005618Y019581D01*
X005618Y019580D02*
X006518Y019580D01*
X006516Y019579D02*
X005618Y019579D01*
X005619Y019578D02*
X006515Y019578D01*
X006514Y019577D02*
X005619Y019577D01*
X005619Y019576D02*
X006512Y019576D01*
X006511Y019575D02*
X005619Y019575D01*
X005620Y019574D02*
X006509Y019574D01*
X006508Y019574D02*
X005620Y019574D01*
X005620Y019573D02*
X006507Y019573D01*
X006505Y019572D02*
X005621Y019572D01*
X005621Y019571D02*
X006504Y019571D01*
X006503Y019570D02*
X005621Y019570D01*
X005622Y019569D02*
X006501Y019569D01*
X006500Y019568D02*
X005622Y019568D01*
X005622Y019567D02*
X006498Y019567D01*
X006497Y019566D02*
X005623Y019566D01*
X005623Y019565D02*
X006496Y019565D01*
X006494Y019564D02*
X005623Y019564D01*
X005623Y019563D02*
X006493Y019563D01*
X006491Y019562D02*
X005624Y019562D01*
X005624Y019561D02*
X006490Y019561D01*
X006489Y019560D02*
X005624Y019560D01*
X005625Y019559D02*
X006487Y019559D01*
X006486Y019558D02*
X005625Y019558D01*
X005625Y019557D02*
X006485Y019557D01*
X006483Y019557D02*
X005626Y019557D01*
X005626Y019556D02*
X006482Y019556D01*
X006480Y019555D02*
X005626Y019555D01*
X005627Y019554D02*
X006479Y019554D01*
X006478Y019553D02*
X005627Y019553D01*
X005627Y019552D02*
X006476Y019552D01*
X006475Y019551D02*
X005627Y019551D01*
X005628Y019550D02*
X006474Y019550D01*
X006472Y019549D02*
X005628Y019549D01*
X005628Y019548D02*
X006471Y019548D01*
X006469Y019547D02*
X005629Y019547D01*
X005629Y019546D02*
X006468Y019546D01*
X006467Y019545D02*
X005629Y019545D01*
X005630Y019544D02*
X006465Y019544D01*
X006464Y019543D02*
X005630Y019543D01*
X005630Y019542D02*
X006462Y019542D01*
X006461Y019541D02*
X005631Y019541D01*
X005631Y019540D02*
X006460Y019540D01*
X006458Y019540D02*
X005631Y019540D01*
X005631Y019539D02*
X006457Y019539D01*
X006456Y019538D02*
X005632Y019538D01*
X005632Y019537D02*
X006454Y019537D01*
X006453Y019536D02*
X005632Y019536D01*
X005633Y019535D02*
X006451Y019535D01*
X006450Y019534D02*
X005633Y019534D01*
X005633Y019533D02*
X006449Y019533D01*
X006447Y019532D02*
X005634Y019532D01*
X005634Y019531D02*
X006446Y019531D01*
X006444Y019530D02*
X005634Y019530D01*
X005635Y019529D02*
X006443Y019529D01*
X006442Y019528D02*
X005635Y019528D01*
X005635Y019527D02*
X006440Y019527D01*
X006439Y019526D02*
X005635Y019526D01*
X005636Y019525D02*
X006438Y019525D01*
X006436Y019524D02*
X005636Y019524D01*
X005636Y019523D02*
X006435Y019523D01*
X006433Y019523D02*
X005637Y019523D01*
X005637Y019522D02*
X006432Y019522D01*
X006431Y019521D02*
X005637Y019521D01*
X005638Y019520D02*
X006429Y019520D01*
X006428Y019519D02*
X005638Y019519D01*
X005638Y019518D02*
X006427Y019518D01*
X006425Y019517D02*
X005639Y019517D01*
X005639Y019516D02*
X006424Y019516D01*
X006422Y019515D02*
X005639Y019515D01*
X005639Y019514D02*
X006421Y019514D01*
X006420Y019513D02*
X005640Y019513D01*
X005640Y019512D02*
X006418Y019512D01*
X006417Y019511D02*
X005640Y019511D01*
X005641Y019510D02*
X006415Y019510D01*
X006414Y019509D02*
X005641Y019509D01*
X005641Y019508D02*
X006413Y019508D01*
X006411Y019507D02*
X005642Y019507D01*
X005642Y019506D02*
X006410Y019506D01*
X006409Y019506D02*
X005642Y019506D01*
X005643Y019505D02*
X006407Y019505D01*
X006406Y019504D02*
X005643Y019504D01*
X005643Y019503D02*
X006404Y019503D01*
X006403Y019502D02*
X005643Y019502D01*
X005644Y019501D02*
X006402Y019501D01*
X006400Y019500D02*
X005644Y019500D01*
X005644Y019499D02*
X006399Y019499D01*
X006398Y019498D02*
X005645Y019498D01*
X005645Y019497D02*
X006396Y019497D01*
X006395Y019496D02*
X005645Y019496D01*
X005646Y019495D02*
X006393Y019495D01*
X006392Y019494D02*
X005646Y019494D01*
X005646Y019493D02*
X006391Y019493D01*
X006389Y019492D02*
X005646Y019492D01*
X005647Y019491D02*
X006388Y019491D01*
X006386Y019490D02*
X005647Y019490D01*
X005647Y019489D02*
X006385Y019489D01*
X006384Y019489D02*
X005648Y019489D01*
X005648Y019488D02*
X006382Y019488D01*
X006381Y019487D02*
X005648Y019487D01*
X005649Y019486D02*
X006380Y019486D01*
X006378Y019485D02*
X005649Y019485D01*
X005649Y019484D02*
X006377Y019484D01*
X006375Y019483D02*
X005650Y019483D01*
X005650Y019482D02*
X006374Y019482D01*
X006373Y019481D02*
X005650Y019481D01*
X005651Y019480D02*
X006371Y019480D01*
X006370Y019479D02*
X005651Y019479D01*
X005651Y019478D02*
X006369Y019478D01*
X006367Y019477D02*
X005651Y019477D01*
X005652Y019476D02*
X006366Y019476D01*
X006364Y019475D02*
X005652Y019475D01*
X005652Y019474D02*
X006363Y019474D01*
X006362Y019473D02*
X005653Y019473D01*
X005653Y019472D02*
X006360Y019472D01*
X006359Y019471D02*
X005653Y019471D01*
X005654Y019471D02*
X006357Y019471D01*
X006356Y019470D02*
X005654Y019470D01*
X005654Y019469D02*
X006355Y019469D01*
X006353Y019468D02*
X005654Y019468D01*
X005655Y019467D02*
X006352Y019467D01*
X006351Y019466D02*
X005655Y019466D01*
X005655Y019465D02*
X006349Y019465D01*
X006348Y019464D02*
X005656Y019464D01*
X005656Y019463D02*
X006347Y019463D01*
X006345Y019462D02*
X005656Y019462D01*
X005657Y019461D02*
X006344Y019461D01*
X006342Y019460D02*
X005657Y019460D01*
X005657Y019459D02*
X006341Y019459D01*
X006340Y019458D02*
X005658Y019458D01*
X005658Y019457D02*
X006338Y019457D01*
X006337Y019456D02*
X005658Y019456D01*
X005658Y019455D02*
X006336Y019455D01*
X006334Y019454D02*
X005659Y019454D01*
X006333Y019454D01*
X006331Y019453D02*
X005659Y019453D01*
X005660Y019452D02*
X006330Y019452D01*
X006329Y019451D02*
X005660Y019451D01*
X005660Y019450D02*
X006327Y019450D01*
X006326Y019449D02*
X005661Y019449D01*
X005661Y019448D02*
X006325Y019448D01*
X006323Y019447D02*
X005661Y019447D01*
X005662Y019446D02*
X006322Y019446D01*
X006320Y019445D02*
X005662Y019445D01*
X005662Y019444D02*
X006319Y019444D01*
X006318Y019443D02*
X005662Y019443D01*
X005663Y019442D02*
X006316Y019442D01*
X006315Y019441D02*
X005663Y019441D01*
X005663Y019440D02*
X006314Y019440D01*
X006312Y019439D02*
X005664Y019439D01*
X005664Y019438D02*
X006311Y019438D01*
X006309Y019437D02*
X005664Y019437D01*
X005665Y019437D02*
X006308Y019437D01*
X006307Y019436D02*
X005665Y019436D01*
X005665Y019435D02*
X006305Y019435D01*
X006304Y019434D02*
X005666Y019434D01*
X005666Y019433D02*
X006303Y019433D01*
X006301Y019432D02*
X005666Y019432D01*
X005666Y019431D02*
X006300Y019431D01*
X006299Y019430D02*
X005667Y019430D01*
X005667Y019429D02*
X006297Y019429D01*
X006296Y019428D02*
X005667Y019428D01*
X005668Y019427D02*
X006294Y019427D01*
X006293Y019426D02*
X005668Y019426D01*
X005668Y019425D02*
X006292Y019425D01*
X006290Y019424D02*
X005669Y019424D01*
X005669Y019423D02*
X006289Y019423D01*
X006288Y019422D02*
X005669Y019422D01*
X005670Y019421D02*
X006286Y019421D01*
X006285Y019420D02*
X005670Y019420D01*
X006283Y019420D01*
X006282Y019419D02*
X005670Y019419D01*
X005671Y019418D02*
X006281Y019418D01*
X006279Y019417D02*
X005671Y019417D01*
X005671Y019416D02*
X006278Y019416D01*
X006277Y019415D02*
X005672Y019415D01*
X005672Y019414D02*
X006275Y019414D01*
X006274Y019413D02*
X005672Y019413D01*
X005673Y019412D02*
X006272Y019412D01*
X006271Y019411D02*
X005673Y019411D01*
X005673Y019410D02*
X006270Y019410D01*
X006268Y019409D02*
X005674Y019409D01*
X005674Y019408D02*
X006267Y019408D01*
X006266Y019407D02*
X005674Y019407D01*
X005674Y019406D02*
X006264Y019406D01*
X006263Y019405D02*
X005675Y019405D01*
X005675Y019404D02*
X006261Y019404D01*
X006260Y019403D02*
X005675Y019403D01*
X005676Y019403D02*
X006259Y019403D01*
X006257Y019402D02*
X005676Y019402D01*
X005676Y019401D02*
X006256Y019401D01*
X006255Y019400D02*
X005677Y019400D01*
X005677Y019399D02*
X006253Y019399D01*
X006252Y019398D02*
X005677Y019398D01*
X005678Y019397D02*
X006251Y019397D01*
X006249Y019396D02*
X005678Y019396D01*
X005678Y019395D02*
X006248Y019395D01*
X006246Y019394D02*
X005678Y019394D01*
X005679Y019393D02*
X006245Y019393D01*
X006244Y019392D02*
X005679Y019392D01*
X005679Y019391D02*
X006242Y019391D01*
X006241Y019390D02*
X005680Y019390D01*
X005680Y019389D02*
X006240Y019389D01*
X006238Y019388D02*
X005680Y019388D01*
X005681Y019387D02*
X006237Y019387D01*
X006236Y019386D02*
X005681Y019386D01*
X006234Y019386D01*
X006233Y019385D02*
X005682Y019385D01*
X005682Y019384D02*
X006232Y019384D01*
X006230Y019383D02*
X005682Y019383D01*
X005682Y019382D02*
X006229Y019382D01*
X006228Y019381D02*
X005683Y019381D01*
X005683Y019380D02*
X006226Y019380D01*
X006225Y019379D02*
X005683Y019379D01*
X005684Y019378D02*
X006224Y019378D01*
X006222Y019377D02*
X005684Y019377D01*
X005684Y019376D02*
X006221Y019376D01*
X006220Y019375D02*
X005685Y019375D01*
X005685Y019374D02*
X006218Y019374D01*
X006217Y019373D02*
X005685Y019373D01*
X005686Y019372D02*
X006216Y019372D01*
X006214Y019371D02*
X005686Y019371D01*
X005686Y019370D02*
X006213Y019370D01*
X006212Y019369D02*
X005686Y019369D01*
X005687Y019369D02*
X006211Y019369D01*
X006209Y019368D02*
X005687Y019368D01*
X005687Y019367D02*
X006208Y019367D01*
X006207Y019366D02*
X005688Y019366D01*
X005688Y019365D02*
X006205Y019365D01*
X006204Y019364D02*
X005688Y019364D01*
X005689Y019363D02*
X006202Y019363D01*
X006201Y019362D02*
X005689Y019362D01*
X005689Y019361D02*
X006199Y019361D01*
X006198Y019360D02*
X005689Y019360D01*
X005690Y019359D02*
X006197Y019359D01*
X006195Y019358D02*
X005690Y019358D01*
X005690Y019357D02*
X006194Y019357D01*
X006192Y019356D02*
X005691Y019356D01*
X005691Y019355D02*
X006191Y019355D01*
X006190Y019354D02*
X005691Y019354D01*
X005692Y019353D02*
X006188Y019353D01*
X006187Y019352D02*
X005692Y019352D01*
X005692Y019351D02*
X006185Y019351D01*
X006184Y019351D02*
X005693Y019351D01*
X005693Y019350D02*
X006183Y019350D01*
X006181Y019349D02*
X005693Y019349D01*
X005694Y019348D02*
X006180Y019348D01*
X006178Y019347D02*
X005694Y019347D01*
X005695Y019346D02*
X006177Y019346D01*
X006175Y019345D02*
X005695Y019345D01*
X005695Y019344D02*
X006174Y019344D01*
X006172Y019343D02*
X005696Y019343D01*
X005696Y019342D02*
X006171Y019342D01*
X006169Y019341D02*
X005696Y019341D01*
X005697Y019340D02*
X006168Y019340D01*
X006166Y019339D02*
X005697Y019339D01*
X005698Y019338D02*
X006165Y019338D01*
X006163Y019337D02*
X005698Y019337D01*
X005698Y019336D02*
X006162Y019336D01*
X006160Y019335D02*
X005699Y019335D01*
X005699Y019334D02*
X006159Y019334D01*
X006157Y019334D02*
X005700Y019334D01*
X005700Y019333D02*
X006156Y019333D01*
X006154Y019332D02*
X005701Y019332D01*
X005701Y019331D02*
X006153Y019331D01*
X006151Y019330D02*
X005702Y019330D01*
X005702Y019329D02*
X006150Y019329D01*
X006148Y019328D02*
X005703Y019328D01*
X005704Y019327D02*
X006147Y019327D01*
X006145Y019326D02*
X005704Y019326D01*
X005705Y019325D02*
X006143Y019325D01*
X006141Y019324D02*
X005706Y019324D01*
X005706Y019323D02*
X006140Y019323D01*
X006138Y019322D02*
X005707Y019322D01*
X005708Y019321D02*
X006136Y019321D01*
X006134Y019320D02*
X005708Y019320D01*
X005709Y019319D02*
X006132Y019319D01*
X006130Y019318D02*
X005709Y019318D01*
X005710Y019317D02*
X006128Y019317D01*
X006126Y019317D02*
X005710Y019317D01*
X005711Y019316D02*
X006125Y019316D01*
X006123Y019315D02*
X005712Y019315D01*
X005713Y019314D02*
X006121Y019314D01*
X006119Y019313D02*
X005715Y019313D01*
X005716Y019312D02*
X006117Y019312D01*
X006115Y019311D02*
X005717Y019311D01*
X005718Y019310D02*
X006113Y019310D01*
X006110Y019309D02*
X005719Y019309D01*
X005720Y019308D02*
X006108Y019308D01*
X006106Y019307D02*
X005722Y019307D01*
X005725Y019306D02*
X006104Y019306D01*
X006101Y019305D02*
X005727Y019305D01*
X005729Y019304D02*
X006097Y019304D01*
X006093Y019303D02*
X005731Y019303D01*
X005734Y019302D02*
X006089Y019302D01*
X006085Y019301D02*
X005736Y019301D01*
X005739Y019300D02*
X006082Y019300D01*
X006078Y019300D02*
X005743Y019300D01*
X005746Y019299D02*
X006075Y019299D01*
X006071Y019298D02*
X005748Y019298D01*
X005760Y019297D02*
X006059Y019297D01*
X007009Y020310D02*
X007584Y020310D01*
X007585Y020311D02*
X007010Y020311D01*
X007012Y020311D02*
X007586Y020311D01*
X007588Y020312D02*
X007013Y020312D01*
X007014Y020313D02*
X007589Y020313D01*
X007591Y020314D02*
X007016Y020314D01*
X007017Y020315D02*
X007592Y020315D01*
X007593Y020316D02*
X007018Y020316D01*
X007020Y020317D02*
X007595Y020317D01*
X007596Y020318D02*
X007021Y020318D01*
X007023Y020319D02*
X007598Y020319D01*
X007599Y020320D02*
X007024Y020320D01*
X007025Y020321D02*
X007600Y020321D01*
X007601Y020322D02*
X007027Y020322D01*
X007028Y020323D02*
X007603Y020323D01*
X007604Y020324D02*
X007029Y020324D01*
X007031Y020325D02*
X007605Y020325D01*
X007606Y020326D02*
X007032Y020326D01*
X007034Y020327D02*
X007608Y020327D01*
X007609Y020328D02*
X007035Y020328D01*
X007036Y020329D02*
X007610Y020329D01*
X007612Y020329D02*
X007038Y020329D01*
X007039Y020330D02*
X007613Y020330D01*
X007614Y020331D02*
X007040Y020331D01*
X007042Y020332D02*
X007616Y020332D01*
X007617Y020333D02*
X007043Y020333D01*
X007044Y020334D02*
X007618Y020334D01*
X007619Y020335D02*
X007046Y020335D01*
X007047Y020336D02*
X007620Y020336D01*
X007622Y020337D02*
X007048Y020337D01*
X007050Y020338D02*
X007623Y020338D01*
X007624Y020339D02*
X007051Y020339D01*
X007052Y020340D02*
X007625Y020340D01*
X007626Y020341D02*
X007054Y020341D01*
X007055Y020342D02*
X007627Y020342D01*
X007628Y020343D02*
X007056Y020343D01*
X007058Y020344D02*
X007630Y020344D01*
X007631Y020345D02*
X007059Y020345D01*
X007061Y020346D02*
X007632Y020346D01*
X007633Y020346D02*
X007062Y020346D01*
X007063Y020347D02*
X007634Y020347D01*
X007635Y020348D02*
X007065Y020348D01*
X007066Y020349D02*
X007636Y020349D01*
X007637Y020350D02*
X007067Y020350D01*
X007069Y020351D02*
X007638Y020351D01*
X007639Y020352D02*
X007070Y020352D01*
X007071Y020353D02*
X007640Y020353D01*
X007641Y020354D02*
X007073Y020354D01*
X007074Y020355D02*
X007642Y020355D01*
X007644Y020356D02*
X007075Y020356D01*
X007077Y020357D02*
X007645Y020357D01*
X007646Y020358D02*
X007078Y020358D01*
X007079Y020359D02*
X007647Y020359D01*
X007648Y020360D02*
X007081Y020360D01*
X007082Y020361D02*
X007649Y020361D01*
X007650Y020362D02*
X007083Y020362D01*
X007085Y020363D02*
X007651Y020363D01*
X007652Y020363D02*
X007086Y020363D01*
X007087Y020364D02*
X007653Y020364D01*
X007654Y020365D02*
X007089Y020365D01*
X007090Y020366D02*
X007655Y020366D01*
X007655Y020367D02*
X007091Y020367D01*
X007093Y020368D02*
X007656Y020368D01*
X007657Y020369D02*
X007094Y020369D01*
X007095Y020370D02*
X007658Y020370D01*
X007659Y020371D02*
X007097Y020371D01*
X007098Y020372D02*
X007659Y020372D01*
X007660Y020373D02*
X007099Y020373D01*
X007101Y020374D02*
X007661Y020374D01*
X007662Y020375D02*
X007102Y020375D01*
X007103Y020376D02*
X007662Y020376D01*
X007663Y020377D02*
X007105Y020377D01*
X007106Y020378D02*
X007664Y020378D01*
X007665Y020379D02*
X007108Y020379D01*
X007109Y020380D02*
X007665Y020380D01*
X007666Y020380D02*
X007110Y020380D01*
X007112Y020381D02*
X007666Y020381D01*
X007667Y020382D02*
X007113Y020382D01*
X007114Y020383D02*
X007668Y020383D01*
X007668Y020384D02*
X007116Y020384D01*
X007117Y020385D02*
X007669Y020385D01*
X007669Y020386D02*
X007118Y020386D01*
X007120Y020387D02*
X007670Y020387D01*
X007671Y020388D02*
X007121Y020388D01*
X007123Y020389D02*
X007671Y020389D01*
X007671Y020390D02*
X007124Y020390D01*
X007125Y020391D02*
X007672Y020391D01*
X007672Y020392D02*
X007127Y020392D01*
X007128Y020393D02*
X007673Y020393D01*
X007673Y020394D02*
X007129Y020394D01*
X007131Y020395D02*
X007674Y020395D01*
X007674Y020396D02*
X007132Y020396D01*
X007134Y020397D02*
X007674Y020397D01*
X007675Y020397D02*
X007135Y020397D01*
X007136Y020398D02*
X007675Y020398D01*
X007676Y020399D02*
X007138Y020399D01*
X007139Y020400D02*
X007676Y020400D01*
X007676Y020401D02*
X007141Y020401D01*
X007142Y020402D02*
X007677Y020402D01*
X007677Y020403D02*
X007143Y020403D01*
X007145Y020404D02*
X007678Y020404D01*
X007678Y020405D02*
X007146Y020405D01*
X007147Y020406D02*
X007678Y020406D01*
X007679Y020407D02*
X007149Y020407D01*
X007150Y020408D02*
X007679Y020408D01*
X007679Y020409D02*
X007152Y020409D01*
X007153Y020410D02*
X007680Y020410D01*
X007680Y020411D02*
X007155Y020411D01*
X007156Y020412D02*
X007680Y020412D01*
X007680Y020413D02*
X007158Y020413D01*
X007159Y020414D02*
X007680Y020414D01*
X007160Y020414D01*
X007162Y020415D02*
X007681Y020415D01*
X007681Y020416D02*
X007163Y020416D01*
X007165Y020417D02*
X007681Y020417D01*
X007681Y020418D02*
X007166Y020418D01*
X007168Y020419D02*
X007681Y020419D01*
X007681Y020420D02*
X007169Y020420D01*
X007171Y020421D02*
X007681Y020421D01*
X007682Y020422D02*
X007172Y020422D01*
X007174Y020423D02*
X007682Y020423D01*
X007682Y020424D02*
X007175Y020424D01*
X007177Y020425D02*
X007682Y020425D01*
X007682Y020426D02*
X007178Y020426D01*
X007180Y020427D02*
X007682Y020427D01*
X007682Y020428D02*
X007181Y020428D01*
X007183Y020429D02*
X007682Y020429D01*
X007682Y020430D02*
X007184Y020430D01*
X007186Y020431D02*
X007682Y020431D01*
X007681Y020431D02*
X007188Y020431D01*
X007189Y020432D02*
X007681Y020432D01*
X007681Y020433D02*
X007191Y020433D01*
X007193Y020434D02*
X007681Y020434D01*
X007681Y020435D02*
X007194Y020435D01*
X007196Y020436D02*
X007681Y020436D01*
X007681Y020437D02*
X007198Y020437D01*
X007199Y020438D02*
X007681Y020438D01*
X007680Y020439D02*
X007201Y020439D01*
X007203Y020440D02*
X007680Y020440D01*
X007680Y020441D02*
X007205Y020441D01*
X007206Y020442D02*
X007680Y020442D01*
X007679Y020443D02*
X007208Y020443D01*
X007210Y020444D02*
X007679Y020444D01*
X007678Y020445D02*
X007212Y020445D01*
X007214Y020446D02*
X007678Y020446D01*
X007678Y020447D02*
X007215Y020447D01*
X007217Y020448D02*
X007677Y020448D01*
X007677Y020449D02*
X007219Y020449D01*
X007221Y020449D02*
X007676Y020449D01*
X007675Y020450D02*
X007223Y020450D01*
X007225Y020451D02*
X007675Y020451D01*
X007674Y020452D02*
X007228Y020452D01*
X007230Y020453D02*
X007673Y020453D01*
X007671Y020454D02*
X007233Y020454D01*
X007235Y020455D02*
X007670Y020455D01*
X007669Y020456D02*
X007238Y020456D01*
X007240Y020457D02*
X007668Y020457D01*
X007667Y020458D02*
X007243Y020458D01*
X007247Y020459D02*
X007666Y020459D01*
X007664Y020460D02*
X007251Y020460D01*
X007254Y020461D02*
X007663Y020461D01*
X007661Y020462D02*
X007257Y020462D01*
X007260Y020463D02*
X007659Y020463D01*
X007656Y020464D02*
X007264Y020464D01*
X007270Y020465D02*
X007654Y020465D01*
X007652Y020466D02*
X007277Y020466D01*
X007283Y020466D02*
X007650Y020466D01*
X007647Y020467D02*
X007294Y020467D01*
X007314Y020468D02*
X007641Y020468D01*
X007607Y020469D02*
X007552Y020469D01*
X007363Y020469D02*
X007326Y020469D01*
X010200Y019060D02*
X010591Y019060D01*
X011010Y019060D02*
X011026Y019060D01*
X011075Y019060D02*
X011090Y019060D01*
M02*
